G04 #@! TF.GenerationSoftware,KiCad,Pcbnew,5.0.2-bee76a0~70~ubuntu18.04.1*
G04 #@! TF.CreationDate,2019-05-01T22:14:47+02:00*
G04 #@! TF.ProjectId,EasyPCB_10_nrf24l01p,45617379-5043-4425-9f31-305f6e726632,rev?*
G04 #@! TF.SameCoordinates,Original*
G04 #@! TF.FileFunction,Legend,Bot*
G04 #@! TF.FilePolarity,Positive*
%FSLAX46Y46*%
G04 Gerber Fmt 4.6, Leading zero omitted, Abs format (unit mm)*
G04 Created by KiCad (PCBNEW 5.0.2-bee76a0~70~ubuntu18.04.1) date Wed 01 May 2019 10:14:47 PM CEST*
%MOMM*%
%LPD*%
G01*
G04 APERTURE LIST*
%ADD10C,0.200000*%
%ADD11C,0.120000*%
%ADD12C,0.150000*%
G04 APERTURE END LIST*
D10*
X136392807Y-73781977D02*
X136126140Y-73781977D01*
X136011855Y-74201024D02*
X136392807Y-74201024D01*
X136392807Y-73401024D01*
X136011855Y-73401024D01*
X135745188Y-74201024D02*
X135326140Y-73667691D01*
X135745188Y-73667691D02*
X135326140Y-74201024D01*
X135135664Y-73667691D02*
X134830902Y-73667691D01*
X135021379Y-73401024D02*
X135021379Y-74086739D01*
X134983283Y-74162929D01*
X134907093Y-74201024D01*
X134830902Y-74201024D01*
X134564236Y-74124834D02*
X134526140Y-74162929D01*
X134564236Y-74201024D01*
X134602331Y-74162929D01*
X134564236Y-74124834D01*
X134564236Y-74201024D01*
X133307093Y-73781977D02*
X133573760Y-73781977D01*
X133573760Y-74201024D02*
X133573760Y-73401024D01*
X133192807Y-73401024D01*
X132773760Y-74201024D02*
X132849950Y-74162929D01*
X132888045Y-74086739D01*
X132888045Y-73401024D01*
X132126140Y-74201024D02*
X132126140Y-73781977D01*
X132164236Y-73705786D01*
X132240426Y-73667691D01*
X132392807Y-73667691D01*
X132468998Y-73705786D01*
X132126140Y-74162929D02*
X132202331Y-74201024D01*
X132392807Y-74201024D01*
X132468998Y-74162929D01*
X132507093Y-74086739D01*
X132507093Y-74010548D01*
X132468998Y-73934358D01*
X132392807Y-73896262D01*
X132202331Y-73896262D01*
X132126140Y-73858167D01*
X131783283Y-74162929D02*
X131707093Y-74201024D01*
X131554712Y-74201024D01*
X131478521Y-74162929D01*
X131440426Y-74086739D01*
X131440426Y-74048643D01*
X131478521Y-73972453D01*
X131554712Y-73934358D01*
X131668998Y-73934358D01*
X131745188Y-73896262D01*
X131783283Y-73820072D01*
X131783283Y-73781977D01*
X131745188Y-73705786D01*
X131668998Y-73667691D01*
X131554712Y-73667691D01*
X131478521Y-73705786D01*
X131097569Y-74201024D02*
X131097569Y-73401024D01*
X130754712Y-74201024D02*
X130754712Y-73781977D01*
X130792807Y-73705786D01*
X130868998Y-73667691D01*
X130983283Y-73667691D01*
X131059474Y-73705786D01*
X131097569Y-73743881D01*
X129623760Y-74469120D02*
X137263760Y-74469120D01*
X129659380Y-90182700D02*
X137299380Y-90182700D01*
X137283760Y-73159120D02*
X137289540Y-90159840D01*
X129663760Y-73149120D02*
X138533760Y-73149120D01*
X136280902Y-66434929D02*
X136166617Y-66473024D01*
X135976140Y-66473024D01*
X135899950Y-66434929D01*
X135861855Y-66396834D01*
X135823760Y-66320643D01*
X135823760Y-66244453D01*
X135861855Y-66168262D01*
X135899950Y-66130167D01*
X135976140Y-66092072D01*
X136128521Y-66053977D01*
X136204712Y-66015881D01*
X136242807Y-65977786D01*
X136280902Y-65901596D01*
X136280902Y-65825405D01*
X136242807Y-65749215D01*
X136204712Y-65711120D01*
X136128521Y-65673024D01*
X135938045Y-65673024D01*
X135823760Y-65711120D01*
X135480902Y-66473024D02*
X135480902Y-65939691D01*
X135480902Y-65673024D02*
X135518998Y-65711120D01*
X135480902Y-65749215D01*
X135442807Y-65711120D01*
X135480902Y-65673024D01*
X135480902Y-65749215D01*
X134757093Y-65939691D02*
X134757093Y-66587310D01*
X134795188Y-66663500D01*
X134833283Y-66701596D01*
X134909474Y-66739691D01*
X135023760Y-66739691D01*
X135099950Y-66701596D01*
X134757093Y-66434929D02*
X134833283Y-66473024D01*
X134985664Y-66473024D01*
X135061855Y-66434929D01*
X135099950Y-66396834D01*
X135138045Y-66320643D01*
X135138045Y-66092072D01*
X135099950Y-66015881D01*
X135061855Y-65977786D01*
X134985664Y-65939691D01*
X134833283Y-65939691D01*
X134757093Y-65977786D01*
X134376140Y-65939691D02*
X134376140Y-66473024D01*
X134376140Y-66015881D02*
X134338045Y-65977786D01*
X134261855Y-65939691D01*
X134147569Y-65939691D01*
X134071379Y-65977786D01*
X134033283Y-66053977D01*
X134033283Y-66473024D01*
X133652331Y-66473024D02*
X133652331Y-65939691D01*
X133652331Y-65673024D02*
X133690426Y-65711120D01*
X133652331Y-65749215D01*
X133614236Y-65711120D01*
X133652331Y-65673024D01*
X133652331Y-65749215D01*
X133271379Y-65939691D02*
X133271379Y-66473024D01*
X133271379Y-66015881D02*
X133233283Y-65977786D01*
X133157093Y-65939691D01*
X133042807Y-65939691D01*
X132966617Y-65977786D01*
X132928521Y-66053977D01*
X132928521Y-66473024D01*
X132204712Y-65939691D02*
X132204712Y-66587310D01*
X132242807Y-66663500D01*
X132280902Y-66701596D01*
X132357093Y-66739691D01*
X132471379Y-66739691D01*
X132547569Y-66701596D01*
X132204712Y-66434929D02*
X132280902Y-66473024D01*
X132433283Y-66473024D01*
X132509474Y-66434929D01*
X132547569Y-66396834D01*
X132585664Y-66320643D01*
X132585664Y-66092072D01*
X132547569Y-66015881D01*
X132509474Y-65977786D01*
X132433283Y-65939691D01*
X132280902Y-65939691D01*
X132204712Y-65977786D01*
X129651760Y-65349120D02*
X138541760Y-65349120D01*
X138215807Y-64620548D02*
X137453902Y-64620548D01*
X136787236Y-64001500D02*
X136596760Y-64001500D01*
X136501521Y-64049120D01*
X136406283Y-64144358D01*
X136358664Y-64334834D01*
X136358664Y-64668167D01*
X136406283Y-64858643D01*
X136501521Y-64953881D01*
X136596760Y-65001500D01*
X136787236Y-65001500D01*
X136882474Y-64953881D01*
X136977712Y-64858643D01*
X137025331Y-64668167D01*
X137025331Y-64334834D01*
X136977712Y-64144358D01*
X136882474Y-64049120D01*
X136787236Y-64001500D01*
X135930093Y-64334834D02*
X135930093Y-65334834D01*
X135930093Y-64382453D02*
X135834855Y-64334834D01*
X135644379Y-64334834D01*
X135549140Y-64382453D01*
X135501521Y-64430072D01*
X135453902Y-64525310D01*
X135453902Y-64811024D01*
X135501521Y-64906262D01*
X135549140Y-64953881D01*
X135644379Y-65001500D01*
X135834855Y-65001500D01*
X135930093Y-64953881D01*
X135168188Y-64334834D02*
X134787236Y-64334834D01*
X135025331Y-64001500D02*
X135025331Y-64858643D01*
X134977712Y-64953881D01*
X134882474Y-65001500D01*
X134787236Y-65001500D01*
X134453902Y-65001500D02*
X134453902Y-64334834D01*
X134453902Y-64001500D02*
X134501521Y-64049120D01*
X134453902Y-64096739D01*
X134406283Y-64049120D01*
X134453902Y-64001500D01*
X134453902Y-64096739D01*
X133834855Y-65001500D02*
X133930093Y-64953881D01*
X133977712Y-64906262D01*
X134025331Y-64811024D01*
X134025331Y-64525310D01*
X133977712Y-64430072D01*
X133930093Y-64382453D01*
X133834855Y-64334834D01*
X133691998Y-64334834D01*
X133596760Y-64382453D01*
X133549140Y-64430072D01*
X133501521Y-64525310D01*
X133501521Y-64811024D01*
X133549140Y-64906262D01*
X133596760Y-64953881D01*
X133691998Y-65001500D01*
X133834855Y-65001500D01*
X133072950Y-64334834D02*
X133072950Y-65001500D01*
X133072950Y-64430072D02*
X133025331Y-64382453D01*
X132930093Y-64334834D01*
X132787236Y-64334834D01*
X132691998Y-64382453D01*
X132644379Y-64477691D01*
X132644379Y-65001500D01*
X131739617Y-65001500D02*
X131739617Y-64477691D01*
X131787236Y-64382453D01*
X131882474Y-64334834D01*
X132072950Y-64334834D01*
X132168188Y-64382453D01*
X131739617Y-64953881D02*
X131834855Y-65001500D01*
X132072950Y-65001500D01*
X132168188Y-64953881D01*
X132215807Y-64858643D01*
X132215807Y-64763405D01*
X132168188Y-64668167D01*
X132072950Y-64620548D01*
X131834855Y-64620548D01*
X131739617Y-64572929D01*
X131120569Y-65001500D02*
X131215807Y-64953881D01*
X131263426Y-64858643D01*
X131263426Y-64001500D01*
X130739617Y-64620548D02*
X129977712Y-64620548D01*
X138541760Y-63698120D02*
X138541760Y-65476120D01*
X129651760Y-63698120D02*
X138541760Y-63698120D01*
X129651760Y-65476120D02*
X129651760Y-63698120D01*
X138541760Y-65476120D02*
X138541760Y-66746120D01*
X129651760Y-66746120D02*
X129651760Y-65476120D01*
X129651760Y-73731120D02*
X129651760Y-73604120D01*
X138541760Y-66746120D02*
X138533760Y-73149120D01*
X129651760Y-66873120D02*
X138541760Y-66873120D01*
X129659380Y-90208100D02*
X129651760Y-66746120D01*
D11*
G04 #@! TO.C,C5*
X132873760Y-71099120D02*
X133873760Y-71099120D01*
X133873760Y-72799120D02*
X132873760Y-72799120D01*
G04 #@! TO.C,R4*
X137883760Y-70039120D02*
X137883760Y-68839120D01*
X136123760Y-68839120D02*
X136123760Y-70039120D01*
G04 #@! TO.C,U4*
X131883760Y-70429120D02*
X131883760Y-69499120D01*
X131883760Y-67269120D02*
X131883760Y-68199120D01*
X131883760Y-67269120D02*
X135043760Y-67269120D01*
X131883760Y-70429120D02*
X133343760Y-70429120D01*
G04 #@! TO.C,C7*
X132883760Y-75069120D02*
X133883760Y-75069120D01*
X133883760Y-76769120D02*
X132883760Y-76769120D01*
G04 #@! TO.C,R7*
X132756340Y-88857980D02*
X133956340Y-88857980D01*
X133956340Y-87097980D02*
X132756340Y-87097980D01*
D12*
G04 #@! TO.C,U5*
X135879280Y-82796220D02*
X135829280Y-82796220D01*
X135879280Y-78646220D02*
X135734280Y-78646220D01*
X130729280Y-78646220D02*
X130874280Y-78646220D01*
X130729280Y-82796220D02*
X130874280Y-82796220D01*
X135879280Y-82796220D02*
X135879280Y-78646220D01*
X130729280Y-82796220D02*
X130729280Y-78646220D01*
X135829280Y-82796220D02*
X135829280Y-84196220D01*
G04 #@! TO.C,C5*
X130869474Y-71815786D02*
X130907569Y-71777691D01*
X130945664Y-71663405D01*
X130945664Y-71587215D01*
X130907569Y-71472929D01*
X130831379Y-71396739D01*
X130755188Y-71358643D01*
X130602807Y-71320548D01*
X130488521Y-71320548D01*
X130336140Y-71358643D01*
X130259950Y-71396739D01*
X130183760Y-71472929D01*
X130145664Y-71587215D01*
X130145664Y-71663405D01*
X130183760Y-71777691D01*
X130221855Y-71815786D01*
X130145664Y-72539596D02*
X130145664Y-72158643D01*
X130526617Y-72120548D01*
X130488521Y-72158643D01*
X130450426Y-72234834D01*
X130450426Y-72425310D01*
X130488521Y-72501500D01*
X130526617Y-72539596D01*
X130602807Y-72577691D01*
X130793283Y-72577691D01*
X130869474Y-72539596D01*
X130907569Y-72501500D01*
X130945664Y-72425310D01*
X130945664Y-72234834D01*
X130907569Y-72158643D01*
X130869474Y-72120548D01*
G04 #@! TO.C,R4*
X137075093Y-72773024D02*
X137341760Y-72392072D01*
X137532236Y-72773024D02*
X137532236Y-71973024D01*
X137227474Y-71973024D01*
X137151283Y-72011120D01*
X137113188Y-72049215D01*
X137075093Y-72125405D01*
X137075093Y-72239691D01*
X137113188Y-72315881D01*
X137151283Y-72353977D01*
X137227474Y-72392072D01*
X137532236Y-72392072D01*
X136389379Y-72239691D02*
X136389379Y-72773024D01*
X136579855Y-71934929D02*
X136770331Y-72506358D01*
X136275093Y-72506358D01*
G04 #@! TO.C,U4*
X131362283Y-69688024D02*
X131362283Y-70335643D01*
X131324188Y-70411834D01*
X131286093Y-70449929D01*
X131209902Y-70488024D01*
X131057521Y-70488024D01*
X130981331Y-70449929D01*
X130943236Y-70411834D01*
X130905140Y-70335643D01*
X130905140Y-69688024D01*
X130181331Y-69954691D02*
X130181331Y-70488024D01*
X130371807Y-69649929D02*
X130562283Y-70221358D01*
X130067045Y-70221358D01*
G04 #@! TO.C,C7*
X136850902Y-75722453D02*
X136898521Y-75674834D01*
X136946140Y-75531977D01*
X136946140Y-75436739D01*
X136898521Y-75293881D01*
X136803283Y-75198643D01*
X136708045Y-75151024D01*
X136517569Y-75103405D01*
X136374712Y-75103405D01*
X136184236Y-75151024D01*
X136088998Y-75198643D01*
X135993760Y-75293881D01*
X135946140Y-75436739D01*
X135946140Y-75531977D01*
X135993760Y-75674834D01*
X136041379Y-75722453D01*
X135946140Y-76055786D02*
X135946140Y-76722453D01*
X136946140Y-76293881D01*
G04 #@! TO.C,R7*
X136918720Y-87741313D02*
X136442530Y-87407980D01*
X136918720Y-87169884D02*
X135918720Y-87169884D01*
X135918720Y-87550837D01*
X135966340Y-87646075D01*
X136013959Y-87693694D01*
X136109197Y-87741313D01*
X136252054Y-87741313D01*
X136347292Y-87693694D01*
X136394911Y-87646075D01*
X136442530Y-87550837D01*
X136442530Y-87169884D01*
X135918720Y-88074646D02*
X135918720Y-88741313D01*
X136918720Y-88312741D01*
G04 #@! TO.C,U5*
X132601184Y-79193600D02*
X132601184Y-80003124D01*
X132553565Y-80098362D01*
X132505946Y-80145981D01*
X132410708Y-80193600D01*
X132220232Y-80193600D01*
X132124994Y-80145981D01*
X132077375Y-80098362D01*
X132029756Y-80003124D01*
X132029756Y-79193600D01*
X131077375Y-79193600D02*
X131553565Y-79193600D01*
X131601184Y-79669791D01*
X131553565Y-79622172D01*
X131458327Y-79574553D01*
X131220232Y-79574553D01*
X131124994Y-79622172D01*
X131077375Y-79669791D01*
X131029756Y-79765029D01*
X131029756Y-80003124D01*
X131077375Y-80098362D01*
X131124994Y-80145981D01*
X131220232Y-80193600D01*
X131458327Y-80193600D01*
X131553565Y-80145981D01*
X131601184Y-80098362D01*
G04 #@! TD*
M02*
