G04 #@! TF.GenerationSoftware,KiCad,Pcbnew,5.0.2-bee76a0~70~ubuntu18.04.1*
G04 #@! TF.CreationDate,2019-05-01T22:14:46+02:00*
G04 #@! TF.ProjectId,EasyPCB_10_nrf24l01p,45617379-5043-4425-9f31-305f6e726632,rev?*
G04 #@! TF.SameCoordinates,Original*
G04 #@! TF.FileFunction,Copper,L1,Top*
G04 #@! TF.FilePolarity,Positive*
%FSLAX46Y46*%
G04 Gerber Fmt 4.6, Leading zero omitted, Abs format (unit mm)*
G04 Created by KiCad (PCBNEW 5.0.2-bee76a0~70~ubuntu18.04.1) date Wed 01 May 2019 10:14:46 PM CEST*
%MOMM*%
%LPD*%
G01*
G04 APERTURE LIST*
G04 #@! TA.AperFunction,ComponentPad*
%ADD10C,1.700000*%
G04 #@! TD*
G04 #@! TA.AperFunction,ComponentPad*
%ADD11O,1.700000X1.700000*%
G04 #@! TD*
G04 #@! TA.AperFunction,ComponentPad*
%ADD12O,1.727200X1.727200*%
G04 #@! TD*
G04 #@! TA.AperFunction,ComponentPad*
%ADD13R,1.727200X1.727200*%
G04 #@! TD*
G04 #@! TA.AperFunction,ComponentPad*
%ADD14O,2.199640X1.501140*%
G04 #@! TD*
G04 #@! TA.AperFunction,ComponentPad*
%ADD15R,2.199640X1.501140*%
G04 #@! TD*
G04 #@! TA.AperFunction,ComponentPad*
%ADD16O,1.501140X2.199640*%
G04 #@! TD*
G04 #@! TA.AperFunction,ComponentPad*
%ADD17C,1.600000*%
G04 #@! TD*
G04 #@! TA.AperFunction,ComponentPad*
%ADD18O,1.600000X1.600000*%
G04 #@! TD*
G04 #@! TA.AperFunction,ComponentPad*
%ADD19R,1.600000X1.600000*%
G04 #@! TD*
G04 #@! TA.AperFunction,ComponentPad*
%ADD20R,1.700000X1.700000*%
G04 #@! TD*
G04 #@! TA.AperFunction,ComponentPad*
%ADD21C,3.000000*%
G04 #@! TD*
G04 #@! TA.AperFunction,ComponentPad*
%ADD22C,1.300000*%
G04 #@! TD*
G04 #@! TA.AperFunction,ViaPad*
%ADD23C,0.600000*%
G04 #@! TD*
G04 #@! TA.AperFunction,Conductor*
%ADD24C,0.200000*%
G04 #@! TD*
G04 #@! TA.AperFunction,Conductor*
%ADD25C,0.600000*%
G04 #@! TD*
G04 #@! TA.AperFunction,Conductor*
%ADD26C,0.400000*%
G04 #@! TD*
G04 #@! TA.AperFunction,Conductor*
%ADD27C,0.300000*%
G04 #@! TD*
G04 #@! TA.AperFunction,Conductor*
%ADD28C,0.254000*%
G04 #@! TD*
G04 APERTURE END LIST*
D10*
G04 #@! TO.P,P7,1*
G04 #@! TO.N,Net-(P7-Pad1)*
X164840000Y-78870000D03*
D11*
G04 #@! TO.P,P7,2*
G04 #@! TO.N,Net-(P7-Pad2)*
X167380000Y-78870000D03*
G04 #@! TO.P,P7,3*
G04 #@! TO.N,Net-(P7-Pad3)*
X169920000Y-78870000D03*
G04 #@! TO.P,P7,4*
G04 #@! TO.N,Net-(P7-Pad4)*
X172460000Y-78870000D03*
G04 #@! TD*
D12*
G04 #@! TO.P,P2,16*
G04 #@! TO.N,A1*
X145034000Y-106375200D03*
G04 #@! TO.P,P2,15*
G04 #@! TO.N,A0*
X145034000Y-108915200D03*
G04 #@! TO.P,P2,14*
G04 #@! TO.N,A4*
X142494000Y-106375200D03*
G04 #@! TO.P,P2,13*
G04 #@! TO.N,A5*
X142494000Y-108915200D03*
G04 #@! TO.P,P2,12*
G04 #@! TO.N,D6*
X139954000Y-106375200D03*
G04 #@! TO.P,P2,11*
G04 #@! TO.N,D5*
X139954000Y-108915200D03*
G04 #@! TO.P,P2,10*
G04 #@! TO.N,D2/IRQ*
X137414000Y-106375200D03*
G04 #@! TO.P,P2,9*
G04 #@! TO.N,D3*
X137414000Y-108915200D03*
D13*
G04 #@! TO.P,P2,1*
G04 #@! TO.N,Net-(JP3-Pad2)*
X127254000Y-108915200D03*
D12*
G04 #@! TO.P,P2,2*
G04 #@! TO.N,+3V3*
X127254000Y-106375200D03*
G04 #@! TO.P,P2,3*
G04 #@! TO.N,VCC*
X129794000Y-108915200D03*
G04 #@! TO.P,P2,4*
G04 #@! TO.N,GND*
X129794000Y-106375200D03*
G04 #@! TO.P,P2,5*
G04 #@! TO.N,TX*
X132334000Y-108915200D03*
G04 #@! TO.P,P2,6*
G04 #@! TO.N,RX*
X132334000Y-106375200D03*
G04 #@! TO.P,P2,7*
G04 #@! TO.N,Reset*
X134874000Y-108915200D03*
G04 #@! TO.P,P2,8*
G04 #@! TO.N,GND*
X134874000Y-106375200D03*
G04 #@! TD*
D14*
G04 #@! TO.P,IC1,28*
G04 #@! TO.N,Net-(IC1-Pad28)*
X139649200Y-84988400D03*
G04 #@! TO.P,IC1,27*
G04 #@! TO.N,Net-(IC1-Pad27)*
X139649200Y-87528400D03*
D15*
G04 #@! TO.P,IC1,1*
G04 #@! TO.N,TX*
X126949200Y-65938400D03*
D14*
G04 #@! TO.P,IC1,2*
G04 #@! TO.N,RX*
X126949200Y-68478400D03*
G04 #@! TO.P,IC1,3*
G04 #@! TO.N,Reset*
X126949200Y-71018400D03*
G04 #@! TO.P,IC1,4*
G04 #@! TO.N,GND*
X126949200Y-73558400D03*
G04 #@! TO.P,IC1,5*
G04 #@! TO.N,D2/IRQ*
X126949200Y-76098400D03*
G04 #@! TO.P,IC1,6*
G04 #@! TO.N,D3*
X126949200Y-78638400D03*
G04 #@! TO.P,IC1,7*
G04 #@! TO.N,Net-(IC1-Pad7)*
X126949200Y-81178400D03*
G04 #@! TO.P,IC1,8*
G04 #@! TO.N,D5*
X126949200Y-83718400D03*
G04 #@! TO.P,IC1,9*
G04 #@! TO.N,D6*
X126949200Y-86258400D03*
G04 #@! TO.P,IC1,10*
G04 #@! TO.N,Net-(IC1-Pad10)*
X126949200Y-88798400D03*
G04 #@! TO.P,IC1,11*
G04 #@! TO.N,Flash_CS*
X126949200Y-91338400D03*
G04 #@! TO.P,IC1,12*
G04 #@! TO.N,CS*
X126949200Y-93878400D03*
G04 #@! TO.P,IC1,13*
G04 #@! TO.N,CSN*
X142189200Y-93878400D03*
G04 #@! TO.P,IC1,14*
G04 #@! TO.N,MOSI*
X142189200Y-91338400D03*
G04 #@! TO.P,IC1,15*
G04 #@! TO.N,MISO*
X142189200Y-88798400D03*
G04 #@! TO.P,IC1,16*
G04 #@! TO.N,SCK*
X142189200Y-86258400D03*
G04 #@! TO.P,IC1,17*
G04 #@! TO.N,A0*
X142189200Y-83718400D03*
G04 #@! TO.P,IC1,18*
G04 #@! TO.N,A1*
X142189200Y-81178400D03*
G04 #@! TO.P,IC1,19*
G04 #@! TO.N,Net-(IC1-Pad19)*
X142189200Y-78638400D03*
G04 #@! TO.P,IC1,20*
G04 #@! TO.N,A3*
X142189200Y-76098400D03*
G04 #@! TO.P,IC1,21*
G04 #@! TO.N,VCC*
X142189200Y-73558400D03*
G04 #@! TO.P,IC1,22*
G04 #@! TO.N,Net-(IC1-Pad22)*
X142189200Y-71018400D03*
G04 #@! TO.P,IC1,23*
G04 #@! TO.N,GND*
X142189200Y-68478400D03*
G04 #@! TO.P,IC1,24*
G04 #@! TO.N,RAW*
X142189200Y-65938400D03*
G04 #@! TO.P,IC1,25*
G04 #@! TO.N,A4*
X139649200Y-77368400D03*
G04 #@! TO.P,IC1,26*
G04 #@! TO.N,A5*
X139649200Y-74828400D03*
D16*
G04 #@! TO.P,IC1,30*
G04 #@! TO.N,N/C*
X139649200Y-93878400D03*
G04 #@! TO.P,IC1,31*
X137109200Y-93878400D03*
G04 #@! TO.P,IC1,29*
G04 #@! TO.N,GND*
X134569200Y-93878400D03*
G04 #@! TD*
D17*
G04 #@! TO.P,R1,1*
G04 #@! TO.N,VCC*
X132168900Y-102095300D03*
D18*
G04 #@! TO.P,R1,2*
G04 #@! TO.N,D5*
X142328900Y-102095300D03*
G04 #@! TD*
D17*
G04 #@! TO.P,R3,1*
G04 #@! TO.N,Net-(JP1-Pad1)*
X165100000Y-87090000D03*
D18*
G04 #@! TO.P,R3,2*
G04 #@! TO.N,A0*
X172720000Y-87090000D03*
G04 #@! TD*
D19*
G04 #@! TO.P,C3,1*
G04 #@! TO.N,+3V3*
X155255600Y-93649800D03*
D17*
G04 #@! TO.P,C3,2*
G04 #@! TO.N,GND*
X152755600Y-93649800D03*
G04 #@! TD*
D19*
G04 #@! TO.P,C2,1*
G04 #@! TO.N,VCC*
X158470600Y-93649800D03*
D17*
G04 #@! TO.P,C2,2*
G04 #@! TO.N,GND*
X160970600Y-93649800D03*
G04 #@! TD*
D11*
G04 #@! TO.P,JP1,1*
G04 #@! TO.N,Net-(JP1-Pad1)*
X149352000Y-99568000D03*
G04 #@! TO.P,JP1,2*
G04 #@! TO.N,VCC*
X149352000Y-97028000D03*
G04 #@! TD*
D10*
G04 #@! TO.P,JP2,1*
G04 #@! TO.N,Net-(JP1-Pad1)*
X145757900Y-99542600D03*
D11*
G04 #@! TO.P,JP2,2*
G04 #@! TO.N,+3V3*
X145757900Y-97002600D03*
G04 #@! TD*
G04 #@! TO.P,JP3,1*
G04 #@! TO.N,RAW*
X140650000Y-98190000D03*
G04 #@! TO.P,JP3,2*
G04 #@! TO.N,Net-(JP3-Pad2)*
X138110000Y-98190000D03*
G04 #@! TD*
D20*
G04 #@! TO.P,U1,1*
G04 #@! TO.N,VCC*
X166390000Y-100280000D03*
D11*
G04 #@! TO.P,U1,2*
G04 #@! TO.N,GND*
X168930000Y-100280000D03*
G04 #@! TO.P,U1,3*
G04 #@! TO.N,Net-(JP1-Pad1)*
X171470000Y-100280000D03*
G04 #@! TD*
D19*
G04 #@! TO.P,C1,1*
G04 #@! TO.N,VCC*
X164770000Y-108490000D03*
D17*
G04 #@! TO.P,C1,2*
G04 #@! TO.N,GND*
X167270000Y-108490000D03*
G04 #@! TD*
D10*
G04 #@! TO.P,P4,1*
G04 #@! TO.N,VCC*
X164850000Y-68710000D03*
D11*
G04 #@! TO.P,P4,2*
X167390000Y-68710000D03*
G04 #@! TO.P,P4,3*
X169930000Y-68710000D03*
G04 #@! TO.P,P4,4*
X172470000Y-68710000D03*
G04 #@! TD*
D10*
G04 #@! TO.P,P5,1*
G04 #@! TO.N,GND*
X164840000Y-71200000D03*
D11*
G04 #@! TO.P,P5,2*
X167380000Y-71200000D03*
G04 #@! TO.P,P5,3*
X169920000Y-71200000D03*
G04 #@! TO.P,P5,4*
X172460000Y-71200000D03*
G04 #@! TD*
D10*
G04 #@! TO.P,P7,1*
G04 #@! TO.N,N/C*
X164830000Y-76260000D03*
D11*
G04 #@! TO.P,P7,2*
X167370000Y-76260000D03*
G04 #@! TO.P,P7,3*
X169910000Y-76260000D03*
G04 #@! TO.P,P7,4*
X172450000Y-76260000D03*
G04 #@! TD*
D10*
G04 #@! TO.P,P6,1*
G04 #@! TO.N,Net-(P6-Pad1)*
X164830000Y-73740000D03*
D11*
G04 #@! TO.P,P6,2*
G04 #@! TO.N,Net-(P6-Pad2)*
X167370000Y-73740000D03*
G04 #@! TO.P,P6,3*
G04 #@! TO.N,Net-(P6-Pad3)*
X169910000Y-73740000D03*
G04 #@! TO.P,P6,4*
G04 #@! TO.N,Net-(P6-Pad4)*
X172450000Y-73740000D03*
G04 #@! TD*
D10*
G04 #@! TO.P,P9,1*
G04 #@! TO.N,Net-(P9-Pad1)*
X164850000Y-63670000D03*
D11*
G04 #@! TO.P,P9,2*
G04 #@! TO.N,Net-(P9-Pad2)*
X167390000Y-63670000D03*
G04 #@! TD*
D21*
G04 #@! TO.P,P1,3*
G04 #@! TO.N,RAW*
X150368000Y-106629200D03*
G04 #@! TO.P,P1,1*
G04 #@! TO.N,Net-(JP1-Pad1)*
X160178000Y-106629200D03*
G04 #@! TO.P,P1,2*
G04 #@! TO.N,GND*
X155178000Y-106629200D03*
G04 #@! TD*
D17*
G04 #@! TO.P,R2,1*
G04 #@! TO.N,GND*
X165100000Y-83880000D03*
D18*
G04 #@! TO.P,R2,2*
G04 #@! TO.N,A0*
X172720000Y-83880000D03*
G04 #@! TD*
D19*
G04 #@! TO.P,C4,1*
G04 #@! TO.N,A0*
X170030000Y-91540000D03*
D17*
G04 #@! TO.P,C4,2*
G04 #@! TO.N,GND*
X167530000Y-91540000D03*
G04 #@! TD*
D22*
G04 #@! TO.P,U2,2*
G04 #@! TO.N,GND*
X156331600Y-100767200D03*
G04 #@! TO.P,U2,3*
G04 #@! TO.N,VCC*
X154956600Y-99067200D03*
G04 #@! TO.P,U2,1*
G04 #@! TO.N,+3V3*
X157681600Y-99042200D03*
G04 #@! TD*
D10*
G04 #@! TO.P,P8,1*
G04 #@! TO.N,Net-(P8-Pad1)*
X164840000Y-66190000D03*
D11*
G04 #@! TO.P,P8,2*
G04 #@! TO.N,Net-(P8-Pad2)*
X167380000Y-66190000D03*
G04 #@! TD*
D19*
G04 #@! TO.P,C6,1*
G04 #@! TO.N,+3V3*
X149280000Y-87280000D03*
D17*
G04 #@! TO.P,C6,2*
G04 #@! TO.N,GND*
X151780000Y-87280000D03*
G04 #@! TD*
D11*
G04 #@! TO.P,JP4,1*
G04 #@! TO.N,Net-(JP4-Pad1)*
X132110000Y-98180000D03*
G04 #@! TO.P,JP4,2*
G04 #@! TO.N,D2/IRQ*
X134650000Y-98180000D03*
G04 #@! TD*
D12*
G04 #@! TO.P,U3,7*
G04 #@! TO.N,MISO*
X155890000Y-80850000D03*
G04 #@! TO.P,U3,8*
G04 #@! TO.N,Net-(JP4-Pad1)*
X155890000Y-78310000D03*
G04 #@! TO.P,U3,5*
G04 #@! TO.N,SCK*
X153350000Y-80850000D03*
G04 #@! TO.P,U3,6*
G04 #@! TO.N,MOSI*
X153350000Y-78310000D03*
G04 #@! TO.P,U3,3*
G04 #@! TO.N,CS*
X150810000Y-80850000D03*
G04 #@! TO.P,U3,4*
G04 #@! TO.N,CSN*
X150810000Y-78310000D03*
D13*
G04 #@! TO.P,U3,1*
G04 #@! TO.N,GND*
X148270000Y-80850000D03*
D12*
G04 #@! TO.P,U3,2*
G04 #@! TO.N,+3V3*
X148270000Y-78310000D03*
G04 #@! TD*
D23*
G04 #@! TO.N,+3V3*
X149040000Y-74640000D03*
X146430000Y-86860000D03*
X130180000Y-83260000D03*
X134010000Y-74330000D03*
X132588000Y-81534000D03*
G04 #@! TO.N,GND*
X129540000Y-71374000D03*
X129566063Y-74801144D03*
G04 #@! TO.N,RAW*
X128600000Y-86902568D03*
X140573200Y-104548940D03*
G04 #@! TO.N,D3*
X128130000Y-82470000D03*
X129110000Y-90410000D03*
G04 #@! TO.N,MOSI*
X149520000Y-76970000D03*
X137886440Y-80614520D03*
G04 #@! TO.N,MISO*
X152060000Y-82170000D03*
X137998200Y-82646520D03*
G04 #@! TO.N,SCK*
X139446000Y-82042000D03*
G04 #@! TO.N,A0*
X162530000Y-86100000D03*
X160420000Y-85530000D03*
G04 #@! TO.N,A1*
X144810000Y-87640000D03*
G04 #@! TO.N,A5*
X143884832Y-84883003D03*
X143640000Y-82500000D03*
G04 #@! TO.N,Reset*
X129109999Y-89530735D03*
X128820000Y-76490000D03*
G04 #@! TO.N,A3*
X138922760Y-72928480D03*
X138907520Y-68732400D03*
G04 #@! TO.N,Flash_CS*
X130008794Y-92038794D03*
X134424420Y-89512140D03*
G04 #@! TO.N,VCC*
X126210000Y-103833700D03*
X153581057Y-101074263D03*
X125380000Y-105890000D03*
X152747980Y-102981760D03*
G04 #@! TO.N,D2/IRQ*
X128987886Y-88238620D03*
X128420176Y-84750000D03*
G04 #@! TO.N,CS*
X145550000Y-63230000D03*
G04 #@! TO.N,Net-(JP3-Pad2)*
X138856720Y-107609640D03*
G04 #@! TO.N,Net-(JP4-Pad1)*
X146681397Y-89741397D03*
X148240000Y-101100000D03*
X147850000Y-98660000D03*
X136150000Y-110040000D03*
G04 #@! TD*
D24*
G04 #@! TO.N,*
X167390000Y-88710000D02*
X167400000Y-88720000D01*
D25*
G04 #@! TO.N,+3V3*
X148575056Y-71543931D02*
X149040000Y-72008875D01*
X149040000Y-72008875D02*
X149040000Y-74640000D01*
X155255600Y-93649800D02*
X155255600Y-92517600D01*
X155255600Y-92517600D02*
X154432000Y-91694000D01*
X151130000Y-91694000D02*
X154432000Y-91694000D01*
X149280000Y-89844000D02*
X151130000Y-91694000D01*
X149280000Y-87280000D02*
X149280000Y-89844000D01*
X149280000Y-87280000D02*
X148860000Y-86860000D01*
X148860000Y-86860000D02*
X146430000Y-86860000D01*
X146430000Y-88720000D02*
X146430000Y-86860000D01*
X146430000Y-88720000D02*
X145757900Y-89392100D01*
X145757900Y-89392100D02*
X145757900Y-97002600D01*
X134010000Y-74330000D02*
X135449333Y-72890667D01*
X135449333Y-72890667D02*
X135449333Y-64645159D01*
X145739785Y-62087783D02*
X146941849Y-63289847D01*
X135449333Y-64645159D02*
X135573825Y-64520667D01*
X135573825Y-64520667D02*
X138006712Y-62087783D01*
X138006712Y-62087783D02*
X145739785Y-62087783D01*
X146941849Y-63289847D02*
X146941849Y-69910725D01*
X146941849Y-69910725D02*
X148575056Y-71543931D01*
X130410000Y-75230000D02*
X131310000Y-74330000D01*
X130180000Y-75460000D02*
X130410000Y-75230000D01*
X131310000Y-74330000D02*
X134010000Y-74330000D01*
X132588000Y-81534000D02*
X130180000Y-81534000D01*
X130180000Y-83260000D02*
X130180000Y-81534000D01*
X130180000Y-81534000D02*
X130180000Y-75460000D01*
G04 #@! TO.N,GND*
X167380000Y-71200000D02*
X164840000Y-71200000D01*
X169920000Y-71200000D02*
X167380000Y-71200000D01*
X172460000Y-71200000D02*
X169920000Y-71200000D01*
G04 #@! TO.N,Net-(JP1-Pad1)*
X160178000Y-106629200D02*
X163998800Y-110450000D01*
X168830000Y-110450000D02*
X169710000Y-109570000D01*
X163998800Y-110450000D02*
X168830000Y-110450000D01*
X169710000Y-109570000D02*
X169710000Y-102040000D01*
X169710000Y-102040000D02*
X169836219Y-101913781D01*
X169836219Y-101913781D02*
X171470000Y-100280000D01*
X168960000Y-94860000D02*
X169809999Y-95709999D01*
X169809999Y-95709999D02*
X169809999Y-98619999D01*
X169809999Y-98619999D02*
X170620001Y-99430001D01*
X170620001Y-99430001D02*
X171470000Y-100280000D01*
X167250000Y-94860000D02*
X168960000Y-94860000D01*
X165620000Y-93230000D02*
X167250000Y-94860000D01*
X165620000Y-89209963D02*
X165620000Y-93230000D01*
X165100000Y-87090000D02*
X165100000Y-88689963D01*
X165100000Y-88689963D02*
X165620000Y-89209963D01*
X154660260Y-103426260D02*
X156975060Y-103426260D01*
X156975060Y-103426260D02*
X160178000Y-106629200D01*
X149352000Y-99568000D02*
X150802000Y-99568000D01*
X150802000Y-99568000D02*
X154660260Y-103426260D01*
X149352000Y-99568000D02*
X145783300Y-99568000D01*
X145783300Y-99568000D02*
X145757900Y-99542600D01*
D26*
G04 #@! TO.N,RAW*
X140650000Y-98190000D02*
X140650000Y-99440000D01*
X140650000Y-99440000D02*
X140573200Y-99516800D01*
X128760000Y-86720000D02*
X128760000Y-86742568D01*
X128760000Y-86742568D02*
X128600000Y-86902568D01*
X128760000Y-86720000D02*
X129121600Y-86358400D01*
X129121600Y-86358400D02*
X132832797Y-86358400D01*
X140649999Y-96939999D02*
X140650000Y-98190000D01*
X132832797Y-86358400D02*
X135819780Y-89345383D01*
X135819780Y-89345383D02*
X135819780Y-94619780D01*
X135819780Y-94619780D02*
X137160000Y-95960000D01*
X137160000Y-95960000D02*
X139670000Y-95960000D01*
X139670000Y-95960000D02*
X140649999Y-96939999D01*
X140573200Y-100916500D02*
X140573200Y-101270000D01*
X140573200Y-101270000D02*
X140573200Y-104548940D01*
X140573200Y-99516800D02*
X140573200Y-101270000D01*
X140554000Y-100897300D02*
X140573200Y-100916500D01*
D24*
G04 #@! TO.N,TX*
X132334000Y-108915200D02*
X131076700Y-107657900D01*
X131076700Y-107657900D02*
X131076700Y-105787770D01*
X131076700Y-105787770D02*
X130400529Y-105111599D01*
X125049360Y-104959360D02*
X125049360Y-66538420D01*
X130400529Y-105111599D02*
X125201599Y-105111599D01*
X125201599Y-105111599D02*
X125049360Y-104959360D01*
X125049360Y-66538420D02*
X125649380Y-65938400D01*
X125649380Y-65938400D02*
X126949200Y-65938400D01*
G04 #@! TO.N,RX*
X126949200Y-68478400D02*
X125649380Y-68478400D01*
X125671589Y-104711589D02*
X131891703Y-104711589D01*
X125649380Y-68478400D02*
X125449370Y-68678410D01*
X125449370Y-68678410D02*
X125449370Y-104489370D01*
X131891703Y-104711589D02*
X132334000Y-105153886D01*
X125449370Y-104489370D02*
X125671589Y-104711589D01*
X132334000Y-105153886D02*
X132334000Y-106375200D01*
G04 #@! TO.N,D3*
X128508760Y-79848710D02*
X128508760Y-82091240D01*
X128508760Y-82091240D02*
X128130000Y-82470000D01*
X129110000Y-90410000D02*
X129110000Y-90834264D01*
X131139998Y-99450000D02*
X133244701Y-99450000D01*
X129110000Y-90834264D02*
X128910009Y-91034255D01*
X128910009Y-91034255D02*
X128910009Y-97220011D01*
X128910009Y-97220011D02*
X131139998Y-99450000D01*
X133244701Y-99450000D02*
X136137601Y-102342901D01*
X136137601Y-102342901D02*
X136137601Y-107638801D01*
X136137601Y-107638801D02*
X137414000Y-108915200D01*
X126949200Y-78638400D02*
X127298450Y-78638400D01*
X127298450Y-78638400D02*
X128508760Y-79848710D01*
G04 #@! TO.N,D5*
X139954000Y-108915200D02*
X141173200Y-107696000D01*
X141173200Y-107696000D02*
X141173200Y-104584500D01*
X141173200Y-104584500D02*
X142328900Y-103428800D01*
X142328900Y-103428800D02*
X142328900Y-102095300D01*
X126949200Y-83718400D02*
X126949200Y-84302600D01*
X126949200Y-84302600D02*
X127370840Y-84724240D01*
X127370840Y-84724240D02*
X127375920Y-84724240D01*
X127375920Y-84724240D02*
X128510070Y-85858390D01*
X133039908Y-85858390D02*
X138366500Y-91184983D01*
X128510070Y-85858390D02*
X133039908Y-85858390D01*
X138366500Y-91184983D02*
X138366500Y-94780100D01*
X138366500Y-94780100D02*
X138912600Y-95326200D01*
X138912600Y-95326200D02*
X141490700Y-95326200D01*
X141490700Y-95326200D02*
X142328900Y-96164400D01*
X142328900Y-96164400D02*
X142328900Y-102095300D01*
G04 #@! TO.N,D6*
X139954000Y-106375200D02*
X139954000Y-100314000D01*
X139954000Y-100314000D02*
X139350000Y-99710000D01*
X139350000Y-99710000D02*
X139350000Y-97170000D01*
X138640010Y-96460010D02*
X134720010Y-96460010D01*
X139350000Y-97170000D02*
X138640010Y-96460010D01*
X134720010Y-96460010D02*
X133010000Y-94750000D01*
X133010000Y-94750000D02*
X133010000Y-92810000D01*
X133010000Y-92810000D02*
X135080000Y-90740000D01*
X135080000Y-89312723D02*
X132625687Y-86858410D01*
X135080000Y-90740000D02*
X135080000Y-89312723D01*
X132625687Y-86858410D02*
X129532160Y-86858410D01*
X129532160Y-86858410D02*
X128810570Y-87580000D01*
X126949200Y-87208970D02*
X126949200Y-86258400D01*
X128810570Y-87580000D02*
X127320230Y-87580000D01*
X127320230Y-87580000D02*
X126949200Y-87208970D01*
X126949200Y-86258400D02*
X127410398Y-86258400D01*
X126949200Y-86839200D02*
X126949200Y-86258400D01*
X126949200Y-86258400D02*
X126949200Y-86809200D01*
D26*
G04 #@! TO.N,MOSI*
X147910000Y-76790000D02*
X149340000Y-76790000D01*
X149340000Y-76790000D02*
X149520000Y-76970000D01*
X146968830Y-75848830D02*
X147910000Y-76790000D01*
X146775029Y-72289529D02*
X146968830Y-72483330D01*
X146968830Y-72483330D02*
X146968830Y-75848830D01*
X146775029Y-72289529D02*
X145141819Y-70656319D01*
X138612880Y-80289764D02*
X138612880Y-80995838D01*
X145141819Y-70656319D02*
X145141819Y-65076098D01*
X138612880Y-80995838D02*
X138176318Y-81432400D01*
X145141819Y-65076098D02*
X143553523Y-63487802D01*
X143553523Y-63487802D02*
X138586617Y-63487801D01*
X138586617Y-63487801D02*
X136849352Y-65225064D01*
X136849352Y-65225064D02*
X136849352Y-78526236D01*
X136849352Y-78526236D02*
X138612880Y-80289764D01*
X136849351Y-82759367D02*
X138176318Y-81432400D01*
X137886440Y-80614520D02*
X138186439Y-80914519D01*
X138186439Y-80914519D02*
X138186439Y-81422279D01*
X138186439Y-81422279D02*
X138176318Y-81432400D01*
X136849351Y-87694928D02*
X136849351Y-82759367D01*
X142189200Y-91338400D02*
X140492821Y-91338400D01*
X140492821Y-91338400D02*
X136849351Y-87694928D01*
G04 #@! TO.N,MISO*
X137449361Y-84231497D02*
X138343458Y-83337400D01*
X137998200Y-82646520D02*
X138343458Y-82991778D01*
X138343458Y-82991778D02*
X138343458Y-83337400D01*
X137449360Y-87446397D02*
X137449361Y-84231497D01*
X142189200Y-88798400D02*
X138801363Y-88798400D01*
X138801363Y-88798400D02*
X137449360Y-87446397D01*
X151440010Y-82789990D02*
X152060000Y-82170000D01*
X146989990Y-82789990D02*
X151440010Y-82789990D01*
X146368821Y-82168821D02*
X146989990Y-82789990D01*
X144541809Y-70904851D02*
X146368821Y-72731863D01*
X144541809Y-65324632D02*
X144541809Y-70904851D01*
X143304990Y-64087811D02*
X144541809Y-65324632D01*
X137449361Y-65473597D02*
X138835148Y-64087810D01*
X146368821Y-72731863D02*
X146368821Y-82168821D01*
X138684000Y-82996858D02*
X138684000Y-81773260D01*
X138684000Y-81773260D02*
X139323510Y-81133750D01*
X138835148Y-64087810D02*
X143304990Y-64087811D01*
X138343458Y-83337400D02*
X138684000Y-82996858D01*
X139323510Y-81133750D02*
X139323510Y-80151852D01*
X139323510Y-80151852D02*
X137449360Y-78277702D01*
X137449360Y-78277702D02*
X137449361Y-65473597D01*
G04 #@! TO.N,SCK*
X142189200Y-86258400D02*
X138801363Y-86258400D01*
X139923520Y-79903320D02*
X138049370Y-78029170D01*
X139923520Y-82605880D02*
X139923520Y-79903320D01*
X138801363Y-86258400D02*
X138049370Y-85506407D01*
X138049370Y-85506407D02*
X138049370Y-84480030D01*
X138049370Y-78029170D02*
X138049370Y-65722130D01*
X138049370Y-65722130D02*
X139083680Y-64687820D01*
X139083680Y-64687820D02*
X143056457Y-64687820D01*
X145768811Y-83140000D02*
X146018811Y-83390000D01*
X143056457Y-64687820D02*
X143941800Y-65573163D01*
X153350000Y-82620000D02*
X153350000Y-80850000D01*
X143941800Y-65573163D02*
X143941801Y-71153385D01*
X143941801Y-71153385D02*
X145768811Y-72980395D01*
X145768811Y-72980395D02*
X145768811Y-83140000D01*
X146018811Y-83390000D02*
X152580000Y-83390000D01*
X152580000Y-83390000D02*
X153350000Y-82620000D01*
X139446000Y-83083400D02*
X139446000Y-82042000D01*
X139192000Y-83337400D02*
X139446000Y-83083400D01*
X139192000Y-83337400D02*
X139923520Y-82605880D01*
X138049370Y-84480030D02*
X139192000Y-83337400D01*
D24*
G04 #@! TO.N,A0*
X172720000Y-87090000D02*
X171920001Y-86290001D01*
X171920001Y-86290001D02*
X167544001Y-86290001D01*
X167544001Y-86290001D02*
X166834000Y-85580000D01*
X166834000Y-85580000D02*
X163050000Y-85580000D01*
X163050000Y-85580000D02*
X162530000Y-86100000D01*
X172720000Y-87090000D02*
X172720000Y-85958630D01*
X172720000Y-85958630D02*
X172720000Y-83880000D01*
X170230000Y-91550000D02*
X172720000Y-89060000D01*
X172720000Y-89060000D02*
X172720000Y-87090000D01*
X144320000Y-100573206D02*
X146367500Y-102620706D01*
X144880090Y-95899210D02*
X144320000Y-96459300D01*
X144320000Y-96459300D02*
X144320000Y-100573206D01*
X153720628Y-85282010D02*
X160172010Y-85282010D01*
X160172010Y-85282010D02*
X160420000Y-85530000D01*
X145970038Y-86060000D02*
X146090019Y-85940019D01*
X146090019Y-85940019D02*
X153062619Y-85940019D01*
X153062619Y-85940019D02*
X153720628Y-85282010D01*
X142189200Y-83718400D02*
X143832342Y-83718400D01*
X143832342Y-83718400D02*
X145550000Y-85436058D01*
X145550000Y-85436058D02*
X145550000Y-85780000D01*
X145970038Y-86060000D02*
X145830000Y-86060000D01*
X145550000Y-85780000D02*
X145550000Y-86060000D01*
X145830000Y-86060000D02*
X145550000Y-85780000D01*
X145970038Y-86060000D02*
X145550000Y-86060000D01*
X145550000Y-86060000D02*
X145550000Y-87885038D01*
X142189200Y-83718400D02*
X142682600Y-83225000D01*
X144880090Y-89901153D02*
X144880090Y-95899210D01*
X145550000Y-87885038D02*
X144877989Y-88557049D01*
X146367500Y-107581700D02*
X145034000Y-108915200D01*
X144877989Y-88557049D02*
X144877989Y-89899052D01*
X144877989Y-89899052D02*
X144880090Y-89901153D01*
X146367500Y-102620706D02*
X146367500Y-107581700D01*
G04 #@! TO.N,A1*
X145034000Y-106375200D02*
X145034000Y-101852904D01*
X145034000Y-101852904D02*
X143919990Y-100738895D01*
X143919990Y-100738895D02*
X143919990Y-96293612D01*
X143919990Y-96293612D02*
X144477979Y-95735623D01*
X144477979Y-95735623D02*
X144477979Y-87972021D01*
X144477979Y-87972021D02*
X144810000Y-87640000D01*
G04 #@! TO.N,A4*
X143668790Y-95083215D02*
X143668790Y-94970000D01*
X143668790Y-94970000D02*
X143668790Y-85515490D01*
X143119970Y-95890030D02*
X143668790Y-95341210D01*
X143668790Y-95341210D02*
X143668790Y-94970000D01*
X143586200Y-101536500D02*
X143119970Y-101070270D01*
X143119970Y-101070270D02*
X143119970Y-95890030D01*
X140431520Y-79101290D02*
X140431520Y-83935726D01*
X140431520Y-83935726D02*
X141484194Y-84988400D01*
X139649200Y-77368400D02*
X139649200Y-78318970D01*
X139649200Y-78318970D02*
X140431520Y-79101290D01*
X142494000Y-106375200D02*
X142494000Y-104470200D01*
X143586200Y-103378000D02*
X143586200Y-101536500D01*
X142494000Y-104470200D02*
X143586200Y-103378000D01*
X143668790Y-85515490D02*
X143141700Y-84988400D01*
X143141700Y-84988400D02*
X141484194Y-84988400D01*
G04 #@! TO.N,A5*
X143884832Y-84883003D02*
X144068800Y-85066971D01*
X143986210Y-103543689D02*
X143764000Y-103765899D01*
X144068800Y-85066971D02*
X144068800Y-95579104D01*
X143519980Y-100904581D02*
X143986210Y-101370812D01*
X144068800Y-95579104D02*
X143519980Y-96127923D01*
X143519980Y-96127923D02*
X143519980Y-100904581D01*
X143986210Y-101370812D02*
X143986210Y-103543689D01*
X143764000Y-103765899D02*
X143764000Y-107645200D01*
X143764000Y-107645200D02*
X142494000Y-108915200D01*
X144068800Y-76078712D02*
X144068800Y-82071200D01*
X144068800Y-82071200D02*
X143640000Y-82500000D01*
X142818488Y-74828400D02*
X144068800Y-76078712D01*
X139649200Y-74828400D02*
X142818488Y-74828400D01*
G04 #@! TO.N,Reset*
X128509999Y-90170000D02*
X128509999Y-90270000D01*
X129109999Y-89530735D02*
X128509999Y-90130735D01*
X128509999Y-90130735D02*
X128509999Y-90170000D01*
X128509999Y-90270000D02*
X128509999Y-97373061D01*
X128509999Y-90270000D02*
X128509999Y-97385700D01*
X128509999Y-97385700D02*
X130974309Y-99850010D01*
X130974309Y-99850010D02*
X133079013Y-99850010D01*
X133079013Y-99850010D02*
X133610399Y-100381396D01*
X128820000Y-76490000D02*
X128820000Y-71589380D01*
X128820000Y-71589380D02*
X128249020Y-71018400D01*
X128249020Y-71018400D02*
X126949200Y-71018400D01*
X128509999Y-97373061D02*
X128503680Y-97379380D01*
X133583680Y-100354678D02*
X133583680Y-107624880D01*
X128503680Y-97379380D02*
X130974309Y-99850010D01*
X133079012Y-99850010D02*
X133583680Y-100354678D01*
X130974309Y-99850010D02*
X133079012Y-99850010D01*
X133583680Y-107624880D02*
X134874000Y-108915200D01*
G04 #@! TO.N,A3*
X138907520Y-68732400D02*
X138907520Y-72913240D01*
X142189200Y-76098400D02*
X142538450Y-76098400D01*
D26*
G04 #@! TO.N,Flash_CS*
X130008794Y-92038794D02*
X130008794Y-93399774D01*
X130008794Y-93399774D02*
X130180080Y-93571060D01*
X134424420Y-89512140D02*
X134424420Y-90232044D01*
X134424420Y-90232044D02*
X131085404Y-93571060D01*
X131085404Y-93571060D02*
X130180080Y-93571060D01*
D25*
G04 #@! TO.N,VCC*
X162850000Y-68710000D02*
X163180000Y-68710000D01*
X163180000Y-68710000D02*
X172470000Y-68710000D01*
X164850000Y-68710000D02*
X163180000Y-68710000D01*
X167390000Y-68710000D02*
X164850000Y-68710000D01*
X169930000Y-68710000D02*
X167390000Y-68710000D01*
X172470000Y-68710000D02*
X169930000Y-68710000D01*
X165770000Y-106358630D02*
X165770000Y-102102081D01*
X165770000Y-102102081D02*
X166390000Y-101482081D01*
X166390000Y-101482081D02*
X166390000Y-100280000D01*
X164770000Y-108490000D02*
X164770000Y-107358630D01*
X164770000Y-107358630D02*
X165770000Y-106358630D01*
X166390000Y-100280000D02*
X165187919Y-100280000D01*
X165187919Y-100280000D02*
X164390001Y-99482082D01*
X164390001Y-99482082D02*
X164390001Y-99430001D01*
X164390001Y-99430001D02*
X161988000Y-97028000D01*
X161988000Y-97028000D02*
X157137100Y-97028000D01*
X161900000Y-69660000D02*
X162850000Y-68710000D01*
X161900000Y-84164199D02*
X161900000Y-69660000D01*
X161482199Y-84582000D02*
X161900000Y-84164199D01*
X157619700Y-96545400D02*
X157711140Y-96636840D01*
X126210000Y-103833700D02*
X126843500Y-103200200D01*
X126843500Y-103200200D02*
X131064000Y-103200200D01*
X131064000Y-103200200D02*
X132168900Y-102095300D01*
X154956600Y-98022320D02*
X155950920Y-97028000D01*
X154956600Y-99067200D02*
X154956600Y-98022320D01*
X153581057Y-100442743D02*
X154956600Y-99067200D01*
X153581057Y-101074263D02*
X153581057Y-100442743D01*
X149352000Y-97028000D02*
X155950920Y-97028000D01*
X161482199Y-84582000D02*
X153430676Y-84582000D01*
X144968801Y-81978299D02*
X144768810Y-81778308D01*
X144768810Y-80324188D02*
X144775000Y-80317998D01*
X153430676Y-84582000D02*
X152772666Y-85240010D01*
X144968801Y-83471374D02*
X144968801Y-81978299D01*
X152772666Y-85240010D02*
X146588148Y-85240011D01*
X146588148Y-85240011D02*
X145018801Y-83670664D01*
X145018801Y-83670664D02*
X145018801Y-83521374D01*
X145018801Y-83521374D02*
X144968801Y-83471374D01*
X144775000Y-75794949D02*
X142538451Y-73558400D01*
X144768810Y-81778308D02*
X144768810Y-80324188D01*
X144775000Y-80317998D02*
X144775000Y-75794949D01*
X142538451Y-73558400D02*
X142189200Y-73558400D01*
X161482199Y-89317801D02*
X161482199Y-84582000D01*
X161033199Y-89749999D02*
X161041600Y-89758400D01*
X126132370Y-111022370D02*
X125380000Y-110270000D01*
X125380000Y-110270000D02*
X125380000Y-105890000D01*
X130462370Y-111022370D02*
X126132370Y-111022370D01*
X152747980Y-102981760D02*
X152742900Y-102986840D01*
X152742900Y-102986840D02*
X152742900Y-109138720D01*
X152742900Y-109138720D02*
X150859250Y-111022370D01*
X150859250Y-111022370D02*
X130462370Y-111022370D01*
X130462370Y-111022370D02*
X129794000Y-110354000D01*
X129794000Y-110354000D02*
X129794000Y-108915200D01*
X158470600Y-93649800D02*
X161041600Y-91078800D01*
X161041600Y-91078800D02*
X161041600Y-89758400D01*
X161041600Y-89758400D02*
X161482199Y-89317801D01*
X157137100Y-97028000D02*
X157619700Y-96545400D01*
X157619700Y-96545400D02*
X158470600Y-95694500D01*
X155950920Y-97028000D02*
X157137100Y-97028000D01*
X142189200Y-73558400D02*
X142538450Y-73558400D01*
X142189200Y-73558400D02*
X141665960Y-73558400D01*
X157515100Y-96650000D02*
X157137100Y-97028000D01*
X158470600Y-95694500D02*
X158470600Y-93649800D01*
D24*
G04 #@! TO.N,D2/IRQ*
X129710001Y-90799962D02*
X129710001Y-89160000D01*
X129710001Y-89160000D02*
X129710001Y-89011999D01*
X128987886Y-88238620D02*
X129710001Y-88960735D01*
X129710001Y-88960735D02*
X129710001Y-89160000D01*
X128420176Y-84750000D02*
X129479990Y-83690186D01*
X129479990Y-83690186D02*
X129479990Y-83549953D01*
X129479990Y-83549953D02*
X129479990Y-78279940D01*
X129479990Y-78279940D02*
X127298450Y-76098400D01*
X127298450Y-76098400D02*
X126949200Y-76098400D01*
X129310019Y-95610019D02*
X129310019Y-91199944D01*
X129310019Y-91199944D02*
X129710001Y-90799962D01*
X129510010Y-95810010D02*
X129310019Y-95610019D01*
X133070000Y-96600000D02*
X130300000Y-96600000D01*
X130300000Y-96600000D02*
X129510010Y-95810010D01*
X134650000Y-98180000D02*
X133070000Y-96600000D01*
X134650000Y-98180000D02*
X134650000Y-100289601D01*
X134650000Y-100289601D02*
X136540000Y-102179601D01*
X136540000Y-102179601D02*
X136540000Y-105501200D01*
X136540000Y-105501200D02*
X137414000Y-106375200D01*
X137414000Y-106375200D02*
X137414000Y-107193070D01*
X137414000Y-107076240D02*
X137414000Y-106375200D01*
X137419080Y-106380280D02*
X137419080Y-107127040D01*
X137414000Y-106375200D02*
X137419080Y-106380280D01*
G04 #@! TO.N,CS*
X145550000Y-63230000D02*
X146241839Y-63921839D01*
X148068850Y-75388850D02*
X148289990Y-75609990D01*
X146241839Y-63921839D02*
X146241839Y-70200677D01*
X146241839Y-70200677D02*
X148068850Y-72027688D01*
X148068850Y-72027688D02*
X148068850Y-75388850D01*
X148289990Y-75609990D02*
X150187110Y-75609990D01*
X150187110Y-75609990D02*
X152080000Y-77502880D01*
X152080000Y-77502880D02*
X152080000Y-79580000D01*
X152080000Y-79580000D02*
X150810000Y-80850000D01*
D26*
G04 #@! TO.N,CSN*
X142189200Y-93878400D02*
X141767037Y-93878400D01*
X141767037Y-93878400D02*
X136249343Y-88360706D01*
X136249343Y-88360706D02*
X136249343Y-64976533D01*
X147568840Y-72234798D02*
X147568840Y-75600298D01*
X136249343Y-64976533D02*
X138338085Y-62887792D01*
X138338085Y-62887792D02*
X143802056Y-62887793D01*
X143802056Y-62887793D02*
X145741829Y-64827566D01*
X145741829Y-64827566D02*
X145741829Y-70407787D01*
X145741829Y-70407787D02*
X147568840Y-72234798D01*
X147568840Y-75600298D02*
X148078542Y-76110000D01*
X148078542Y-76110000D02*
X149980000Y-76110000D01*
X149980000Y-76110000D02*
X150810000Y-76940000D01*
X150810000Y-76940000D02*
X150810000Y-78310000D01*
D24*
G04 #@! TO.N,Net-(JP3-Pad2)*
X138110000Y-98190000D02*
X138110000Y-98330000D01*
D27*
X138110000Y-98330000D02*
X138670000Y-98890000D01*
X138670000Y-98890000D02*
X138670000Y-101748560D01*
D24*
X138670000Y-101748560D02*
X138677601Y-101756161D01*
D27*
X138856720Y-107609640D02*
X138856720Y-107185376D01*
X138856720Y-107185376D02*
X138677601Y-107006257D01*
X138677601Y-107006257D02*
X138677601Y-101756161D01*
D24*
G04 #@! TO.N,Net-(JP4-Pad1)*
X146680120Y-90210000D02*
X146680120Y-90400000D01*
X146680120Y-90400000D02*
X146680120Y-94989871D01*
X146681397Y-90398723D02*
X146680120Y-90400000D01*
X146681397Y-89741397D02*
X146681397Y-90398723D01*
X148240000Y-101100000D02*
X148240000Y-107431330D01*
X148240000Y-107431330D02*
X145381330Y-110290000D01*
X145381330Y-110290000D02*
X136824264Y-110290000D01*
X136824264Y-110290000D02*
X136574264Y-110040000D01*
X136574264Y-110040000D02*
X136150000Y-110040000D01*
X146680120Y-94989871D02*
X147850000Y-96159751D01*
X147850000Y-96159751D02*
X147850000Y-98668000D01*
G04 #@! TD*
D28*
G04 #@! TO.N,GND*
G36*
X154095568Y-103889701D02*
X154136123Y-103950397D01*
X154196818Y-103990952D01*
X154196821Y-103990955D01*
X154345435Y-104090255D01*
X154376599Y-104111078D01*
X154588661Y-104153260D01*
X154588665Y-104153260D01*
X154660260Y-104167501D01*
X154731855Y-104153260D01*
X156673928Y-104153260D01*
X158402005Y-105881337D01*
X158251000Y-106245896D01*
X158251000Y-107012504D01*
X158544368Y-107720758D01*
X159086442Y-108262832D01*
X159794696Y-108556200D01*
X160561304Y-108556200D01*
X160925863Y-108405195D01*
X163434106Y-110913439D01*
X163474663Y-110974137D01*
X163715139Y-111134818D01*
X163731136Y-111138000D01*
X151771752Y-111138000D01*
X153206338Y-109703414D01*
X153267037Y-109662857D01*
X153427718Y-109422381D01*
X153469900Y-109210319D01*
X153469900Y-109210315D01*
X153484141Y-109138721D01*
X153469900Y-109067127D01*
X153469900Y-108143170D01*
X153843635Y-108143170D01*
X154003418Y-108461939D01*
X154794187Y-108771923D01*
X155643387Y-108755697D01*
X156352582Y-108461939D01*
X156512365Y-108143170D01*
X155178000Y-106808805D01*
X153843635Y-108143170D01*
X153469900Y-108143170D01*
X153469900Y-107866257D01*
X153664030Y-107963565D01*
X154998395Y-106629200D01*
X155357605Y-106629200D01*
X156691970Y-107963565D01*
X157010739Y-107803782D01*
X157320723Y-107013013D01*
X157304497Y-106163813D01*
X157010739Y-105454618D01*
X156691970Y-105294835D01*
X155357605Y-106629200D01*
X154998395Y-106629200D01*
X153664030Y-105294835D01*
X153469900Y-105392143D01*
X153469900Y-105115230D01*
X153843635Y-105115230D01*
X155178000Y-106449595D01*
X156512365Y-105115230D01*
X156352582Y-104796461D01*
X155561813Y-104486477D01*
X154712613Y-104502703D01*
X154003418Y-104796461D01*
X153843635Y-105115230D01*
X153469900Y-105115230D01*
X153469900Y-103264034D01*
X154095568Y-103889701D01*
X154095568Y-103889701D01*
G37*
X154095568Y-103889701D02*
X154136123Y-103950397D01*
X154196818Y-103990952D01*
X154196821Y-103990955D01*
X154345435Y-104090255D01*
X154376599Y-104111078D01*
X154588661Y-104153260D01*
X154588665Y-104153260D01*
X154660260Y-104167501D01*
X154731855Y-104153260D01*
X156673928Y-104153260D01*
X158402005Y-105881337D01*
X158251000Y-106245896D01*
X158251000Y-107012504D01*
X158544368Y-107720758D01*
X159086442Y-108262832D01*
X159794696Y-108556200D01*
X160561304Y-108556200D01*
X160925863Y-108405195D01*
X163434106Y-110913439D01*
X163474663Y-110974137D01*
X163715139Y-111134818D01*
X163731136Y-111138000D01*
X151771752Y-111138000D01*
X153206338Y-109703414D01*
X153267037Y-109662857D01*
X153427718Y-109422381D01*
X153469900Y-109210319D01*
X153469900Y-109210315D01*
X153484141Y-109138721D01*
X153469900Y-109067127D01*
X153469900Y-108143170D01*
X153843635Y-108143170D01*
X154003418Y-108461939D01*
X154794187Y-108771923D01*
X155643387Y-108755697D01*
X156352582Y-108461939D01*
X156512365Y-108143170D01*
X155178000Y-106808805D01*
X153843635Y-108143170D01*
X153469900Y-108143170D01*
X153469900Y-107866257D01*
X153664030Y-107963565D01*
X154998395Y-106629200D01*
X155357605Y-106629200D01*
X156691970Y-107963565D01*
X157010739Y-107803782D01*
X157320723Y-107013013D01*
X157304497Y-106163813D01*
X157010739Y-105454618D01*
X156691970Y-105294835D01*
X155357605Y-106629200D01*
X154998395Y-106629200D01*
X153664030Y-105294835D01*
X153469900Y-105392143D01*
X153469900Y-105115230D01*
X153843635Y-105115230D01*
X155178000Y-106449595D01*
X156512365Y-105115230D01*
X156352582Y-104796461D01*
X155561813Y-104486477D01*
X154712613Y-104502703D01*
X154003418Y-104796461D01*
X153843635Y-105115230D01*
X153469900Y-105115230D01*
X153469900Y-103264034D01*
X154095568Y-103889701D01*
G36*
X174108001Y-111138000D02*
X169097664Y-111138000D01*
X169113661Y-111134818D01*
X169354137Y-110974137D01*
X169394696Y-110913436D01*
X170173440Y-110134693D01*
X170234136Y-110094137D01*
X170274692Y-110033441D01*
X170274694Y-110033439D01*
X170394818Y-109853661D01*
X170394818Y-109853660D01*
X170410909Y-109772765D01*
X170736276Y-110098132D01*
X171352644Y-110353440D01*
X172019796Y-110353440D01*
X172636164Y-110098132D01*
X173107912Y-109626384D01*
X173363220Y-109010016D01*
X173363220Y-108342864D01*
X173107912Y-107726496D01*
X172636164Y-107254748D01*
X172019796Y-106999440D01*
X171352644Y-106999440D01*
X170736276Y-107254748D01*
X170437000Y-107554024D01*
X170437000Y-102341132D01*
X171241556Y-101536577D01*
X171344231Y-101557000D01*
X171595769Y-101557000D01*
X171968260Y-101482907D01*
X172390665Y-101200665D01*
X172672907Y-100778260D01*
X172772017Y-100280000D01*
X172672907Y-99781740D01*
X172390665Y-99359335D01*
X171968260Y-99077093D01*
X171595769Y-99003000D01*
X171344231Y-99003000D01*
X171241556Y-99023423D01*
X171184697Y-98966565D01*
X171184695Y-98966562D01*
X170536999Y-98318867D01*
X170536999Y-95781592D01*
X170551240Y-95709998D01*
X170536999Y-95638404D01*
X170536999Y-95638400D01*
X170494817Y-95426338D01*
X170402943Y-95288840D01*
X170374693Y-95246560D01*
X170374691Y-95246558D01*
X170334135Y-95185862D01*
X170273439Y-95145306D01*
X169524696Y-94396564D01*
X169484137Y-94335863D01*
X169243661Y-94175182D01*
X169031599Y-94133000D01*
X169031595Y-94133000D01*
X168960000Y-94118759D01*
X168888405Y-94133000D01*
X167551133Y-94133000D01*
X166347000Y-92928868D01*
X166347000Y-92547745D01*
X166701861Y-92547745D01*
X166775995Y-92793864D01*
X167313223Y-92986965D01*
X167883454Y-92959778D01*
X168284005Y-92793864D01*
X168358139Y-92547745D01*
X167530000Y-91719605D01*
X166701861Y-92547745D01*
X166347000Y-92547745D01*
X166347000Y-92315350D01*
X166522255Y-92368139D01*
X167350395Y-91540000D01*
X166522255Y-90711861D01*
X166347000Y-90764650D01*
X166347000Y-90532255D01*
X166701861Y-90532255D01*
X167530000Y-91360395D01*
X168358139Y-90532255D01*
X168284005Y-90286136D01*
X167746777Y-90093035D01*
X167176546Y-90120222D01*
X166775995Y-90286136D01*
X166701861Y-90532255D01*
X166347000Y-90532255D01*
X166347000Y-89281557D01*
X166361241Y-89209962D01*
X166347000Y-89138365D01*
X166347000Y-89138364D01*
X166304818Y-88926302D01*
X166231317Y-88816300D01*
X166184694Y-88746524D01*
X166184692Y-88746522D01*
X166160289Y-88710000D01*
X166852677Y-88710000D01*
X166893578Y-88915625D01*
X166980654Y-89045944D01*
X167064056Y-89129346D01*
X167194375Y-89216422D01*
X167399999Y-89257323D01*
X167605625Y-89216422D01*
X167779945Y-89099945D01*
X167896422Y-88925625D01*
X167937323Y-88719999D01*
X167896422Y-88514375D01*
X167809346Y-88384056D01*
X167725944Y-88300654D01*
X167595625Y-88213578D01*
X167390000Y-88172677D01*
X167184375Y-88213578D01*
X167010055Y-88330055D01*
X166893578Y-88504375D01*
X166852677Y-88710000D01*
X166160289Y-88710000D01*
X166144136Y-88685826D01*
X166083440Y-88645270D01*
X165827000Y-88388831D01*
X165827000Y-88098239D01*
X166140200Y-87785039D01*
X166327000Y-87334065D01*
X166327000Y-86845935D01*
X166140200Y-86394961D01*
X165852239Y-86107000D01*
X166615710Y-86107000D01*
X167134657Y-86625948D01*
X167164056Y-86669946D01*
X167208053Y-86699344D01*
X167208056Y-86699347D01*
X167302163Y-86762227D01*
X167338376Y-86786424D01*
X167492098Y-86817001D01*
X167492102Y-86817001D01*
X167544000Y-86827324D01*
X167595898Y-86817001D01*
X171523265Y-86817001D01*
X171468962Y-87090000D01*
X171564192Y-87568752D01*
X171835383Y-87974617D01*
X172193000Y-88213570D01*
X172193000Y-88841709D01*
X170730075Y-90304635D01*
X169230000Y-90304635D01*
X169063393Y-90337775D01*
X168922150Y-90432150D01*
X168827775Y-90573393D01*
X168794635Y-90740000D01*
X168794635Y-90811998D01*
X168783864Y-90785995D01*
X168537745Y-90711861D01*
X167709605Y-91540000D01*
X168537745Y-92368139D01*
X168783864Y-92294005D01*
X168794635Y-92264039D01*
X168794635Y-92340000D01*
X168827775Y-92506607D01*
X168922150Y-92647850D01*
X169063393Y-92742225D01*
X169230000Y-92775365D01*
X170830000Y-92775365D01*
X170996607Y-92742225D01*
X171137850Y-92647850D01*
X171232225Y-92506607D01*
X171265365Y-92340000D01*
X171265365Y-91259925D01*
X173055948Y-89469343D01*
X173099945Y-89439945D01*
X173129343Y-89395948D01*
X173129346Y-89395945D01*
X173216423Y-89265626D01*
X173228666Y-89204073D01*
X173247000Y-89111903D01*
X173247000Y-89111899D01*
X173257323Y-89060000D01*
X173247000Y-89008101D01*
X173247000Y-88213570D01*
X173604617Y-87974617D01*
X173875808Y-87568752D01*
X173971038Y-87090000D01*
X173875808Y-86611248D01*
X173604617Y-86205383D01*
X173247000Y-85966430D01*
X173247000Y-85003570D01*
X173604617Y-84764617D01*
X173875808Y-84358752D01*
X173971038Y-83880000D01*
X173875808Y-83401248D01*
X173604617Y-82995383D01*
X173198752Y-82724192D01*
X172840847Y-82653000D01*
X172599153Y-82653000D01*
X172241248Y-82724192D01*
X171835383Y-82995383D01*
X171564192Y-83401248D01*
X171468962Y-83880000D01*
X171564192Y-84358752D01*
X171835383Y-84764617D01*
X172193000Y-85003570D01*
X172193000Y-85838596D01*
X172125626Y-85793578D01*
X171971904Y-85763001D01*
X171971899Y-85763001D01*
X171920001Y-85752678D01*
X171868103Y-85763001D01*
X167762292Y-85763001D01*
X167243345Y-85244055D01*
X167213945Y-85200055D01*
X167039625Y-85083577D01*
X166885903Y-85053000D01*
X166885898Y-85053000D01*
X166834000Y-85042677D01*
X166782102Y-85053000D01*
X165878362Y-85053000D01*
X165928139Y-84887745D01*
X165100000Y-84059605D01*
X164271861Y-84887745D01*
X164321638Y-85053000D01*
X163101897Y-85053000D01*
X163049999Y-85042677D01*
X162998101Y-85053000D01*
X162998097Y-85053000D01*
X162844375Y-85083577D01*
X162813533Y-85104185D01*
X162714055Y-85170654D01*
X162714052Y-85170657D01*
X162670055Y-85200055D01*
X162640656Y-85244053D01*
X162511709Y-85373000D01*
X162385391Y-85373000D01*
X162209199Y-85445981D01*
X162209199Y-84883132D01*
X162363438Y-84728893D01*
X162424136Y-84688336D01*
X162584818Y-84447860D01*
X162627000Y-84235798D01*
X162627000Y-84235794D01*
X162641241Y-84164199D01*
X162627000Y-84092604D01*
X162627000Y-83663223D01*
X163653035Y-83663223D01*
X163680222Y-84233454D01*
X163846136Y-84634005D01*
X164092255Y-84708139D01*
X164920395Y-83880000D01*
X165279605Y-83880000D01*
X166107745Y-84708139D01*
X166353864Y-84634005D01*
X166546965Y-84096777D01*
X166519778Y-83526546D01*
X166353864Y-83125995D01*
X166107745Y-83051861D01*
X165279605Y-83880000D01*
X164920395Y-83880000D01*
X164092255Y-83051861D01*
X163846136Y-83125995D01*
X163653035Y-83663223D01*
X162627000Y-83663223D01*
X162627000Y-82872255D01*
X164271861Y-82872255D01*
X165100000Y-83700395D01*
X165928139Y-82872255D01*
X165854005Y-82626136D01*
X165316777Y-82433035D01*
X164746546Y-82460222D01*
X164345995Y-82626136D01*
X164271861Y-82872255D01*
X162627000Y-82872255D01*
X162627000Y-78615989D01*
X163563000Y-78615989D01*
X163563000Y-79124011D01*
X163757412Y-79593362D01*
X164116638Y-79952588D01*
X164585989Y-80147000D01*
X165094011Y-80147000D01*
X165563362Y-79952588D01*
X165922588Y-79593362D01*
X166117000Y-79124011D01*
X166117000Y-79066152D01*
X166177093Y-79368260D01*
X166459335Y-79790665D01*
X166881740Y-80072907D01*
X167254231Y-80147000D01*
X167505769Y-80147000D01*
X167878260Y-80072907D01*
X168300665Y-79790665D01*
X168582907Y-79368260D01*
X168650000Y-79030960D01*
X168717093Y-79368260D01*
X168999335Y-79790665D01*
X169421740Y-80072907D01*
X169794231Y-80147000D01*
X170045769Y-80147000D01*
X170418260Y-80072907D01*
X170840665Y-79790665D01*
X171122907Y-79368260D01*
X171190000Y-79030960D01*
X171257093Y-79368260D01*
X171539335Y-79790665D01*
X171961740Y-80072907D01*
X172334231Y-80147000D01*
X172585769Y-80147000D01*
X172958260Y-80072907D01*
X173380665Y-79790665D01*
X173662907Y-79368260D01*
X173762017Y-78870000D01*
X173662907Y-78371740D01*
X173380665Y-77949335D01*
X172958260Y-77667093D01*
X172585769Y-77593000D01*
X172334231Y-77593000D01*
X171961740Y-77667093D01*
X171539335Y-77949335D01*
X171257093Y-78371740D01*
X171190000Y-78709040D01*
X171122907Y-78371740D01*
X170840665Y-77949335D01*
X170418260Y-77667093D01*
X170045769Y-77593000D01*
X169794231Y-77593000D01*
X169421740Y-77667093D01*
X168999335Y-77949335D01*
X168717093Y-78371740D01*
X168650000Y-78709040D01*
X168582907Y-78371740D01*
X168300665Y-77949335D01*
X167878260Y-77667093D01*
X167505769Y-77593000D01*
X167254231Y-77593000D01*
X166881740Y-77667093D01*
X166459335Y-77949335D01*
X166177093Y-78371740D01*
X166117000Y-78673848D01*
X166117000Y-78615989D01*
X165922588Y-78146638D01*
X165563362Y-77787412D01*
X165094011Y-77593000D01*
X164585989Y-77593000D01*
X164116638Y-77787412D01*
X163757412Y-78146638D01*
X163563000Y-78615989D01*
X162627000Y-78615989D01*
X162627000Y-70971279D01*
X163343282Y-70971279D01*
X163369685Y-71561458D01*
X163544741Y-71984080D01*
X163796042Y-72064353D01*
X164660395Y-71200000D01*
X163796042Y-70335647D01*
X163544741Y-70415920D01*
X163343282Y-70971279D01*
X162627000Y-70971279D01*
X162627000Y-69961132D01*
X163151133Y-69437000D01*
X163771050Y-69437000D01*
X164126638Y-69792588D01*
X164226659Y-69834018D01*
X164055920Y-69904741D01*
X163975647Y-70156042D01*
X164840000Y-71020395D01*
X165704353Y-70156042D01*
X165624080Y-69904741D01*
X165452695Y-69842570D01*
X165573362Y-69792588D01*
X165928950Y-69437000D01*
X166339932Y-69437000D01*
X166469335Y-69630665D01*
X166799376Y-69851192D01*
X166613076Y-69928355D01*
X166184817Y-70318642D01*
X166137074Y-70420303D01*
X166135259Y-70415920D01*
X165883958Y-70335647D01*
X165019605Y-71200000D01*
X165883958Y-72064353D01*
X166135259Y-71984080D01*
X166136947Y-71979426D01*
X166184817Y-72081358D01*
X166613076Y-72471645D01*
X166833225Y-72562828D01*
X166449335Y-72819335D01*
X166167093Y-73241740D01*
X166107000Y-73543848D01*
X166107000Y-73485989D01*
X165912588Y-73016638D01*
X165553362Y-72657412D01*
X165392985Y-72590982D01*
X165624080Y-72495259D01*
X165704353Y-72243958D01*
X164840000Y-71379605D01*
X163975647Y-72243958D01*
X164055920Y-72495259D01*
X164291658Y-72580774D01*
X164106638Y-72657412D01*
X163747412Y-73016638D01*
X163553000Y-73485989D01*
X163553000Y-73994011D01*
X163747412Y-74463362D01*
X164106638Y-74822588D01*
X164534947Y-75000000D01*
X164106638Y-75177412D01*
X163747412Y-75536638D01*
X163553000Y-76005989D01*
X163553000Y-76514011D01*
X163747412Y-76983362D01*
X164106638Y-77342588D01*
X164575989Y-77537000D01*
X165084011Y-77537000D01*
X165553362Y-77342588D01*
X165912588Y-76983362D01*
X166107000Y-76514011D01*
X166107000Y-76456152D01*
X166167093Y-76758260D01*
X166449335Y-77180665D01*
X166871740Y-77462907D01*
X167244231Y-77537000D01*
X167495769Y-77537000D01*
X167868260Y-77462907D01*
X168290665Y-77180665D01*
X168572907Y-76758260D01*
X168640000Y-76420960D01*
X168707093Y-76758260D01*
X168989335Y-77180665D01*
X169411740Y-77462907D01*
X169784231Y-77537000D01*
X170035769Y-77537000D01*
X170408260Y-77462907D01*
X170830665Y-77180665D01*
X171112907Y-76758260D01*
X171180000Y-76420960D01*
X171247093Y-76758260D01*
X171529335Y-77180665D01*
X171951740Y-77462907D01*
X172324231Y-77537000D01*
X172575769Y-77537000D01*
X172948260Y-77462907D01*
X173370665Y-77180665D01*
X173652907Y-76758260D01*
X173752017Y-76260000D01*
X173652907Y-75761740D01*
X173370665Y-75339335D01*
X172948260Y-75057093D01*
X172661234Y-75000000D01*
X172948260Y-74942907D01*
X173370665Y-74660665D01*
X173652907Y-74238260D01*
X173752017Y-73740000D01*
X173652907Y-73241740D01*
X173370665Y-72819335D01*
X172994428Y-72567942D01*
X173226924Y-72471645D01*
X173655183Y-72081358D01*
X173901486Y-71556892D01*
X173780819Y-71327000D01*
X172587000Y-71327000D01*
X172587000Y-71347000D01*
X172333000Y-71347000D01*
X172333000Y-71327000D01*
X170047000Y-71327000D01*
X170047000Y-71347000D01*
X169793000Y-71347000D01*
X169793000Y-71327000D01*
X167507000Y-71327000D01*
X167507000Y-71347000D01*
X167253000Y-71347000D01*
X167253000Y-71327000D01*
X167233000Y-71327000D01*
X167233000Y-71073000D01*
X167253000Y-71073000D01*
X167253000Y-71053000D01*
X167507000Y-71053000D01*
X167507000Y-71073000D01*
X169793000Y-71073000D01*
X169793000Y-71053000D01*
X170047000Y-71053000D01*
X170047000Y-71073000D01*
X172333000Y-71073000D01*
X172333000Y-71053000D01*
X172587000Y-71053000D01*
X172587000Y-71073000D01*
X173780819Y-71073000D01*
X173901486Y-70843108D01*
X173655183Y-70318642D01*
X173226924Y-69928355D01*
X173052970Y-69856305D01*
X173390665Y-69630665D01*
X173672907Y-69208260D01*
X173772017Y-68710000D01*
X173672907Y-68211740D01*
X173390665Y-67789335D01*
X172968260Y-67507093D01*
X172595769Y-67433000D01*
X172344231Y-67433000D01*
X171971740Y-67507093D01*
X171549335Y-67789335D01*
X171419932Y-67983000D01*
X170980068Y-67983000D01*
X170850665Y-67789335D01*
X170428260Y-67507093D01*
X170055769Y-67433000D01*
X169804231Y-67433000D01*
X169431740Y-67507093D01*
X169009335Y-67789335D01*
X168879932Y-67983000D01*
X168440068Y-67983000D01*
X168310665Y-67789335D01*
X167888260Y-67507093D01*
X167596234Y-67449005D01*
X167878260Y-67392907D01*
X168300665Y-67110665D01*
X168582907Y-66688260D01*
X168682017Y-66190000D01*
X168582907Y-65691740D01*
X168300665Y-65269335D01*
X167878260Y-64987093D01*
X167596234Y-64930995D01*
X167888260Y-64872907D01*
X168310665Y-64590665D01*
X168592907Y-64168260D01*
X168672837Y-63766424D01*
X170353000Y-63766424D01*
X170353000Y-64433576D01*
X170608308Y-65049944D01*
X171080056Y-65521692D01*
X171696424Y-65777000D01*
X172363576Y-65777000D01*
X172979944Y-65521692D01*
X173451692Y-65049944D01*
X173707000Y-64433576D01*
X173707000Y-63766424D01*
X173451692Y-63150056D01*
X172979944Y-62678308D01*
X172363576Y-62423000D01*
X171696424Y-62423000D01*
X171080056Y-62678308D01*
X170608308Y-63150056D01*
X170353000Y-63766424D01*
X168672837Y-63766424D01*
X168692017Y-63670000D01*
X168592907Y-63171740D01*
X168310665Y-62749335D01*
X167888260Y-62467093D01*
X167515769Y-62393000D01*
X167264231Y-62393000D01*
X166891740Y-62467093D01*
X166469335Y-62749335D01*
X166187093Y-63171740D01*
X166127000Y-63473848D01*
X166127000Y-63415989D01*
X165932588Y-62946638D01*
X165573362Y-62587412D01*
X165104011Y-62393000D01*
X164595989Y-62393000D01*
X164126638Y-62587412D01*
X163767412Y-62946638D01*
X163573000Y-63415989D01*
X163573000Y-63924011D01*
X163767412Y-64393362D01*
X164126638Y-64752588D01*
X164549947Y-64927929D01*
X164116638Y-65107412D01*
X163757412Y-65466638D01*
X163563000Y-65935989D01*
X163563000Y-66444011D01*
X163757412Y-66913362D01*
X164116638Y-67272588D01*
X164549947Y-67452071D01*
X164126638Y-67627412D01*
X163771050Y-67983000D01*
X162921595Y-67983000D01*
X162850000Y-67968759D01*
X162778405Y-67983000D01*
X162778401Y-67983000D01*
X162566339Y-68025182D01*
X162325863Y-68185863D01*
X162285305Y-68246562D01*
X161436562Y-69095306D01*
X161375864Y-69135863D01*
X161335307Y-69196561D01*
X161335306Y-69196562D01*
X161215182Y-69376340D01*
X161158759Y-69660000D01*
X161173001Y-69731600D01*
X161173000Y-83855000D01*
X153502271Y-83855000D01*
X153430676Y-83840759D01*
X153359081Y-83855000D01*
X153359077Y-83855000D01*
X153147015Y-83897182D01*
X152967237Y-84017305D01*
X152967234Y-84017308D01*
X152906539Y-84057863D01*
X152865983Y-84118559D01*
X152471533Y-84513010D01*
X146889282Y-84513012D01*
X146393270Y-84017000D01*
X152518254Y-84017000D01*
X152580000Y-84029282D01*
X152641746Y-84017000D01*
X152641750Y-84017000D01*
X152824643Y-83980620D01*
X153032041Y-83842041D01*
X153067020Y-83789691D01*
X153749694Y-83107018D01*
X153802041Y-83072041D01*
X153940620Y-82864643D01*
X153977000Y-82681750D01*
X153977000Y-82681746D01*
X153989282Y-82620001D01*
X153977000Y-82558256D01*
X153977000Y-81983243D01*
X154280470Y-81780470D01*
X154565718Y-81353567D01*
X154620000Y-81080674D01*
X154674282Y-81353567D01*
X154959530Y-81780470D01*
X155386433Y-82065718D01*
X155762889Y-82140600D01*
X156017111Y-82140600D01*
X156393567Y-82065718D01*
X156820470Y-81780470D01*
X157105718Y-81353567D01*
X157205884Y-80850000D01*
X157105718Y-80346433D01*
X156820470Y-79919530D01*
X156393567Y-79634282D01*
X156120674Y-79580000D01*
X156393567Y-79525718D01*
X156820470Y-79240470D01*
X157105718Y-78813567D01*
X157205884Y-78310000D01*
X157105718Y-77806433D01*
X156820470Y-77379530D01*
X156393567Y-77094282D01*
X156017111Y-77019400D01*
X155762889Y-77019400D01*
X155386433Y-77094282D01*
X154959530Y-77379530D01*
X154674282Y-77806433D01*
X154620000Y-78079326D01*
X154565718Y-77806433D01*
X154280470Y-77379530D01*
X153853567Y-77094282D01*
X153477111Y-77019400D01*
X153222889Y-77019400D01*
X152846433Y-77094282D01*
X152566003Y-77281660D01*
X152489346Y-77166935D01*
X152489343Y-77166932D01*
X152459945Y-77122935D01*
X152415948Y-77093537D01*
X150596455Y-75274045D01*
X150567055Y-75230045D01*
X150392735Y-75113567D01*
X150239013Y-75082990D01*
X150239008Y-75082990D01*
X150187110Y-75072667D01*
X150135212Y-75082990D01*
X149625144Y-75082990D01*
X149656321Y-75051813D01*
X149684262Y-74984358D01*
X149724818Y-74923661D01*
X149739060Y-74852063D01*
X149767000Y-74784609D01*
X149767000Y-72080468D01*
X149781241Y-72008874D01*
X149767000Y-71937280D01*
X149767000Y-71937276D01*
X149724818Y-71725214D01*
X149615399Y-71561458D01*
X149604694Y-71545436D01*
X149604692Y-71545434D01*
X149564136Y-71484738D01*
X149503440Y-71444182D01*
X149139750Y-71080492D01*
X147668849Y-69609593D01*
X147668849Y-63704904D01*
X149097400Y-63704904D01*
X149097400Y-64372056D01*
X149352708Y-64988424D01*
X149824456Y-65460172D01*
X150440824Y-65715480D01*
X151107976Y-65715480D01*
X151724344Y-65460172D01*
X152196092Y-64988424D01*
X152451400Y-64372056D01*
X152451400Y-63704904D01*
X152196092Y-63088536D01*
X151724344Y-62616788D01*
X151107976Y-62361480D01*
X150440824Y-62361480D01*
X149824456Y-62616788D01*
X149352708Y-63088536D01*
X149097400Y-63704904D01*
X147668849Y-63704904D01*
X147668849Y-63361440D01*
X147683090Y-63289846D01*
X147668849Y-63218252D01*
X147668849Y-63218248D01*
X147626667Y-63006186D01*
X147529525Y-62860803D01*
X147506543Y-62826408D01*
X147506541Y-62826406D01*
X147465985Y-62765710D01*
X147405289Y-62725154D01*
X146692134Y-62012000D01*
X174108000Y-62012000D01*
X174108001Y-111138000D01*
X174108001Y-111138000D01*
G37*
X174108001Y-111138000D02*
X169097664Y-111138000D01*
X169113661Y-111134818D01*
X169354137Y-110974137D01*
X169394696Y-110913436D01*
X170173440Y-110134693D01*
X170234136Y-110094137D01*
X170274692Y-110033441D01*
X170274694Y-110033439D01*
X170394818Y-109853661D01*
X170394818Y-109853660D01*
X170410909Y-109772765D01*
X170736276Y-110098132D01*
X171352644Y-110353440D01*
X172019796Y-110353440D01*
X172636164Y-110098132D01*
X173107912Y-109626384D01*
X173363220Y-109010016D01*
X173363220Y-108342864D01*
X173107912Y-107726496D01*
X172636164Y-107254748D01*
X172019796Y-106999440D01*
X171352644Y-106999440D01*
X170736276Y-107254748D01*
X170437000Y-107554024D01*
X170437000Y-102341132D01*
X171241556Y-101536577D01*
X171344231Y-101557000D01*
X171595769Y-101557000D01*
X171968260Y-101482907D01*
X172390665Y-101200665D01*
X172672907Y-100778260D01*
X172772017Y-100280000D01*
X172672907Y-99781740D01*
X172390665Y-99359335D01*
X171968260Y-99077093D01*
X171595769Y-99003000D01*
X171344231Y-99003000D01*
X171241556Y-99023423D01*
X171184697Y-98966565D01*
X171184695Y-98966562D01*
X170536999Y-98318867D01*
X170536999Y-95781592D01*
X170551240Y-95709998D01*
X170536999Y-95638404D01*
X170536999Y-95638400D01*
X170494817Y-95426338D01*
X170402943Y-95288840D01*
X170374693Y-95246560D01*
X170374691Y-95246558D01*
X170334135Y-95185862D01*
X170273439Y-95145306D01*
X169524696Y-94396564D01*
X169484137Y-94335863D01*
X169243661Y-94175182D01*
X169031599Y-94133000D01*
X169031595Y-94133000D01*
X168960000Y-94118759D01*
X168888405Y-94133000D01*
X167551133Y-94133000D01*
X166347000Y-92928868D01*
X166347000Y-92547745D01*
X166701861Y-92547745D01*
X166775995Y-92793864D01*
X167313223Y-92986965D01*
X167883454Y-92959778D01*
X168284005Y-92793864D01*
X168358139Y-92547745D01*
X167530000Y-91719605D01*
X166701861Y-92547745D01*
X166347000Y-92547745D01*
X166347000Y-92315350D01*
X166522255Y-92368139D01*
X167350395Y-91540000D01*
X166522255Y-90711861D01*
X166347000Y-90764650D01*
X166347000Y-90532255D01*
X166701861Y-90532255D01*
X167530000Y-91360395D01*
X168358139Y-90532255D01*
X168284005Y-90286136D01*
X167746777Y-90093035D01*
X167176546Y-90120222D01*
X166775995Y-90286136D01*
X166701861Y-90532255D01*
X166347000Y-90532255D01*
X166347000Y-89281557D01*
X166361241Y-89209962D01*
X166347000Y-89138365D01*
X166347000Y-89138364D01*
X166304818Y-88926302D01*
X166231317Y-88816300D01*
X166184694Y-88746524D01*
X166184692Y-88746522D01*
X166160289Y-88710000D01*
X166852677Y-88710000D01*
X166893578Y-88915625D01*
X166980654Y-89045944D01*
X167064056Y-89129346D01*
X167194375Y-89216422D01*
X167399999Y-89257323D01*
X167605625Y-89216422D01*
X167779945Y-89099945D01*
X167896422Y-88925625D01*
X167937323Y-88719999D01*
X167896422Y-88514375D01*
X167809346Y-88384056D01*
X167725944Y-88300654D01*
X167595625Y-88213578D01*
X167390000Y-88172677D01*
X167184375Y-88213578D01*
X167010055Y-88330055D01*
X166893578Y-88504375D01*
X166852677Y-88710000D01*
X166160289Y-88710000D01*
X166144136Y-88685826D01*
X166083440Y-88645270D01*
X165827000Y-88388831D01*
X165827000Y-88098239D01*
X166140200Y-87785039D01*
X166327000Y-87334065D01*
X166327000Y-86845935D01*
X166140200Y-86394961D01*
X165852239Y-86107000D01*
X166615710Y-86107000D01*
X167134657Y-86625948D01*
X167164056Y-86669946D01*
X167208053Y-86699344D01*
X167208056Y-86699347D01*
X167302163Y-86762227D01*
X167338376Y-86786424D01*
X167492098Y-86817001D01*
X167492102Y-86817001D01*
X167544000Y-86827324D01*
X167595898Y-86817001D01*
X171523265Y-86817001D01*
X171468962Y-87090000D01*
X171564192Y-87568752D01*
X171835383Y-87974617D01*
X172193000Y-88213570D01*
X172193000Y-88841709D01*
X170730075Y-90304635D01*
X169230000Y-90304635D01*
X169063393Y-90337775D01*
X168922150Y-90432150D01*
X168827775Y-90573393D01*
X168794635Y-90740000D01*
X168794635Y-90811998D01*
X168783864Y-90785995D01*
X168537745Y-90711861D01*
X167709605Y-91540000D01*
X168537745Y-92368139D01*
X168783864Y-92294005D01*
X168794635Y-92264039D01*
X168794635Y-92340000D01*
X168827775Y-92506607D01*
X168922150Y-92647850D01*
X169063393Y-92742225D01*
X169230000Y-92775365D01*
X170830000Y-92775365D01*
X170996607Y-92742225D01*
X171137850Y-92647850D01*
X171232225Y-92506607D01*
X171265365Y-92340000D01*
X171265365Y-91259925D01*
X173055948Y-89469343D01*
X173099945Y-89439945D01*
X173129343Y-89395948D01*
X173129346Y-89395945D01*
X173216423Y-89265626D01*
X173228666Y-89204073D01*
X173247000Y-89111903D01*
X173247000Y-89111899D01*
X173257323Y-89060000D01*
X173247000Y-89008101D01*
X173247000Y-88213570D01*
X173604617Y-87974617D01*
X173875808Y-87568752D01*
X173971038Y-87090000D01*
X173875808Y-86611248D01*
X173604617Y-86205383D01*
X173247000Y-85966430D01*
X173247000Y-85003570D01*
X173604617Y-84764617D01*
X173875808Y-84358752D01*
X173971038Y-83880000D01*
X173875808Y-83401248D01*
X173604617Y-82995383D01*
X173198752Y-82724192D01*
X172840847Y-82653000D01*
X172599153Y-82653000D01*
X172241248Y-82724192D01*
X171835383Y-82995383D01*
X171564192Y-83401248D01*
X171468962Y-83880000D01*
X171564192Y-84358752D01*
X171835383Y-84764617D01*
X172193000Y-85003570D01*
X172193000Y-85838596D01*
X172125626Y-85793578D01*
X171971904Y-85763001D01*
X171971899Y-85763001D01*
X171920001Y-85752678D01*
X171868103Y-85763001D01*
X167762292Y-85763001D01*
X167243345Y-85244055D01*
X167213945Y-85200055D01*
X167039625Y-85083577D01*
X166885903Y-85053000D01*
X166885898Y-85053000D01*
X166834000Y-85042677D01*
X166782102Y-85053000D01*
X165878362Y-85053000D01*
X165928139Y-84887745D01*
X165100000Y-84059605D01*
X164271861Y-84887745D01*
X164321638Y-85053000D01*
X163101897Y-85053000D01*
X163049999Y-85042677D01*
X162998101Y-85053000D01*
X162998097Y-85053000D01*
X162844375Y-85083577D01*
X162813533Y-85104185D01*
X162714055Y-85170654D01*
X162714052Y-85170657D01*
X162670055Y-85200055D01*
X162640656Y-85244053D01*
X162511709Y-85373000D01*
X162385391Y-85373000D01*
X162209199Y-85445981D01*
X162209199Y-84883132D01*
X162363438Y-84728893D01*
X162424136Y-84688336D01*
X162584818Y-84447860D01*
X162627000Y-84235798D01*
X162627000Y-84235794D01*
X162641241Y-84164199D01*
X162627000Y-84092604D01*
X162627000Y-83663223D01*
X163653035Y-83663223D01*
X163680222Y-84233454D01*
X163846136Y-84634005D01*
X164092255Y-84708139D01*
X164920395Y-83880000D01*
X165279605Y-83880000D01*
X166107745Y-84708139D01*
X166353864Y-84634005D01*
X166546965Y-84096777D01*
X166519778Y-83526546D01*
X166353864Y-83125995D01*
X166107745Y-83051861D01*
X165279605Y-83880000D01*
X164920395Y-83880000D01*
X164092255Y-83051861D01*
X163846136Y-83125995D01*
X163653035Y-83663223D01*
X162627000Y-83663223D01*
X162627000Y-82872255D01*
X164271861Y-82872255D01*
X165100000Y-83700395D01*
X165928139Y-82872255D01*
X165854005Y-82626136D01*
X165316777Y-82433035D01*
X164746546Y-82460222D01*
X164345995Y-82626136D01*
X164271861Y-82872255D01*
X162627000Y-82872255D01*
X162627000Y-78615989D01*
X163563000Y-78615989D01*
X163563000Y-79124011D01*
X163757412Y-79593362D01*
X164116638Y-79952588D01*
X164585989Y-80147000D01*
X165094011Y-80147000D01*
X165563362Y-79952588D01*
X165922588Y-79593362D01*
X166117000Y-79124011D01*
X166117000Y-79066152D01*
X166177093Y-79368260D01*
X166459335Y-79790665D01*
X166881740Y-80072907D01*
X167254231Y-80147000D01*
X167505769Y-80147000D01*
X167878260Y-80072907D01*
X168300665Y-79790665D01*
X168582907Y-79368260D01*
X168650000Y-79030960D01*
X168717093Y-79368260D01*
X168999335Y-79790665D01*
X169421740Y-80072907D01*
X169794231Y-80147000D01*
X170045769Y-80147000D01*
X170418260Y-80072907D01*
X170840665Y-79790665D01*
X171122907Y-79368260D01*
X171190000Y-79030960D01*
X171257093Y-79368260D01*
X171539335Y-79790665D01*
X171961740Y-80072907D01*
X172334231Y-80147000D01*
X172585769Y-80147000D01*
X172958260Y-80072907D01*
X173380665Y-79790665D01*
X173662907Y-79368260D01*
X173762017Y-78870000D01*
X173662907Y-78371740D01*
X173380665Y-77949335D01*
X172958260Y-77667093D01*
X172585769Y-77593000D01*
X172334231Y-77593000D01*
X171961740Y-77667093D01*
X171539335Y-77949335D01*
X171257093Y-78371740D01*
X171190000Y-78709040D01*
X171122907Y-78371740D01*
X170840665Y-77949335D01*
X170418260Y-77667093D01*
X170045769Y-77593000D01*
X169794231Y-77593000D01*
X169421740Y-77667093D01*
X168999335Y-77949335D01*
X168717093Y-78371740D01*
X168650000Y-78709040D01*
X168582907Y-78371740D01*
X168300665Y-77949335D01*
X167878260Y-77667093D01*
X167505769Y-77593000D01*
X167254231Y-77593000D01*
X166881740Y-77667093D01*
X166459335Y-77949335D01*
X166177093Y-78371740D01*
X166117000Y-78673848D01*
X166117000Y-78615989D01*
X165922588Y-78146638D01*
X165563362Y-77787412D01*
X165094011Y-77593000D01*
X164585989Y-77593000D01*
X164116638Y-77787412D01*
X163757412Y-78146638D01*
X163563000Y-78615989D01*
X162627000Y-78615989D01*
X162627000Y-70971279D01*
X163343282Y-70971279D01*
X163369685Y-71561458D01*
X163544741Y-71984080D01*
X163796042Y-72064353D01*
X164660395Y-71200000D01*
X163796042Y-70335647D01*
X163544741Y-70415920D01*
X163343282Y-70971279D01*
X162627000Y-70971279D01*
X162627000Y-69961132D01*
X163151133Y-69437000D01*
X163771050Y-69437000D01*
X164126638Y-69792588D01*
X164226659Y-69834018D01*
X164055920Y-69904741D01*
X163975647Y-70156042D01*
X164840000Y-71020395D01*
X165704353Y-70156042D01*
X165624080Y-69904741D01*
X165452695Y-69842570D01*
X165573362Y-69792588D01*
X165928950Y-69437000D01*
X166339932Y-69437000D01*
X166469335Y-69630665D01*
X166799376Y-69851192D01*
X166613076Y-69928355D01*
X166184817Y-70318642D01*
X166137074Y-70420303D01*
X166135259Y-70415920D01*
X165883958Y-70335647D01*
X165019605Y-71200000D01*
X165883958Y-72064353D01*
X166135259Y-71984080D01*
X166136947Y-71979426D01*
X166184817Y-72081358D01*
X166613076Y-72471645D01*
X166833225Y-72562828D01*
X166449335Y-72819335D01*
X166167093Y-73241740D01*
X166107000Y-73543848D01*
X166107000Y-73485989D01*
X165912588Y-73016638D01*
X165553362Y-72657412D01*
X165392985Y-72590982D01*
X165624080Y-72495259D01*
X165704353Y-72243958D01*
X164840000Y-71379605D01*
X163975647Y-72243958D01*
X164055920Y-72495259D01*
X164291658Y-72580774D01*
X164106638Y-72657412D01*
X163747412Y-73016638D01*
X163553000Y-73485989D01*
X163553000Y-73994011D01*
X163747412Y-74463362D01*
X164106638Y-74822588D01*
X164534947Y-75000000D01*
X164106638Y-75177412D01*
X163747412Y-75536638D01*
X163553000Y-76005989D01*
X163553000Y-76514011D01*
X163747412Y-76983362D01*
X164106638Y-77342588D01*
X164575989Y-77537000D01*
X165084011Y-77537000D01*
X165553362Y-77342588D01*
X165912588Y-76983362D01*
X166107000Y-76514011D01*
X166107000Y-76456152D01*
X166167093Y-76758260D01*
X166449335Y-77180665D01*
X166871740Y-77462907D01*
X167244231Y-77537000D01*
X167495769Y-77537000D01*
X167868260Y-77462907D01*
X168290665Y-77180665D01*
X168572907Y-76758260D01*
X168640000Y-76420960D01*
X168707093Y-76758260D01*
X168989335Y-77180665D01*
X169411740Y-77462907D01*
X169784231Y-77537000D01*
X170035769Y-77537000D01*
X170408260Y-77462907D01*
X170830665Y-77180665D01*
X171112907Y-76758260D01*
X171180000Y-76420960D01*
X171247093Y-76758260D01*
X171529335Y-77180665D01*
X171951740Y-77462907D01*
X172324231Y-77537000D01*
X172575769Y-77537000D01*
X172948260Y-77462907D01*
X173370665Y-77180665D01*
X173652907Y-76758260D01*
X173752017Y-76260000D01*
X173652907Y-75761740D01*
X173370665Y-75339335D01*
X172948260Y-75057093D01*
X172661234Y-75000000D01*
X172948260Y-74942907D01*
X173370665Y-74660665D01*
X173652907Y-74238260D01*
X173752017Y-73740000D01*
X173652907Y-73241740D01*
X173370665Y-72819335D01*
X172994428Y-72567942D01*
X173226924Y-72471645D01*
X173655183Y-72081358D01*
X173901486Y-71556892D01*
X173780819Y-71327000D01*
X172587000Y-71327000D01*
X172587000Y-71347000D01*
X172333000Y-71347000D01*
X172333000Y-71327000D01*
X170047000Y-71327000D01*
X170047000Y-71347000D01*
X169793000Y-71347000D01*
X169793000Y-71327000D01*
X167507000Y-71327000D01*
X167507000Y-71347000D01*
X167253000Y-71347000D01*
X167253000Y-71327000D01*
X167233000Y-71327000D01*
X167233000Y-71073000D01*
X167253000Y-71073000D01*
X167253000Y-71053000D01*
X167507000Y-71053000D01*
X167507000Y-71073000D01*
X169793000Y-71073000D01*
X169793000Y-71053000D01*
X170047000Y-71053000D01*
X170047000Y-71073000D01*
X172333000Y-71073000D01*
X172333000Y-71053000D01*
X172587000Y-71053000D01*
X172587000Y-71073000D01*
X173780819Y-71073000D01*
X173901486Y-70843108D01*
X173655183Y-70318642D01*
X173226924Y-69928355D01*
X173052970Y-69856305D01*
X173390665Y-69630665D01*
X173672907Y-69208260D01*
X173772017Y-68710000D01*
X173672907Y-68211740D01*
X173390665Y-67789335D01*
X172968260Y-67507093D01*
X172595769Y-67433000D01*
X172344231Y-67433000D01*
X171971740Y-67507093D01*
X171549335Y-67789335D01*
X171419932Y-67983000D01*
X170980068Y-67983000D01*
X170850665Y-67789335D01*
X170428260Y-67507093D01*
X170055769Y-67433000D01*
X169804231Y-67433000D01*
X169431740Y-67507093D01*
X169009335Y-67789335D01*
X168879932Y-67983000D01*
X168440068Y-67983000D01*
X168310665Y-67789335D01*
X167888260Y-67507093D01*
X167596234Y-67449005D01*
X167878260Y-67392907D01*
X168300665Y-67110665D01*
X168582907Y-66688260D01*
X168682017Y-66190000D01*
X168582907Y-65691740D01*
X168300665Y-65269335D01*
X167878260Y-64987093D01*
X167596234Y-64930995D01*
X167888260Y-64872907D01*
X168310665Y-64590665D01*
X168592907Y-64168260D01*
X168672837Y-63766424D01*
X170353000Y-63766424D01*
X170353000Y-64433576D01*
X170608308Y-65049944D01*
X171080056Y-65521692D01*
X171696424Y-65777000D01*
X172363576Y-65777000D01*
X172979944Y-65521692D01*
X173451692Y-65049944D01*
X173707000Y-64433576D01*
X173707000Y-63766424D01*
X173451692Y-63150056D01*
X172979944Y-62678308D01*
X172363576Y-62423000D01*
X171696424Y-62423000D01*
X171080056Y-62678308D01*
X170608308Y-63150056D01*
X170353000Y-63766424D01*
X168672837Y-63766424D01*
X168692017Y-63670000D01*
X168592907Y-63171740D01*
X168310665Y-62749335D01*
X167888260Y-62467093D01*
X167515769Y-62393000D01*
X167264231Y-62393000D01*
X166891740Y-62467093D01*
X166469335Y-62749335D01*
X166187093Y-63171740D01*
X166127000Y-63473848D01*
X166127000Y-63415989D01*
X165932588Y-62946638D01*
X165573362Y-62587412D01*
X165104011Y-62393000D01*
X164595989Y-62393000D01*
X164126638Y-62587412D01*
X163767412Y-62946638D01*
X163573000Y-63415989D01*
X163573000Y-63924011D01*
X163767412Y-64393362D01*
X164126638Y-64752588D01*
X164549947Y-64927929D01*
X164116638Y-65107412D01*
X163757412Y-65466638D01*
X163563000Y-65935989D01*
X163563000Y-66444011D01*
X163757412Y-66913362D01*
X164116638Y-67272588D01*
X164549947Y-67452071D01*
X164126638Y-67627412D01*
X163771050Y-67983000D01*
X162921595Y-67983000D01*
X162850000Y-67968759D01*
X162778405Y-67983000D01*
X162778401Y-67983000D01*
X162566339Y-68025182D01*
X162325863Y-68185863D01*
X162285305Y-68246562D01*
X161436562Y-69095306D01*
X161375864Y-69135863D01*
X161335307Y-69196561D01*
X161335306Y-69196562D01*
X161215182Y-69376340D01*
X161158759Y-69660000D01*
X161173001Y-69731600D01*
X161173000Y-83855000D01*
X153502271Y-83855000D01*
X153430676Y-83840759D01*
X153359081Y-83855000D01*
X153359077Y-83855000D01*
X153147015Y-83897182D01*
X152967237Y-84017305D01*
X152967234Y-84017308D01*
X152906539Y-84057863D01*
X152865983Y-84118559D01*
X152471533Y-84513010D01*
X146889282Y-84513012D01*
X146393270Y-84017000D01*
X152518254Y-84017000D01*
X152580000Y-84029282D01*
X152641746Y-84017000D01*
X152641750Y-84017000D01*
X152824643Y-83980620D01*
X153032041Y-83842041D01*
X153067020Y-83789691D01*
X153749694Y-83107018D01*
X153802041Y-83072041D01*
X153940620Y-82864643D01*
X153977000Y-82681750D01*
X153977000Y-82681746D01*
X153989282Y-82620001D01*
X153977000Y-82558256D01*
X153977000Y-81983243D01*
X154280470Y-81780470D01*
X154565718Y-81353567D01*
X154620000Y-81080674D01*
X154674282Y-81353567D01*
X154959530Y-81780470D01*
X155386433Y-82065718D01*
X155762889Y-82140600D01*
X156017111Y-82140600D01*
X156393567Y-82065718D01*
X156820470Y-81780470D01*
X157105718Y-81353567D01*
X157205884Y-80850000D01*
X157105718Y-80346433D01*
X156820470Y-79919530D01*
X156393567Y-79634282D01*
X156120674Y-79580000D01*
X156393567Y-79525718D01*
X156820470Y-79240470D01*
X157105718Y-78813567D01*
X157205884Y-78310000D01*
X157105718Y-77806433D01*
X156820470Y-77379530D01*
X156393567Y-77094282D01*
X156017111Y-77019400D01*
X155762889Y-77019400D01*
X155386433Y-77094282D01*
X154959530Y-77379530D01*
X154674282Y-77806433D01*
X154620000Y-78079326D01*
X154565718Y-77806433D01*
X154280470Y-77379530D01*
X153853567Y-77094282D01*
X153477111Y-77019400D01*
X153222889Y-77019400D01*
X152846433Y-77094282D01*
X152566003Y-77281660D01*
X152489346Y-77166935D01*
X152489343Y-77166932D01*
X152459945Y-77122935D01*
X152415948Y-77093537D01*
X150596455Y-75274045D01*
X150567055Y-75230045D01*
X150392735Y-75113567D01*
X150239013Y-75082990D01*
X150239008Y-75082990D01*
X150187110Y-75072667D01*
X150135212Y-75082990D01*
X149625144Y-75082990D01*
X149656321Y-75051813D01*
X149684262Y-74984358D01*
X149724818Y-74923661D01*
X149739060Y-74852063D01*
X149767000Y-74784609D01*
X149767000Y-72080468D01*
X149781241Y-72008874D01*
X149767000Y-71937280D01*
X149767000Y-71937276D01*
X149724818Y-71725214D01*
X149615399Y-71561458D01*
X149604694Y-71545436D01*
X149604692Y-71545434D01*
X149564136Y-71484738D01*
X149503440Y-71444182D01*
X149139750Y-71080492D01*
X147668849Y-69609593D01*
X147668849Y-63704904D01*
X149097400Y-63704904D01*
X149097400Y-64372056D01*
X149352708Y-64988424D01*
X149824456Y-65460172D01*
X150440824Y-65715480D01*
X151107976Y-65715480D01*
X151724344Y-65460172D01*
X152196092Y-64988424D01*
X152451400Y-64372056D01*
X152451400Y-63704904D01*
X152196092Y-63088536D01*
X151724344Y-62616788D01*
X151107976Y-62361480D01*
X150440824Y-62361480D01*
X149824456Y-62616788D01*
X149352708Y-63088536D01*
X149097400Y-63704904D01*
X147668849Y-63704904D01*
X147668849Y-63361440D01*
X147683090Y-63289846D01*
X147668849Y-63218252D01*
X147668849Y-63218248D01*
X147626667Y-63006186D01*
X147529525Y-62860803D01*
X147506543Y-62826408D01*
X147506541Y-62826406D01*
X147465985Y-62765710D01*
X147405289Y-62725154D01*
X146692134Y-62012000D01*
X174108000Y-62012000D01*
X174108001Y-111138000D01*
G36*
X164059800Y-86394961D02*
X163873000Y-86845935D01*
X163873000Y-87334065D01*
X164059800Y-87785039D01*
X164373001Y-88098240D01*
X164373001Y-88618363D01*
X164358759Y-88689963D01*
X164415182Y-88973623D01*
X164535306Y-89153401D01*
X164575864Y-89214100D01*
X164636562Y-89254657D01*
X164893000Y-89511096D01*
X164893001Y-93158400D01*
X164878759Y-93230000D01*
X164935182Y-93513660D01*
X165022551Y-93644417D01*
X165095864Y-93754137D01*
X165156562Y-93794694D01*
X166685306Y-95323438D01*
X166725863Y-95384137D01*
X166966339Y-95544818D01*
X167178401Y-95587000D01*
X167178405Y-95587000D01*
X167249999Y-95601241D01*
X167321593Y-95587000D01*
X168658868Y-95587000D01*
X169082999Y-96011132D01*
X169083000Y-98548399D01*
X169068758Y-98619999D01*
X169125181Y-98903659D01*
X169135162Y-98918596D01*
X169057000Y-98959845D01*
X169057000Y-100153000D01*
X169077000Y-100153000D01*
X169077000Y-100407000D01*
X169057000Y-100407000D01*
X169057000Y-101600155D01*
X169110630Y-101628458D01*
X169025182Y-101756340D01*
X168968759Y-102040000D01*
X168983001Y-102111600D01*
X168983000Y-109268867D01*
X168528868Y-109723000D01*
X168030289Y-109723000D01*
X168098139Y-109497745D01*
X167270000Y-108669605D01*
X166441861Y-109497745D01*
X166509711Y-109723000D01*
X165581890Y-109723000D01*
X165736607Y-109692225D01*
X165877850Y-109597850D01*
X165972225Y-109456607D01*
X166005365Y-109290000D01*
X166005365Y-109218002D01*
X166016136Y-109244005D01*
X166262255Y-109318139D01*
X167090395Y-108490000D01*
X167449605Y-108490000D01*
X168277745Y-109318139D01*
X168523864Y-109244005D01*
X168716965Y-108706777D01*
X168689778Y-108136546D01*
X168523864Y-107735995D01*
X168277745Y-107661861D01*
X167449605Y-108490000D01*
X167090395Y-108490000D01*
X166262255Y-107661861D01*
X166016136Y-107735995D01*
X166005365Y-107765961D01*
X166005365Y-107690000D01*
X165972225Y-107523393D01*
X165944738Y-107482255D01*
X166441861Y-107482255D01*
X167270000Y-108310395D01*
X168098139Y-107482255D01*
X168024005Y-107236136D01*
X167486777Y-107043035D01*
X166916546Y-107070222D01*
X166515995Y-107236136D01*
X166441861Y-107482255D01*
X165944738Y-107482255D01*
X165877850Y-107382150D01*
X165815964Y-107340799D01*
X166233443Y-106923321D01*
X166294136Y-106882767D01*
X166334690Y-106822074D01*
X166334695Y-106822069D01*
X166454818Y-106642291D01*
X166457422Y-106629199D01*
X166497000Y-106430229D01*
X166497000Y-106430225D01*
X166511241Y-106358630D01*
X166497000Y-106287035D01*
X166497000Y-102403213D01*
X166853440Y-102046774D01*
X166914136Y-102006218D01*
X166954692Y-101945522D01*
X166954694Y-101945520D01*
X167048201Y-101805577D01*
X167074818Y-101765742D01*
X167114676Y-101565365D01*
X167240000Y-101565365D01*
X167406607Y-101532225D01*
X167547850Y-101437850D01*
X167642225Y-101296607D01*
X167675365Y-101130000D01*
X167675365Y-101034764D01*
X167734817Y-101161358D01*
X168163076Y-101551645D01*
X168573110Y-101721476D01*
X168803000Y-101600155D01*
X168803000Y-100407000D01*
X168783000Y-100407000D01*
X168783000Y-100153000D01*
X168803000Y-100153000D01*
X168803000Y-98959845D01*
X168573110Y-98838524D01*
X168163076Y-99008355D01*
X167734817Y-99398642D01*
X167675365Y-99525236D01*
X167675365Y-99430000D01*
X167642225Y-99263393D01*
X167547850Y-99122150D01*
X167406607Y-99027775D01*
X167240000Y-98994635D01*
X165540000Y-98994635D01*
X165373393Y-99027775D01*
X165232150Y-99122150D01*
X165162476Y-99226425D01*
X165059570Y-99123519D01*
X164954695Y-98966562D01*
X164914138Y-98905864D01*
X164853439Y-98865307D01*
X162552696Y-96564564D01*
X162512137Y-96503863D01*
X162271661Y-96343182D01*
X162059599Y-96301000D01*
X162059595Y-96301000D01*
X161988000Y-96286759D01*
X161916405Y-96301000D01*
X158892233Y-96301000D01*
X158934040Y-96259193D01*
X158994736Y-96218637D01*
X159035292Y-96157941D01*
X159035294Y-96157939D01*
X159126618Y-96021263D01*
X159155418Y-95978161D01*
X159197600Y-95766099D01*
X159197600Y-95766095D01*
X159211841Y-95694501D01*
X159197600Y-95622907D01*
X159197600Y-94885165D01*
X159270600Y-94885165D01*
X159437207Y-94852025D01*
X159578450Y-94757650D01*
X159645337Y-94657545D01*
X160142461Y-94657545D01*
X160216595Y-94903664D01*
X160753823Y-95096765D01*
X161324054Y-95069578D01*
X161724605Y-94903664D01*
X161798739Y-94657545D01*
X160970600Y-93829405D01*
X160142461Y-94657545D01*
X159645337Y-94657545D01*
X159672825Y-94616407D01*
X159705965Y-94449800D01*
X159705965Y-94377802D01*
X159716736Y-94403805D01*
X159962855Y-94477939D01*
X160790995Y-93649800D01*
X161150205Y-93649800D01*
X161978345Y-94477939D01*
X162224464Y-94403805D01*
X162417565Y-93866577D01*
X162390378Y-93296346D01*
X162224464Y-92895795D01*
X161978345Y-92821661D01*
X161150205Y-93649800D01*
X160790995Y-93649800D01*
X160776852Y-93635658D01*
X160956458Y-93456052D01*
X160970600Y-93470195D01*
X161798739Y-92642055D01*
X161724605Y-92395936D01*
X161187377Y-92202835D01*
X160933598Y-92214934D01*
X161505041Y-91643492D01*
X161565736Y-91602937D01*
X161606292Y-91542241D01*
X161606294Y-91542239D01*
X161726418Y-91362461D01*
X161726829Y-91360395D01*
X161768600Y-91150399D01*
X161768600Y-91150396D01*
X161782841Y-91078801D01*
X161768600Y-91007206D01*
X161768600Y-90059532D01*
X161945637Y-89882495D01*
X162006335Y-89841938D01*
X162167017Y-89601462D01*
X162209199Y-89389400D01*
X162209199Y-89389397D01*
X162223440Y-89317802D01*
X162209199Y-89246207D01*
X162209199Y-86754019D01*
X162385391Y-86827000D01*
X162674609Y-86827000D01*
X162941813Y-86716321D01*
X163146321Y-86511813D01*
X163257000Y-86244609D01*
X163257000Y-86118291D01*
X163268291Y-86107000D01*
X164347761Y-86107000D01*
X164059800Y-86394961D01*
X164059800Y-86394961D01*
G37*
X164059800Y-86394961D02*
X163873000Y-86845935D01*
X163873000Y-87334065D01*
X164059800Y-87785039D01*
X164373001Y-88098240D01*
X164373001Y-88618363D01*
X164358759Y-88689963D01*
X164415182Y-88973623D01*
X164535306Y-89153401D01*
X164575864Y-89214100D01*
X164636562Y-89254657D01*
X164893000Y-89511096D01*
X164893001Y-93158400D01*
X164878759Y-93230000D01*
X164935182Y-93513660D01*
X165022551Y-93644417D01*
X165095864Y-93754137D01*
X165156562Y-93794694D01*
X166685306Y-95323438D01*
X166725863Y-95384137D01*
X166966339Y-95544818D01*
X167178401Y-95587000D01*
X167178405Y-95587000D01*
X167249999Y-95601241D01*
X167321593Y-95587000D01*
X168658868Y-95587000D01*
X169082999Y-96011132D01*
X169083000Y-98548399D01*
X169068758Y-98619999D01*
X169125181Y-98903659D01*
X169135162Y-98918596D01*
X169057000Y-98959845D01*
X169057000Y-100153000D01*
X169077000Y-100153000D01*
X169077000Y-100407000D01*
X169057000Y-100407000D01*
X169057000Y-101600155D01*
X169110630Y-101628458D01*
X169025182Y-101756340D01*
X168968759Y-102040000D01*
X168983001Y-102111600D01*
X168983000Y-109268867D01*
X168528868Y-109723000D01*
X168030289Y-109723000D01*
X168098139Y-109497745D01*
X167270000Y-108669605D01*
X166441861Y-109497745D01*
X166509711Y-109723000D01*
X165581890Y-109723000D01*
X165736607Y-109692225D01*
X165877850Y-109597850D01*
X165972225Y-109456607D01*
X166005365Y-109290000D01*
X166005365Y-109218002D01*
X166016136Y-109244005D01*
X166262255Y-109318139D01*
X167090395Y-108490000D01*
X167449605Y-108490000D01*
X168277745Y-109318139D01*
X168523864Y-109244005D01*
X168716965Y-108706777D01*
X168689778Y-108136546D01*
X168523864Y-107735995D01*
X168277745Y-107661861D01*
X167449605Y-108490000D01*
X167090395Y-108490000D01*
X166262255Y-107661861D01*
X166016136Y-107735995D01*
X166005365Y-107765961D01*
X166005365Y-107690000D01*
X165972225Y-107523393D01*
X165944738Y-107482255D01*
X166441861Y-107482255D01*
X167270000Y-108310395D01*
X168098139Y-107482255D01*
X168024005Y-107236136D01*
X167486777Y-107043035D01*
X166916546Y-107070222D01*
X166515995Y-107236136D01*
X166441861Y-107482255D01*
X165944738Y-107482255D01*
X165877850Y-107382150D01*
X165815964Y-107340799D01*
X166233443Y-106923321D01*
X166294136Y-106882767D01*
X166334690Y-106822074D01*
X166334695Y-106822069D01*
X166454818Y-106642291D01*
X166457422Y-106629199D01*
X166497000Y-106430229D01*
X166497000Y-106430225D01*
X166511241Y-106358630D01*
X166497000Y-106287035D01*
X166497000Y-102403213D01*
X166853440Y-102046774D01*
X166914136Y-102006218D01*
X166954692Y-101945522D01*
X166954694Y-101945520D01*
X167048201Y-101805577D01*
X167074818Y-101765742D01*
X167114676Y-101565365D01*
X167240000Y-101565365D01*
X167406607Y-101532225D01*
X167547850Y-101437850D01*
X167642225Y-101296607D01*
X167675365Y-101130000D01*
X167675365Y-101034764D01*
X167734817Y-101161358D01*
X168163076Y-101551645D01*
X168573110Y-101721476D01*
X168803000Y-101600155D01*
X168803000Y-100407000D01*
X168783000Y-100407000D01*
X168783000Y-100153000D01*
X168803000Y-100153000D01*
X168803000Y-98959845D01*
X168573110Y-98838524D01*
X168163076Y-99008355D01*
X167734817Y-99398642D01*
X167675365Y-99525236D01*
X167675365Y-99430000D01*
X167642225Y-99263393D01*
X167547850Y-99122150D01*
X167406607Y-99027775D01*
X167240000Y-98994635D01*
X165540000Y-98994635D01*
X165373393Y-99027775D01*
X165232150Y-99122150D01*
X165162476Y-99226425D01*
X165059570Y-99123519D01*
X164954695Y-98966562D01*
X164914138Y-98905864D01*
X164853439Y-98865307D01*
X162552696Y-96564564D01*
X162512137Y-96503863D01*
X162271661Y-96343182D01*
X162059599Y-96301000D01*
X162059595Y-96301000D01*
X161988000Y-96286759D01*
X161916405Y-96301000D01*
X158892233Y-96301000D01*
X158934040Y-96259193D01*
X158994736Y-96218637D01*
X159035292Y-96157941D01*
X159035294Y-96157939D01*
X159126618Y-96021263D01*
X159155418Y-95978161D01*
X159197600Y-95766099D01*
X159197600Y-95766095D01*
X159211841Y-95694501D01*
X159197600Y-95622907D01*
X159197600Y-94885165D01*
X159270600Y-94885165D01*
X159437207Y-94852025D01*
X159578450Y-94757650D01*
X159645337Y-94657545D01*
X160142461Y-94657545D01*
X160216595Y-94903664D01*
X160753823Y-95096765D01*
X161324054Y-95069578D01*
X161724605Y-94903664D01*
X161798739Y-94657545D01*
X160970600Y-93829405D01*
X160142461Y-94657545D01*
X159645337Y-94657545D01*
X159672825Y-94616407D01*
X159705965Y-94449800D01*
X159705965Y-94377802D01*
X159716736Y-94403805D01*
X159962855Y-94477939D01*
X160790995Y-93649800D01*
X161150205Y-93649800D01*
X161978345Y-94477939D01*
X162224464Y-94403805D01*
X162417565Y-93866577D01*
X162390378Y-93296346D01*
X162224464Y-92895795D01*
X161978345Y-92821661D01*
X161150205Y-93649800D01*
X160790995Y-93649800D01*
X160776852Y-93635658D01*
X160956458Y-93456052D01*
X160970600Y-93470195D01*
X161798739Y-92642055D01*
X161724605Y-92395936D01*
X161187377Y-92202835D01*
X160933598Y-92214934D01*
X161505041Y-91643492D01*
X161565736Y-91602937D01*
X161606292Y-91542241D01*
X161606294Y-91542239D01*
X161726418Y-91362461D01*
X161726829Y-91360395D01*
X161768600Y-91150399D01*
X161768600Y-91150396D01*
X161782841Y-91078801D01*
X161768600Y-91007206D01*
X161768600Y-90059532D01*
X161945637Y-89882495D01*
X162006335Y-89841938D01*
X162167017Y-89601462D01*
X162209199Y-89389400D01*
X162209199Y-89389397D01*
X162223440Y-89317802D01*
X162209199Y-89246207D01*
X162209199Y-86754019D01*
X162385391Y-86827000D01*
X162674609Y-86827000D01*
X162941813Y-86716321D01*
X163146321Y-86511813D01*
X163257000Y-86244609D01*
X163257000Y-86118291D01*
X163268291Y-86107000D01*
X164347761Y-86107000D01*
X164059800Y-86394961D01*
G36*
X157137100Y-97769241D02*
X157208695Y-97755000D01*
X161686868Y-97755000D01*
X163720434Y-99788567D01*
X163865864Y-100006218D01*
X163926563Y-100046776D01*
X164623224Y-100743438D01*
X164663782Y-100804137D01*
X164904258Y-100964818D01*
X165104635Y-101004676D01*
X165104635Y-101130000D01*
X165137775Y-101296607D01*
X165232150Y-101437850D01*
X165336425Y-101507524D01*
X165306562Y-101537387D01*
X165245864Y-101577944D01*
X165205307Y-101638642D01*
X165205306Y-101638643D01*
X165085182Y-101818421D01*
X165028759Y-102102081D01*
X165043001Y-102173681D01*
X165043000Y-106057496D01*
X164306562Y-106793936D01*
X164245864Y-106834493D01*
X164205307Y-106895191D01*
X164205306Y-106895192D01*
X164085182Y-107074970D01*
X164049445Y-107254635D01*
X163970000Y-107254635D01*
X163803393Y-107287775D01*
X163662150Y-107382150D01*
X163567775Y-107523393D01*
X163534635Y-107690000D01*
X163534635Y-108957702D01*
X161953995Y-107377063D01*
X162105000Y-107012504D01*
X162105000Y-106245896D01*
X161811632Y-105537642D01*
X161269558Y-104995568D01*
X160561304Y-104702200D01*
X159794696Y-104702200D01*
X159430137Y-104853205D01*
X157539756Y-102962824D01*
X157499197Y-102902123D01*
X157258721Y-102741442D01*
X157046659Y-102699260D01*
X157046655Y-102699260D01*
X156975060Y-102685019D01*
X156903465Y-102699260D01*
X154961394Y-102699260D01*
X153964478Y-101702344D01*
X153992870Y-101690584D01*
X154017238Y-101666216D01*
X155612190Y-101666216D01*
X155667871Y-101896811D01*
X156150678Y-102064822D01*
X156661028Y-102035283D01*
X156995329Y-101896811D01*
X157051010Y-101666216D01*
X156331600Y-100946805D01*
X155612190Y-101666216D01*
X154017238Y-101666216D01*
X154044501Y-101638953D01*
X154105193Y-101598400D01*
X154145747Y-101537707D01*
X154197378Y-101486076D01*
X154225319Y-101418620D01*
X154265875Y-101357924D01*
X154280117Y-101286326D01*
X154308057Y-101218872D01*
X154308057Y-100743875D01*
X154907733Y-100144200D01*
X155170829Y-100144200D01*
X155190677Y-100135979D01*
X155033978Y-100586278D01*
X155063517Y-101096628D01*
X155201989Y-101430929D01*
X155432584Y-101486610D01*
X156151995Y-100767200D01*
X156137852Y-100753058D01*
X156317458Y-100573453D01*
X156331600Y-100587595D01*
X156345743Y-100573453D01*
X156525348Y-100753058D01*
X156511205Y-100767200D01*
X157230616Y-101486610D01*
X157461211Y-101430929D01*
X157629222Y-100948122D01*
X157599683Y-100437772D01*
X157467726Y-100119200D01*
X157895829Y-100119200D01*
X158291672Y-99955237D01*
X158594637Y-99652272D01*
X158758600Y-99256429D01*
X158758600Y-98827971D01*
X158594637Y-98432128D01*
X158291672Y-98129163D01*
X157895829Y-97965200D01*
X157467371Y-97965200D01*
X157071528Y-98129163D01*
X156768563Y-98432128D01*
X156604600Y-98827971D01*
X156604600Y-99256429D01*
X156723266Y-99542914D01*
X156512522Y-99469578D01*
X156002172Y-99499117D01*
X155931265Y-99528487D01*
X156033600Y-99281429D01*
X156033600Y-98852971D01*
X155869637Y-98457128D01*
X155709781Y-98297272D01*
X156252053Y-97755000D01*
X157065505Y-97755000D01*
X157137100Y-97769241D01*
X157137100Y-97769241D01*
G37*
X157137100Y-97769241D02*
X157208695Y-97755000D01*
X161686868Y-97755000D01*
X163720434Y-99788567D01*
X163865864Y-100006218D01*
X163926563Y-100046776D01*
X164623224Y-100743438D01*
X164663782Y-100804137D01*
X164904258Y-100964818D01*
X165104635Y-101004676D01*
X165104635Y-101130000D01*
X165137775Y-101296607D01*
X165232150Y-101437850D01*
X165336425Y-101507524D01*
X165306562Y-101537387D01*
X165245864Y-101577944D01*
X165205307Y-101638642D01*
X165205306Y-101638643D01*
X165085182Y-101818421D01*
X165028759Y-102102081D01*
X165043001Y-102173681D01*
X165043000Y-106057496D01*
X164306562Y-106793936D01*
X164245864Y-106834493D01*
X164205307Y-106895191D01*
X164205306Y-106895192D01*
X164085182Y-107074970D01*
X164049445Y-107254635D01*
X163970000Y-107254635D01*
X163803393Y-107287775D01*
X163662150Y-107382150D01*
X163567775Y-107523393D01*
X163534635Y-107690000D01*
X163534635Y-108957702D01*
X161953995Y-107377063D01*
X162105000Y-107012504D01*
X162105000Y-106245896D01*
X161811632Y-105537642D01*
X161269558Y-104995568D01*
X160561304Y-104702200D01*
X159794696Y-104702200D01*
X159430137Y-104853205D01*
X157539756Y-102962824D01*
X157499197Y-102902123D01*
X157258721Y-102741442D01*
X157046659Y-102699260D01*
X157046655Y-102699260D01*
X156975060Y-102685019D01*
X156903465Y-102699260D01*
X154961394Y-102699260D01*
X153964478Y-101702344D01*
X153992870Y-101690584D01*
X154017238Y-101666216D01*
X155612190Y-101666216D01*
X155667871Y-101896811D01*
X156150678Y-102064822D01*
X156661028Y-102035283D01*
X156995329Y-101896811D01*
X157051010Y-101666216D01*
X156331600Y-100946805D01*
X155612190Y-101666216D01*
X154017238Y-101666216D01*
X154044501Y-101638953D01*
X154105193Y-101598400D01*
X154145747Y-101537707D01*
X154197378Y-101486076D01*
X154225319Y-101418620D01*
X154265875Y-101357924D01*
X154280117Y-101286326D01*
X154308057Y-101218872D01*
X154308057Y-100743875D01*
X154907733Y-100144200D01*
X155170829Y-100144200D01*
X155190677Y-100135979D01*
X155033978Y-100586278D01*
X155063517Y-101096628D01*
X155201989Y-101430929D01*
X155432584Y-101486610D01*
X156151995Y-100767200D01*
X156137852Y-100753058D01*
X156317458Y-100573453D01*
X156331600Y-100587595D01*
X156345743Y-100573453D01*
X156525348Y-100753058D01*
X156511205Y-100767200D01*
X157230616Y-101486610D01*
X157461211Y-101430929D01*
X157629222Y-100948122D01*
X157599683Y-100437772D01*
X157467726Y-100119200D01*
X157895829Y-100119200D01*
X158291672Y-99955237D01*
X158594637Y-99652272D01*
X158758600Y-99256429D01*
X158758600Y-98827971D01*
X158594637Y-98432128D01*
X158291672Y-98129163D01*
X157895829Y-97965200D01*
X157467371Y-97965200D01*
X157071528Y-98129163D01*
X156768563Y-98432128D01*
X156604600Y-98827971D01*
X156604600Y-99256429D01*
X156723266Y-99542914D01*
X156512522Y-99469578D01*
X156002172Y-99499117D01*
X155931265Y-99528487D01*
X156033600Y-99281429D01*
X156033600Y-98852971D01*
X155869637Y-98457128D01*
X155709781Y-98297272D01*
X156252053Y-97755000D01*
X157065505Y-97755000D01*
X157137100Y-97769241D01*
G36*
X135610601Y-102561192D02*
X135610602Y-105076630D01*
X135233026Y-104920242D01*
X135001000Y-105041383D01*
X135001000Y-106248200D01*
X135021000Y-106248200D01*
X135021000Y-106502200D01*
X135001000Y-106502200D01*
X135001000Y-106522200D01*
X134747000Y-106522200D01*
X134747000Y-106502200D01*
X134727000Y-106502200D01*
X134727000Y-106248200D01*
X134747000Y-106248200D01*
X134747000Y-105041383D01*
X134514974Y-104920242D01*
X134110680Y-105087696D01*
X134110680Y-101061270D01*
X135610601Y-102561192D01*
X135610601Y-102561192D01*
G37*
X135610601Y-102561192D02*
X135610602Y-105076630D01*
X135233026Y-104920242D01*
X135001000Y-105041383D01*
X135001000Y-106248200D01*
X135021000Y-106248200D01*
X135021000Y-106502200D01*
X135001000Y-106502200D01*
X135001000Y-106522200D01*
X134747000Y-106522200D01*
X134747000Y-106502200D01*
X134727000Y-106502200D01*
X134727000Y-106248200D01*
X134747000Y-106248200D01*
X134747000Y-105041383D01*
X134514974Y-104920242D01*
X134110680Y-105087696D01*
X134110680Y-101061270D01*
X135610601Y-102561192D01*
G36*
X129921000Y-106248200D02*
X129941000Y-106248200D01*
X129941000Y-106502200D01*
X129921000Y-106502200D01*
X129921000Y-106522200D01*
X129667000Y-106522200D01*
X129667000Y-106502200D01*
X129647000Y-106502200D01*
X129647000Y-106248200D01*
X129667000Y-106248200D01*
X129667000Y-106228200D01*
X129921000Y-106228200D01*
X129921000Y-106248200D01*
X129921000Y-106248200D01*
G37*
X129921000Y-106248200D02*
X129941000Y-106248200D01*
X129941000Y-106502200D01*
X129921000Y-106502200D01*
X129921000Y-106522200D01*
X129667000Y-106522200D01*
X129667000Y-106502200D01*
X129647000Y-106502200D01*
X129647000Y-106248200D01*
X129667000Y-106248200D01*
X129667000Y-106228200D01*
X129921000Y-106228200D01*
X129921000Y-106248200D01*
G36*
X159803679Y-85941813D02*
X160008187Y-86146321D01*
X160275391Y-86257000D01*
X160564609Y-86257000D01*
X160755200Y-86178055D01*
X160755199Y-89016669D01*
X160620398Y-89151470D01*
X160509062Y-89225862D01*
X160348381Y-89466339D01*
X160291958Y-89749999D01*
X160314601Y-89863833D01*
X160314600Y-90777667D01*
X158677833Y-92414435D01*
X157670600Y-92414435D01*
X157503993Y-92447575D01*
X157362750Y-92541950D01*
X157268375Y-92683193D01*
X157235235Y-92849800D01*
X157235235Y-94449800D01*
X157268375Y-94616407D01*
X157362750Y-94757650D01*
X157503993Y-94852025D01*
X157670600Y-94885165D01*
X157743600Y-94885165D01*
X157743600Y-95393367D01*
X157156264Y-95980704D01*
X157095563Y-96021263D01*
X157055006Y-96081961D01*
X156835968Y-96301000D01*
X156022515Y-96301000D01*
X155950920Y-96286759D01*
X155879325Y-96301000D01*
X150402068Y-96301000D01*
X150272665Y-96107335D01*
X149850260Y-95825093D01*
X149477769Y-95751000D01*
X149226231Y-95751000D01*
X148853740Y-95825093D01*
X148431335Y-96107335D01*
X148383513Y-96178906D01*
X148387323Y-96159750D01*
X148377000Y-96107852D01*
X148377000Y-96107848D01*
X148346423Y-95954126D01*
X148319389Y-95913667D01*
X148259346Y-95823806D01*
X148259343Y-95823803D01*
X148229945Y-95779806D01*
X148185948Y-95750408D01*
X147207120Y-94771581D01*
X147207120Y-94657545D01*
X151927461Y-94657545D01*
X152001595Y-94903664D01*
X152538823Y-95096765D01*
X153109054Y-95069578D01*
X153509605Y-94903664D01*
X153583739Y-94657545D01*
X152755600Y-93829405D01*
X151927461Y-94657545D01*
X147207120Y-94657545D01*
X147207120Y-93718756D01*
X147540056Y-94051692D01*
X148156424Y-94307000D01*
X148823576Y-94307000D01*
X149439944Y-94051692D01*
X149911692Y-93579944D01*
X149972548Y-93433023D01*
X151308635Y-93433023D01*
X151335822Y-94003254D01*
X151501736Y-94403805D01*
X151747855Y-94477939D01*
X152575995Y-93649800D01*
X151747855Y-92821661D01*
X151501736Y-92895795D01*
X151308635Y-93433023D01*
X149972548Y-93433023D01*
X150167000Y-92963576D01*
X150167000Y-92296424D01*
X149911692Y-91680056D01*
X149439944Y-91208308D01*
X148823576Y-90953000D01*
X148156424Y-90953000D01*
X147540056Y-91208308D01*
X147207120Y-91541244D01*
X147207120Y-90457046D01*
X147208397Y-90450626D01*
X147208397Y-90450621D01*
X147218720Y-90398723D01*
X147208397Y-90346825D01*
X147208397Y-90242531D01*
X147297718Y-90153210D01*
X147408397Y-89886006D01*
X147408397Y-89596788D01*
X147297718Y-89329584D01*
X147093210Y-89125076D01*
X147046593Y-89105767D01*
X147114818Y-89003661D01*
X147122385Y-88965620D01*
X147157000Y-88791599D01*
X147157000Y-88791595D01*
X147171241Y-88720000D01*
X147157000Y-88648405D01*
X147157000Y-87587000D01*
X148044635Y-87587000D01*
X148044635Y-88080000D01*
X148077775Y-88246607D01*
X148172150Y-88387850D01*
X148313393Y-88482225D01*
X148480000Y-88515365D01*
X148553000Y-88515365D01*
X148553001Y-89772400D01*
X148538759Y-89844000D01*
X148595182Y-90127660D01*
X148713433Y-90304635D01*
X148755864Y-90368137D01*
X148816562Y-90408694D01*
X150565306Y-92157438D01*
X150605863Y-92218137D01*
X150846339Y-92378818D01*
X151058401Y-92421000D01*
X151058404Y-92421000D01*
X151129999Y-92435241D01*
X151201594Y-92421000D01*
X151994045Y-92421000D01*
X151927461Y-92642055D01*
X152755600Y-93470195D01*
X153583739Y-92642055D01*
X153517155Y-92421000D01*
X154130868Y-92421000D01*
X154210134Y-92500267D01*
X154147750Y-92541950D01*
X154053375Y-92683193D01*
X154020235Y-92849800D01*
X154020235Y-92921798D01*
X154009464Y-92895795D01*
X153763345Y-92821661D01*
X152935205Y-93649800D01*
X153763345Y-94477939D01*
X154009464Y-94403805D01*
X154020235Y-94373839D01*
X154020235Y-94449800D01*
X154053375Y-94616407D01*
X154147750Y-94757650D01*
X154288993Y-94852025D01*
X154455600Y-94885165D01*
X156055600Y-94885165D01*
X156222207Y-94852025D01*
X156363450Y-94757650D01*
X156457825Y-94616407D01*
X156490965Y-94449800D01*
X156490965Y-92849800D01*
X156457825Y-92683193D01*
X156363450Y-92541950D01*
X156222207Y-92447575D01*
X156055600Y-92414435D01*
X155976321Y-92414435D01*
X155940418Y-92233939D01*
X155779737Y-91993463D01*
X155719038Y-91952905D01*
X154996696Y-91230564D01*
X154956137Y-91169863D01*
X154715661Y-91009182D01*
X154503599Y-90967000D01*
X154503595Y-90967000D01*
X154432000Y-90952759D01*
X154360405Y-90967000D01*
X151431133Y-90967000D01*
X150007000Y-89542868D01*
X150007000Y-88515365D01*
X150080000Y-88515365D01*
X150246607Y-88482225D01*
X150387850Y-88387850D01*
X150454737Y-88287745D01*
X150951861Y-88287745D01*
X151025995Y-88533864D01*
X151563223Y-88726965D01*
X152133454Y-88699778D01*
X152534005Y-88533864D01*
X152608139Y-88287745D01*
X151780000Y-87459605D01*
X150951861Y-88287745D01*
X150454737Y-88287745D01*
X150482225Y-88246607D01*
X150515365Y-88080000D01*
X150515365Y-88008002D01*
X150526136Y-88034005D01*
X150772255Y-88108139D01*
X151600395Y-87280000D01*
X151586252Y-87265858D01*
X151765858Y-87086252D01*
X151780000Y-87100395D01*
X151794142Y-87086252D01*
X151973748Y-87265858D01*
X151959605Y-87280000D01*
X152787745Y-88108139D01*
X153033864Y-88034005D01*
X153226965Y-87496777D01*
X153199778Y-86926546D01*
X153033864Y-86525995D01*
X152838068Y-86467019D01*
X153010721Y-86467019D01*
X153062619Y-86477342D01*
X153114517Y-86467019D01*
X153114522Y-86467019D01*
X153268244Y-86436442D01*
X153442564Y-86319964D01*
X153471965Y-86275963D01*
X153938919Y-85809010D01*
X159748670Y-85809010D01*
X159803679Y-85941813D01*
X159803679Y-85941813D01*
G37*
X159803679Y-85941813D02*
X160008187Y-86146321D01*
X160275391Y-86257000D01*
X160564609Y-86257000D01*
X160755200Y-86178055D01*
X160755199Y-89016669D01*
X160620398Y-89151470D01*
X160509062Y-89225862D01*
X160348381Y-89466339D01*
X160291958Y-89749999D01*
X160314601Y-89863833D01*
X160314600Y-90777667D01*
X158677833Y-92414435D01*
X157670600Y-92414435D01*
X157503993Y-92447575D01*
X157362750Y-92541950D01*
X157268375Y-92683193D01*
X157235235Y-92849800D01*
X157235235Y-94449800D01*
X157268375Y-94616407D01*
X157362750Y-94757650D01*
X157503993Y-94852025D01*
X157670600Y-94885165D01*
X157743600Y-94885165D01*
X157743600Y-95393367D01*
X157156264Y-95980704D01*
X157095563Y-96021263D01*
X157055006Y-96081961D01*
X156835968Y-96301000D01*
X156022515Y-96301000D01*
X155950920Y-96286759D01*
X155879325Y-96301000D01*
X150402068Y-96301000D01*
X150272665Y-96107335D01*
X149850260Y-95825093D01*
X149477769Y-95751000D01*
X149226231Y-95751000D01*
X148853740Y-95825093D01*
X148431335Y-96107335D01*
X148383513Y-96178906D01*
X148387323Y-96159750D01*
X148377000Y-96107852D01*
X148377000Y-96107848D01*
X148346423Y-95954126D01*
X148319389Y-95913667D01*
X148259346Y-95823806D01*
X148259343Y-95823803D01*
X148229945Y-95779806D01*
X148185948Y-95750408D01*
X147207120Y-94771581D01*
X147207120Y-94657545D01*
X151927461Y-94657545D01*
X152001595Y-94903664D01*
X152538823Y-95096765D01*
X153109054Y-95069578D01*
X153509605Y-94903664D01*
X153583739Y-94657545D01*
X152755600Y-93829405D01*
X151927461Y-94657545D01*
X147207120Y-94657545D01*
X147207120Y-93718756D01*
X147540056Y-94051692D01*
X148156424Y-94307000D01*
X148823576Y-94307000D01*
X149439944Y-94051692D01*
X149911692Y-93579944D01*
X149972548Y-93433023D01*
X151308635Y-93433023D01*
X151335822Y-94003254D01*
X151501736Y-94403805D01*
X151747855Y-94477939D01*
X152575995Y-93649800D01*
X151747855Y-92821661D01*
X151501736Y-92895795D01*
X151308635Y-93433023D01*
X149972548Y-93433023D01*
X150167000Y-92963576D01*
X150167000Y-92296424D01*
X149911692Y-91680056D01*
X149439944Y-91208308D01*
X148823576Y-90953000D01*
X148156424Y-90953000D01*
X147540056Y-91208308D01*
X147207120Y-91541244D01*
X147207120Y-90457046D01*
X147208397Y-90450626D01*
X147208397Y-90450621D01*
X147218720Y-90398723D01*
X147208397Y-90346825D01*
X147208397Y-90242531D01*
X147297718Y-90153210D01*
X147408397Y-89886006D01*
X147408397Y-89596788D01*
X147297718Y-89329584D01*
X147093210Y-89125076D01*
X147046593Y-89105767D01*
X147114818Y-89003661D01*
X147122385Y-88965620D01*
X147157000Y-88791599D01*
X147157000Y-88791595D01*
X147171241Y-88720000D01*
X147157000Y-88648405D01*
X147157000Y-87587000D01*
X148044635Y-87587000D01*
X148044635Y-88080000D01*
X148077775Y-88246607D01*
X148172150Y-88387850D01*
X148313393Y-88482225D01*
X148480000Y-88515365D01*
X148553000Y-88515365D01*
X148553001Y-89772400D01*
X148538759Y-89844000D01*
X148595182Y-90127660D01*
X148713433Y-90304635D01*
X148755864Y-90368137D01*
X148816562Y-90408694D01*
X150565306Y-92157438D01*
X150605863Y-92218137D01*
X150846339Y-92378818D01*
X151058401Y-92421000D01*
X151058404Y-92421000D01*
X151129999Y-92435241D01*
X151201594Y-92421000D01*
X151994045Y-92421000D01*
X151927461Y-92642055D01*
X152755600Y-93470195D01*
X153583739Y-92642055D01*
X153517155Y-92421000D01*
X154130868Y-92421000D01*
X154210134Y-92500267D01*
X154147750Y-92541950D01*
X154053375Y-92683193D01*
X154020235Y-92849800D01*
X154020235Y-92921798D01*
X154009464Y-92895795D01*
X153763345Y-92821661D01*
X152935205Y-93649800D01*
X153763345Y-94477939D01*
X154009464Y-94403805D01*
X154020235Y-94373839D01*
X154020235Y-94449800D01*
X154053375Y-94616407D01*
X154147750Y-94757650D01*
X154288993Y-94852025D01*
X154455600Y-94885165D01*
X156055600Y-94885165D01*
X156222207Y-94852025D01*
X156363450Y-94757650D01*
X156457825Y-94616407D01*
X156490965Y-94449800D01*
X156490965Y-92849800D01*
X156457825Y-92683193D01*
X156363450Y-92541950D01*
X156222207Y-92447575D01*
X156055600Y-92414435D01*
X155976321Y-92414435D01*
X155940418Y-92233939D01*
X155779737Y-91993463D01*
X155719038Y-91952905D01*
X154996696Y-91230564D01*
X154956137Y-91169863D01*
X154715661Y-91009182D01*
X154503599Y-90967000D01*
X154503595Y-90967000D01*
X154432000Y-90952759D01*
X154360405Y-90967000D01*
X151431133Y-90967000D01*
X150007000Y-89542868D01*
X150007000Y-88515365D01*
X150080000Y-88515365D01*
X150246607Y-88482225D01*
X150387850Y-88387850D01*
X150454737Y-88287745D01*
X150951861Y-88287745D01*
X151025995Y-88533864D01*
X151563223Y-88726965D01*
X152133454Y-88699778D01*
X152534005Y-88533864D01*
X152608139Y-88287745D01*
X151780000Y-87459605D01*
X150951861Y-88287745D01*
X150454737Y-88287745D01*
X150482225Y-88246607D01*
X150515365Y-88080000D01*
X150515365Y-88008002D01*
X150526136Y-88034005D01*
X150772255Y-88108139D01*
X151600395Y-87280000D01*
X151586252Y-87265858D01*
X151765858Y-87086252D01*
X151780000Y-87100395D01*
X151794142Y-87086252D01*
X151973748Y-87265858D01*
X151959605Y-87280000D01*
X152787745Y-88108139D01*
X153033864Y-88034005D01*
X153226965Y-87496777D01*
X153199778Y-86926546D01*
X153033864Y-86525995D01*
X152838068Y-86467019D01*
X153010721Y-86467019D01*
X153062619Y-86477342D01*
X153114517Y-86467019D01*
X153114522Y-86467019D01*
X153268244Y-86436442D01*
X153442564Y-86319964D01*
X153471965Y-86275963D01*
X153938919Y-85809010D01*
X159748670Y-85809010D01*
X159803679Y-85941813D01*
G36*
X135192781Y-92314900D02*
X134982103Y-92200450D01*
X134910475Y-92186267D01*
X134696200Y-92308921D01*
X134696200Y-93751400D01*
X134716200Y-93751400D01*
X134716200Y-94005400D01*
X134696200Y-94005400D01*
X134696200Y-94025400D01*
X134442200Y-94025400D01*
X134442200Y-94005400D01*
X134422200Y-94005400D01*
X134422200Y-93751400D01*
X134442200Y-93751400D01*
X134442200Y-92308921D01*
X134324018Y-92241272D01*
X135192780Y-91372510D01*
X135192781Y-92314900D01*
X135192781Y-92314900D01*
G37*
X135192781Y-92314900D02*
X134982103Y-92200450D01*
X134910475Y-92186267D01*
X134696200Y-92308921D01*
X134696200Y-93751400D01*
X134716200Y-93751400D01*
X134716200Y-94005400D01*
X134696200Y-94005400D01*
X134696200Y-94025400D01*
X134442200Y-94025400D01*
X134442200Y-94005400D01*
X134422200Y-94005400D01*
X134422200Y-93751400D01*
X134442200Y-93751400D01*
X134442200Y-92308921D01*
X134324018Y-92241272D01*
X135192780Y-91372510D01*
X135192781Y-92314900D01*
G36*
X148397000Y-80723000D02*
X148417000Y-80723000D01*
X148417000Y-80977000D01*
X148397000Y-80977000D01*
X148397000Y-80997000D01*
X148143000Y-80997000D01*
X148143000Y-80977000D01*
X148123000Y-80977000D01*
X148123000Y-80723000D01*
X148143000Y-80723000D01*
X148143000Y-80703000D01*
X148397000Y-80703000D01*
X148397000Y-80723000D01*
X148397000Y-80723000D01*
G37*
X148397000Y-80723000D02*
X148417000Y-80723000D01*
X148417000Y-80977000D01*
X148397000Y-80977000D01*
X148397000Y-80997000D01*
X148143000Y-80997000D01*
X148143000Y-80977000D01*
X148123000Y-80977000D01*
X148123000Y-80723000D01*
X148143000Y-80723000D01*
X148143000Y-80703000D01*
X148397000Y-80703000D01*
X148397000Y-80723000D01*
G36*
X135110387Y-63955973D02*
X134985895Y-64080465D01*
X134925197Y-64121022D01*
X134884640Y-64181720D01*
X134884639Y-64181721D01*
X134764515Y-64361499D01*
X134708092Y-64645159D01*
X134722334Y-64716759D01*
X134722333Y-72589534D01*
X133708868Y-73603000D01*
X131381593Y-73603000D01*
X131309999Y-73588759D01*
X131238405Y-73603000D01*
X131238401Y-73603000D01*
X131026339Y-73645182D01*
X130785863Y-73805863D01*
X130745305Y-73866562D01*
X129946562Y-74665306D01*
X129716562Y-74895306D01*
X129655864Y-74935863D01*
X129615307Y-74996561D01*
X129615306Y-74996562D01*
X129495182Y-75176340D01*
X129438759Y-75460000D01*
X129453001Y-75531600D01*
X129453001Y-76118456D01*
X129436321Y-76078187D01*
X129347000Y-75988866D01*
X129347000Y-71641279D01*
X129357323Y-71589380D01*
X129347000Y-71537481D01*
X129347000Y-71537477D01*
X129316423Y-71383755D01*
X129296771Y-71354344D01*
X129229346Y-71253435D01*
X129229343Y-71253432D01*
X129199945Y-71209435D01*
X129155947Y-71180036D01*
X128658365Y-70682455D01*
X128628965Y-70638455D01*
X128454645Y-70521977D01*
X128372020Y-70505542D01*
X128147430Y-70169420D01*
X127757915Y-69909154D01*
X127414426Y-69840830D01*
X126483974Y-69840830D01*
X126140485Y-69909154D01*
X125976370Y-70018812D01*
X125976370Y-69477988D01*
X126140485Y-69587646D01*
X126483974Y-69655970D01*
X127414426Y-69655970D01*
X127757915Y-69587646D01*
X128147430Y-69327380D01*
X128407696Y-68937865D01*
X128499089Y-68478400D01*
X128407696Y-68018935D01*
X128147430Y-67629420D01*
X127757915Y-67369154D01*
X127414426Y-67300830D01*
X126483974Y-67300830D01*
X126140485Y-67369154D01*
X125750970Y-67629420D01*
X125576360Y-67890742D01*
X125576360Y-67020093D01*
X125682773Y-67091195D01*
X125849380Y-67124335D01*
X128049020Y-67124335D01*
X128215627Y-67091195D01*
X128356870Y-66996820D01*
X128451245Y-66855577D01*
X128484385Y-66688970D01*
X128484385Y-65187830D01*
X128451245Y-65021223D01*
X128356870Y-64879980D01*
X128215627Y-64785605D01*
X128049020Y-64752465D01*
X125849380Y-64752465D01*
X125682773Y-64785605D01*
X125541530Y-64879980D01*
X125447155Y-65021223D01*
X125414015Y-65187830D01*
X125414015Y-65461849D01*
X125269435Y-65558455D01*
X125240035Y-65602455D01*
X125042000Y-65800490D01*
X125042000Y-62012000D01*
X137054362Y-62012000D01*
X135110387Y-63955973D01*
X135110387Y-63955973D01*
G37*
X135110387Y-63955973D02*
X134985895Y-64080465D01*
X134925197Y-64121022D01*
X134884640Y-64181720D01*
X134884639Y-64181721D01*
X134764515Y-64361499D01*
X134708092Y-64645159D01*
X134722334Y-64716759D01*
X134722333Y-72589534D01*
X133708868Y-73603000D01*
X131381593Y-73603000D01*
X131309999Y-73588759D01*
X131238405Y-73603000D01*
X131238401Y-73603000D01*
X131026339Y-73645182D01*
X130785863Y-73805863D01*
X130745305Y-73866562D01*
X129946562Y-74665306D01*
X129716562Y-74895306D01*
X129655864Y-74935863D01*
X129615307Y-74996561D01*
X129615306Y-74996562D01*
X129495182Y-75176340D01*
X129438759Y-75460000D01*
X129453001Y-75531600D01*
X129453001Y-76118456D01*
X129436321Y-76078187D01*
X129347000Y-75988866D01*
X129347000Y-71641279D01*
X129357323Y-71589380D01*
X129347000Y-71537481D01*
X129347000Y-71537477D01*
X129316423Y-71383755D01*
X129296771Y-71354344D01*
X129229346Y-71253435D01*
X129229343Y-71253432D01*
X129199945Y-71209435D01*
X129155947Y-71180036D01*
X128658365Y-70682455D01*
X128628965Y-70638455D01*
X128454645Y-70521977D01*
X128372020Y-70505542D01*
X128147430Y-70169420D01*
X127757915Y-69909154D01*
X127414426Y-69840830D01*
X126483974Y-69840830D01*
X126140485Y-69909154D01*
X125976370Y-70018812D01*
X125976370Y-69477988D01*
X126140485Y-69587646D01*
X126483974Y-69655970D01*
X127414426Y-69655970D01*
X127757915Y-69587646D01*
X128147430Y-69327380D01*
X128407696Y-68937865D01*
X128499089Y-68478400D01*
X128407696Y-68018935D01*
X128147430Y-67629420D01*
X127757915Y-67369154D01*
X127414426Y-67300830D01*
X126483974Y-67300830D01*
X126140485Y-67369154D01*
X125750970Y-67629420D01*
X125576360Y-67890742D01*
X125576360Y-67020093D01*
X125682773Y-67091195D01*
X125849380Y-67124335D01*
X128049020Y-67124335D01*
X128215627Y-67091195D01*
X128356870Y-66996820D01*
X128451245Y-66855577D01*
X128484385Y-66688970D01*
X128484385Y-65187830D01*
X128451245Y-65021223D01*
X128356870Y-64879980D01*
X128215627Y-64785605D01*
X128049020Y-64752465D01*
X125849380Y-64752465D01*
X125682773Y-64785605D01*
X125541530Y-64879980D01*
X125447155Y-65021223D01*
X125414015Y-65187830D01*
X125414015Y-65461849D01*
X125269435Y-65558455D01*
X125240035Y-65602455D01*
X125042000Y-65800490D01*
X125042000Y-62012000D01*
X137054362Y-62012000D01*
X135110387Y-63955973D01*
G36*
X140730704Y-65478935D02*
X140639311Y-65938400D01*
X140730704Y-66397865D01*
X140990970Y-66787380D01*
X141380485Y-67047646D01*
X141670622Y-67105358D01*
X141192383Y-67246901D01*
X140770402Y-67588456D01*
X140511250Y-68065497D01*
X140497067Y-68137125D01*
X140619721Y-68351400D01*
X142062200Y-68351400D01*
X142062200Y-68331400D01*
X142316200Y-68331400D01*
X142316200Y-68351400D01*
X142336200Y-68351400D01*
X142336200Y-68605400D01*
X142316200Y-68605400D01*
X142316200Y-68625400D01*
X142062200Y-68625400D01*
X142062200Y-68605400D01*
X140619721Y-68605400D01*
X140497067Y-68819675D01*
X140511250Y-68891303D01*
X140770402Y-69368344D01*
X141192383Y-69709899D01*
X141670622Y-69851442D01*
X141380485Y-69909154D01*
X140990970Y-70169420D01*
X140730704Y-70558935D01*
X140639311Y-71018400D01*
X140730704Y-71477865D01*
X140990970Y-71867380D01*
X141380485Y-72127646D01*
X141723974Y-72195970D01*
X142654426Y-72195970D01*
X142997915Y-72127646D01*
X143387430Y-71867380D01*
X143540022Y-71639010D01*
X143542108Y-71640403D01*
X145141811Y-73240107D01*
X145141811Y-75133627D01*
X143710469Y-73702285D01*
X143739089Y-73558400D01*
X143647696Y-73098935D01*
X143387430Y-72709420D01*
X142997915Y-72449154D01*
X142654426Y-72380830D01*
X141723974Y-72380830D01*
X141380485Y-72449154D01*
X140990970Y-72709420D01*
X140730704Y-73098935D01*
X140639311Y-73558400D01*
X140703993Y-73883578D01*
X140457915Y-73719154D01*
X140114426Y-73650830D01*
X139183974Y-73650830D01*
X138840485Y-73719154D01*
X138676370Y-73828812D01*
X138676370Y-73613321D01*
X138778151Y-73655480D01*
X139067369Y-73655480D01*
X139334573Y-73544801D01*
X139539081Y-73340293D01*
X139649760Y-73073089D01*
X139649760Y-72783871D01*
X139539081Y-72516667D01*
X139434520Y-72412106D01*
X139434520Y-69233534D01*
X139523841Y-69144213D01*
X139634520Y-68877009D01*
X139634520Y-68587791D01*
X139523841Y-68320587D01*
X139319333Y-68116079D01*
X139052129Y-68005400D01*
X138762911Y-68005400D01*
X138676370Y-68041246D01*
X138676370Y-65981841D01*
X139343392Y-65314820D01*
X140840362Y-65314820D01*
X140730704Y-65478935D01*
X140730704Y-65478935D01*
G37*
X140730704Y-65478935D02*
X140639311Y-65938400D01*
X140730704Y-66397865D01*
X140990970Y-66787380D01*
X141380485Y-67047646D01*
X141670622Y-67105358D01*
X141192383Y-67246901D01*
X140770402Y-67588456D01*
X140511250Y-68065497D01*
X140497067Y-68137125D01*
X140619721Y-68351400D01*
X142062200Y-68351400D01*
X142062200Y-68331400D01*
X142316200Y-68331400D01*
X142316200Y-68351400D01*
X142336200Y-68351400D01*
X142336200Y-68605400D01*
X142316200Y-68605400D01*
X142316200Y-68625400D01*
X142062200Y-68625400D01*
X142062200Y-68605400D01*
X140619721Y-68605400D01*
X140497067Y-68819675D01*
X140511250Y-68891303D01*
X140770402Y-69368344D01*
X141192383Y-69709899D01*
X141670622Y-69851442D01*
X141380485Y-69909154D01*
X140990970Y-70169420D01*
X140730704Y-70558935D01*
X140639311Y-71018400D01*
X140730704Y-71477865D01*
X140990970Y-71867380D01*
X141380485Y-72127646D01*
X141723974Y-72195970D01*
X142654426Y-72195970D01*
X142997915Y-72127646D01*
X143387430Y-71867380D01*
X143540022Y-71639010D01*
X143542108Y-71640403D01*
X145141811Y-73240107D01*
X145141811Y-75133627D01*
X143710469Y-73702285D01*
X143739089Y-73558400D01*
X143647696Y-73098935D01*
X143387430Y-72709420D01*
X142997915Y-72449154D01*
X142654426Y-72380830D01*
X141723974Y-72380830D01*
X141380485Y-72449154D01*
X140990970Y-72709420D01*
X140730704Y-73098935D01*
X140639311Y-73558400D01*
X140703993Y-73883578D01*
X140457915Y-73719154D01*
X140114426Y-73650830D01*
X139183974Y-73650830D01*
X138840485Y-73719154D01*
X138676370Y-73828812D01*
X138676370Y-73613321D01*
X138778151Y-73655480D01*
X139067369Y-73655480D01*
X139334573Y-73544801D01*
X139539081Y-73340293D01*
X139649760Y-73073089D01*
X139649760Y-72783871D01*
X139539081Y-72516667D01*
X139434520Y-72412106D01*
X139434520Y-69233534D01*
X139523841Y-69144213D01*
X139634520Y-68877009D01*
X139634520Y-68587791D01*
X139523841Y-68320587D01*
X139319333Y-68116079D01*
X139052129Y-68005400D01*
X138762911Y-68005400D01*
X138676370Y-68041246D01*
X138676370Y-65981841D01*
X139343392Y-65314820D01*
X140840362Y-65314820D01*
X140730704Y-65478935D01*
G36*
X127076200Y-73431400D02*
X127096200Y-73431400D01*
X127096200Y-73685400D01*
X127076200Y-73685400D01*
X127076200Y-73705400D01*
X126822200Y-73705400D01*
X126822200Y-73685400D01*
X126802200Y-73685400D01*
X126802200Y-73431400D01*
X126822200Y-73431400D01*
X126822200Y-73411400D01*
X127076200Y-73411400D01*
X127076200Y-73431400D01*
X127076200Y-73431400D01*
G37*
X127076200Y-73431400D02*
X127096200Y-73431400D01*
X127096200Y-73685400D01*
X127076200Y-73685400D01*
X127076200Y-73705400D01*
X126822200Y-73705400D01*
X126822200Y-73685400D01*
X126802200Y-73685400D01*
X126802200Y-73431400D01*
X126822200Y-73431400D01*
X126822200Y-73411400D01*
X127076200Y-73411400D01*
X127076200Y-73431400D01*
G04 #@! TD*
M02*
