M48
INCH,TZ
T1C0.0157
T2C0.0315
T3C0.0315
T4C0.0394
T5C0.0400
T6C0.0669
%
G90
G05
T1
X49362Y-41689
X49689Y-40879
X50445Y-32469
X50559Y-33366
X50630Y-34214
X50717Y-30114
X50783Y-34740
X50831Y-35248
X50831Y-35594
X51000Y-28100
X51010Y-29449
X51185Y-36236
X51252Y-32780
X52200Y-32100
X52760Y-29264
X52923Y-35241
X53602Y-43323
X54286Y-31738
X54330Y-32538
X54668Y-42366
X54688Y-27060
X54694Y-28712
X54900Y-32300
X55344Y-41161
X56551Y-32480
X56648Y-33419
X57012Y-34504
X57303Y-24894
X57650Y-34197
X57749Y-35331
X58209Y-38843
X58362Y-39803
X58677Y-29386
X58866Y-30303
X59866Y-32350
X60137Y-40544
X60465Y-39793
X63157Y-33673
X63988Y-33898
T2
X60140Y-36870
X61124Y-36870
X65000Y-33024
X68000Y-33024
X65957Y-36039
X66941Y-36039
X52035Y-40195
X56035Y-40195
X62390Y-36870
X63374Y-36870
X65000Y-34287
X68000Y-34287
X58772Y-34362
X59756Y-34362
X64870Y-42713
X65854Y-42713
T3
X49980Y-25960
X49980Y-26960
X49980Y-27960
X49980Y-28960
X49980Y-29960
X49980Y-30960
X49980Y-31960
X49980Y-32960
X49980Y-33960
X49980Y-34960
X49980Y-35960
X49980Y-36960
X52980Y-36960
X53980Y-36960
X54980Y-29460
X54980Y-30460
X54980Y-33460
X54980Y-34460
X54980Y-36960
X55980Y-25960
X55980Y-26960
X55980Y-27960
X55980Y-28960
X55980Y-29960
X55980Y-30960
X55980Y-31960
X55980Y-32960
X55980Y-33960
X55980Y-34960
X55980Y-35960
X55980Y-36960
T4
X64902Y-25067
X65902Y-25067
X65508Y-39480
X66508Y-39480
X67508Y-39480
X58800Y-38200
X58800Y-39200
X57385Y-38190
X57385Y-39190
X64898Y-26059
X65898Y-26059
X64894Y-30024
X65894Y-30024
X66894Y-30024
X67894Y-30024
X64894Y-29031
X65894Y-29031
X66894Y-29031
X67894Y-29031
X52012Y-38654
X53012Y-38654
X61007Y-39003
X61548Y-39672
X62079Y-38993
X64898Y-31051
X65898Y-31051
X66898Y-31051
X67898Y-31051
X64898Y-28031
X65898Y-28031
X66898Y-28031
X67898Y-28031
X54374Y-38657
X55374Y-38657
X64902Y-27051
X65902Y-27051
X66902Y-27051
X67902Y-27051
T5
X50100Y-41880
X50100Y-42880
X51100Y-41880
X51100Y-42880
X52100Y-41880
X52100Y-42880
X53100Y-41880
X53100Y-42880
X54100Y-41880
X54100Y-42880
X55100Y-41880
X55100Y-42880
X56100Y-41880
X56100Y-42880
X57100Y-41880
X57100Y-42880
X58374Y-30831
X58374Y-31831
X59374Y-30831
X59374Y-31831
X60374Y-30831
X60374Y-31831
X61374Y-30831
X61374Y-31831
T6
X59200Y-41980
X61094Y-41980
X63062Y-41980
T0
M30
