G04 #@! TF.GenerationSoftware,KiCad,Pcbnew,5.0.2-bee76a0~70~ubuntu18.04.1*
G04 #@! TF.CreationDate,2019-05-01T22:14:47+02:00*
G04 #@! TF.ProjectId,EasyPCB_10_nrf24l01p,45617379-5043-4425-9f31-305f6e726632,rev?*
G04 #@! TF.SameCoordinates,Original*
G04 #@! TF.FileFunction,Soldermask,Bot*
G04 #@! TF.FilePolarity,Negative*
%FSLAX46Y46*%
G04 Gerber Fmt 4.6, Leading zero omitted, Abs format (unit mm)*
G04 Created by KiCad (PCBNEW 5.0.2-bee76a0~70~ubuntu18.04.1) date Wed 01 May 2019 10:14:47 PM CEST*
%MOMM*%
%LPD*%
G01*
G04 APERTURE LIST*
%ADD10C,0.100000*%
G04 APERTURE END LIST*
D10*
G36*
X172109167Y-107282162D02*
X172373053Y-107391467D01*
X172610544Y-107550153D01*
X172812507Y-107752116D01*
X172971193Y-107989607D01*
X173080498Y-108253493D01*
X173136220Y-108533626D01*
X173136220Y-108819254D01*
X173080498Y-109099387D01*
X172971193Y-109363273D01*
X172812507Y-109600764D01*
X172610544Y-109802727D01*
X172373053Y-109961413D01*
X172109167Y-110070718D01*
X171829034Y-110126440D01*
X171543406Y-110126440D01*
X171263273Y-110070718D01*
X170999387Y-109961413D01*
X170761896Y-109802727D01*
X170559933Y-109600764D01*
X170401247Y-109363273D01*
X170291942Y-109099387D01*
X170236220Y-108819254D01*
X170236220Y-108533626D01*
X170291942Y-108253493D01*
X170401247Y-107989607D01*
X170559933Y-107752116D01*
X170761896Y-107550153D01*
X170999387Y-107391467D01*
X171263273Y-107282162D01*
X171543406Y-107226440D01*
X171829034Y-107226440D01*
X172109167Y-107282162D01*
X172109167Y-107282162D01*
G37*
G36*
X145242503Y-107866989D02*
X145442991Y-107927807D01*
X145627764Y-108026569D01*
X145789718Y-108159482D01*
X145922631Y-108321436D01*
X146021393Y-108506209D01*
X146082211Y-108706697D01*
X146102746Y-108915200D01*
X146082211Y-109123703D01*
X146021393Y-109324191D01*
X145922631Y-109508964D01*
X145789718Y-109670918D01*
X145627764Y-109803831D01*
X145442991Y-109902593D01*
X145242503Y-109963411D01*
X145086251Y-109978800D01*
X144981749Y-109978800D01*
X144825497Y-109963411D01*
X144625009Y-109902593D01*
X144440236Y-109803831D01*
X144278282Y-109670918D01*
X144145369Y-109508964D01*
X144046607Y-109324191D01*
X143985789Y-109123703D01*
X143965254Y-108915200D01*
X143985789Y-108706697D01*
X144046607Y-108506209D01*
X144145369Y-108321436D01*
X144278282Y-108159482D01*
X144440236Y-108026569D01*
X144625009Y-107927807D01*
X144825497Y-107866989D01*
X144981749Y-107851600D01*
X145086251Y-107851600D01*
X145242503Y-107866989D01*
X145242503Y-107866989D01*
G37*
G36*
X140162503Y-107866989D02*
X140362991Y-107927807D01*
X140547764Y-108026569D01*
X140709718Y-108159482D01*
X140842631Y-108321436D01*
X140941393Y-108506209D01*
X141002211Y-108706697D01*
X141022746Y-108915200D01*
X141002211Y-109123703D01*
X140941393Y-109324191D01*
X140842631Y-109508964D01*
X140709718Y-109670918D01*
X140547764Y-109803831D01*
X140362991Y-109902593D01*
X140162503Y-109963411D01*
X140006251Y-109978800D01*
X139901749Y-109978800D01*
X139745497Y-109963411D01*
X139545009Y-109902593D01*
X139360236Y-109803831D01*
X139198282Y-109670918D01*
X139065369Y-109508964D01*
X138966607Y-109324191D01*
X138905789Y-109123703D01*
X138885254Y-108915200D01*
X138905789Y-108706697D01*
X138966607Y-108506209D01*
X139065369Y-108321436D01*
X139198282Y-108159482D01*
X139360236Y-108026569D01*
X139545009Y-107927807D01*
X139745497Y-107866989D01*
X139901749Y-107851600D01*
X140006251Y-107851600D01*
X140162503Y-107866989D01*
X140162503Y-107866989D01*
G37*
G36*
X142702503Y-107866989D02*
X142902991Y-107927807D01*
X143087764Y-108026569D01*
X143249718Y-108159482D01*
X143382631Y-108321436D01*
X143481393Y-108506209D01*
X143542211Y-108706697D01*
X143562746Y-108915200D01*
X143542211Y-109123703D01*
X143481393Y-109324191D01*
X143382631Y-109508964D01*
X143249718Y-109670918D01*
X143087764Y-109803831D01*
X142902991Y-109902593D01*
X142702503Y-109963411D01*
X142546251Y-109978800D01*
X142441749Y-109978800D01*
X142285497Y-109963411D01*
X142085009Y-109902593D01*
X141900236Y-109803831D01*
X141738282Y-109670918D01*
X141605369Y-109508964D01*
X141506607Y-109324191D01*
X141445789Y-109123703D01*
X141425254Y-108915200D01*
X141445789Y-108706697D01*
X141506607Y-108506209D01*
X141605369Y-108321436D01*
X141738282Y-108159482D01*
X141900236Y-108026569D01*
X142085009Y-107927807D01*
X142285497Y-107866989D01*
X142441749Y-107851600D01*
X142546251Y-107851600D01*
X142702503Y-107866989D01*
X142702503Y-107866989D01*
G37*
G36*
X137622503Y-107866989D02*
X137822991Y-107927807D01*
X138007764Y-108026569D01*
X138169718Y-108159482D01*
X138302631Y-108321436D01*
X138401393Y-108506209D01*
X138462211Y-108706697D01*
X138482746Y-108915200D01*
X138462211Y-109123703D01*
X138401393Y-109324191D01*
X138302631Y-109508964D01*
X138169718Y-109670918D01*
X138007764Y-109803831D01*
X137822991Y-109902593D01*
X137622503Y-109963411D01*
X137466251Y-109978800D01*
X137361749Y-109978800D01*
X137205497Y-109963411D01*
X137005009Y-109902593D01*
X136820236Y-109803831D01*
X136658282Y-109670918D01*
X136525369Y-109508964D01*
X136426607Y-109324191D01*
X136365789Y-109123703D01*
X136345254Y-108915200D01*
X136365789Y-108706697D01*
X136426607Y-108506209D01*
X136525369Y-108321436D01*
X136658282Y-108159482D01*
X136820236Y-108026569D01*
X137005009Y-107927807D01*
X137205497Y-107866989D01*
X137361749Y-107851600D01*
X137466251Y-107851600D01*
X137622503Y-107866989D01*
X137622503Y-107866989D01*
G37*
G36*
X130002503Y-107866989D02*
X130202991Y-107927807D01*
X130387764Y-108026569D01*
X130549718Y-108159482D01*
X130682631Y-108321436D01*
X130781393Y-108506209D01*
X130842211Y-108706697D01*
X130862746Y-108915200D01*
X130842211Y-109123703D01*
X130781393Y-109324191D01*
X130682631Y-109508964D01*
X130549718Y-109670918D01*
X130387764Y-109803831D01*
X130202991Y-109902593D01*
X130002503Y-109963411D01*
X129846251Y-109978800D01*
X129741749Y-109978800D01*
X129585497Y-109963411D01*
X129385009Y-109902593D01*
X129200236Y-109803831D01*
X129038282Y-109670918D01*
X128905369Y-109508964D01*
X128806607Y-109324191D01*
X128745789Y-109123703D01*
X128725254Y-108915200D01*
X128745789Y-108706697D01*
X128806607Y-108506209D01*
X128905369Y-108321436D01*
X129038282Y-108159482D01*
X129200236Y-108026569D01*
X129385009Y-107927807D01*
X129585497Y-107866989D01*
X129741749Y-107851600D01*
X129846251Y-107851600D01*
X130002503Y-107866989D01*
X130002503Y-107866989D01*
G37*
G36*
X128317600Y-109978800D02*
X126190400Y-109978800D01*
X126190400Y-107851600D01*
X128317600Y-107851600D01*
X128317600Y-109978800D01*
X128317600Y-109978800D01*
G37*
G36*
X135082503Y-107866989D02*
X135282991Y-107927807D01*
X135467764Y-108026569D01*
X135629718Y-108159482D01*
X135762631Y-108321436D01*
X135861393Y-108506209D01*
X135922211Y-108706697D01*
X135942746Y-108915200D01*
X135922211Y-109123703D01*
X135861393Y-109324191D01*
X135762631Y-109508964D01*
X135629718Y-109670918D01*
X135467764Y-109803831D01*
X135282991Y-109902593D01*
X135082503Y-109963411D01*
X134926251Y-109978800D01*
X134821749Y-109978800D01*
X134665497Y-109963411D01*
X134465009Y-109902593D01*
X134280236Y-109803831D01*
X134118282Y-109670918D01*
X133985369Y-109508964D01*
X133886607Y-109324191D01*
X133825789Y-109123703D01*
X133805254Y-108915200D01*
X133825789Y-108706697D01*
X133886607Y-108506209D01*
X133985369Y-108321436D01*
X134118282Y-108159482D01*
X134280236Y-108026569D01*
X134465009Y-107927807D01*
X134665497Y-107866989D01*
X134821749Y-107851600D01*
X134926251Y-107851600D01*
X135082503Y-107866989D01*
X135082503Y-107866989D01*
G37*
G36*
X132542503Y-107866989D02*
X132742991Y-107927807D01*
X132927764Y-108026569D01*
X133089718Y-108159482D01*
X133222631Y-108321436D01*
X133321393Y-108506209D01*
X133382211Y-108706697D01*
X133402746Y-108915200D01*
X133382211Y-109123703D01*
X133321393Y-109324191D01*
X133222631Y-109508964D01*
X133089718Y-109670918D01*
X132927764Y-109803831D01*
X132742991Y-109902593D01*
X132542503Y-109963411D01*
X132386251Y-109978800D01*
X132281749Y-109978800D01*
X132125497Y-109963411D01*
X131925009Y-109902593D01*
X131740236Y-109803831D01*
X131578282Y-109670918D01*
X131445369Y-109508964D01*
X131346607Y-109324191D01*
X131285789Y-109123703D01*
X131265254Y-108915200D01*
X131285789Y-108706697D01*
X131346607Y-108506209D01*
X131445369Y-108321436D01*
X131578282Y-108159482D01*
X131740236Y-108026569D01*
X131925009Y-107927807D01*
X132125497Y-107866989D01*
X132281749Y-107851600D01*
X132386251Y-107851600D01*
X132542503Y-107866989D01*
X132542503Y-107866989D01*
G37*
G36*
X165770000Y-109490000D02*
X163770000Y-109490000D01*
X163770000Y-107490000D01*
X165770000Y-107490000D01*
X165770000Y-109490000D01*
X165770000Y-109490000D01*
G37*
G36*
X167445770Y-107505372D02*
X167561689Y-107528429D01*
X167743678Y-107603811D01*
X167907463Y-107713249D01*
X168046751Y-107852537D01*
X168156189Y-108016322D01*
X168231571Y-108198311D01*
X168270000Y-108391509D01*
X168270000Y-108588491D01*
X168231571Y-108781689D01*
X168156189Y-108963678D01*
X168046751Y-109127463D01*
X167907463Y-109266751D01*
X167743678Y-109376189D01*
X167561689Y-109451571D01*
X167445770Y-109474628D01*
X167368493Y-109490000D01*
X167171507Y-109490000D01*
X167094230Y-109474628D01*
X166978311Y-109451571D01*
X166796322Y-109376189D01*
X166632537Y-109266751D01*
X166493249Y-109127463D01*
X166383811Y-108963678D01*
X166308429Y-108781689D01*
X166270000Y-108588491D01*
X166270000Y-108391509D01*
X166308429Y-108198311D01*
X166383811Y-108016322D01*
X166493249Y-107852537D01*
X166632537Y-107713249D01*
X166796322Y-107603811D01*
X166978311Y-107528429D01*
X167094230Y-107505372D01*
X167171507Y-107490000D01*
X167368493Y-107490000D01*
X167445770Y-107505372D01*
X167445770Y-107505372D01*
G37*
G36*
X155564393Y-104972753D02*
X155673872Y-104994530D01*
X155983252Y-105122679D01*
X156261687Y-105308723D01*
X156498477Y-105545513D01*
X156684521Y-105823948D01*
X156812670Y-106133328D01*
X156878000Y-106461765D01*
X156878000Y-106796635D01*
X156812670Y-107125072D01*
X156684521Y-107434452D01*
X156498477Y-107712887D01*
X156261687Y-107949677D01*
X155983252Y-108135721D01*
X155673872Y-108263870D01*
X155564393Y-108285647D01*
X155345437Y-108329200D01*
X155010563Y-108329200D01*
X154791607Y-108285647D01*
X154682128Y-108263870D01*
X154372748Y-108135721D01*
X154094313Y-107949677D01*
X153857523Y-107712887D01*
X153671479Y-107434452D01*
X153543330Y-107125072D01*
X153478000Y-106796635D01*
X153478000Y-106461765D01*
X153543330Y-106133328D01*
X153671479Y-105823948D01*
X153857523Y-105545513D01*
X154094313Y-105308723D01*
X154372748Y-105122679D01*
X154682128Y-104994530D01*
X154791607Y-104972753D01*
X155010563Y-104929200D01*
X155345437Y-104929200D01*
X155564393Y-104972753D01*
X155564393Y-104972753D01*
G37*
G36*
X160564393Y-104972753D02*
X160673872Y-104994530D01*
X160983252Y-105122679D01*
X161261687Y-105308723D01*
X161498477Y-105545513D01*
X161684521Y-105823948D01*
X161812670Y-106133328D01*
X161878000Y-106461765D01*
X161878000Y-106796635D01*
X161812670Y-107125072D01*
X161684521Y-107434452D01*
X161498477Y-107712887D01*
X161261687Y-107949677D01*
X160983252Y-108135721D01*
X160673872Y-108263870D01*
X160564393Y-108285647D01*
X160345437Y-108329200D01*
X160010563Y-108329200D01*
X159791607Y-108285647D01*
X159682128Y-108263870D01*
X159372748Y-108135721D01*
X159094313Y-107949677D01*
X158857523Y-107712887D01*
X158671479Y-107434452D01*
X158543330Y-107125072D01*
X158478000Y-106796635D01*
X158478000Y-106461765D01*
X158543330Y-106133328D01*
X158671479Y-105823948D01*
X158857523Y-105545513D01*
X159094313Y-105308723D01*
X159372748Y-105122679D01*
X159682128Y-104994530D01*
X159791607Y-104972753D01*
X160010563Y-104929200D01*
X160345437Y-104929200D01*
X160564393Y-104972753D01*
X160564393Y-104972753D01*
G37*
G36*
X150754393Y-104972753D02*
X150863872Y-104994530D01*
X151173252Y-105122679D01*
X151451687Y-105308723D01*
X151688477Y-105545513D01*
X151874521Y-105823948D01*
X152002670Y-106133328D01*
X152068000Y-106461765D01*
X152068000Y-106796635D01*
X152002670Y-107125072D01*
X151874521Y-107434452D01*
X151688477Y-107712887D01*
X151451687Y-107949677D01*
X151173252Y-108135721D01*
X150863872Y-108263870D01*
X150754393Y-108285647D01*
X150535437Y-108329200D01*
X150200563Y-108329200D01*
X149981607Y-108285647D01*
X149872128Y-108263870D01*
X149562748Y-108135721D01*
X149284313Y-107949677D01*
X149047523Y-107712887D01*
X148861479Y-107434452D01*
X148733330Y-107125072D01*
X148668000Y-106796635D01*
X148668000Y-106461765D01*
X148733330Y-106133328D01*
X148861479Y-105823948D01*
X149047523Y-105545513D01*
X149284313Y-105308723D01*
X149562748Y-105122679D01*
X149872128Y-104994530D01*
X149981607Y-104972753D01*
X150200563Y-104929200D01*
X150535437Y-104929200D01*
X150754393Y-104972753D01*
X150754393Y-104972753D01*
G37*
G36*
X145242503Y-105326989D02*
X145442991Y-105387807D01*
X145627764Y-105486569D01*
X145789718Y-105619482D01*
X145922631Y-105781436D01*
X146021393Y-105966209D01*
X146082211Y-106166697D01*
X146102746Y-106375200D01*
X146082211Y-106583703D01*
X146021393Y-106784191D01*
X145922631Y-106968964D01*
X145789718Y-107130918D01*
X145627764Y-107263831D01*
X145442991Y-107362593D01*
X145242503Y-107423411D01*
X145086251Y-107438800D01*
X144981749Y-107438800D01*
X144825497Y-107423411D01*
X144625009Y-107362593D01*
X144440236Y-107263831D01*
X144278282Y-107130918D01*
X144145369Y-106968964D01*
X144046607Y-106784191D01*
X143985789Y-106583703D01*
X143965254Y-106375200D01*
X143985789Y-106166697D01*
X144046607Y-105966209D01*
X144145369Y-105781436D01*
X144278282Y-105619482D01*
X144440236Y-105486569D01*
X144625009Y-105387807D01*
X144825497Y-105326989D01*
X144981749Y-105311600D01*
X145086251Y-105311600D01*
X145242503Y-105326989D01*
X145242503Y-105326989D01*
G37*
G36*
X142702503Y-105326989D02*
X142902991Y-105387807D01*
X143087764Y-105486569D01*
X143249718Y-105619482D01*
X143382631Y-105781436D01*
X143481393Y-105966209D01*
X143542211Y-106166697D01*
X143562746Y-106375200D01*
X143542211Y-106583703D01*
X143481393Y-106784191D01*
X143382631Y-106968964D01*
X143249718Y-107130918D01*
X143087764Y-107263831D01*
X142902991Y-107362593D01*
X142702503Y-107423411D01*
X142546251Y-107438800D01*
X142441749Y-107438800D01*
X142285497Y-107423411D01*
X142085009Y-107362593D01*
X141900236Y-107263831D01*
X141738282Y-107130918D01*
X141605369Y-106968964D01*
X141506607Y-106784191D01*
X141445789Y-106583703D01*
X141425254Y-106375200D01*
X141445789Y-106166697D01*
X141506607Y-105966209D01*
X141605369Y-105781436D01*
X141738282Y-105619482D01*
X141900236Y-105486569D01*
X142085009Y-105387807D01*
X142285497Y-105326989D01*
X142441749Y-105311600D01*
X142546251Y-105311600D01*
X142702503Y-105326989D01*
X142702503Y-105326989D01*
G37*
G36*
X140162503Y-105326989D02*
X140362991Y-105387807D01*
X140547764Y-105486569D01*
X140709718Y-105619482D01*
X140842631Y-105781436D01*
X140941393Y-105966209D01*
X141002211Y-106166697D01*
X141022746Y-106375200D01*
X141002211Y-106583703D01*
X140941393Y-106784191D01*
X140842631Y-106968964D01*
X140709718Y-107130918D01*
X140547764Y-107263831D01*
X140362991Y-107362593D01*
X140162503Y-107423411D01*
X140006251Y-107438800D01*
X139901749Y-107438800D01*
X139745497Y-107423411D01*
X139545009Y-107362593D01*
X139360236Y-107263831D01*
X139198282Y-107130918D01*
X139065369Y-106968964D01*
X138966607Y-106784191D01*
X138905789Y-106583703D01*
X138885254Y-106375200D01*
X138905789Y-106166697D01*
X138966607Y-105966209D01*
X139065369Y-105781436D01*
X139198282Y-105619482D01*
X139360236Y-105486569D01*
X139545009Y-105387807D01*
X139745497Y-105326989D01*
X139901749Y-105311600D01*
X140006251Y-105311600D01*
X140162503Y-105326989D01*
X140162503Y-105326989D01*
G37*
G36*
X127462503Y-105326989D02*
X127662991Y-105387807D01*
X127847764Y-105486569D01*
X128009718Y-105619482D01*
X128142631Y-105781436D01*
X128241393Y-105966209D01*
X128302211Y-106166697D01*
X128322746Y-106375200D01*
X128302211Y-106583703D01*
X128241393Y-106784191D01*
X128142631Y-106968964D01*
X128009718Y-107130918D01*
X127847764Y-107263831D01*
X127662991Y-107362593D01*
X127462503Y-107423411D01*
X127306251Y-107438800D01*
X127201749Y-107438800D01*
X127045497Y-107423411D01*
X126845009Y-107362593D01*
X126660236Y-107263831D01*
X126498282Y-107130918D01*
X126365369Y-106968964D01*
X126266607Y-106784191D01*
X126205789Y-106583703D01*
X126185254Y-106375200D01*
X126205789Y-106166697D01*
X126266607Y-105966209D01*
X126365369Y-105781436D01*
X126498282Y-105619482D01*
X126660236Y-105486569D01*
X126845009Y-105387807D01*
X127045497Y-105326989D01*
X127201749Y-105311600D01*
X127306251Y-105311600D01*
X127462503Y-105326989D01*
X127462503Y-105326989D01*
G37*
G36*
X130002503Y-105326989D02*
X130202991Y-105387807D01*
X130387764Y-105486569D01*
X130549718Y-105619482D01*
X130682631Y-105781436D01*
X130781393Y-105966209D01*
X130842211Y-106166697D01*
X130862746Y-106375200D01*
X130842211Y-106583703D01*
X130781393Y-106784191D01*
X130682631Y-106968964D01*
X130549718Y-107130918D01*
X130387764Y-107263831D01*
X130202991Y-107362593D01*
X130002503Y-107423411D01*
X129846251Y-107438800D01*
X129741749Y-107438800D01*
X129585497Y-107423411D01*
X129385009Y-107362593D01*
X129200236Y-107263831D01*
X129038282Y-107130918D01*
X128905369Y-106968964D01*
X128806607Y-106784191D01*
X128745789Y-106583703D01*
X128725254Y-106375200D01*
X128745789Y-106166697D01*
X128806607Y-105966209D01*
X128905369Y-105781436D01*
X129038282Y-105619482D01*
X129200236Y-105486569D01*
X129385009Y-105387807D01*
X129585497Y-105326989D01*
X129741749Y-105311600D01*
X129846251Y-105311600D01*
X130002503Y-105326989D01*
X130002503Y-105326989D01*
G37*
G36*
X132542503Y-105326989D02*
X132742991Y-105387807D01*
X132927764Y-105486569D01*
X133089718Y-105619482D01*
X133222631Y-105781436D01*
X133321393Y-105966209D01*
X133382211Y-106166697D01*
X133402746Y-106375200D01*
X133382211Y-106583703D01*
X133321393Y-106784191D01*
X133222631Y-106968964D01*
X133089718Y-107130918D01*
X132927764Y-107263831D01*
X132742991Y-107362593D01*
X132542503Y-107423411D01*
X132386251Y-107438800D01*
X132281749Y-107438800D01*
X132125497Y-107423411D01*
X131925009Y-107362593D01*
X131740236Y-107263831D01*
X131578282Y-107130918D01*
X131445369Y-106968964D01*
X131346607Y-106784191D01*
X131285789Y-106583703D01*
X131265254Y-106375200D01*
X131285789Y-106166697D01*
X131346607Y-105966209D01*
X131445369Y-105781436D01*
X131578282Y-105619482D01*
X131740236Y-105486569D01*
X131925009Y-105387807D01*
X132125497Y-105326989D01*
X132281749Y-105311600D01*
X132386251Y-105311600D01*
X132542503Y-105326989D01*
X132542503Y-105326989D01*
G37*
G36*
X137622503Y-105326989D02*
X137822991Y-105387807D01*
X138007764Y-105486569D01*
X138169718Y-105619482D01*
X138302631Y-105781436D01*
X138401393Y-105966209D01*
X138462211Y-106166697D01*
X138482746Y-106375200D01*
X138462211Y-106583703D01*
X138401393Y-106784191D01*
X138302631Y-106968964D01*
X138169718Y-107130918D01*
X138007764Y-107263831D01*
X137822991Y-107362593D01*
X137622503Y-107423411D01*
X137466251Y-107438800D01*
X137361749Y-107438800D01*
X137205497Y-107423411D01*
X137005009Y-107362593D01*
X136820236Y-107263831D01*
X136658282Y-107130918D01*
X136525369Y-106968964D01*
X136426607Y-106784191D01*
X136365789Y-106583703D01*
X136345254Y-106375200D01*
X136365789Y-106166697D01*
X136426607Y-105966209D01*
X136525369Y-105781436D01*
X136658282Y-105619482D01*
X136820236Y-105486569D01*
X137005009Y-105387807D01*
X137205497Y-105326989D01*
X137361749Y-105311600D01*
X137466251Y-105311600D01*
X137622503Y-105326989D01*
X137622503Y-105326989D01*
G37*
G36*
X135082503Y-105326989D02*
X135282991Y-105387807D01*
X135467764Y-105486569D01*
X135629718Y-105619482D01*
X135762631Y-105781436D01*
X135861393Y-105966209D01*
X135922211Y-106166697D01*
X135942746Y-106375200D01*
X135922211Y-106583703D01*
X135861393Y-106784191D01*
X135762631Y-106968964D01*
X135629718Y-107130918D01*
X135467764Y-107263831D01*
X135282991Y-107362593D01*
X135082503Y-107423411D01*
X134926251Y-107438800D01*
X134821749Y-107438800D01*
X134665497Y-107423411D01*
X134465009Y-107362593D01*
X134280236Y-107263831D01*
X134118282Y-107130918D01*
X133985369Y-106968964D01*
X133886607Y-106784191D01*
X133825789Y-106583703D01*
X133805254Y-106375200D01*
X133825789Y-106166697D01*
X133886607Y-105966209D01*
X133985369Y-105781436D01*
X134118282Y-105619482D01*
X134280236Y-105486569D01*
X134465009Y-105387807D01*
X134665497Y-105326989D01*
X134821749Y-105311600D01*
X134926251Y-105311600D01*
X135082503Y-105326989D01*
X135082503Y-105326989D01*
G37*
G36*
X132344670Y-101110672D02*
X132460589Y-101133729D01*
X132642578Y-101209111D01*
X132806363Y-101318549D01*
X132945651Y-101457837D01*
X133055089Y-101621622D01*
X133130471Y-101803611D01*
X133168900Y-101996809D01*
X133168900Y-102193791D01*
X133130471Y-102386989D01*
X133055089Y-102568978D01*
X132945651Y-102732763D01*
X132806363Y-102872051D01*
X132642578Y-102981489D01*
X132460589Y-103056871D01*
X132344670Y-103079928D01*
X132267393Y-103095300D01*
X132070407Y-103095300D01*
X131993130Y-103079928D01*
X131877211Y-103056871D01*
X131695222Y-102981489D01*
X131531437Y-102872051D01*
X131392149Y-102732763D01*
X131282711Y-102568978D01*
X131207329Y-102386989D01*
X131168900Y-102193791D01*
X131168900Y-101996809D01*
X131207329Y-101803611D01*
X131282711Y-101621622D01*
X131392149Y-101457837D01*
X131531437Y-101318549D01*
X131695222Y-101209111D01*
X131877211Y-101133729D01*
X131993130Y-101110672D01*
X132070407Y-101095300D01*
X132267393Y-101095300D01*
X132344670Y-101110672D01*
X132344670Y-101110672D01*
G37*
G36*
X142524930Y-101109769D02*
X142524933Y-101109770D01*
X142524934Y-101109770D01*
X142713435Y-101166951D01*
X142713437Y-101166952D01*
X142887160Y-101259809D01*
X143039428Y-101384772D01*
X143164391Y-101537040D01*
X143257248Y-101710763D01*
X143314431Y-101899270D01*
X143333738Y-102095300D01*
X143314431Y-102291330D01*
X143257248Y-102479837D01*
X143164391Y-102653560D01*
X143039428Y-102805828D01*
X142887160Y-102930791D01*
X142887158Y-102930792D01*
X142713435Y-103023649D01*
X142524934Y-103080830D01*
X142524933Y-103080830D01*
X142524930Y-103080831D01*
X142378024Y-103095300D01*
X142279776Y-103095300D01*
X142132870Y-103080831D01*
X142132867Y-103080830D01*
X142132866Y-103080830D01*
X141944365Y-103023649D01*
X141770642Y-102930792D01*
X141770640Y-102930791D01*
X141618372Y-102805828D01*
X141493409Y-102653560D01*
X141400552Y-102479837D01*
X141343369Y-102291330D01*
X141324062Y-102095300D01*
X141343369Y-101899270D01*
X141400552Y-101710763D01*
X141493409Y-101537040D01*
X141618372Y-101384772D01*
X141770640Y-101259809D01*
X141944363Y-101166952D01*
X141944365Y-101166951D01*
X142132866Y-101109770D01*
X142132867Y-101109770D01*
X142132870Y-101109769D01*
X142279776Y-101095300D01*
X142378024Y-101095300D01*
X142524930Y-101109769D01*
X142524930Y-101109769D01*
G37*
G36*
X156579534Y-99949864D02*
X156734227Y-100013940D01*
X156873447Y-100106964D01*
X156991836Y-100225353D01*
X157084860Y-100364573D01*
X157148936Y-100519266D01*
X157181600Y-100683481D01*
X157181600Y-100850919D01*
X157148936Y-101015134D01*
X157084860Y-101169827D01*
X156991836Y-101309047D01*
X156873447Y-101427436D01*
X156734227Y-101520460D01*
X156579534Y-101584536D01*
X156415319Y-101617200D01*
X156247881Y-101617200D01*
X156083666Y-101584536D01*
X155928973Y-101520460D01*
X155789753Y-101427436D01*
X155671364Y-101309047D01*
X155578340Y-101169827D01*
X155514264Y-101015134D01*
X155481600Y-100850919D01*
X155481600Y-100683481D01*
X155514264Y-100519266D01*
X155578340Y-100364573D01*
X155671364Y-100225353D01*
X155789753Y-100106964D01*
X155928973Y-100013940D01*
X156083666Y-99949864D01*
X156247881Y-99917200D01*
X156415319Y-99917200D01*
X156579534Y-99949864D01*
X156579534Y-99949864D01*
G37*
G36*
X167440000Y-101330000D02*
X165340000Y-101330000D01*
X165340000Y-99230000D01*
X167440000Y-99230000D01*
X167440000Y-101330000D01*
X167440000Y-101330000D01*
G37*
G36*
X169045838Y-99236329D02*
X169135836Y-99245193D01*
X169267787Y-99285220D01*
X169333763Y-99305233D01*
X169516172Y-99402733D01*
X169676054Y-99533946D01*
X169807267Y-99693828D01*
X169904767Y-99876237D01*
X169904767Y-99876238D01*
X169964807Y-100074164D01*
X169985080Y-100280000D01*
X169964807Y-100485836D01*
X169929324Y-100602807D01*
X169904767Y-100683763D01*
X169807267Y-100866172D01*
X169676054Y-101026054D01*
X169516172Y-101157267D01*
X169333763Y-101254767D01*
X169317141Y-101259809D01*
X169135836Y-101314807D01*
X169058707Y-101322403D01*
X168981580Y-101330000D01*
X168878420Y-101330000D01*
X168801293Y-101322403D01*
X168724164Y-101314807D01*
X168542859Y-101259809D01*
X168526237Y-101254767D01*
X168343828Y-101157267D01*
X168183946Y-101026054D01*
X168052733Y-100866172D01*
X167955233Y-100683763D01*
X167930676Y-100602807D01*
X167895193Y-100485836D01*
X167874920Y-100280000D01*
X167895193Y-100074164D01*
X167955233Y-99876238D01*
X167955233Y-99876237D01*
X168052733Y-99693828D01*
X168183946Y-99533946D01*
X168343828Y-99402733D01*
X168526237Y-99305233D01*
X168592213Y-99285220D01*
X168724164Y-99245193D01*
X168814162Y-99236329D01*
X168878420Y-99230000D01*
X168981580Y-99230000D01*
X169045838Y-99236329D01*
X169045838Y-99236329D01*
G37*
G36*
X171585838Y-99236329D02*
X171675836Y-99245193D01*
X171807787Y-99285220D01*
X171873763Y-99305233D01*
X172056172Y-99402733D01*
X172216054Y-99533946D01*
X172347267Y-99693828D01*
X172444767Y-99876237D01*
X172444767Y-99876238D01*
X172504807Y-100074164D01*
X172525080Y-100280000D01*
X172504807Y-100485836D01*
X172469324Y-100602807D01*
X172444767Y-100683763D01*
X172347267Y-100866172D01*
X172216054Y-101026054D01*
X172056172Y-101157267D01*
X171873763Y-101254767D01*
X171857141Y-101259809D01*
X171675836Y-101314807D01*
X171598707Y-101322403D01*
X171521580Y-101330000D01*
X171418420Y-101330000D01*
X171341293Y-101322403D01*
X171264164Y-101314807D01*
X171082859Y-101259809D01*
X171066237Y-101254767D01*
X170883828Y-101157267D01*
X170723946Y-101026054D01*
X170592733Y-100866172D01*
X170495233Y-100683763D01*
X170470676Y-100602807D01*
X170435193Y-100485836D01*
X170414920Y-100280000D01*
X170435193Y-100074164D01*
X170495233Y-99876238D01*
X170495233Y-99876237D01*
X170592733Y-99693828D01*
X170723946Y-99533946D01*
X170883828Y-99402733D01*
X171066237Y-99305233D01*
X171132213Y-99285220D01*
X171264164Y-99245193D01*
X171354162Y-99236329D01*
X171418420Y-99230000D01*
X171521580Y-99230000D01*
X171585838Y-99236329D01*
X171585838Y-99236329D01*
G37*
G36*
X128642147Y-98072122D02*
X128906033Y-98181427D01*
X129143524Y-98340113D01*
X129345487Y-98542076D01*
X129504173Y-98779567D01*
X129613478Y-99043453D01*
X129669200Y-99323586D01*
X129669200Y-99609214D01*
X129613478Y-99889347D01*
X129504173Y-100153233D01*
X129345487Y-100390724D01*
X129143524Y-100592687D01*
X128906033Y-100751373D01*
X128642147Y-100860678D01*
X128362014Y-100916400D01*
X128076386Y-100916400D01*
X127796253Y-100860678D01*
X127532367Y-100751373D01*
X127294876Y-100592687D01*
X127092913Y-100390724D01*
X126934227Y-100153233D01*
X126824922Y-99889347D01*
X126769200Y-99609214D01*
X126769200Y-99323586D01*
X126824922Y-99043453D01*
X126934227Y-98779567D01*
X127092913Y-98542076D01*
X127294876Y-98340113D01*
X127532367Y-98181427D01*
X127796253Y-98072122D01*
X128076386Y-98016400D01*
X128362014Y-98016400D01*
X128642147Y-98072122D01*
X128642147Y-98072122D01*
G37*
G36*
X149478235Y-98525353D02*
X149557836Y-98533193D01*
X149689787Y-98573220D01*
X149755763Y-98593233D01*
X149938172Y-98690733D01*
X150098054Y-98821946D01*
X150229267Y-98981828D01*
X150326767Y-99164237D01*
X150342107Y-99214807D01*
X150386807Y-99362164D01*
X150407080Y-99568000D01*
X150386807Y-99773836D01*
X150360810Y-99859536D01*
X150326767Y-99971763D01*
X150229267Y-100154172D01*
X150098054Y-100314054D01*
X149938172Y-100445267D01*
X149755763Y-100542767D01*
X149724504Y-100552249D01*
X149557836Y-100602807D01*
X149480707Y-100610403D01*
X149403580Y-100618000D01*
X149300420Y-100618000D01*
X149223293Y-100610403D01*
X149146164Y-100602807D01*
X148979496Y-100552249D01*
X148948237Y-100542767D01*
X148765828Y-100445267D01*
X148605946Y-100314054D01*
X148474733Y-100154172D01*
X148377233Y-99971763D01*
X148343190Y-99859536D01*
X148317193Y-99773836D01*
X148296920Y-99568000D01*
X148317193Y-99362164D01*
X148361893Y-99214807D01*
X148377233Y-99164237D01*
X148474733Y-98981828D01*
X148605946Y-98821946D01*
X148765828Y-98690733D01*
X148948237Y-98593233D01*
X149014213Y-98573220D01*
X149146164Y-98533193D01*
X149225765Y-98525353D01*
X149300420Y-98518000D01*
X149403580Y-98518000D01*
X149478235Y-98525353D01*
X149478235Y-98525353D01*
G37*
G36*
X145883788Y-98497070D02*
X146064174Y-98532950D01*
X146255262Y-98612102D01*
X146427236Y-98727011D01*
X146573489Y-98873264D01*
X146688398Y-99045238D01*
X146767550Y-99236326D01*
X146807900Y-99439184D01*
X146807900Y-99646016D01*
X146767550Y-99848874D01*
X146688398Y-100039962D01*
X146573489Y-100211936D01*
X146427236Y-100358189D01*
X146255262Y-100473098D01*
X146064174Y-100552250D01*
X145883788Y-100588130D01*
X145861317Y-100592600D01*
X145654483Y-100592600D01*
X145632012Y-100588130D01*
X145451626Y-100552250D01*
X145260538Y-100473098D01*
X145088564Y-100358189D01*
X144942311Y-100211936D01*
X144827402Y-100039962D01*
X144748250Y-99848874D01*
X144707900Y-99646016D01*
X144707900Y-99439184D01*
X144748250Y-99236326D01*
X144827402Y-99045238D01*
X144942311Y-98873264D01*
X145088564Y-98727011D01*
X145260538Y-98612102D01*
X145451626Y-98532950D01*
X145632012Y-98497070D01*
X145654483Y-98492600D01*
X145861317Y-98492600D01*
X145883788Y-98497070D01*
X145883788Y-98497070D01*
G37*
G36*
X155204534Y-98249864D02*
X155359227Y-98313940D01*
X155498447Y-98406964D01*
X155616836Y-98525353D01*
X155709860Y-98664573D01*
X155773936Y-98819266D01*
X155806600Y-98983481D01*
X155806600Y-99150919D01*
X155773936Y-99315134D01*
X155709860Y-99469827D01*
X155616836Y-99609047D01*
X155498447Y-99727436D01*
X155359227Y-99820460D01*
X155204534Y-99884536D01*
X155040319Y-99917200D01*
X154872881Y-99917200D01*
X154708666Y-99884536D01*
X154553973Y-99820460D01*
X154414753Y-99727436D01*
X154296364Y-99609047D01*
X154203340Y-99469827D01*
X154139264Y-99315134D01*
X154106600Y-99150919D01*
X154106600Y-98983481D01*
X154139264Y-98819266D01*
X154203340Y-98664573D01*
X154296364Y-98525353D01*
X154414753Y-98406964D01*
X154553973Y-98313940D01*
X154708666Y-98249864D01*
X154872881Y-98217200D01*
X155040319Y-98217200D01*
X155204534Y-98249864D01*
X155204534Y-98249864D01*
G37*
G36*
X157929534Y-98224864D02*
X158084227Y-98288940D01*
X158223447Y-98381964D01*
X158341836Y-98500353D01*
X158434860Y-98639573D01*
X158498936Y-98794266D01*
X158531600Y-98958481D01*
X158531600Y-99125919D01*
X158498936Y-99290134D01*
X158434860Y-99444827D01*
X158341836Y-99584047D01*
X158223447Y-99702436D01*
X158084227Y-99795460D01*
X157929534Y-99859536D01*
X157765319Y-99892200D01*
X157597881Y-99892200D01*
X157433666Y-99859536D01*
X157278973Y-99795460D01*
X157139753Y-99702436D01*
X157021364Y-99584047D01*
X156928340Y-99444827D01*
X156864264Y-99290134D01*
X156831600Y-99125919D01*
X156831600Y-98958481D01*
X156864264Y-98794266D01*
X156928340Y-98639573D01*
X157021364Y-98500353D01*
X157139753Y-98381964D01*
X157278973Y-98288940D01*
X157433666Y-98224864D01*
X157597881Y-98192200D01*
X157765319Y-98192200D01*
X157929534Y-98224864D01*
X157929534Y-98224864D01*
G37*
G36*
X138214304Y-97145193D02*
X138315836Y-97155193D01*
X138447787Y-97195220D01*
X138513763Y-97215233D01*
X138696172Y-97312733D01*
X138856054Y-97443946D01*
X138987267Y-97603828D01*
X139084767Y-97786237D01*
X139084767Y-97786238D01*
X139144807Y-97984164D01*
X139165080Y-98190000D01*
X139144807Y-98395836D01*
X139141431Y-98406964D01*
X139084767Y-98593763D01*
X138987267Y-98776172D01*
X138856054Y-98936054D01*
X138696172Y-99067267D01*
X138513763Y-99164767D01*
X138447787Y-99184780D01*
X138315836Y-99224807D01*
X138263110Y-99230000D01*
X138161580Y-99240000D01*
X138058420Y-99240000D01*
X137956890Y-99230000D01*
X137904164Y-99224807D01*
X137772213Y-99184780D01*
X137706237Y-99164767D01*
X137523828Y-99067267D01*
X137363946Y-98936054D01*
X137232733Y-98776172D01*
X137135233Y-98593763D01*
X137078569Y-98406964D01*
X137075193Y-98395836D01*
X137054920Y-98190000D01*
X137075193Y-97984164D01*
X137135233Y-97786238D01*
X137135233Y-97786237D01*
X137232733Y-97603828D01*
X137363946Y-97443946D01*
X137523828Y-97312733D01*
X137706237Y-97215233D01*
X137772213Y-97195220D01*
X137904164Y-97155193D01*
X138005696Y-97145193D01*
X138058420Y-97140000D01*
X138161580Y-97140000D01*
X138214304Y-97145193D01*
X138214304Y-97145193D01*
G37*
G36*
X140754304Y-97145193D02*
X140855836Y-97155193D01*
X140987787Y-97195220D01*
X141053763Y-97215233D01*
X141236172Y-97312733D01*
X141396054Y-97443946D01*
X141527267Y-97603828D01*
X141624767Y-97786237D01*
X141624767Y-97786238D01*
X141684807Y-97984164D01*
X141705080Y-98190000D01*
X141684807Y-98395836D01*
X141681431Y-98406964D01*
X141624767Y-98593763D01*
X141527267Y-98776172D01*
X141396054Y-98936054D01*
X141236172Y-99067267D01*
X141053763Y-99164767D01*
X140987787Y-99184780D01*
X140855836Y-99224807D01*
X140803110Y-99230000D01*
X140701580Y-99240000D01*
X140598420Y-99240000D01*
X140496890Y-99230000D01*
X140444164Y-99224807D01*
X140312213Y-99184780D01*
X140246237Y-99164767D01*
X140063828Y-99067267D01*
X139903946Y-98936054D01*
X139772733Y-98776172D01*
X139675233Y-98593763D01*
X139618569Y-98406964D01*
X139615193Y-98395836D01*
X139594920Y-98190000D01*
X139615193Y-97984164D01*
X139675233Y-97786238D01*
X139675233Y-97786237D01*
X139772733Y-97603828D01*
X139903946Y-97443946D01*
X140063828Y-97312733D01*
X140246237Y-97215233D01*
X140312213Y-97195220D01*
X140444164Y-97155193D01*
X140545696Y-97145193D01*
X140598420Y-97140000D01*
X140701580Y-97140000D01*
X140754304Y-97145193D01*
X140754304Y-97145193D01*
G37*
G36*
X132238707Y-97137597D02*
X132315836Y-97145193D01*
X132447787Y-97185220D01*
X132513763Y-97205233D01*
X132696172Y-97302733D01*
X132856054Y-97433946D01*
X132987267Y-97593828D01*
X133084767Y-97776237D01*
X133104780Y-97842213D01*
X133144807Y-97974164D01*
X133165080Y-98180000D01*
X133144807Y-98385836D01*
X133110069Y-98500353D01*
X133084767Y-98583763D01*
X132987267Y-98766172D01*
X132856054Y-98926054D01*
X132696172Y-99057267D01*
X132513763Y-99154767D01*
X132447787Y-99174780D01*
X132315836Y-99214807D01*
X132238707Y-99222403D01*
X132161580Y-99230000D01*
X132058420Y-99230000D01*
X131981293Y-99222404D01*
X131904164Y-99214807D01*
X131772213Y-99174780D01*
X131706237Y-99154767D01*
X131523828Y-99057267D01*
X131363946Y-98926054D01*
X131232733Y-98766172D01*
X131135233Y-98583763D01*
X131109931Y-98500353D01*
X131075193Y-98385836D01*
X131054920Y-98180000D01*
X131075193Y-97974164D01*
X131115220Y-97842213D01*
X131135233Y-97776237D01*
X131232733Y-97593828D01*
X131363946Y-97433946D01*
X131523828Y-97302733D01*
X131706237Y-97205233D01*
X131772213Y-97185220D01*
X131904164Y-97145193D01*
X131981293Y-97137597D01*
X132058420Y-97130000D01*
X132161580Y-97130000D01*
X132238707Y-97137597D01*
X132238707Y-97137597D01*
G37*
G36*
X134778707Y-97137597D02*
X134855836Y-97145193D01*
X134987787Y-97185220D01*
X135053763Y-97205233D01*
X135236172Y-97302733D01*
X135396054Y-97433946D01*
X135527267Y-97593828D01*
X135624767Y-97776237D01*
X135644780Y-97842213D01*
X135684807Y-97974164D01*
X135705080Y-98180000D01*
X135684807Y-98385836D01*
X135650069Y-98500353D01*
X135624767Y-98583763D01*
X135527267Y-98766172D01*
X135396054Y-98926054D01*
X135236172Y-99057267D01*
X135053763Y-99154767D01*
X134987787Y-99174780D01*
X134855836Y-99214807D01*
X134778707Y-99222403D01*
X134701580Y-99230000D01*
X134598420Y-99230000D01*
X134521293Y-99222404D01*
X134444164Y-99214807D01*
X134312213Y-99174780D01*
X134246237Y-99154767D01*
X134063828Y-99057267D01*
X133903946Y-98926054D01*
X133772733Y-98766172D01*
X133675233Y-98583763D01*
X133649931Y-98500353D01*
X133615193Y-98385836D01*
X133594920Y-98180000D01*
X133615193Y-97974164D01*
X133655220Y-97842213D01*
X133675233Y-97776237D01*
X133772733Y-97593828D01*
X133903946Y-97433946D01*
X134063828Y-97302733D01*
X134246237Y-97205233D01*
X134312213Y-97185220D01*
X134444164Y-97145193D01*
X134521293Y-97137597D01*
X134598420Y-97130000D01*
X134701580Y-97130000D01*
X134778707Y-97137597D01*
X134778707Y-97137597D01*
G37*
G36*
X149480707Y-95985596D02*
X149557836Y-95993193D01*
X149672029Y-96027833D01*
X149755763Y-96053233D01*
X149938172Y-96150733D01*
X150098054Y-96281946D01*
X150229267Y-96441828D01*
X150326767Y-96624237D01*
X150326767Y-96624238D01*
X150386807Y-96822164D01*
X150407080Y-97028000D01*
X150386807Y-97233836D01*
X150365907Y-97302733D01*
X150326767Y-97431763D01*
X150229267Y-97614172D01*
X150098054Y-97774054D01*
X149938172Y-97905267D01*
X149755763Y-98002767D01*
X149710820Y-98016400D01*
X149557836Y-98062807D01*
X149480707Y-98070403D01*
X149403580Y-98078000D01*
X149300420Y-98078000D01*
X149223293Y-98070403D01*
X149146164Y-98062807D01*
X148993180Y-98016400D01*
X148948237Y-98002767D01*
X148765828Y-97905267D01*
X148605946Y-97774054D01*
X148474733Y-97614172D01*
X148377233Y-97431763D01*
X148338093Y-97302733D01*
X148317193Y-97233836D01*
X148296920Y-97028000D01*
X148317193Y-96822164D01*
X148377233Y-96624238D01*
X148377233Y-96624237D01*
X148474733Y-96441828D01*
X148605946Y-96281946D01*
X148765828Y-96150733D01*
X148948237Y-96053233D01*
X149031971Y-96027833D01*
X149146164Y-95993193D01*
X149223293Y-95985596D01*
X149300420Y-95978000D01*
X149403580Y-95978000D01*
X149480707Y-95985596D01*
X149480707Y-95985596D01*
G37*
G36*
X145886607Y-95960196D02*
X145963736Y-95967793D01*
X146095687Y-96007820D01*
X146161663Y-96027833D01*
X146344072Y-96125333D01*
X146503954Y-96256546D01*
X146635167Y-96416428D01*
X146732667Y-96598837D01*
X146732667Y-96598838D01*
X146792707Y-96796764D01*
X146812980Y-97002600D01*
X146792707Y-97208436D01*
X146785002Y-97233836D01*
X146732667Y-97406363D01*
X146635167Y-97588772D01*
X146503954Y-97748654D01*
X146344072Y-97879867D01*
X146161663Y-97977367D01*
X146139249Y-97984166D01*
X145963736Y-98037407D01*
X145886607Y-98045003D01*
X145809480Y-98052600D01*
X145706320Y-98052600D01*
X145629193Y-98045003D01*
X145552064Y-98037407D01*
X145376551Y-97984166D01*
X145354137Y-97977367D01*
X145171728Y-97879867D01*
X145011846Y-97748654D01*
X144880633Y-97588772D01*
X144783133Y-97406363D01*
X144730798Y-97233836D01*
X144723093Y-97208436D01*
X144702820Y-97002600D01*
X144723093Y-96796764D01*
X144783133Y-96598838D01*
X144783133Y-96598837D01*
X144880633Y-96416428D01*
X145011846Y-96256546D01*
X145171728Y-96125333D01*
X145354137Y-96027833D01*
X145420113Y-96007820D01*
X145552064Y-95967793D01*
X145629193Y-95960196D01*
X145706320Y-95952600D01*
X145809480Y-95952600D01*
X145886607Y-95960196D01*
X145886607Y-95960196D01*
G37*
G36*
X137295544Y-92592334D02*
X137474727Y-92646689D01*
X137474729Y-92646690D01*
X137474732Y-92646691D01*
X137639864Y-92734955D01*
X137784607Y-92853743D01*
X137903395Y-92998486D01*
X137991660Y-93163619D01*
X138003604Y-93202993D01*
X138046016Y-93342806D01*
X138047523Y-93358111D01*
X138059770Y-93482454D01*
X138059770Y-94274347D01*
X138054268Y-94330205D01*
X138046016Y-94413994D01*
X137991661Y-94593176D01*
X137991659Y-94593182D01*
X137903395Y-94758314D01*
X137784607Y-94903057D01*
X137639864Y-95021845D01*
X137474731Y-95110109D01*
X137474728Y-95110110D01*
X137474726Y-95110111D01*
X137295543Y-95164466D01*
X137109200Y-95182819D01*
X136922856Y-95164466D01*
X136743673Y-95110111D01*
X136743671Y-95110110D01*
X136743668Y-95110109D01*
X136578536Y-95021845D01*
X136433793Y-94903057D01*
X136315005Y-94758314D01*
X136226741Y-94593181D01*
X136226739Y-94593176D01*
X136172384Y-94413993D01*
X136158630Y-94274344D01*
X136158630Y-93482455D01*
X136170876Y-93358114D01*
X136172384Y-93342804D01*
X136226739Y-93163623D01*
X136315006Y-92998486D01*
X136433794Y-92853743D01*
X136578537Y-92734955D01*
X136743669Y-92646691D01*
X136743672Y-92646690D01*
X136743674Y-92646689D01*
X136922857Y-92592334D01*
X137109200Y-92573981D01*
X137295544Y-92592334D01*
X137295544Y-92592334D01*
G37*
G36*
X139835544Y-92592334D02*
X140014727Y-92646689D01*
X140014729Y-92646690D01*
X140014732Y-92646691D01*
X140179864Y-92734955D01*
X140324607Y-92853743D01*
X140443395Y-92998486D01*
X140531660Y-93163619D01*
X140543604Y-93202993D01*
X140586016Y-93342806D01*
X140587523Y-93358111D01*
X140599770Y-93482454D01*
X140599770Y-94274347D01*
X140594268Y-94330205D01*
X140586016Y-94413994D01*
X140531661Y-94593176D01*
X140531659Y-94593182D01*
X140443395Y-94758314D01*
X140324607Y-94903057D01*
X140179864Y-95021845D01*
X140014731Y-95110109D01*
X140014728Y-95110110D01*
X140014726Y-95110111D01*
X139835543Y-95164466D01*
X139649200Y-95182819D01*
X139462856Y-95164466D01*
X139283673Y-95110111D01*
X139283671Y-95110110D01*
X139283668Y-95110109D01*
X139118536Y-95021845D01*
X138973793Y-94903057D01*
X138855005Y-94758314D01*
X138766741Y-94593181D01*
X138766739Y-94593176D01*
X138712384Y-94413993D01*
X138698630Y-94274344D01*
X138698630Y-93482455D01*
X138710876Y-93358114D01*
X138712384Y-93342804D01*
X138766739Y-93163623D01*
X138855006Y-92998486D01*
X138973794Y-92853743D01*
X139118537Y-92734955D01*
X139283669Y-92646691D01*
X139283672Y-92646690D01*
X139283674Y-92646689D01*
X139462857Y-92592334D01*
X139649200Y-92573981D01*
X139835544Y-92592334D01*
X139835544Y-92592334D01*
G37*
G36*
X134755544Y-92592334D02*
X134934727Y-92646689D01*
X134934729Y-92646690D01*
X134934732Y-92646691D01*
X135099864Y-92734955D01*
X135244607Y-92853743D01*
X135363395Y-92998486D01*
X135451660Y-93163619D01*
X135463604Y-93202993D01*
X135506016Y-93342806D01*
X135507523Y-93358111D01*
X135519770Y-93482454D01*
X135519770Y-94274347D01*
X135514268Y-94330205D01*
X135506016Y-94413994D01*
X135451661Y-94593176D01*
X135451659Y-94593182D01*
X135363395Y-94758314D01*
X135244607Y-94903057D01*
X135099864Y-95021845D01*
X134934731Y-95110109D01*
X134934728Y-95110110D01*
X134934726Y-95110111D01*
X134755543Y-95164466D01*
X134569200Y-95182819D01*
X134382856Y-95164466D01*
X134203673Y-95110111D01*
X134203671Y-95110110D01*
X134203668Y-95110109D01*
X134038536Y-95021845D01*
X133893793Y-94903057D01*
X133775005Y-94758314D01*
X133686741Y-94593181D01*
X133686739Y-94593176D01*
X133632384Y-94413993D01*
X133618630Y-94274344D01*
X133618630Y-93482455D01*
X133630876Y-93358114D01*
X133632384Y-93342804D01*
X133686739Y-93163623D01*
X133775006Y-92998486D01*
X133893794Y-92853743D01*
X134038537Y-92734955D01*
X134203669Y-92646691D01*
X134203672Y-92646690D01*
X134203674Y-92646689D01*
X134382857Y-92592334D01*
X134569200Y-92573981D01*
X134755544Y-92592334D01*
X134755544Y-92592334D01*
G37*
G36*
X142641005Y-92933332D02*
X142724794Y-92941584D01*
X142903977Y-92995939D01*
X142903979Y-92995940D01*
X142903982Y-92995941D01*
X143069114Y-93084205D01*
X143213857Y-93202993D01*
X143332645Y-93347736D01*
X143420909Y-93512868D01*
X143420910Y-93512871D01*
X143420911Y-93512873D01*
X143475266Y-93692056D01*
X143493619Y-93878400D01*
X143475266Y-94064744D01*
X143420911Y-94243927D01*
X143420909Y-94243932D01*
X143332645Y-94409064D01*
X143213857Y-94553807D01*
X143069114Y-94672595D01*
X142903982Y-94760859D01*
X142903979Y-94760860D01*
X142903977Y-94760861D01*
X142724794Y-94815216D01*
X142641005Y-94823468D01*
X142585147Y-94828970D01*
X141793253Y-94828970D01*
X141737395Y-94823468D01*
X141653606Y-94815216D01*
X141474423Y-94760861D01*
X141474421Y-94760860D01*
X141474418Y-94760859D01*
X141309286Y-94672595D01*
X141164543Y-94553807D01*
X141045755Y-94409064D01*
X140957491Y-94243932D01*
X140957489Y-94243927D01*
X140903134Y-94064744D01*
X140884781Y-93878400D01*
X140903134Y-93692056D01*
X140957489Y-93512873D01*
X140957490Y-93512871D01*
X140957491Y-93512868D01*
X141045755Y-93347736D01*
X141164543Y-93202993D01*
X141309286Y-93084205D01*
X141474418Y-92995941D01*
X141474421Y-92995940D01*
X141474423Y-92995939D01*
X141653606Y-92941584D01*
X141737395Y-92933332D01*
X141793253Y-92927830D01*
X142585147Y-92927830D01*
X142641005Y-92933332D01*
X142641005Y-92933332D01*
G37*
G36*
X127401005Y-92933332D02*
X127484794Y-92941584D01*
X127663977Y-92995939D01*
X127663979Y-92995940D01*
X127663982Y-92995941D01*
X127829114Y-93084205D01*
X127973857Y-93202993D01*
X128092645Y-93347736D01*
X128180909Y-93512868D01*
X128180910Y-93512871D01*
X128180911Y-93512873D01*
X128235266Y-93692056D01*
X128253619Y-93878400D01*
X128235266Y-94064744D01*
X128180911Y-94243927D01*
X128180909Y-94243932D01*
X128092645Y-94409064D01*
X127973857Y-94553807D01*
X127829114Y-94672595D01*
X127663982Y-94760859D01*
X127663979Y-94760860D01*
X127663977Y-94760861D01*
X127484794Y-94815216D01*
X127401005Y-94823468D01*
X127345147Y-94828970D01*
X126553253Y-94828970D01*
X126497395Y-94823468D01*
X126413606Y-94815216D01*
X126234423Y-94760861D01*
X126234421Y-94760860D01*
X126234418Y-94760859D01*
X126069286Y-94672595D01*
X125924543Y-94553807D01*
X125805755Y-94409064D01*
X125717491Y-94243932D01*
X125717489Y-94243927D01*
X125663134Y-94064744D01*
X125644781Y-93878400D01*
X125663134Y-93692056D01*
X125717489Y-93512873D01*
X125717490Y-93512871D01*
X125717491Y-93512868D01*
X125805755Y-93347736D01*
X125924543Y-93202993D01*
X126069286Y-93084205D01*
X126234418Y-92995941D01*
X126234421Y-92995940D01*
X126234423Y-92995939D01*
X126413606Y-92941584D01*
X126497395Y-92933332D01*
X126553253Y-92927830D01*
X127345147Y-92927830D01*
X127401005Y-92933332D01*
X127401005Y-92933332D01*
G37*
G36*
X161146370Y-92665172D02*
X161262289Y-92688229D01*
X161444278Y-92763611D01*
X161608063Y-92873049D01*
X161747351Y-93012337D01*
X161856789Y-93176122D01*
X161932171Y-93358111D01*
X161970600Y-93551309D01*
X161970600Y-93748291D01*
X161932171Y-93941489D01*
X161856789Y-94123478D01*
X161747351Y-94287263D01*
X161608063Y-94426551D01*
X161444278Y-94535989D01*
X161262289Y-94611371D01*
X161146370Y-94634428D01*
X161069093Y-94649800D01*
X160872107Y-94649800D01*
X160794830Y-94634428D01*
X160678911Y-94611371D01*
X160496922Y-94535989D01*
X160333137Y-94426551D01*
X160193849Y-94287263D01*
X160084411Y-94123478D01*
X160009029Y-93941489D01*
X159970600Y-93748291D01*
X159970600Y-93551309D01*
X160009029Y-93358111D01*
X160084411Y-93176122D01*
X160193849Y-93012337D01*
X160333137Y-92873049D01*
X160496922Y-92763611D01*
X160678911Y-92688229D01*
X160794830Y-92665172D01*
X160872107Y-92649800D01*
X161069093Y-92649800D01*
X161146370Y-92665172D01*
X161146370Y-92665172D01*
G37*
G36*
X159470600Y-94649800D02*
X157470600Y-94649800D01*
X157470600Y-92649800D01*
X159470600Y-92649800D01*
X159470600Y-94649800D01*
X159470600Y-94649800D01*
G37*
G36*
X152931370Y-92665172D02*
X153047289Y-92688229D01*
X153229278Y-92763611D01*
X153393063Y-92873049D01*
X153532351Y-93012337D01*
X153641789Y-93176122D01*
X153717171Y-93358111D01*
X153755600Y-93551309D01*
X153755600Y-93748291D01*
X153717171Y-93941489D01*
X153641789Y-94123478D01*
X153532351Y-94287263D01*
X153393063Y-94426551D01*
X153229278Y-94535989D01*
X153047289Y-94611371D01*
X152931370Y-94634428D01*
X152854093Y-94649800D01*
X152657107Y-94649800D01*
X152579830Y-94634428D01*
X152463911Y-94611371D01*
X152281922Y-94535989D01*
X152118137Y-94426551D01*
X151978849Y-94287263D01*
X151869411Y-94123478D01*
X151794029Y-93941489D01*
X151755600Y-93748291D01*
X151755600Y-93551309D01*
X151794029Y-93358111D01*
X151869411Y-93176122D01*
X151978849Y-93012337D01*
X152118137Y-92873049D01*
X152281922Y-92763611D01*
X152463911Y-92688229D01*
X152579830Y-92665172D01*
X152657107Y-92649800D01*
X152854093Y-92649800D01*
X152931370Y-92665172D01*
X152931370Y-92665172D01*
G37*
G36*
X156255600Y-94649800D02*
X154255600Y-94649800D01*
X154255600Y-92649800D01*
X156255600Y-92649800D01*
X156255600Y-94649800D01*
X156255600Y-94649800D01*
G37*
G36*
X148912947Y-91235722D02*
X149176833Y-91345027D01*
X149414324Y-91503713D01*
X149616287Y-91705676D01*
X149774973Y-91943167D01*
X149884278Y-92207053D01*
X149940000Y-92487186D01*
X149940000Y-92772814D01*
X149884278Y-93052947D01*
X149774973Y-93316833D01*
X149616287Y-93554324D01*
X149414324Y-93756287D01*
X149176833Y-93914973D01*
X148912947Y-94024278D01*
X148632814Y-94080000D01*
X148347186Y-94080000D01*
X148067053Y-94024278D01*
X147803167Y-93914973D01*
X147565676Y-93756287D01*
X147363713Y-93554324D01*
X147205027Y-93316833D01*
X147095722Y-93052947D01*
X147040000Y-92772814D01*
X147040000Y-92487186D01*
X147095722Y-92207053D01*
X147205027Y-91943167D01*
X147363713Y-91705676D01*
X147565676Y-91503713D01*
X147803167Y-91345027D01*
X148067053Y-91235722D01*
X148347186Y-91180000D01*
X148632814Y-91180000D01*
X148912947Y-91235722D01*
X148912947Y-91235722D01*
G37*
G36*
X167705770Y-90555372D02*
X167821689Y-90578429D01*
X168003678Y-90653811D01*
X168167463Y-90763249D01*
X168306751Y-90902537D01*
X168416189Y-91066322D01*
X168491571Y-91248311D01*
X168530000Y-91441509D01*
X168530000Y-91638491D01*
X168491571Y-91831689D01*
X168416189Y-92013678D01*
X168306751Y-92177463D01*
X168167463Y-92316751D01*
X168003678Y-92426189D01*
X167821689Y-92501571D01*
X167705770Y-92524628D01*
X167628493Y-92540000D01*
X167431507Y-92540000D01*
X167354230Y-92524628D01*
X167238311Y-92501571D01*
X167056322Y-92426189D01*
X166892537Y-92316751D01*
X166753249Y-92177463D01*
X166643811Y-92013678D01*
X166568429Y-91831689D01*
X166530000Y-91638491D01*
X166530000Y-91441509D01*
X166568429Y-91248311D01*
X166643811Y-91066322D01*
X166753249Y-90902537D01*
X166892537Y-90763249D01*
X167056322Y-90653811D01*
X167238311Y-90578429D01*
X167354230Y-90555372D01*
X167431507Y-90540000D01*
X167628493Y-90540000D01*
X167705770Y-90555372D01*
X167705770Y-90555372D01*
G37*
G36*
X171030000Y-92540000D02*
X169030000Y-92540000D01*
X169030000Y-90540000D01*
X171030000Y-90540000D01*
X171030000Y-92540000D01*
X171030000Y-92540000D01*
G37*
G36*
X127401005Y-90393332D02*
X127484794Y-90401584D01*
X127663977Y-90455939D01*
X127663979Y-90455940D01*
X127663982Y-90455941D01*
X127829114Y-90544205D01*
X127973857Y-90662993D01*
X128092645Y-90807736D01*
X128180909Y-90972868D01*
X128180910Y-90972871D01*
X128180911Y-90972873D01*
X128235266Y-91152056D01*
X128253619Y-91338400D01*
X128235266Y-91524744D01*
X128200760Y-91638493D01*
X128180909Y-91703932D01*
X128092645Y-91869064D01*
X127973857Y-92013807D01*
X127829114Y-92132595D01*
X127663982Y-92220859D01*
X127663979Y-92220860D01*
X127663977Y-92220861D01*
X127484794Y-92275216D01*
X127401005Y-92283468D01*
X127345147Y-92288970D01*
X126553253Y-92288970D01*
X126497395Y-92283468D01*
X126413606Y-92275216D01*
X126234423Y-92220861D01*
X126234421Y-92220860D01*
X126234418Y-92220859D01*
X126069286Y-92132595D01*
X125924543Y-92013807D01*
X125805755Y-91869064D01*
X125717491Y-91703932D01*
X125697640Y-91638493D01*
X125663134Y-91524744D01*
X125644781Y-91338400D01*
X125663134Y-91152056D01*
X125717489Y-90972873D01*
X125717490Y-90972871D01*
X125717491Y-90972868D01*
X125805755Y-90807736D01*
X125924543Y-90662993D01*
X126069286Y-90544205D01*
X126234418Y-90455941D01*
X126234421Y-90455940D01*
X126234423Y-90455939D01*
X126413606Y-90401584D01*
X126497395Y-90393332D01*
X126553253Y-90387830D01*
X127345147Y-90387830D01*
X127401005Y-90393332D01*
X127401005Y-90393332D01*
G37*
G36*
X142641005Y-90393332D02*
X142724794Y-90401584D01*
X142903977Y-90455939D01*
X142903979Y-90455940D01*
X142903982Y-90455941D01*
X143069114Y-90544205D01*
X143213857Y-90662993D01*
X143332645Y-90807736D01*
X143420909Y-90972868D01*
X143420910Y-90972871D01*
X143420911Y-90972873D01*
X143475266Y-91152056D01*
X143493619Y-91338400D01*
X143475266Y-91524744D01*
X143440760Y-91638493D01*
X143420909Y-91703932D01*
X143332645Y-91869064D01*
X143213857Y-92013807D01*
X143069114Y-92132595D01*
X142903982Y-92220859D01*
X142903979Y-92220860D01*
X142903977Y-92220861D01*
X142724794Y-92275216D01*
X142641005Y-92283468D01*
X142585147Y-92288970D01*
X141793253Y-92288970D01*
X141737395Y-92283468D01*
X141653606Y-92275216D01*
X141474423Y-92220861D01*
X141474421Y-92220860D01*
X141474418Y-92220859D01*
X141309286Y-92132595D01*
X141164543Y-92013807D01*
X141045755Y-91869064D01*
X140957491Y-91703932D01*
X140937640Y-91638493D01*
X140903134Y-91524744D01*
X140884781Y-91338400D01*
X140903134Y-91152056D01*
X140957489Y-90972873D01*
X140957490Y-90972871D01*
X140957491Y-90972868D01*
X141045755Y-90807736D01*
X141164543Y-90662993D01*
X141309286Y-90544205D01*
X141474418Y-90455941D01*
X141474421Y-90455940D01*
X141474423Y-90455939D01*
X141653606Y-90401584D01*
X141737395Y-90393332D01*
X141793253Y-90387830D01*
X142585147Y-90387830D01*
X142641005Y-90393332D01*
X142641005Y-90393332D01*
G37*
G36*
X127401005Y-87853332D02*
X127484794Y-87861584D01*
X127663977Y-87915939D01*
X127663979Y-87915940D01*
X127663982Y-87915941D01*
X127829114Y-88004205D01*
X127973857Y-88122993D01*
X128092645Y-88267736D01*
X128180909Y-88432868D01*
X128180910Y-88432871D01*
X128180911Y-88432873D01*
X128235266Y-88612056D01*
X128253619Y-88798400D01*
X128235266Y-88984744D01*
X128180911Y-89163927D01*
X128180909Y-89163932D01*
X128092645Y-89329064D01*
X127973857Y-89473807D01*
X127829114Y-89592595D01*
X127663982Y-89680859D01*
X127663979Y-89680860D01*
X127663977Y-89680861D01*
X127484794Y-89735216D01*
X127401005Y-89743468D01*
X127345147Y-89748970D01*
X126553253Y-89748970D01*
X126497395Y-89743468D01*
X126413606Y-89735216D01*
X126234423Y-89680861D01*
X126234421Y-89680860D01*
X126234418Y-89680859D01*
X126069286Y-89592595D01*
X125924543Y-89473807D01*
X125805755Y-89329064D01*
X125717491Y-89163932D01*
X125717489Y-89163927D01*
X125663134Y-88984744D01*
X125644781Y-88798400D01*
X125663134Y-88612056D01*
X125717489Y-88432873D01*
X125717490Y-88432871D01*
X125717491Y-88432868D01*
X125805755Y-88267736D01*
X125924543Y-88122993D01*
X126069286Y-88004205D01*
X126234418Y-87915941D01*
X126234421Y-87915940D01*
X126234423Y-87915939D01*
X126413606Y-87861584D01*
X126497395Y-87853332D01*
X126553253Y-87847830D01*
X127345147Y-87847830D01*
X127401005Y-87853332D01*
X127401005Y-87853332D01*
G37*
G36*
X142641005Y-87853332D02*
X142724794Y-87861584D01*
X142903977Y-87915939D01*
X142903979Y-87915940D01*
X142903982Y-87915941D01*
X143069114Y-88004205D01*
X143213857Y-88122993D01*
X143332645Y-88267736D01*
X143420909Y-88432868D01*
X143420910Y-88432871D01*
X143420911Y-88432873D01*
X143475266Y-88612056D01*
X143493619Y-88798400D01*
X143475266Y-88984744D01*
X143420911Y-89163927D01*
X143420909Y-89163932D01*
X143332645Y-89329064D01*
X143213857Y-89473807D01*
X143069114Y-89592595D01*
X142903982Y-89680859D01*
X142903979Y-89680860D01*
X142903977Y-89680861D01*
X142724794Y-89735216D01*
X142641005Y-89743468D01*
X142585147Y-89748970D01*
X141793253Y-89748970D01*
X141737395Y-89743468D01*
X141653606Y-89735216D01*
X141474423Y-89680861D01*
X141474421Y-89680860D01*
X141474418Y-89680859D01*
X141309286Y-89592595D01*
X141164543Y-89473807D01*
X141045755Y-89329064D01*
X140957491Y-89163932D01*
X140957489Y-89163927D01*
X140903134Y-88984744D01*
X140884781Y-88798400D01*
X140903134Y-88612056D01*
X140957489Y-88432873D01*
X140957490Y-88432871D01*
X140957491Y-88432868D01*
X141045755Y-88267736D01*
X141164543Y-88122993D01*
X141309286Y-88004205D01*
X141474418Y-87915941D01*
X141474421Y-87915940D01*
X141474423Y-87915939D01*
X141653606Y-87861584D01*
X141737395Y-87853332D01*
X141793253Y-87847830D01*
X142585147Y-87847830D01*
X142641005Y-87853332D01*
X142641005Y-87853332D01*
G37*
G36*
X135656340Y-88827980D02*
X133756340Y-88827980D01*
X133756340Y-87127980D01*
X135656340Y-87127980D01*
X135656340Y-88827980D01*
X135656340Y-88827980D01*
G37*
G36*
X132956340Y-88827980D02*
X131056340Y-88827980D01*
X131056340Y-87127980D01*
X132956340Y-87127980D01*
X132956340Y-88827980D01*
X132956340Y-88827980D01*
G37*
G36*
X140101005Y-86583332D02*
X140184794Y-86591584D01*
X140363977Y-86645939D01*
X140363979Y-86645940D01*
X140363982Y-86645941D01*
X140529114Y-86734205D01*
X140673857Y-86852993D01*
X140792645Y-86997736D01*
X140880909Y-87162868D01*
X140880910Y-87162871D01*
X140880911Y-87162873D01*
X140935266Y-87342056D01*
X140953619Y-87528400D01*
X140935266Y-87714744D01*
X140880911Y-87893927D01*
X140880909Y-87893932D01*
X140792645Y-88059064D01*
X140673857Y-88203807D01*
X140529114Y-88322595D01*
X140363982Y-88410859D01*
X140363979Y-88410860D01*
X140363977Y-88410861D01*
X140184794Y-88465216D01*
X140101005Y-88473468D01*
X140045147Y-88478970D01*
X139253253Y-88478970D01*
X139197395Y-88473468D01*
X139113606Y-88465216D01*
X138934423Y-88410861D01*
X138934421Y-88410860D01*
X138934418Y-88410859D01*
X138769286Y-88322595D01*
X138624543Y-88203807D01*
X138505755Y-88059064D01*
X138417491Y-87893932D01*
X138417489Y-87893927D01*
X138363134Y-87714744D01*
X138344781Y-87528400D01*
X138363134Y-87342056D01*
X138417489Y-87162873D01*
X138417490Y-87162871D01*
X138417491Y-87162868D01*
X138505755Y-86997736D01*
X138624543Y-86852993D01*
X138769286Y-86734205D01*
X138934418Y-86645941D01*
X138934421Y-86645940D01*
X138934423Y-86645939D01*
X139113606Y-86591584D01*
X139197395Y-86583332D01*
X139253253Y-86577830D01*
X140045147Y-86577830D01*
X140101005Y-86583332D01*
X140101005Y-86583332D01*
G37*
G36*
X151955770Y-86295372D02*
X152071689Y-86318429D01*
X152253678Y-86393811D01*
X152417463Y-86503249D01*
X152556751Y-86642537D01*
X152666189Y-86806322D01*
X152741571Y-86988311D01*
X152761798Y-87090000D01*
X152780000Y-87181507D01*
X152780000Y-87378493D01*
X152779364Y-87381689D01*
X152741571Y-87571689D01*
X152666189Y-87753678D01*
X152556751Y-87917463D01*
X152417463Y-88056751D01*
X152253678Y-88166189D01*
X152071689Y-88241571D01*
X151955770Y-88264628D01*
X151878493Y-88280000D01*
X151681507Y-88280000D01*
X151604230Y-88264628D01*
X151488311Y-88241571D01*
X151306322Y-88166189D01*
X151142537Y-88056751D01*
X151003249Y-87917463D01*
X150893811Y-87753678D01*
X150818429Y-87571689D01*
X150780636Y-87381689D01*
X150780000Y-87378493D01*
X150780000Y-87181507D01*
X150798202Y-87090000D01*
X150818429Y-86988311D01*
X150893811Y-86806322D01*
X151003249Y-86642537D01*
X151142537Y-86503249D01*
X151306322Y-86393811D01*
X151488311Y-86318429D01*
X151604230Y-86295372D01*
X151681507Y-86280000D01*
X151878493Y-86280000D01*
X151955770Y-86295372D01*
X151955770Y-86295372D01*
G37*
G36*
X150280000Y-88280000D02*
X148280000Y-88280000D01*
X148280000Y-86280000D01*
X150280000Y-86280000D01*
X150280000Y-88280000D01*
X150280000Y-88280000D01*
G37*
G36*
X172916030Y-86104469D02*
X172916033Y-86104470D01*
X172916034Y-86104470D01*
X173104535Y-86161651D01*
X173104537Y-86161652D01*
X173278260Y-86254509D01*
X173430528Y-86379472D01*
X173555491Y-86531740D01*
X173555492Y-86531742D01*
X173648349Y-86705465D01*
X173678944Y-86806325D01*
X173705531Y-86893970D01*
X173724838Y-87090000D01*
X173705531Y-87286030D01*
X173705530Y-87286033D01*
X173705530Y-87286034D01*
X173677484Y-87378491D01*
X173648348Y-87474537D01*
X173555491Y-87648260D01*
X173430528Y-87800528D01*
X173278260Y-87925491D01*
X173278258Y-87925492D01*
X173104535Y-88018349D01*
X172916034Y-88075530D01*
X172916033Y-88075530D01*
X172916030Y-88075531D01*
X172769124Y-88090000D01*
X172670876Y-88090000D01*
X172523970Y-88075531D01*
X172523967Y-88075530D01*
X172523966Y-88075530D01*
X172335465Y-88018349D01*
X172161742Y-87925492D01*
X172161740Y-87925491D01*
X172009472Y-87800528D01*
X171884509Y-87648260D01*
X171791652Y-87474537D01*
X171762517Y-87378491D01*
X171734470Y-87286034D01*
X171734470Y-87286033D01*
X171734469Y-87286030D01*
X171715162Y-87090000D01*
X171734469Y-86893970D01*
X171761056Y-86806325D01*
X171791651Y-86705465D01*
X171884508Y-86531742D01*
X171884509Y-86531740D01*
X172009472Y-86379472D01*
X172161740Y-86254509D01*
X172335463Y-86161652D01*
X172335465Y-86161651D01*
X172523966Y-86104470D01*
X172523967Y-86104470D01*
X172523970Y-86104469D01*
X172670876Y-86090000D01*
X172769124Y-86090000D01*
X172916030Y-86104469D01*
X172916030Y-86104469D01*
G37*
G36*
X165275770Y-86105372D02*
X165391689Y-86128429D01*
X165573678Y-86203811D01*
X165737463Y-86313249D01*
X165876751Y-86452537D01*
X165986189Y-86616322D01*
X166061571Y-86798311D01*
X166084628Y-86914230D01*
X166100000Y-86991507D01*
X166100000Y-87188493D01*
X166095927Y-87208970D01*
X166061571Y-87381689D01*
X165986189Y-87563678D01*
X165876751Y-87727463D01*
X165737463Y-87866751D01*
X165573678Y-87976189D01*
X165391689Y-88051571D01*
X165275770Y-88074628D01*
X165198493Y-88090000D01*
X165001507Y-88090000D01*
X164924230Y-88074628D01*
X164808311Y-88051571D01*
X164626322Y-87976189D01*
X164462537Y-87866751D01*
X164323249Y-87727463D01*
X164213811Y-87563678D01*
X164138429Y-87381689D01*
X164104073Y-87208970D01*
X164100000Y-87188493D01*
X164100000Y-86991507D01*
X164115372Y-86914230D01*
X164138429Y-86798311D01*
X164213811Y-86616322D01*
X164323249Y-86452537D01*
X164462537Y-86313249D01*
X164626322Y-86203811D01*
X164808311Y-86128429D01*
X164924230Y-86105372D01*
X165001507Y-86090000D01*
X165198493Y-86090000D01*
X165275770Y-86105372D01*
X165275770Y-86105372D01*
G37*
G36*
X127401005Y-85313332D02*
X127484794Y-85321584D01*
X127663977Y-85375939D01*
X127663979Y-85375940D01*
X127663982Y-85375941D01*
X127829114Y-85464205D01*
X127973857Y-85582993D01*
X128092645Y-85727736D01*
X128180909Y-85892868D01*
X128180910Y-85892871D01*
X128180911Y-85892873D01*
X128235266Y-86072056D01*
X128253619Y-86258400D01*
X128235266Y-86444744D01*
X128183217Y-86616325D01*
X128180909Y-86623932D01*
X128092645Y-86789064D01*
X127973857Y-86933807D01*
X127829114Y-87052595D01*
X127663982Y-87140859D01*
X127663979Y-87140860D01*
X127663977Y-87140861D01*
X127484794Y-87195216D01*
X127401005Y-87203468D01*
X127345147Y-87208970D01*
X126553253Y-87208970D01*
X126497395Y-87203468D01*
X126413606Y-87195216D01*
X126234423Y-87140861D01*
X126234421Y-87140860D01*
X126234418Y-87140859D01*
X126069286Y-87052595D01*
X125924543Y-86933807D01*
X125805755Y-86789064D01*
X125717491Y-86623932D01*
X125715183Y-86616325D01*
X125663134Y-86444744D01*
X125644781Y-86258400D01*
X125663134Y-86072056D01*
X125717489Y-85892873D01*
X125717490Y-85892871D01*
X125717491Y-85892868D01*
X125805755Y-85727736D01*
X125924543Y-85582993D01*
X126069286Y-85464205D01*
X126234418Y-85375941D01*
X126234421Y-85375940D01*
X126234423Y-85375939D01*
X126413606Y-85321584D01*
X126497395Y-85313332D01*
X126553253Y-85307830D01*
X127345147Y-85307830D01*
X127401005Y-85313332D01*
X127401005Y-85313332D01*
G37*
G36*
X142641005Y-85313332D02*
X142724794Y-85321584D01*
X142903977Y-85375939D01*
X142903979Y-85375940D01*
X142903982Y-85375941D01*
X143069114Y-85464205D01*
X143213857Y-85582993D01*
X143332645Y-85727736D01*
X143420909Y-85892868D01*
X143420910Y-85892871D01*
X143420911Y-85892873D01*
X143475266Y-86072056D01*
X143493619Y-86258400D01*
X143475266Y-86444744D01*
X143423217Y-86616325D01*
X143420909Y-86623932D01*
X143332645Y-86789064D01*
X143213857Y-86933807D01*
X143069114Y-87052595D01*
X142903982Y-87140859D01*
X142903979Y-87140860D01*
X142903977Y-87140861D01*
X142724794Y-87195216D01*
X142641005Y-87203468D01*
X142585147Y-87208970D01*
X141793253Y-87208970D01*
X141737395Y-87203468D01*
X141653606Y-87195216D01*
X141474423Y-87140861D01*
X141474421Y-87140860D01*
X141474418Y-87140859D01*
X141309286Y-87052595D01*
X141164543Y-86933807D01*
X141045755Y-86789064D01*
X140957491Y-86623932D01*
X140955183Y-86616325D01*
X140903134Y-86444744D01*
X140884781Y-86258400D01*
X140903134Y-86072056D01*
X140957489Y-85892873D01*
X140957490Y-85892871D01*
X140957491Y-85892868D01*
X141045755Y-85727736D01*
X141164543Y-85582993D01*
X141309286Y-85464205D01*
X141474418Y-85375941D01*
X141474421Y-85375940D01*
X141474423Y-85375939D01*
X141653606Y-85321584D01*
X141737395Y-85313332D01*
X141793253Y-85307830D01*
X142585147Y-85307830D01*
X142641005Y-85313332D01*
X142641005Y-85313332D01*
G37*
G36*
X140101005Y-84043332D02*
X140184794Y-84051584D01*
X140363977Y-84105939D01*
X140363979Y-84105940D01*
X140363982Y-84105941D01*
X140529114Y-84194205D01*
X140673857Y-84312993D01*
X140792645Y-84457736D01*
X140880909Y-84622868D01*
X140880910Y-84622871D01*
X140880911Y-84622873D01*
X140935266Y-84802056D01*
X140953619Y-84988400D01*
X140935266Y-85174744D01*
X140894894Y-85307830D01*
X140880909Y-85353932D01*
X140792645Y-85519064D01*
X140673857Y-85663807D01*
X140529114Y-85782595D01*
X140363982Y-85870859D01*
X140363979Y-85870860D01*
X140363977Y-85870861D01*
X140184794Y-85925216D01*
X140101005Y-85933468D01*
X140045147Y-85938970D01*
X139253253Y-85938970D01*
X139197395Y-85933468D01*
X139113606Y-85925216D01*
X138934423Y-85870861D01*
X138934421Y-85870860D01*
X138934418Y-85870859D01*
X138769286Y-85782595D01*
X138624543Y-85663807D01*
X138505755Y-85519064D01*
X138417491Y-85353932D01*
X138403506Y-85307830D01*
X138363134Y-85174744D01*
X138344781Y-84988400D01*
X138363134Y-84802056D01*
X138417489Y-84622873D01*
X138417490Y-84622871D01*
X138417491Y-84622868D01*
X138505755Y-84457736D01*
X138624543Y-84312993D01*
X138769286Y-84194205D01*
X138934418Y-84105941D01*
X138934421Y-84105940D01*
X138934423Y-84105939D01*
X139113606Y-84051584D01*
X139197395Y-84043332D01*
X139253253Y-84037830D01*
X140045147Y-84037830D01*
X140101005Y-84043332D01*
X140101005Y-84043332D01*
G37*
G36*
X172916030Y-82894469D02*
X172916033Y-82894470D01*
X172916034Y-82894470D01*
X173104535Y-82951651D01*
X173104537Y-82951652D01*
X173278260Y-83044509D01*
X173430528Y-83169472D01*
X173555491Y-83321740D01*
X173555492Y-83321742D01*
X173648349Y-83495465D01*
X173676513Y-83588311D01*
X173705531Y-83683970D01*
X173724838Y-83880000D01*
X173705531Y-84076030D01*
X173705530Y-84076033D01*
X173705530Y-84076034D01*
X173703136Y-84083927D01*
X173648348Y-84264537D01*
X173555491Y-84438260D01*
X173430528Y-84590528D01*
X173278260Y-84715491D01*
X173278258Y-84715492D01*
X173104535Y-84808349D01*
X172916034Y-84865530D01*
X172916033Y-84865530D01*
X172916030Y-84865531D01*
X172769124Y-84880000D01*
X172670876Y-84880000D01*
X172523970Y-84865531D01*
X172523967Y-84865530D01*
X172523966Y-84865530D01*
X172335465Y-84808349D01*
X172161742Y-84715492D01*
X172161740Y-84715491D01*
X172009472Y-84590528D01*
X171884509Y-84438260D01*
X171791652Y-84264537D01*
X171736865Y-84083927D01*
X171734470Y-84076034D01*
X171734470Y-84076033D01*
X171734469Y-84076030D01*
X171715162Y-83880000D01*
X171734469Y-83683970D01*
X171763487Y-83588311D01*
X171791651Y-83495465D01*
X171884508Y-83321742D01*
X171884509Y-83321740D01*
X172009472Y-83169472D01*
X172161740Y-83044509D01*
X172335463Y-82951652D01*
X172335465Y-82951651D01*
X172523966Y-82894470D01*
X172523967Y-82894470D01*
X172523970Y-82894469D01*
X172670876Y-82880000D01*
X172769124Y-82880000D01*
X172916030Y-82894469D01*
X172916030Y-82894469D01*
G37*
G36*
X165275770Y-82895372D02*
X165391689Y-82918429D01*
X165573678Y-82993811D01*
X165737463Y-83103249D01*
X165876751Y-83242537D01*
X165986189Y-83406322D01*
X166061571Y-83588311D01*
X166100000Y-83781509D01*
X166100000Y-83978491D01*
X166061571Y-84171689D01*
X165986189Y-84353678D01*
X165876751Y-84517463D01*
X165737463Y-84656751D01*
X165573678Y-84766189D01*
X165391689Y-84841571D01*
X165275770Y-84864628D01*
X165198493Y-84880000D01*
X165001507Y-84880000D01*
X164924230Y-84864628D01*
X164808311Y-84841571D01*
X164626322Y-84766189D01*
X164462537Y-84656751D01*
X164323249Y-84517463D01*
X164213811Y-84353678D01*
X164138429Y-84171689D01*
X164100000Y-83978491D01*
X164100000Y-83781509D01*
X164138429Y-83588311D01*
X164213811Y-83406322D01*
X164323249Y-83242537D01*
X164462537Y-83103249D01*
X164626322Y-82993811D01*
X164808311Y-82918429D01*
X164924230Y-82895372D01*
X165001507Y-82880000D01*
X165198493Y-82880000D01*
X165275770Y-82895372D01*
X165275770Y-82895372D01*
G37*
G36*
X127401005Y-82773332D02*
X127484794Y-82781584D01*
X127663977Y-82835939D01*
X127663979Y-82835940D01*
X127663982Y-82835941D01*
X127829114Y-82924205D01*
X127973857Y-83042993D01*
X128092645Y-83187736D01*
X128180909Y-83352868D01*
X128180910Y-83352871D01*
X128180911Y-83352873D01*
X128235266Y-83532056D01*
X128253619Y-83718400D01*
X128235266Y-83904744D01*
X128183305Y-84076034D01*
X128180909Y-84083932D01*
X128092645Y-84249064D01*
X127973857Y-84393807D01*
X127829114Y-84512595D01*
X127663982Y-84600859D01*
X127663979Y-84600860D01*
X127663977Y-84600861D01*
X127484794Y-84655216D01*
X127401005Y-84663468D01*
X127345147Y-84668970D01*
X126553253Y-84668970D01*
X126497395Y-84663468D01*
X126413606Y-84655216D01*
X126234423Y-84600861D01*
X126234421Y-84600860D01*
X126234418Y-84600859D01*
X126069286Y-84512595D01*
X125924543Y-84393807D01*
X125805755Y-84249064D01*
X125717491Y-84083932D01*
X125715095Y-84076034D01*
X125663134Y-83904744D01*
X125644781Y-83718400D01*
X125663134Y-83532056D01*
X125717489Y-83352873D01*
X125717490Y-83352871D01*
X125717491Y-83352868D01*
X125805755Y-83187736D01*
X125924543Y-83042993D01*
X126069286Y-82924205D01*
X126234418Y-82835941D01*
X126234421Y-82835940D01*
X126234423Y-82835939D01*
X126413606Y-82781584D01*
X126497395Y-82773332D01*
X126553253Y-82767830D01*
X127345147Y-82767830D01*
X127401005Y-82773332D01*
X127401005Y-82773332D01*
G37*
G36*
X142641005Y-82773332D02*
X142724794Y-82781584D01*
X142903977Y-82835939D01*
X142903979Y-82835940D01*
X142903982Y-82835941D01*
X143069114Y-82924205D01*
X143213857Y-83042993D01*
X143332645Y-83187736D01*
X143420909Y-83352868D01*
X143420910Y-83352871D01*
X143420911Y-83352873D01*
X143475266Y-83532056D01*
X143493619Y-83718400D01*
X143475266Y-83904744D01*
X143423305Y-84076034D01*
X143420909Y-84083932D01*
X143332645Y-84249064D01*
X143213857Y-84393807D01*
X143069114Y-84512595D01*
X142903982Y-84600859D01*
X142903979Y-84600860D01*
X142903977Y-84600861D01*
X142724794Y-84655216D01*
X142641005Y-84663468D01*
X142585147Y-84668970D01*
X141793253Y-84668970D01*
X141737395Y-84663468D01*
X141653606Y-84655216D01*
X141474423Y-84600861D01*
X141474421Y-84600860D01*
X141474418Y-84600859D01*
X141309286Y-84512595D01*
X141164543Y-84393807D01*
X141045755Y-84249064D01*
X140957491Y-84083932D01*
X140955095Y-84076034D01*
X140903134Y-83904744D01*
X140884781Y-83718400D01*
X140903134Y-83532056D01*
X140957489Y-83352873D01*
X140957490Y-83352871D01*
X140957491Y-83352868D01*
X141045755Y-83187736D01*
X141164543Y-83042993D01*
X141309286Y-82924205D01*
X141474418Y-82835941D01*
X141474421Y-82835940D01*
X141474423Y-82835939D01*
X141653606Y-82781584D01*
X141737395Y-82773332D01*
X141793253Y-82767830D01*
X142585147Y-82767830D01*
X142641005Y-82773332D01*
X142641005Y-82773332D01*
G37*
G36*
X135709280Y-84396220D02*
X134709280Y-84396220D01*
X134709280Y-82446220D01*
X135709280Y-82446220D01*
X135709280Y-84396220D01*
X135709280Y-84396220D01*
G37*
G36*
X131899280Y-84396220D02*
X130899280Y-84396220D01*
X130899280Y-82446220D01*
X131899280Y-82446220D01*
X131899280Y-84396220D01*
X131899280Y-84396220D01*
G37*
G36*
X134439280Y-84396220D02*
X133439280Y-84396220D01*
X133439280Y-82446220D01*
X134439280Y-82446220D01*
X134439280Y-84396220D01*
X134439280Y-84396220D01*
G37*
G36*
X133169280Y-84396220D02*
X132169280Y-84396220D01*
X132169280Y-82446220D01*
X133169280Y-82446220D01*
X133169280Y-84396220D01*
X133169280Y-84396220D01*
G37*
G36*
X127401005Y-80233332D02*
X127484794Y-80241584D01*
X127663977Y-80295939D01*
X127663979Y-80295940D01*
X127663982Y-80295941D01*
X127829114Y-80384205D01*
X127973857Y-80502993D01*
X128092645Y-80647736D01*
X128180909Y-80812868D01*
X128180910Y-80812871D01*
X128180911Y-80812873D01*
X128235266Y-80992056D01*
X128253619Y-81178400D01*
X128235266Y-81364744D01*
X128211295Y-81443764D01*
X128180909Y-81543932D01*
X128092645Y-81709064D01*
X127973857Y-81853807D01*
X127829114Y-81972595D01*
X127663982Y-82060859D01*
X127663979Y-82060860D01*
X127663977Y-82060861D01*
X127484794Y-82115216D01*
X127401005Y-82123468D01*
X127345147Y-82128970D01*
X126553253Y-82128970D01*
X126497395Y-82123468D01*
X126413606Y-82115216D01*
X126234423Y-82060861D01*
X126234421Y-82060860D01*
X126234418Y-82060859D01*
X126069286Y-81972595D01*
X125924543Y-81853807D01*
X125805755Y-81709064D01*
X125717491Y-81543932D01*
X125687105Y-81443764D01*
X125663134Y-81364744D01*
X125644781Y-81178400D01*
X125663134Y-80992056D01*
X125717489Y-80812873D01*
X125717490Y-80812871D01*
X125717491Y-80812868D01*
X125805755Y-80647736D01*
X125924543Y-80502993D01*
X126069286Y-80384205D01*
X126234418Y-80295941D01*
X126234421Y-80295940D01*
X126234423Y-80295939D01*
X126413606Y-80241584D01*
X126497395Y-80233332D01*
X126553253Y-80227830D01*
X127345147Y-80227830D01*
X127401005Y-80233332D01*
X127401005Y-80233332D01*
G37*
G36*
X142641005Y-80233332D02*
X142724794Y-80241584D01*
X142903977Y-80295939D01*
X142903979Y-80295940D01*
X142903982Y-80295941D01*
X143069114Y-80384205D01*
X143213857Y-80502993D01*
X143332645Y-80647736D01*
X143420909Y-80812868D01*
X143420910Y-80812871D01*
X143420911Y-80812873D01*
X143475266Y-80992056D01*
X143493619Y-81178400D01*
X143475266Y-81364744D01*
X143451295Y-81443764D01*
X143420909Y-81543932D01*
X143332645Y-81709064D01*
X143213857Y-81853807D01*
X143069114Y-81972595D01*
X142903982Y-82060859D01*
X142903979Y-82060860D01*
X142903977Y-82060861D01*
X142724794Y-82115216D01*
X142641005Y-82123468D01*
X142585147Y-82128970D01*
X141793253Y-82128970D01*
X141737395Y-82123468D01*
X141653606Y-82115216D01*
X141474423Y-82060861D01*
X141474421Y-82060860D01*
X141474418Y-82060859D01*
X141309286Y-81972595D01*
X141164543Y-81853807D01*
X141045755Y-81709064D01*
X140957491Y-81543932D01*
X140927105Y-81443764D01*
X140903134Y-81364744D01*
X140884781Y-81178400D01*
X140903134Y-80992056D01*
X140957489Y-80812873D01*
X140957490Y-80812871D01*
X140957491Y-80812868D01*
X141045755Y-80647736D01*
X141164543Y-80502993D01*
X141309286Y-80384205D01*
X141474418Y-80295941D01*
X141474421Y-80295940D01*
X141474423Y-80295939D01*
X141653606Y-80241584D01*
X141737395Y-80233332D01*
X141793253Y-80227830D01*
X142585147Y-80227830D01*
X142641005Y-80233332D01*
X142641005Y-80233332D01*
G37*
G36*
X156098503Y-79801789D02*
X156298991Y-79862607D01*
X156483764Y-79961369D01*
X156645718Y-80094282D01*
X156778631Y-80256236D01*
X156877393Y-80441009D01*
X156938211Y-80641497D01*
X156958746Y-80850000D01*
X156938211Y-81058503D01*
X156877393Y-81258991D01*
X156778631Y-81443764D01*
X156645718Y-81605718D01*
X156483764Y-81738631D01*
X156298991Y-81837393D01*
X156098503Y-81898211D01*
X155942251Y-81913600D01*
X155837749Y-81913600D01*
X155681497Y-81898211D01*
X155481009Y-81837393D01*
X155296236Y-81738631D01*
X155134282Y-81605718D01*
X155001369Y-81443764D01*
X154902607Y-81258991D01*
X154841789Y-81058503D01*
X154821254Y-80850000D01*
X154841789Y-80641497D01*
X154902607Y-80441009D01*
X155001369Y-80256236D01*
X155134282Y-80094282D01*
X155296236Y-79961369D01*
X155481009Y-79862607D01*
X155681497Y-79801789D01*
X155837749Y-79786400D01*
X155942251Y-79786400D01*
X156098503Y-79801789D01*
X156098503Y-79801789D01*
G37*
G36*
X153558503Y-79801789D02*
X153758991Y-79862607D01*
X153943764Y-79961369D01*
X154105718Y-80094282D01*
X154238631Y-80256236D01*
X154337393Y-80441009D01*
X154398211Y-80641497D01*
X154418746Y-80850000D01*
X154398211Y-81058503D01*
X154337393Y-81258991D01*
X154238631Y-81443764D01*
X154105718Y-81605718D01*
X153943764Y-81738631D01*
X153758991Y-81837393D01*
X153558503Y-81898211D01*
X153402251Y-81913600D01*
X153297749Y-81913600D01*
X153141497Y-81898211D01*
X152941009Y-81837393D01*
X152756236Y-81738631D01*
X152594282Y-81605718D01*
X152461369Y-81443764D01*
X152362607Y-81258991D01*
X152301789Y-81058503D01*
X152281254Y-80850000D01*
X152301789Y-80641497D01*
X152362607Y-80441009D01*
X152461369Y-80256236D01*
X152594282Y-80094282D01*
X152756236Y-79961369D01*
X152941009Y-79862607D01*
X153141497Y-79801789D01*
X153297749Y-79786400D01*
X153402251Y-79786400D01*
X153558503Y-79801789D01*
X153558503Y-79801789D01*
G37*
G36*
X151018503Y-79801789D02*
X151218991Y-79862607D01*
X151403764Y-79961369D01*
X151565718Y-80094282D01*
X151698631Y-80256236D01*
X151797393Y-80441009D01*
X151858211Y-80641497D01*
X151878746Y-80850000D01*
X151858211Y-81058503D01*
X151797393Y-81258991D01*
X151698631Y-81443764D01*
X151565718Y-81605718D01*
X151403764Y-81738631D01*
X151218991Y-81837393D01*
X151018503Y-81898211D01*
X150862251Y-81913600D01*
X150757749Y-81913600D01*
X150601497Y-81898211D01*
X150401009Y-81837393D01*
X150216236Y-81738631D01*
X150054282Y-81605718D01*
X149921369Y-81443764D01*
X149822607Y-81258991D01*
X149761789Y-81058503D01*
X149741254Y-80850000D01*
X149761789Y-80641497D01*
X149822607Y-80441009D01*
X149921369Y-80256236D01*
X150054282Y-80094282D01*
X150216236Y-79961369D01*
X150401009Y-79862607D01*
X150601497Y-79801789D01*
X150757749Y-79786400D01*
X150862251Y-79786400D01*
X151018503Y-79801789D01*
X151018503Y-79801789D01*
G37*
G36*
X149333600Y-81913600D02*
X147206400Y-81913600D01*
X147206400Y-79786400D01*
X149333600Y-79786400D01*
X149333600Y-81913600D01*
X149333600Y-81913600D01*
G37*
G36*
X164965888Y-77824470D02*
X165146274Y-77860350D01*
X165337362Y-77939502D01*
X165509336Y-78054411D01*
X165655589Y-78200664D01*
X165770498Y-78372638D01*
X165849650Y-78563726D01*
X165890000Y-78766584D01*
X165890000Y-78973416D01*
X165849650Y-79176274D01*
X165770498Y-79367362D01*
X165655589Y-79539336D01*
X165509336Y-79685589D01*
X165337362Y-79800498D01*
X165146274Y-79879650D01*
X164965888Y-79915530D01*
X164943417Y-79920000D01*
X164736583Y-79920000D01*
X164714112Y-79915530D01*
X164533726Y-79879650D01*
X164342638Y-79800498D01*
X164170664Y-79685589D01*
X164024411Y-79539336D01*
X163909502Y-79367362D01*
X163830350Y-79176274D01*
X163790000Y-78973416D01*
X163790000Y-78766584D01*
X163830350Y-78563726D01*
X163909502Y-78372638D01*
X164024411Y-78200664D01*
X164170664Y-78054411D01*
X164342638Y-77939502D01*
X164533726Y-77860350D01*
X164714112Y-77824470D01*
X164736583Y-77820000D01*
X164943417Y-77820000D01*
X164965888Y-77824470D01*
X164965888Y-77824470D01*
G37*
G36*
X172588707Y-77827597D02*
X172665836Y-77835193D01*
X172797787Y-77875220D01*
X172863763Y-77895233D01*
X173046172Y-77992733D01*
X173206054Y-78123946D01*
X173337267Y-78283828D01*
X173434767Y-78466237D01*
X173434767Y-78466238D01*
X173494807Y-78664164D01*
X173515080Y-78870000D01*
X173494807Y-79075836D01*
X173457558Y-79198630D01*
X173434767Y-79273763D01*
X173337267Y-79456172D01*
X173206054Y-79616054D01*
X173046172Y-79747267D01*
X172863763Y-79844767D01*
X172804951Y-79862607D01*
X172665836Y-79904807D01*
X172588707Y-79912403D01*
X172511580Y-79920000D01*
X172408420Y-79920000D01*
X172331293Y-79912403D01*
X172254164Y-79904807D01*
X172115049Y-79862607D01*
X172056237Y-79844767D01*
X171873828Y-79747267D01*
X171713946Y-79616054D01*
X171582733Y-79456172D01*
X171485233Y-79273763D01*
X171462442Y-79198630D01*
X171425193Y-79075836D01*
X171404920Y-78870000D01*
X171425193Y-78664164D01*
X171485233Y-78466238D01*
X171485233Y-78466237D01*
X171582733Y-78283828D01*
X171713946Y-78123946D01*
X171873828Y-77992733D01*
X172056237Y-77895233D01*
X172122213Y-77875220D01*
X172254164Y-77835193D01*
X172331293Y-77827597D01*
X172408420Y-77820000D01*
X172511580Y-77820000D01*
X172588707Y-77827597D01*
X172588707Y-77827597D01*
G37*
G36*
X170048707Y-77827597D02*
X170125836Y-77835193D01*
X170257787Y-77875220D01*
X170323763Y-77895233D01*
X170506172Y-77992733D01*
X170666054Y-78123946D01*
X170797267Y-78283828D01*
X170894767Y-78466237D01*
X170894767Y-78466238D01*
X170954807Y-78664164D01*
X170975080Y-78870000D01*
X170954807Y-79075836D01*
X170917558Y-79198630D01*
X170894767Y-79273763D01*
X170797267Y-79456172D01*
X170666054Y-79616054D01*
X170506172Y-79747267D01*
X170323763Y-79844767D01*
X170264951Y-79862607D01*
X170125836Y-79904807D01*
X170048707Y-79912403D01*
X169971580Y-79920000D01*
X169868420Y-79920000D01*
X169791293Y-79912403D01*
X169714164Y-79904807D01*
X169575049Y-79862607D01*
X169516237Y-79844767D01*
X169333828Y-79747267D01*
X169173946Y-79616054D01*
X169042733Y-79456172D01*
X168945233Y-79273763D01*
X168922442Y-79198630D01*
X168885193Y-79075836D01*
X168864920Y-78870000D01*
X168885193Y-78664164D01*
X168945233Y-78466238D01*
X168945233Y-78466237D01*
X169042733Y-78283828D01*
X169173946Y-78123946D01*
X169333828Y-77992733D01*
X169516237Y-77895233D01*
X169582213Y-77875220D01*
X169714164Y-77835193D01*
X169791293Y-77827597D01*
X169868420Y-77820000D01*
X169971580Y-77820000D01*
X170048707Y-77827597D01*
X170048707Y-77827597D01*
G37*
G36*
X167508707Y-77827597D02*
X167585836Y-77835193D01*
X167717787Y-77875220D01*
X167783763Y-77895233D01*
X167966172Y-77992733D01*
X168126054Y-78123946D01*
X168257267Y-78283828D01*
X168354767Y-78466237D01*
X168354767Y-78466238D01*
X168414807Y-78664164D01*
X168435080Y-78870000D01*
X168414807Y-79075836D01*
X168377558Y-79198630D01*
X168354767Y-79273763D01*
X168257267Y-79456172D01*
X168126054Y-79616054D01*
X167966172Y-79747267D01*
X167783763Y-79844767D01*
X167724951Y-79862607D01*
X167585836Y-79904807D01*
X167508707Y-79912403D01*
X167431580Y-79920000D01*
X167328420Y-79920000D01*
X167251293Y-79912403D01*
X167174164Y-79904807D01*
X167035049Y-79862607D01*
X166976237Y-79844767D01*
X166793828Y-79747267D01*
X166633946Y-79616054D01*
X166502733Y-79456172D01*
X166405233Y-79273763D01*
X166382442Y-79198630D01*
X166345193Y-79075836D01*
X166324920Y-78870000D01*
X166345193Y-78664164D01*
X166405233Y-78466238D01*
X166405233Y-78466237D01*
X166502733Y-78283828D01*
X166633946Y-78123946D01*
X166793828Y-77992733D01*
X166976237Y-77895233D01*
X167042213Y-77875220D01*
X167174164Y-77835193D01*
X167251293Y-77827597D01*
X167328420Y-77820000D01*
X167431580Y-77820000D01*
X167508707Y-77827597D01*
X167508707Y-77827597D01*
G37*
G36*
X127401005Y-77693332D02*
X127484794Y-77701584D01*
X127663977Y-77755939D01*
X127663979Y-77755940D01*
X127663982Y-77755941D01*
X127829114Y-77844205D01*
X127973857Y-77962993D01*
X128092645Y-78107736D01*
X128180909Y-78272868D01*
X128180910Y-78272871D01*
X128180911Y-78272873D01*
X128235266Y-78452056D01*
X128253619Y-78638400D01*
X128235266Y-78824744D01*
X128180911Y-79003927D01*
X128180909Y-79003932D01*
X128092645Y-79169064D01*
X127973857Y-79313807D01*
X127829114Y-79432595D01*
X127663982Y-79520859D01*
X127663979Y-79520860D01*
X127663977Y-79520861D01*
X127484794Y-79575216D01*
X127401005Y-79583468D01*
X127345147Y-79588970D01*
X126553253Y-79588970D01*
X126497395Y-79583468D01*
X126413606Y-79575216D01*
X126234423Y-79520861D01*
X126234421Y-79520860D01*
X126234418Y-79520859D01*
X126069286Y-79432595D01*
X125924543Y-79313807D01*
X125805755Y-79169064D01*
X125717491Y-79003932D01*
X125717489Y-79003927D01*
X125663134Y-78824744D01*
X125644781Y-78638400D01*
X125663134Y-78452056D01*
X125717489Y-78272873D01*
X125717490Y-78272871D01*
X125717491Y-78272868D01*
X125805755Y-78107736D01*
X125924543Y-77962993D01*
X126069286Y-77844205D01*
X126234418Y-77755941D01*
X126234421Y-77755940D01*
X126234423Y-77755939D01*
X126413606Y-77701584D01*
X126497395Y-77693332D01*
X126553253Y-77687830D01*
X127345147Y-77687830D01*
X127401005Y-77693332D01*
X127401005Y-77693332D01*
G37*
G36*
X142641005Y-77693332D02*
X142724794Y-77701584D01*
X142903977Y-77755939D01*
X142903979Y-77755940D01*
X142903982Y-77755941D01*
X143069114Y-77844205D01*
X143213857Y-77962993D01*
X143332645Y-78107736D01*
X143420909Y-78272868D01*
X143420910Y-78272871D01*
X143420911Y-78272873D01*
X143475266Y-78452056D01*
X143493619Y-78638400D01*
X143475266Y-78824744D01*
X143420911Y-79003927D01*
X143420909Y-79003932D01*
X143332645Y-79169064D01*
X143213857Y-79313807D01*
X143069114Y-79432595D01*
X142903982Y-79520859D01*
X142903979Y-79520860D01*
X142903977Y-79520861D01*
X142724794Y-79575216D01*
X142641005Y-79583468D01*
X142585147Y-79588970D01*
X141793253Y-79588970D01*
X141737395Y-79583468D01*
X141653606Y-79575216D01*
X141474423Y-79520861D01*
X141474421Y-79520860D01*
X141474418Y-79520859D01*
X141309286Y-79432595D01*
X141164543Y-79313807D01*
X141045755Y-79169064D01*
X140957491Y-79003932D01*
X140957489Y-79003927D01*
X140903134Y-78824744D01*
X140884781Y-78638400D01*
X140903134Y-78452056D01*
X140957489Y-78272873D01*
X140957490Y-78272871D01*
X140957491Y-78272868D01*
X141045755Y-78107736D01*
X141164543Y-77962993D01*
X141309286Y-77844205D01*
X141474418Y-77755941D01*
X141474421Y-77755940D01*
X141474423Y-77755939D01*
X141653606Y-77701584D01*
X141737395Y-77693332D01*
X141793253Y-77687830D01*
X142585147Y-77687830D01*
X142641005Y-77693332D01*
X142641005Y-77693332D01*
G37*
G36*
X153558503Y-77261789D02*
X153758991Y-77322607D01*
X153943764Y-77421369D01*
X154105718Y-77554282D01*
X154238631Y-77716236D01*
X154337393Y-77901009D01*
X154398211Y-78101497D01*
X154418746Y-78310000D01*
X154398211Y-78518503D01*
X154337393Y-78718991D01*
X154238631Y-78903764D01*
X154105718Y-79065718D01*
X153943764Y-79198631D01*
X153758991Y-79297393D01*
X153558503Y-79358211D01*
X153402251Y-79373600D01*
X153297749Y-79373600D01*
X153141497Y-79358211D01*
X152941009Y-79297393D01*
X152756236Y-79198631D01*
X152594282Y-79065718D01*
X152461369Y-78903764D01*
X152362607Y-78718991D01*
X152301789Y-78518503D01*
X152281254Y-78310000D01*
X152301789Y-78101497D01*
X152362607Y-77901009D01*
X152461369Y-77716236D01*
X152594282Y-77554282D01*
X152756236Y-77421369D01*
X152941009Y-77322607D01*
X153141497Y-77261789D01*
X153297749Y-77246400D01*
X153402251Y-77246400D01*
X153558503Y-77261789D01*
X153558503Y-77261789D01*
G37*
G36*
X156098503Y-77261789D02*
X156298991Y-77322607D01*
X156483764Y-77421369D01*
X156645718Y-77554282D01*
X156778631Y-77716236D01*
X156877393Y-77901009D01*
X156938211Y-78101497D01*
X156958746Y-78310000D01*
X156938211Y-78518503D01*
X156877393Y-78718991D01*
X156778631Y-78903764D01*
X156645718Y-79065718D01*
X156483764Y-79198631D01*
X156298991Y-79297393D01*
X156098503Y-79358211D01*
X155942251Y-79373600D01*
X155837749Y-79373600D01*
X155681497Y-79358211D01*
X155481009Y-79297393D01*
X155296236Y-79198631D01*
X155134282Y-79065718D01*
X155001369Y-78903764D01*
X154902607Y-78718991D01*
X154841789Y-78518503D01*
X154821254Y-78310000D01*
X154841789Y-78101497D01*
X154902607Y-77901009D01*
X155001369Y-77716236D01*
X155134282Y-77554282D01*
X155296236Y-77421369D01*
X155481009Y-77322607D01*
X155681497Y-77261789D01*
X155837749Y-77246400D01*
X155942251Y-77246400D01*
X156098503Y-77261789D01*
X156098503Y-77261789D01*
G37*
G36*
X151018503Y-77261789D02*
X151218991Y-77322607D01*
X151403764Y-77421369D01*
X151565718Y-77554282D01*
X151698631Y-77716236D01*
X151797393Y-77901009D01*
X151858211Y-78101497D01*
X151878746Y-78310000D01*
X151858211Y-78518503D01*
X151797393Y-78718991D01*
X151698631Y-78903764D01*
X151565718Y-79065718D01*
X151403764Y-79198631D01*
X151218991Y-79297393D01*
X151018503Y-79358211D01*
X150862251Y-79373600D01*
X150757749Y-79373600D01*
X150601497Y-79358211D01*
X150401009Y-79297393D01*
X150216236Y-79198631D01*
X150054282Y-79065718D01*
X149921369Y-78903764D01*
X149822607Y-78718991D01*
X149761789Y-78518503D01*
X149741254Y-78310000D01*
X149761789Y-78101497D01*
X149822607Y-77901009D01*
X149921369Y-77716236D01*
X150054282Y-77554282D01*
X150216236Y-77421369D01*
X150401009Y-77322607D01*
X150601497Y-77261789D01*
X150757749Y-77246400D01*
X150862251Y-77246400D01*
X151018503Y-77261789D01*
X151018503Y-77261789D01*
G37*
G36*
X148478503Y-77261789D02*
X148678991Y-77322607D01*
X148863764Y-77421369D01*
X149025718Y-77554282D01*
X149158631Y-77716236D01*
X149257393Y-77901009D01*
X149318211Y-78101497D01*
X149338746Y-78310000D01*
X149318211Y-78518503D01*
X149257393Y-78718991D01*
X149158631Y-78903764D01*
X149025718Y-79065718D01*
X148863764Y-79198631D01*
X148678991Y-79297393D01*
X148478503Y-79358211D01*
X148322251Y-79373600D01*
X148217749Y-79373600D01*
X148061497Y-79358211D01*
X147861009Y-79297393D01*
X147676236Y-79198631D01*
X147514282Y-79065718D01*
X147381369Y-78903764D01*
X147282607Y-78718991D01*
X147221789Y-78518503D01*
X147201254Y-78310000D01*
X147221789Y-78101497D01*
X147282607Y-77901009D01*
X147381369Y-77716236D01*
X147514282Y-77554282D01*
X147676236Y-77421369D01*
X147861009Y-77322607D01*
X148061497Y-77261789D01*
X148217749Y-77246400D01*
X148322251Y-77246400D01*
X148478503Y-77261789D01*
X148478503Y-77261789D01*
G37*
G36*
X134439280Y-78996220D02*
X133439280Y-78996220D01*
X133439280Y-77046220D01*
X134439280Y-77046220D01*
X134439280Y-78996220D01*
X134439280Y-78996220D01*
G37*
G36*
X131899280Y-78996220D02*
X130899280Y-78996220D01*
X130899280Y-77046220D01*
X131899280Y-77046220D01*
X131899280Y-78996220D01*
X131899280Y-78996220D01*
G37*
G36*
X133169280Y-78996220D02*
X132169280Y-78996220D01*
X132169280Y-77046220D01*
X133169280Y-77046220D01*
X133169280Y-78996220D01*
X133169280Y-78996220D01*
G37*
G36*
X135709280Y-78996220D02*
X134709280Y-78996220D01*
X134709280Y-77046220D01*
X135709280Y-77046220D01*
X135709280Y-78996220D01*
X135709280Y-78996220D01*
G37*
G36*
X140101005Y-76423332D02*
X140184794Y-76431584D01*
X140363977Y-76485939D01*
X140363979Y-76485940D01*
X140363982Y-76485941D01*
X140529114Y-76574205D01*
X140673857Y-76692993D01*
X140792645Y-76837736D01*
X140880909Y-77002868D01*
X140880910Y-77002871D01*
X140880911Y-77002873D01*
X140935266Y-77182056D01*
X140953619Y-77368400D01*
X140935266Y-77554744D01*
X140886277Y-77716237D01*
X140880909Y-77733932D01*
X140792645Y-77899064D01*
X140673857Y-78043807D01*
X140529114Y-78162595D01*
X140363982Y-78250859D01*
X140363979Y-78250860D01*
X140363977Y-78250861D01*
X140184794Y-78305216D01*
X140101005Y-78313468D01*
X140045147Y-78318970D01*
X139253253Y-78318970D01*
X139197395Y-78313468D01*
X139113606Y-78305216D01*
X138934423Y-78250861D01*
X138934421Y-78250860D01*
X138934418Y-78250859D01*
X138769286Y-78162595D01*
X138624543Y-78043807D01*
X138505755Y-77899064D01*
X138417491Y-77733932D01*
X138412123Y-77716237D01*
X138363134Y-77554744D01*
X138344781Y-77368400D01*
X138363134Y-77182056D01*
X138417489Y-77002873D01*
X138417490Y-77002871D01*
X138417491Y-77002868D01*
X138505755Y-76837736D01*
X138624543Y-76692993D01*
X138769286Y-76574205D01*
X138934418Y-76485941D01*
X138934421Y-76485940D01*
X138934423Y-76485939D01*
X139113606Y-76431584D01*
X139197395Y-76423332D01*
X139253253Y-76417830D01*
X140045147Y-76417830D01*
X140101005Y-76423332D01*
X140101005Y-76423332D01*
G37*
G36*
X164955888Y-75214470D02*
X165136274Y-75250350D01*
X165327362Y-75329502D01*
X165499336Y-75444411D01*
X165645589Y-75590664D01*
X165760498Y-75762638D01*
X165839650Y-75953726D01*
X165880000Y-76156584D01*
X165880000Y-76363416D01*
X165839650Y-76566274D01*
X165760498Y-76757362D01*
X165645589Y-76929336D01*
X165499336Y-77075589D01*
X165327362Y-77190498D01*
X165136274Y-77269650D01*
X164955888Y-77305530D01*
X164933417Y-77310000D01*
X164726583Y-77310000D01*
X164704112Y-77305530D01*
X164523726Y-77269650D01*
X164332638Y-77190498D01*
X164160664Y-77075589D01*
X164014411Y-76929336D01*
X163899502Y-76757362D01*
X163820350Y-76566274D01*
X163780000Y-76363416D01*
X163780000Y-76156584D01*
X163820350Y-75953726D01*
X163899502Y-75762638D01*
X164014411Y-75590664D01*
X164160664Y-75444411D01*
X164332638Y-75329502D01*
X164523726Y-75250350D01*
X164704112Y-75214470D01*
X164726583Y-75210000D01*
X164933417Y-75210000D01*
X164955888Y-75214470D01*
X164955888Y-75214470D01*
G37*
G36*
X172578707Y-75217596D02*
X172655836Y-75225193D01*
X172787787Y-75265220D01*
X172853763Y-75285233D01*
X173036172Y-75382733D01*
X173196054Y-75513946D01*
X173327267Y-75673828D01*
X173424767Y-75856237D01*
X173424767Y-75856238D01*
X173484807Y-76054164D01*
X173505080Y-76260000D01*
X173484807Y-76465836D01*
X173451934Y-76574205D01*
X173424767Y-76663763D01*
X173327267Y-76846172D01*
X173196054Y-77006054D01*
X173036172Y-77137267D01*
X172853763Y-77234767D01*
X172815413Y-77246400D01*
X172655836Y-77294807D01*
X172578707Y-77302403D01*
X172501580Y-77310000D01*
X172398420Y-77310000D01*
X172321293Y-77302403D01*
X172244164Y-77294807D01*
X172084587Y-77246400D01*
X172046237Y-77234767D01*
X171863828Y-77137267D01*
X171703946Y-77006054D01*
X171572733Y-76846172D01*
X171475233Y-76663763D01*
X171448066Y-76574205D01*
X171415193Y-76465836D01*
X171394920Y-76260000D01*
X171415193Y-76054164D01*
X171475233Y-75856238D01*
X171475233Y-75856237D01*
X171572733Y-75673828D01*
X171703946Y-75513946D01*
X171863828Y-75382733D01*
X172046237Y-75285233D01*
X172112213Y-75265220D01*
X172244164Y-75225193D01*
X172321293Y-75217596D01*
X172398420Y-75210000D01*
X172501580Y-75210000D01*
X172578707Y-75217596D01*
X172578707Y-75217596D01*
G37*
G36*
X170038707Y-75217596D02*
X170115836Y-75225193D01*
X170247787Y-75265220D01*
X170313763Y-75285233D01*
X170496172Y-75382733D01*
X170656054Y-75513946D01*
X170787267Y-75673828D01*
X170884767Y-75856237D01*
X170884767Y-75856238D01*
X170944807Y-76054164D01*
X170965080Y-76260000D01*
X170944807Y-76465836D01*
X170911934Y-76574205D01*
X170884767Y-76663763D01*
X170787267Y-76846172D01*
X170656054Y-77006054D01*
X170496172Y-77137267D01*
X170313763Y-77234767D01*
X170275413Y-77246400D01*
X170115836Y-77294807D01*
X170038707Y-77302403D01*
X169961580Y-77310000D01*
X169858420Y-77310000D01*
X169781293Y-77302403D01*
X169704164Y-77294807D01*
X169544587Y-77246400D01*
X169506237Y-77234767D01*
X169323828Y-77137267D01*
X169163946Y-77006054D01*
X169032733Y-76846172D01*
X168935233Y-76663763D01*
X168908066Y-76574205D01*
X168875193Y-76465836D01*
X168854920Y-76260000D01*
X168875193Y-76054164D01*
X168935233Y-75856238D01*
X168935233Y-75856237D01*
X169032733Y-75673828D01*
X169163946Y-75513946D01*
X169323828Y-75382733D01*
X169506237Y-75285233D01*
X169572213Y-75265220D01*
X169704164Y-75225193D01*
X169781293Y-75217596D01*
X169858420Y-75210000D01*
X169961580Y-75210000D01*
X170038707Y-75217596D01*
X170038707Y-75217596D01*
G37*
G36*
X167498707Y-75217596D02*
X167575836Y-75225193D01*
X167707787Y-75265220D01*
X167773763Y-75285233D01*
X167956172Y-75382733D01*
X168116054Y-75513946D01*
X168247267Y-75673828D01*
X168344767Y-75856237D01*
X168344767Y-75856238D01*
X168404807Y-76054164D01*
X168425080Y-76260000D01*
X168404807Y-76465836D01*
X168371934Y-76574205D01*
X168344767Y-76663763D01*
X168247267Y-76846172D01*
X168116054Y-77006054D01*
X167956172Y-77137267D01*
X167773763Y-77234767D01*
X167735413Y-77246400D01*
X167575836Y-77294807D01*
X167498707Y-77302403D01*
X167421580Y-77310000D01*
X167318420Y-77310000D01*
X167241293Y-77302403D01*
X167164164Y-77294807D01*
X167004587Y-77246400D01*
X166966237Y-77234767D01*
X166783828Y-77137267D01*
X166623946Y-77006054D01*
X166492733Y-76846172D01*
X166395233Y-76663763D01*
X166368066Y-76574205D01*
X166335193Y-76465836D01*
X166314920Y-76260000D01*
X166335193Y-76054164D01*
X166395233Y-75856238D01*
X166395233Y-75856237D01*
X166492733Y-75673828D01*
X166623946Y-75513946D01*
X166783828Y-75382733D01*
X166966237Y-75285233D01*
X167032213Y-75265220D01*
X167164164Y-75225193D01*
X167241293Y-75217596D01*
X167318420Y-75210000D01*
X167421580Y-75210000D01*
X167498707Y-75217596D01*
X167498707Y-75217596D01*
G37*
G36*
X142641005Y-75153332D02*
X142724794Y-75161584D01*
X142903977Y-75215939D01*
X142903979Y-75215940D01*
X142903982Y-75215941D01*
X143069114Y-75304205D01*
X143213857Y-75422993D01*
X143332645Y-75567736D01*
X143420909Y-75732868D01*
X143420910Y-75732871D01*
X143420911Y-75732873D01*
X143475266Y-75912056D01*
X143493619Y-76098400D01*
X143475266Y-76284744D01*
X143434894Y-76417830D01*
X143420909Y-76463932D01*
X143332645Y-76629064D01*
X143213857Y-76773807D01*
X143069114Y-76892595D01*
X142903982Y-76980859D01*
X142903979Y-76980860D01*
X142903977Y-76980861D01*
X142724794Y-77035216D01*
X142641005Y-77043468D01*
X142585147Y-77048970D01*
X141793253Y-77048970D01*
X141737395Y-77043468D01*
X141653606Y-77035216D01*
X141474423Y-76980861D01*
X141474421Y-76980860D01*
X141474418Y-76980859D01*
X141309286Y-76892595D01*
X141164543Y-76773807D01*
X141045755Y-76629064D01*
X140957491Y-76463932D01*
X140943506Y-76417830D01*
X140903134Y-76284744D01*
X140884781Y-76098400D01*
X140903134Y-75912056D01*
X140957489Y-75732873D01*
X140957490Y-75732871D01*
X140957491Y-75732868D01*
X141045755Y-75567736D01*
X141164543Y-75422993D01*
X141309286Y-75304205D01*
X141474418Y-75215941D01*
X141474421Y-75215940D01*
X141474423Y-75215939D01*
X141653606Y-75161584D01*
X141737395Y-75153332D01*
X141793253Y-75147830D01*
X142585147Y-75147830D01*
X142641005Y-75153332D01*
X142641005Y-75153332D01*
G37*
G36*
X127401005Y-75153332D02*
X127484794Y-75161584D01*
X127663977Y-75215939D01*
X127663979Y-75215940D01*
X127663982Y-75215941D01*
X127829114Y-75304205D01*
X127973857Y-75422993D01*
X128092645Y-75567736D01*
X128180909Y-75732868D01*
X128180910Y-75732871D01*
X128180911Y-75732873D01*
X128235266Y-75912056D01*
X128253619Y-76098400D01*
X128235266Y-76284744D01*
X128194894Y-76417830D01*
X128180909Y-76463932D01*
X128092645Y-76629064D01*
X127973857Y-76773807D01*
X127829114Y-76892595D01*
X127663982Y-76980859D01*
X127663979Y-76980860D01*
X127663977Y-76980861D01*
X127484794Y-77035216D01*
X127401005Y-77043468D01*
X127345147Y-77048970D01*
X126553253Y-77048970D01*
X126497395Y-77043468D01*
X126413606Y-77035216D01*
X126234423Y-76980861D01*
X126234421Y-76980860D01*
X126234418Y-76980859D01*
X126069286Y-76892595D01*
X125924543Y-76773807D01*
X125805755Y-76629064D01*
X125717491Y-76463932D01*
X125703506Y-76417830D01*
X125663134Y-76284744D01*
X125644781Y-76098400D01*
X125663134Y-75912056D01*
X125717489Y-75732873D01*
X125717490Y-75732871D01*
X125717491Y-75732868D01*
X125805755Y-75567736D01*
X125924543Y-75422993D01*
X126069286Y-75304205D01*
X126234418Y-75215941D01*
X126234421Y-75215940D01*
X126234423Y-75215939D01*
X126413606Y-75161584D01*
X126497395Y-75153332D01*
X126553253Y-75147830D01*
X127345147Y-75147830D01*
X127401005Y-75153332D01*
X127401005Y-75153332D01*
G37*
G36*
X135583760Y-76744120D02*
X133683760Y-76744120D01*
X133683760Y-75094120D01*
X135583760Y-75094120D01*
X135583760Y-76744120D01*
X135583760Y-76744120D01*
G37*
G36*
X133083760Y-76744120D02*
X131183760Y-76744120D01*
X131183760Y-75094120D01*
X133083760Y-75094120D01*
X133083760Y-76744120D01*
X133083760Y-76744120D01*
G37*
G36*
X140101005Y-73883332D02*
X140184794Y-73891584D01*
X140363977Y-73945939D01*
X140363979Y-73945940D01*
X140363982Y-73945941D01*
X140529114Y-74034205D01*
X140673857Y-74152993D01*
X140792645Y-74297736D01*
X140880909Y-74462868D01*
X140880910Y-74462871D01*
X140880911Y-74462873D01*
X140935266Y-74642056D01*
X140953619Y-74828400D01*
X140935266Y-75014744D01*
X140911187Y-75094120D01*
X140880909Y-75193932D01*
X140792645Y-75359064D01*
X140673857Y-75503807D01*
X140529114Y-75622595D01*
X140363982Y-75710859D01*
X140363979Y-75710860D01*
X140363977Y-75710861D01*
X140184794Y-75765216D01*
X140101005Y-75773468D01*
X140045147Y-75778970D01*
X139253253Y-75778970D01*
X139197395Y-75773468D01*
X139113606Y-75765216D01*
X138934423Y-75710861D01*
X138934421Y-75710860D01*
X138934418Y-75710859D01*
X138769286Y-75622595D01*
X138624543Y-75503807D01*
X138505755Y-75359064D01*
X138417491Y-75193932D01*
X138387213Y-75094120D01*
X138363134Y-75014744D01*
X138344781Y-74828400D01*
X138363134Y-74642056D01*
X138417489Y-74462873D01*
X138417490Y-74462871D01*
X138417491Y-74462868D01*
X138505755Y-74297736D01*
X138624543Y-74152993D01*
X138769286Y-74034205D01*
X138934418Y-73945941D01*
X138934421Y-73945940D01*
X138934423Y-73945939D01*
X139113606Y-73891584D01*
X139197395Y-73883332D01*
X139253253Y-73877830D01*
X140045147Y-73877830D01*
X140101005Y-73883332D01*
X140101005Y-73883332D01*
G37*
G36*
X172578707Y-72697597D02*
X172655836Y-72705193D01*
X172787787Y-72745220D01*
X172853763Y-72765233D01*
X173036172Y-72862733D01*
X173196054Y-72993946D01*
X173327267Y-73153828D01*
X173424767Y-73336237D01*
X173424767Y-73336238D01*
X173484807Y-73534164D01*
X173505080Y-73740000D01*
X173484807Y-73945836D01*
X173444780Y-74077787D01*
X173424767Y-74143763D01*
X173327267Y-74326172D01*
X173196054Y-74486054D01*
X173036172Y-74617267D01*
X172853763Y-74714767D01*
X172787787Y-74734780D01*
X172655836Y-74774807D01*
X172578707Y-74782403D01*
X172501580Y-74790000D01*
X172398420Y-74790000D01*
X172321293Y-74782403D01*
X172244164Y-74774807D01*
X172112213Y-74734780D01*
X172046237Y-74714767D01*
X171863828Y-74617267D01*
X171703946Y-74486054D01*
X171572733Y-74326172D01*
X171475233Y-74143763D01*
X171455220Y-74077787D01*
X171415193Y-73945836D01*
X171394920Y-73740000D01*
X171415193Y-73534164D01*
X171475233Y-73336238D01*
X171475233Y-73336237D01*
X171572733Y-73153828D01*
X171703946Y-72993946D01*
X171863828Y-72862733D01*
X172046237Y-72765233D01*
X172112213Y-72745220D01*
X172244164Y-72705193D01*
X172321293Y-72697597D01*
X172398420Y-72690000D01*
X172501580Y-72690000D01*
X172578707Y-72697597D01*
X172578707Y-72697597D01*
G37*
G36*
X170038707Y-72697597D02*
X170115836Y-72705193D01*
X170247787Y-72745220D01*
X170313763Y-72765233D01*
X170496172Y-72862733D01*
X170656054Y-72993946D01*
X170787267Y-73153828D01*
X170884767Y-73336237D01*
X170884767Y-73336238D01*
X170944807Y-73534164D01*
X170965080Y-73740000D01*
X170944807Y-73945836D01*
X170904780Y-74077787D01*
X170884767Y-74143763D01*
X170787267Y-74326172D01*
X170656054Y-74486054D01*
X170496172Y-74617267D01*
X170313763Y-74714767D01*
X170247787Y-74734780D01*
X170115836Y-74774807D01*
X170038707Y-74782403D01*
X169961580Y-74790000D01*
X169858420Y-74790000D01*
X169781293Y-74782403D01*
X169704164Y-74774807D01*
X169572213Y-74734780D01*
X169506237Y-74714767D01*
X169323828Y-74617267D01*
X169163946Y-74486054D01*
X169032733Y-74326172D01*
X168935233Y-74143763D01*
X168915220Y-74077787D01*
X168875193Y-73945836D01*
X168854920Y-73740000D01*
X168875193Y-73534164D01*
X168935233Y-73336238D01*
X168935233Y-73336237D01*
X169032733Y-73153828D01*
X169163946Y-72993946D01*
X169323828Y-72862733D01*
X169506237Y-72765233D01*
X169572213Y-72745220D01*
X169704164Y-72705193D01*
X169781293Y-72697597D01*
X169858420Y-72690000D01*
X169961580Y-72690000D01*
X170038707Y-72697597D01*
X170038707Y-72697597D01*
G37*
G36*
X164955888Y-72694470D02*
X165136274Y-72730350D01*
X165327362Y-72809502D01*
X165499336Y-72924411D01*
X165645589Y-73070664D01*
X165760498Y-73242638D01*
X165839650Y-73433726D01*
X165880000Y-73636584D01*
X165880000Y-73843416D01*
X165839650Y-74046274D01*
X165760498Y-74237362D01*
X165645589Y-74409336D01*
X165499336Y-74555589D01*
X165327362Y-74670498D01*
X165136274Y-74749650D01*
X164955888Y-74785530D01*
X164933417Y-74790000D01*
X164726583Y-74790000D01*
X164704112Y-74785530D01*
X164523726Y-74749650D01*
X164332638Y-74670498D01*
X164160664Y-74555589D01*
X164014411Y-74409336D01*
X163899502Y-74237362D01*
X163820350Y-74046274D01*
X163780000Y-73843416D01*
X163780000Y-73636584D01*
X163820350Y-73433726D01*
X163899502Y-73242638D01*
X164014411Y-73070664D01*
X164160664Y-72924411D01*
X164332638Y-72809502D01*
X164523726Y-72730350D01*
X164704112Y-72694470D01*
X164726583Y-72690000D01*
X164933417Y-72690000D01*
X164955888Y-72694470D01*
X164955888Y-72694470D01*
G37*
G36*
X167498707Y-72697597D02*
X167575836Y-72705193D01*
X167707787Y-72745220D01*
X167773763Y-72765233D01*
X167956172Y-72862733D01*
X168116054Y-72993946D01*
X168247267Y-73153828D01*
X168344767Y-73336237D01*
X168344767Y-73336238D01*
X168404807Y-73534164D01*
X168425080Y-73740000D01*
X168404807Y-73945836D01*
X168364780Y-74077787D01*
X168344767Y-74143763D01*
X168247267Y-74326172D01*
X168116054Y-74486054D01*
X167956172Y-74617267D01*
X167773763Y-74714767D01*
X167707787Y-74734780D01*
X167575836Y-74774807D01*
X167498707Y-74782403D01*
X167421580Y-74790000D01*
X167318420Y-74790000D01*
X167241293Y-74782403D01*
X167164164Y-74774807D01*
X167032213Y-74734780D01*
X166966237Y-74714767D01*
X166783828Y-74617267D01*
X166623946Y-74486054D01*
X166492733Y-74326172D01*
X166395233Y-74143763D01*
X166375220Y-74077787D01*
X166335193Y-73945836D01*
X166314920Y-73740000D01*
X166335193Y-73534164D01*
X166395233Y-73336238D01*
X166395233Y-73336237D01*
X166492733Y-73153828D01*
X166623946Y-72993946D01*
X166783828Y-72862733D01*
X166966237Y-72765233D01*
X167032213Y-72745220D01*
X167164164Y-72705193D01*
X167241293Y-72697597D01*
X167318420Y-72690000D01*
X167421580Y-72690000D01*
X167498707Y-72697597D01*
X167498707Y-72697597D01*
G37*
G36*
X142641005Y-72613332D02*
X142724794Y-72621584D01*
X142903977Y-72675939D01*
X142903979Y-72675940D01*
X142903982Y-72675941D01*
X143069114Y-72764205D01*
X143213857Y-72882993D01*
X143332645Y-73027736D01*
X143420909Y-73192868D01*
X143420910Y-73192871D01*
X143420911Y-73192873D01*
X143475266Y-73372056D01*
X143493619Y-73558400D01*
X143475266Y-73744744D01*
X143434894Y-73877830D01*
X143420909Y-73923932D01*
X143332645Y-74089064D01*
X143213857Y-74233807D01*
X143069114Y-74352595D01*
X142903982Y-74440859D01*
X142903979Y-74440860D01*
X142903977Y-74440861D01*
X142724794Y-74495216D01*
X142641005Y-74503468D01*
X142585147Y-74508970D01*
X141793253Y-74508970D01*
X141737395Y-74503468D01*
X141653606Y-74495216D01*
X141474423Y-74440861D01*
X141474421Y-74440860D01*
X141474418Y-74440859D01*
X141309286Y-74352595D01*
X141164543Y-74233807D01*
X141045755Y-74089064D01*
X140957491Y-73923932D01*
X140943506Y-73877830D01*
X140903134Y-73744744D01*
X140884781Y-73558400D01*
X140903134Y-73372056D01*
X140957489Y-73192873D01*
X140957490Y-73192871D01*
X140957491Y-73192868D01*
X141045755Y-73027736D01*
X141164543Y-72882993D01*
X141309286Y-72764205D01*
X141474418Y-72675941D01*
X141474421Y-72675940D01*
X141474423Y-72675939D01*
X141653606Y-72621584D01*
X141737395Y-72613332D01*
X141793253Y-72607830D01*
X142585147Y-72607830D01*
X142641005Y-72613332D01*
X142641005Y-72613332D01*
G37*
G36*
X127401005Y-72613332D02*
X127484794Y-72621584D01*
X127663977Y-72675939D01*
X127663979Y-72675940D01*
X127663982Y-72675941D01*
X127829114Y-72764205D01*
X127973857Y-72882993D01*
X128092645Y-73027736D01*
X128180909Y-73192868D01*
X128180910Y-73192871D01*
X128180911Y-73192873D01*
X128235266Y-73372056D01*
X128253619Y-73558400D01*
X128235266Y-73744744D01*
X128194894Y-73877830D01*
X128180909Y-73923932D01*
X128092645Y-74089064D01*
X127973857Y-74233807D01*
X127829114Y-74352595D01*
X127663982Y-74440859D01*
X127663979Y-74440860D01*
X127663977Y-74440861D01*
X127484794Y-74495216D01*
X127401005Y-74503468D01*
X127345147Y-74508970D01*
X126553253Y-74508970D01*
X126497395Y-74503468D01*
X126413606Y-74495216D01*
X126234423Y-74440861D01*
X126234421Y-74440860D01*
X126234418Y-74440859D01*
X126069286Y-74352595D01*
X125924543Y-74233807D01*
X125805755Y-74089064D01*
X125717491Y-73923932D01*
X125703506Y-73877830D01*
X125663134Y-73744744D01*
X125644781Y-73558400D01*
X125663134Y-73372056D01*
X125717489Y-73192873D01*
X125717490Y-73192871D01*
X125717491Y-73192868D01*
X125805755Y-73027736D01*
X125924543Y-72882993D01*
X126069286Y-72764205D01*
X126234418Y-72675941D01*
X126234421Y-72675940D01*
X126234423Y-72675939D01*
X126413606Y-72621584D01*
X126497395Y-72613332D01*
X126553253Y-72607830D01*
X127345147Y-72607830D01*
X127401005Y-72613332D01*
X127401005Y-72613332D01*
G37*
G36*
X135573760Y-72774120D02*
X133673760Y-72774120D01*
X133673760Y-71124120D01*
X135573760Y-71124120D01*
X135573760Y-72774120D01*
X135573760Y-72774120D01*
G37*
G36*
X133073760Y-72774120D02*
X131173760Y-72774120D01*
X131173760Y-71124120D01*
X133073760Y-71124120D01*
X133073760Y-72774120D01*
X133073760Y-72774120D01*
G37*
G36*
X170048707Y-70157596D02*
X170125836Y-70165193D01*
X170257787Y-70205220D01*
X170323763Y-70225233D01*
X170506172Y-70322733D01*
X170666054Y-70453946D01*
X170797267Y-70613828D01*
X170894767Y-70796237D01*
X170894767Y-70796238D01*
X170954807Y-70994164D01*
X170975080Y-71200000D01*
X170954807Y-71405836D01*
X170914780Y-71537787D01*
X170894767Y-71603763D01*
X170797267Y-71786172D01*
X170666054Y-71946054D01*
X170506172Y-72077267D01*
X170323763Y-72174767D01*
X170257787Y-72194780D01*
X170125836Y-72234807D01*
X170048707Y-72242403D01*
X169971580Y-72250000D01*
X169868420Y-72250000D01*
X169791293Y-72242403D01*
X169714164Y-72234807D01*
X169582213Y-72194780D01*
X169516237Y-72174767D01*
X169333828Y-72077267D01*
X169173946Y-71946054D01*
X169042733Y-71786172D01*
X168945233Y-71603763D01*
X168925220Y-71537787D01*
X168885193Y-71405836D01*
X168864920Y-71200000D01*
X168885193Y-70994164D01*
X168945233Y-70796238D01*
X168945233Y-70796237D01*
X169042733Y-70613828D01*
X169173946Y-70453946D01*
X169333828Y-70322733D01*
X169516237Y-70225233D01*
X169582213Y-70205220D01*
X169714164Y-70165193D01*
X169791293Y-70157596D01*
X169868420Y-70150000D01*
X169971580Y-70150000D01*
X170048707Y-70157596D01*
X170048707Y-70157596D01*
G37*
G36*
X164965888Y-70154470D02*
X165146274Y-70190350D01*
X165337362Y-70269502D01*
X165509336Y-70384411D01*
X165655589Y-70530664D01*
X165770498Y-70702638D01*
X165849650Y-70893726D01*
X165890000Y-71096584D01*
X165890000Y-71303416D01*
X165849650Y-71506274D01*
X165770498Y-71697362D01*
X165655589Y-71869336D01*
X165509336Y-72015589D01*
X165337362Y-72130498D01*
X165146274Y-72209650D01*
X164965888Y-72245530D01*
X164943417Y-72250000D01*
X164736583Y-72250000D01*
X164714112Y-72245530D01*
X164533726Y-72209650D01*
X164342638Y-72130498D01*
X164170664Y-72015589D01*
X164024411Y-71869336D01*
X163909502Y-71697362D01*
X163830350Y-71506274D01*
X163790000Y-71303416D01*
X163790000Y-71096584D01*
X163830350Y-70893726D01*
X163909502Y-70702638D01*
X164024411Y-70530664D01*
X164170664Y-70384411D01*
X164342638Y-70269502D01*
X164533726Y-70190350D01*
X164714112Y-70154470D01*
X164736583Y-70150000D01*
X164943417Y-70150000D01*
X164965888Y-70154470D01*
X164965888Y-70154470D01*
G37*
G36*
X167508707Y-70157596D02*
X167585836Y-70165193D01*
X167717787Y-70205220D01*
X167783763Y-70225233D01*
X167966172Y-70322733D01*
X168126054Y-70453946D01*
X168257267Y-70613828D01*
X168354767Y-70796237D01*
X168354767Y-70796238D01*
X168414807Y-70994164D01*
X168435080Y-71200000D01*
X168414807Y-71405836D01*
X168374780Y-71537787D01*
X168354767Y-71603763D01*
X168257267Y-71786172D01*
X168126054Y-71946054D01*
X167966172Y-72077267D01*
X167783763Y-72174767D01*
X167717787Y-72194780D01*
X167585836Y-72234807D01*
X167508707Y-72242403D01*
X167431580Y-72250000D01*
X167328420Y-72250000D01*
X167251293Y-72242403D01*
X167174164Y-72234807D01*
X167042213Y-72194780D01*
X166976237Y-72174767D01*
X166793828Y-72077267D01*
X166633946Y-71946054D01*
X166502733Y-71786172D01*
X166405233Y-71603763D01*
X166385220Y-71537787D01*
X166345193Y-71405836D01*
X166324920Y-71200000D01*
X166345193Y-70994164D01*
X166405233Y-70796238D01*
X166405233Y-70796237D01*
X166502733Y-70613828D01*
X166633946Y-70453946D01*
X166793828Y-70322733D01*
X166976237Y-70225233D01*
X167042213Y-70205220D01*
X167174164Y-70165193D01*
X167251293Y-70157596D01*
X167328420Y-70150000D01*
X167431580Y-70150000D01*
X167508707Y-70157596D01*
X167508707Y-70157596D01*
G37*
G36*
X172588707Y-70157596D02*
X172665836Y-70165193D01*
X172797787Y-70205220D01*
X172863763Y-70225233D01*
X173046172Y-70322733D01*
X173206054Y-70453946D01*
X173337267Y-70613828D01*
X173434767Y-70796237D01*
X173434767Y-70796238D01*
X173494807Y-70994164D01*
X173515080Y-71200000D01*
X173494807Y-71405836D01*
X173454780Y-71537787D01*
X173434767Y-71603763D01*
X173337267Y-71786172D01*
X173206054Y-71946054D01*
X173046172Y-72077267D01*
X172863763Y-72174767D01*
X172797787Y-72194780D01*
X172665836Y-72234807D01*
X172588707Y-72242403D01*
X172511580Y-72250000D01*
X172408420Y-72250000D01*
X172331293Y-72242403D01*
X172254164Y-72234807D01*
X172122213Y-72194780D01*
X172056237Y-72174767D01*
X171873828Y-72077267D01*
X171713946Y-71946054D01*
X171582733Y-71786172D01*
X171485233Y-71603763D01*
X171465220Y-71537787D01*
X171425193Y-71405836D01*
X171404920Y-71200000D01*
X171425193Y-70994164D01*
X171485233Y-70796238D01*
X171485233Y-70796237D01*
X171582733Y-70613828D01*
X171713946Y-70453946D01*
X171873828Y-70322733D01*
X172056237Y-70225233D01*
X172122213Y-70205220D01*
X172254164Y-70165193D01*
X172331293Y-70157596D01*
X172408420Y-70150000D01*
X172511580Y-70150000D01*
X172588707Y-70157596D01*
X172588707Y-70157596D01*
G37*
G36*
X142641005Y-70073332D02*
X142724794Y-70081584D01*
X142903977Y-70135939D01*
X142903979Y-70135940D01*
X142903982Y-70135941D01*
X143069114Y-70224205D01*
X143213857Y-70342993D01*
X143332645Y-70487736D01*
X143420909Y-70652868D01*
X143420910Y-70652871D01*
X143420911Y-70652873D01*
X143475266Y-70832056D01*
X143493619Y-71018400D01*
X143475266Y-71204744D01*
X143420911Y-71383927D01*
X143420909Y-71383932D01*
X143332645Y-71549064D01*
X143213857Y-71693807D01*
X143069114Y-71812595D01*
X142903982Y-71900859D01*
X142903979Y-71900860D01*
X142903977Y-71900861D01*
X142724794Y-71955216D01*
X142641005Y-71963468D01*
X142585147Y-71968970D01*
X141793253Y-71968970D01*
X141737395Y-71963468D01*
X141653606Y-71955216D01*
X141474423Y-71900861D01*
X141474421Y-71900860D01*
X141474418Y-71900859D01*
X141309286Y-71812595D01*
X141164543Y-71693807D01*
X141045755Y-71549064D01*
X140957491Y-71383932D01*
X140957489Y-71383927D01*
X140903134Y-71204744D01*
X140884781Y-71018400D01*
X140903134Y-70832056D01*
X140957489Y-70652873D01*
X140957490Y-70652871D01*
X140957491Y-70652868D01*
X141045755Y-70487736D01*
X141164543Y-70342993D01*
X141309286Y-70224205D01*
X141474418Y-70135941D01*
X141474421Y-70135940D01*
X141474423Y-70135939D01*
X141653606Y-70081584D01*
X141737395Y-70073332D01*
X141793253Y-70067830D01*
X142585147Y-70067830D01*
X142641005Y-70073332D01*
X142641005Y-70073332D01*
G37*
G36*
X127401005Y-70073332D02*
X127484794Y-70081584D01*
X127663977Y-70135939D01*
X127663979Y-70135940D01*
X127663982Y-70135941D01*
X127829114Y-70224205D01*
X127973857Y-70342993D01*
X128092645Y-70487736D01*
X128180909Y-70652868D01*
X128180910Y-70652871D01*
X128180911Y-70652873D01*
X128235266Y-70832056D01*
X128253619Y-71018400D01*
X128235266Y-71204744D01*
X128180911Y-71383927D01*
X128180909Y-71383932D01*
X128092645Y-71549064D01*
X127973857Y-71693807D01*
X127829114Y-71812595D01*
X127663982Y-71900859D01*
X127663979Y-71900860D01*
X127663977Y-71900861D01*
X127484794Y-71955216D01*
X127401005Y-71963468D01*
X127345147Y-71968970D01*
X126553253Y-71968970D01*
X126497395Y-71963468D01*
X126413606Y-71955216D01*
X126234423Y-71900861D01*
X126234421Y-71900860D01*
X126234418Y-71900859D01*
X126069286Y-71812595D01*
X125924543Y-71693807D01*
X125805755Y-71549064D01*
X125717491Y-71383932D01*
X125717489Y-71383927D01*
X125663134Y-71204744D01*
X125644781Y-71018400D01*
X125663134Y-70832056D01*
X125717489Y-70652873D01*
X125717490Y-70652871D01*
X125717491Y-70652868D01*
X125805755Y-70487736D01*
X125924543Y-70342993D01*
X126069286Y-70224205D01*
X126234418Y-70135941D01*
X126234421Y-70135940D01*
X126234423Y-70135939D01*
X126413606Y-70081584D01*
X126497395Y-70073332D01*
X126553253Y-70067830D01*
X127345147Y-70067830D01*
X127401005Y-70073332D01*
X127401005Y-70073332D01*
G37*
G36*
X137853760Y-71739120D02*
X136153760Y-71739120D01*
X136153760Y-69839120D01*
X137853760Y-69839120D01*
X137853760Y-71739120D01*
X137853760Y-71739120D01*
G37*
G36*
X135293760Y-70399120D02*
X132993760Y-70399120D01*
X132993760Y-69199120D01*
X135293760Y-69199120D01*
X135293760Y-70399120D01*
X135293760Y-70399120D01*
G37*
G36*
X164975888Y-67664470D02*
X165156274Y-67700350D01*
X165347362Y-67779502D01*
X165519336Y-67894411D01*
X165665589Y-68040664D01*
X165780498Y-68212638D01*
X165859650Y-68403726D01*
X165900000Y-68606584D01*
X165900000Y-68813416D01*
X165859650Y-69016274D01*
X165780498Y-69207362D01*
X165665589Y-69379336D01*
X165519336Y-69525589D01*
X165347362Y-69640498D01*
X165156274Y-69719650D01*
X164975888Y-69755530D01*
X164953417Y-69760000D01*
X164746583Y-69760000D01*
X164724112Y-69755530D01*
X164543726Y-69719650D01*
X164352638Y-69640498D01*
X164180664Y-69525589D01*
X164034411Y-69379336D01*
X163919502Y-69207362D01*
X163840350Y-69016274D01*
X163800000Y-68813416D01*
X163800000Y-68606584D01*
X163840350Y-68403726D01*
X163919502Y-68212638D01*
X164034411Y-68040664D01*
X164180664Y-67894411D01*
X164352638Y-67779502D01*
X164543726Y-67700350D01*
X164724112Y-67664470D01*
X164746583Y-67660000D01*
X164953417Y-67660000D01*
X164975888Y-67664470D01*
X164975888Y-67664470D01*
G37*
G36*
X167518707Y-67667596D02*
X167595836Y-67675193D01*
X167727787Y-67715220D01*
X167793763Y-67735233D01*
X167976172Y-67832733D01*
X168136054Y-67963946D01*
X168267267Y-68123828D01*
X168364767Y-68306237D01*
X168364767Y-68306238D01*
X168424807Y-68504164D01*
X168445080Y-68710000D01*
X168424807Y-68915836D01*
X168387409Y-69039120D01*
X168364767Y-69113763D01*
X168267267Y-69296172D01*
X168136054Y-69456054D01*
X167976172Y-69587267D01*
X167793763Y-69684767D01*
X167727787Y-69704780D01*
X167595836Y-69744807D01*
X167518707Y-69752404D01*
X167441580Y-69760000D01*
X167338420Y-69760000D01*
X167261293Y-69752404D01*
X167184164Y-69744807D01*
X167052213Y-69704780D01*
X166986237Y-69684767D01*
X166803828Y-69587267D01*
X166643946Y-69456054D01*
X166512733Y-69296172D01*
X166415233Y-69113763D01*
X166392591Y-69039120D01*
X166355193Y-68915836D01*
X166334920Y-68710000D01*
X166355193Y-68504164D01*
X166415233Y-68306238D01*
X166415233Y-68306237D01*
X166512733Y-68123828D01*
X166643946Y-67963946D01*
X166803828Y-67832733D01*
X166986237Y-67735233D01*
X167052213Y-67715220D01*
X167184164Y-67675193D01*
X167261293Y-67667596D01*
X167338420Y-67660000D01*
X167441580Y-67660000D01*
X167518707Y-67667596D01*
X167518707Y-67667596D01*
G37*
G36*
X170058707Y-67667596D02*
X170135836Y-67675193D01*
X170267787Y-67715220D01*
X170333763Y-67735233D01*
X170516172Y-67832733D01*
X170676054Y-67963946D01*
X170807267Y-68123828D01*
X170904767Y-68306237D01*
X170904767Y-68306238D01*
X170964807Y-68504164D01*
X170985080Y-68710000D01*
X170964807Y-68915836D01*
X170927409Y-69039120D01*
X170904767Y-69113763D01*
X170807267Y-69296172D01*
X170676054Y-69456054D01*
X170516172Y-69587267D01*
X170333763Y-69684767D01*
X170267787Y-69704780D01*
X170135836Y-69744807D01*
X170058707Y-69752404D01*
X169981580Y-69760000D01*
X169878420Y-69760000D01*
X169801293Y-69752404D01*
X169724164Y-69744807D01*
X169592213Y-69704780D01*
X169526237Y-69684767D01*
X169343828Y-69587267D01*
X169183946Y-69456054D01*
X169052733Y-69296172D01*
X168955233Y-69113763D01*
X168932591Y-69039120D01*
X168895193Y-68915836D01*
X168874920Y-68710000D01*
X168895193Y-68504164D01*
X168955233Y-68306238D01*
X168955233Y-68306237D01*
X169052733Y-68123828D01*
X169183946Y-67963946D01*
X169343828Y-67832733D01*
X169526237Y-67735233D01*
X169592213Y-67715220D01*
X169724164Y-67675193D01*
X169801293Y-67667596D01*
X169878420Y-67660000D01*
X169981580Y-67660000D01*
X170058707Y-67667596D01*
X170058707Y-67667596D01*
G37*
G36*
X172598707Y-67667596D02*
X172675836Y-67675193D01*
X172807787Y-67715220D01*
X172873763Y-67735233D01*
X173056172Y-67832733D01*
X173216054Y-67963946D01*
X173347267Y-68123828D01*
X173444767Y-68306237D01*
X173444767Y-68306238D01*
X173504807Y-68504164D01*
X173525080Y-68710000D01*
X173504807Y-68915836D01*
X173467409Y-69039120D01*
X173444767Y-69113763D01*
X173347267Y-69296172D01*
X173216054Y-69456054D01*
X173056172Y-69587267D01*
X172873763Y-69684767D01*
X172807787Y-69704780D01*
X172675836Y-69744807D01*
X172598707Y-69752404D01*
X172521580Y-69760000D01*
X172418420Y-69760000D01*
X172341293Y-69752404D01*
X172264164Y-69744807D01*
X172132213Y-69704780D01*
X172066237Y-69684767D01*
X171883828Y-69587267D01*
X171723946Y-69456054D01*
X171592733Y-69296172D01*
X171495233Y-69113763D01*
X171472591Y-69039120D01*
X171435193Y-68915836D01*
X171414920Y-68710000D01*
X171435193Y-68504164D01*
X171495233Y-68306238D01*
X171495233Y-68306237D01*
X171592733Y-68123828D01*
X171723946Y-67963946D01*
X171883828Y-67832733D01*
X172066237Y-67735233D01*
X172132213Y-67715220D01*
X172264164Y-67675193D01*
X172341293Y-67667596D01*
X172418420Y-67660000D01*
X172521580Y-67660000D01*
X172598707Y-67667596D01*
X172598707Y-67667596D01*
G37*
G36*
X132293760Y-69449120D02*
X129993760Y-69449120D01*
X129993760Y-68249120D01*
X132293760Y-68249120D01*
X132293760Y-69449120D01*
X132293760Y-69449120D01*
G37*
G36*
X142641005Y-67533332D02*
X142724794Y-67541584D01*
X142903977Y-67595939D01*
X142903979Y-67595940D01*
X142903982Y-67595941D01*
X143069114Y-67684205D01*
X143213857Y-67802993D01*
X143332645Y-67947736D01*
X143420909Y-68112868D01*
X143420910Y-68112871D01*
X143420911Y-68112873D01*
X143475266Y-68292056D01*
X143493619Y-68478400D01*
X143475266Y-68664744D01*
X143430166Y-68813416D01*
X143420909Y-68843932D01*
X143332645Y-69009064D01*
X143213857Y-69153807D01*
X143069114Y-69272595D01*
X142903982Y-69360859D01*
X142903979Y-69360860D01*
X142903977Y-69360861D01*
X142724794Y-69415216D01*
X142641005Y-69423468D01*
X142585147Y-69428970D01*
X141793253Y-69428970D01*
X141737395Y-69423468D01*
X141653606Y-69415216D01*
X141474423Y-69360861D01*
X141474421Y-69360860D01*
X141474418Y-69360859D01*
X141309286Y-69272595D01*
X141164543Y-69153807D01*
X141045755Y-69009064D01*
X140957491Y-68843932D01*
X140948234Y-68813416D01*
X140903134Y-68664744D01*
X140884781Y-68478400D01*
X140903134Y-68292056D01*
X140957489Y-68112873D01*
X140957490Y-68112871D01*
X140957491Y-68112868D01*
X141045755Y-67947736D01*
X141164543Y-67802993D01*
X141309286Y-67684205D01*
X141474418Y-67595941D01*
X141474421Y-67595940D01*
X141474423Y-67595939D01*
X141653606Y-67541584D01*
X141737395Y-67533332D01*
X141793253Y-67527830D01*
X142585147Y-67527830D01*
X142641005Y-67533332D01*
X142641005Y-67533332D01*
G37*
G36*
X127401005Y-67533332D02*
X127484794Y-67541584D01*
X127663977Y-67595939D01*
X127663979Y-67595940D01*
X127663982Y-67595941D01*
X127829114Y-67684205D01*
X127973857Y-67802993D01*
X128092645Y-67947736D01*
X128180909Y-68112868D01*
X128180910Y-68112871D01*
X128180911Y-68112873D01*
X128235266Y-68292056D01*
X128253619Y-68478400D01*
X128235266Y-68664744D01*
X128190166Y-68813416D01*
X128180909Y-68843932D01*
X128092645Y-69009064D01*
X127973857Y-69153807D01*
X127829114Y-69272595D01*
X127663982Y-69360859D01*
X127663979Y-69360860D01*
X127663977Y-69360861D01*
X127484794Y-69415216D01*
X127401005Y-69423468D01*
X127345147Y-69428970D01*
X126553253Y-69428970D01*
X126497395Y-69423468D01*
X126413606Y-69415216D01*
X126234423Y-69360861D01*
X126234421Y-69360860D01*
X126234418Y-69360859D01*
X126069286Y-69272595D01*
X125924543Y-69153807D01*
X125805755Y-69009064D01*
X125717491Y-68843932D01*
X125708234Y-68813416D01*
X125663134Y-68664744D01*
X125644781Y-68478400D01*
X125663134Y-68292056D01*
X125717489Y-68112873D01*
X125717490Y-68112871D01*
X125717491Y-68112868D01*
X125805755Y-67947736D01*
X125924543Y-67802993D01*
X126069286Y-67684205D01*
X126234418Y-67595941D01*
X126234421Y-67595940D01*
X126234423Y-67595939D01*
X126413606Y-67541584D01*
X126497395Y-67533332D01*
X126553253Y-67527830D01*
X127345147Y-67527830D01*
X127401005Y-67533332D01*
X127401005Y-67533332D01*
G37*
G36*
X137853760Y-69039120D02*
X136153760Y-69039120D01*
X136153760Y-67139120D01*
X137853760Y-67139120D01*
X137853760Y-69039120D01*
X137853760Y-69039120D01*
G37*
G36*
X135293760Y-68499120D02*
X132993760Y-68499120D01*
X132993760Y-67299120D01*
X135293760Y-67299120D01*
X135293760Y-68499120D01*
X135293760Y-68499120D01*
G37*
G36*
X164965888Y-65144470D02*
X165146274Y-65180350D01*
X165337362Y-65259502D01*
X165509336Y-65374411D01*
X165655589Y-65520664D01*
X165770498Y-65692638D01*
X165849650Y-65883726D01*
X165890000Y-66086584D01*
X165890000Y-66293416D01*
X165849650Y-66496274D01*
X165770498Y-66687362D01*
X165655589Y-66859336D01*
X165509336Y-67005589D01*
X165337362Y-67120498D01*
X165146274Y-67199650D01*
X164965888Y-67235530D01*
X164943417Y-67240000D01*
X164736583Y-67240000D01*
X164714112Y-67235530D01*
X164533726Y-67199650D01*
X164342638Y-67120498D01*
X164170664Y-67005589D01*
X164024411Y-66859336D01*
X163909502Y-66687362D01*
X163830350Y-66496274D01*
X163790000Y-66293416D01*
X163790000Y-66086584D01*
X163830350Y-65883726D01*
X163909502Y-65692638D01*
X164024411Y-65520664D01*
X164170664Y-65374411D01*
X164342638Y-65259502D01*
X164533726Y-65180350D01*
X164714112Y-65144470D01*
X164736583Y-65140000D01*
X164943417Y-65140000D01*
X164965888Y-65144470D01*
X164965888Y-65144470D01*
G37*
G36*
X167508707Y-65147597D02*
X167585836Y-65155193D01*
X167717787Y-65195220D01*
X167783763Y-65215233D01*
X167966172Y-65312733D01*
X168126054Y-65443946D01*
X168257267Y-65603828D01*
X168354767Y-65786237D01*
X168354767Y-65786238D01*
X168414807Y-65984164D01*
X168435080Y-66190000D01*
X168414807Y-66395836D01*
X168374780Y-66527787D01*
X168354767Y-66593763D01*
X168257267Y-66776172D01*
X168126054Y-66936054D01*
X167966172Y-67067267D01*
X167783763Y-67164767D01*
X167717787Y-67184780D01*
X167585836Y-67224807D01*
X167508707Y-67232404D01*
X167431580Y-67240000D01*
X167328420Y-67240000D01*
X167251293Y-67232404D01*
X167174164Y-67224807D01*
X167042213Y-67184780D01*
X166976237Y-67164767D01*
X166793828Y-67067267D01*
X166633946Y-66936054D01*
X166502733Y-66776172D01*
X166405233Y-66593763D01*
X166385220Y-66527787D01*
X166345193Y-66395836D01*
X166324920Y-66190000D01*
X166345193Y-65984164D01*
X166405233Y-65786238D01*
X166405233Y-65786237D01*
X166502733Y-65603828D01*
X166633946Y-65443946D01*
X166793828Y-65312733D01*
X166976237Y-65215233D01*
X167042213Y-65195220D01*
X167174164Y-65155193D01*
X167251293Y-65147597D01*
X167328420Y-65140000D01*
X167431580Y-65140000D01*
X167508707Y-65147597D01*
X167508707Y-65147597D01*
G37*
G36*
X142641005Y-64993332D02*
X142724794Y-65001584D01*
X142903977Y-65055939D01*
X142903979Y-65055940D01*
X142903982Y-65055941D01*
X143069114Y-65144205D01*
X143213857Y-65262993D01*
X143332645Y-65407736D01*
X143420909Y-65572868D01*
X143420910Y-65572871D01*
X143420911Y-65572873D01*
X143475266Y-65752056D01*
X143493619Y-65938400D01*
X143475266Y-66124744D01*
X143424099Y-66293417D01*
X143420909Y-66303932D01*
X143332645Y-66469064D01*
X143213857Y-66613807D01*
X143069114Y-66732595D01*
X142903982Y-66820859D01*
X142903979Y-66820860D01*
X142903977Y-66820861D01*
X142724794Y-66875216D01*
X142641005Y-66883468D01*
X142585147Y-66888970D01*
X141793253Y-66888970D01*
X141737395Y-66883468D01*
X141653606Y-66875216D01*
X141474423Y-66820861D01*
X141474421Y-66820860D01*
X141474418Y-66820859D01*
X141309286Y-66732595D01*
X141164543Y-66613807D01*
X141045755Y-66469064D01*
X140957491Y-66303932D01*
X140954301Y-66293417D01*
X140903134Y-66124744D01*
X140884781Y-65938400D01*
X140903134Y-65752056D01*
X140957489Y-65572873D01*
X140957490Y-65572871D01*
X140957491Y-65572868D01*
X141045755Y-65407736D01*
X141164543Y-65262993D01*
X141309286Y-65144205D01*
X141474418Y-65055941D01*
X141474421Y-65055940D01*
X141474423Y-65055939D01*
X141653606Y-65001584D01*
X141737395Y-64993332D01*
X141793253Y-64987830D01*
X142585147Y-64987830D01*
X142641005Y-64993332D01*
X142641005Y-64993332D01*
G37*
G36*
X128249020Y-66888970D02*
X125649380Y-66888970D01*
X125649380Y-64987830D01*
X128249020Y-64987830D01*
X128249020Y-66888970D01*
X128249020Y-66888970D01*
G37*
G36*
X172452947Y-62705722D02*
X172716833Y-62815027D01*
X172954324Y-62973713D01*
X173156287Y-63175676D01*
X173314973Y-63413167D01*
X173424278Y-63677053D01*
X173480000Y-63957186D01*
X173480000Y-64242814D01*
X173424278Y-64522947D01*
X173314973Y-64786833D01*
X173156287Y-65024324D01*
X172954324Y-65226287D01*
X172716833Y-65384973D01*
X172452947Y-65494278D01*
X172172814Y-65550000D01*
X171887186Y-65550000D01*
X171607053Y-65494278D01*
X171343167Y-65384973D01*
X171105676Y-65226287D01*
X170903713Y-65024324D01*
X170745027Y-64786833D01*
X170635722Y-64522947D01*
X170580000Y-64242814D01*
X170580000Y-63957186D01*
X170635722Y-63677053D01*
X170745027Y-63413167D01*
X170903713Y-63175676D01*
X171105676Y-62973713D01*
X171343167Y-62815027D01*
X171607053Y-62705722D01*
X171887186Y-62650000D01*
X172172814Y-62650000D01*
X172452947Y-62705722D01*
X172452947Y-62705722D01*
G37*
G36*
X151197347Y-62644202D02*
X151461233Y-62753507D01*
X151698724Y-62912193D01*
X151900687Y-63114156D01*
X152059373Y-63351647D01*
X152168678Y-63615533D01*
X152224400Y-63895666D01*
X152224400Y-64181294D01*
X152168678Y-64461427D01*
X152059373Y-64725313D01*
X151900687Y-64962804D01*
X151698724Y-65164767D01*
X151461233Y-65323453D01*
X151197347Y-65432758D01*
X150917214Y-65488480D01*
X150631586Y-65488480D01*
X150351453Y-65432758D01*
X150087567Y-65323453D01*
X149850076Y-65164767D01*
X149648113Y-64962804D01*
X149489427Y-64725313D01*
X149380122Y-64461427D01*
X149324400Y-64181294D01*
X149324400Y-63895666D01*
X149380122Y-63615533D01*
X149489427Y-63351647D01*
X149648113Y-63114156D01*
X149850076Y-62912193D01*
X150087567Y-62753507D01*
X150351453Y-62644202D01*
X150631586Y-62588480D01*
X150917214Y-62588480D01*
X151197347Y-62644202D01*
X151197347Y-62644202D01*
G37*
G36*
X167518707Y-62627596D02*
X167595836Y-62635193D01*
X167727787Y-62675220D01*
X167793763Y-62695233D01*
X167976172Y-62792733D01*
X168136054Y-62923946D01*
X168267267Y-63083828D01*
X168364767Y-63266237D01*
X168364767Y-63266238D01*
X168424807Y-63464164D01*
X168445080Y-63670000D01*
X168424807Y-63875836D01*
X168384780Y-64007787D01*
X168364767Y-64073763D01*
X168267267Y-64256172D01*
X168136054Y-64416054D01*
X167976172Y-64547267D01*
X167793763Y-64644767D01*
X167727787Y-64664780D01*
X167595836Y-64704807D01*
X167518707Y-64712403D01*
X167441580Y-64720000D01*
X167338420Y-64720000D01*
X167261293Y-64712403D01*
X167184164Y-64704807D01*
X167052213Y-64664780D01*
X166986237Y-64644767D01*
X166803828Y-64547267D01*
X166643946Y-64416054D01*
X166512733Y-64256172D01*
X166415233Y-64073763D01*
X166395220Y-64007787D01*
X166355193Y-63875836D01*
X166334920Y-63670000D01*
X166355193Y-63464164D01*
X166415233Y-63266238D01*
X166415233Y-63266237D01*
X166512733Y-63083828D01*
X166643946Y-62923946D01*
X166803828Y-62792733D01*
X166986237Y-62695233D01*
X167052213Y-62675220D01*
X167184164Y-62635193D01*
X167261293Y-62627596D01*
X167338420Y-62620000D01*
X167441580Y-62620000D01*
X167518707Y-62627596D01*
X167518707Y-62627596D01*
G37*
G36*
X164975888Y-62624470D02*
X165156274Y-62660350D01*
X165347362Y-62739502D01*
X165519336Y-62854411D01*
X165665589Y-63000664D01*
X165780498Y-63172638D01*
X165859650Y-63363726D01*
X165900000Y-63566584D01*
X165900000Y-63773416D01*
X165859650Y-63976274D01*
X165780498Y-64167362D01*
X165665589Y-64339336D01*
X165519336Y-64485589D01*
X165347362Y-64600498D01*
X165156274Y-64679650D01*
X164975888Y-64715530D01*
X164953417Y-64720000D01*
X164746583Y-64720000D01*
X164724112Y-64715530D01*
X164543726Y-64679650D01*
X164352638Y-64600498D01*
X164180664Y-64485589D01*
X164034411Y-64339336D01*
X163919502Y-64167362D01*
X163840350Y-63976274D01*
X163800000Y-63773416D01*
X163800000Y-63566584D01*
X163840350Y-63363726D01*
X163919502Y-63172638D01*
X164034411Y-63000664D01*
X164180664Y-62854411D01*
X164352638Y-62739502D01*
X164543726Y-62660350D01*
X164724112Y-62624470D01*
X164746583Y-62620000D01*
X164953417Y-62620000D01*
X164975888Y-62624470D01*
X164975888Y-62624470D01*
G37*
M02*
