G04 #@! TF.FileFunction,Legend,Top*
%FSLAX46Y46*%
G04 Gerber Fmt 4.6, Leading zero omitted, Abs format (unit mm)*
G04 Created by KiCad (PCBNEW 4.0.4-stable) date 02/17/18 19:30:39*
%MOMM*%
%LPD*%
G01*
G04 APERTURE LIST*
%ADD10C,0.100000*%
%ADD11C,0.300000*%
%ADD12C,0.200000*%
%ADD13C,0.175000*%
%ADD14C,0.150000*%
G04 APERTURE END LIST*
D10*
D11*
X165517143Y-69742857D02*
X165731429Y-69814286D01*
X165802857Y-69885714D01*
X165874286Y-70028571D01*
X165874286Y-70242857D01*
X165802857Y-70385714D01*
X165731429Y-70457143D01*
X165588571Y-70528571D01*
X165017143Y-70528571D01*
X165017143Y-69028571D01*
X165517143Y-69028571D01*
X165660000Y-69100000D01*
X165731429Y-69171429D01*
X165802857Y-69314286D01*
X165802857Y-69457143D01*
X165731429Y-69600000D01*
X165660000Y-69671429D01*
X165517143Y-69742857D01*
X165017143Y-69742857D01*
X166731429Y-70528571D02*
X166588571Y-70457143D01*
X166517143Y-70385714D01*
X166445714Y-70242857D01*
X166445714Y-69814286D01*
X166517143Y-69671429D01*
X166588571Y-69600000D01*
X166731429Y-69528571D01*
X166945714Y-69528571D01*
X167088571Y-69600000D01*
X167160000Y-69671429D01*
X167231429Y-69814286D01*
X167231429Y-70242857D01*
X167160000Y-70385714D01*
X167088571Y-70457143D01*
X166945714Y-70528571D01*
X166731429Y-70528571D01*
X168088572Y-70528571D02*
X167945714Y-70457143D01*
X167874286Y-70385714D01*
X167802857Y-70242857D01*
X167802857Y-69814286D01*
X167874286Y-69671429D01*
X167945714Y-69600000D01*
X168088572Y-69528571D01*
X168302857Y-69528571D01*
X168445714Y-69600000D01*
X168517143Y-69671429D01*
X168588572Y-69814286D01*
X168588572Y-70242857D01*
X168517143Y-70385714D01*
X168445714Y-70457143D01*
X168302857Y-70528571D01*
X168088572Y-70528571D01*
X169160000Y-70457143D02*
X169302857Y-70528571D01*
X169588572Y-70528571D01*
X169731429Y-70457143D01*
X169802857Y-70314286D01*
X169802857Y-70242857D01*
X169731429Y-70100000D01*
X169588572Y-70028571D01*
X169374286Y-70028571D01*
X169231429Y-69957143D01*
X169160000Y-69814286D01*
X169160000Y-69742857D01*
X169231429Y-69600000D01*
X169374286Y-69528571D01*
X169588572Y-69528571D01*
X169731429Y-69600000D01*
X170231429Y-69528571D02*
X170802858Y-69528571D01*
X170445715Y-69028571D02*
X170445715Y-70314286D01*
X170517143Y-70457143D01*
X170660001Y-70528571D01*
X170802858Y-70528571D01*
X171874286Y-70457143D02*
X171731429Y-70528571D01*
X171445715Y-70528571D01*
X171302858Y-70457143D01*
X171231429Y-70314286D01*
X171231429Y-69742857D01*
X171302858Y-69600000D01*
X171445715Y-69528571D01*
X171731429Y-69528571D01*
X171874286Y-69600000D01*
X171945715Y-69742857D01*
X171945715Y-69885714D01*
X171231429Y-70028571D01*
X172588572Y-70528571D02*
X172588572Y-69528571D01*
X172588572Y-69814286D02*
X172660000Y-69671429D01*
X172731429Y-69600000D01*
X172874286Y-69528571D01*
X173017143Y-69528571D01*
X166481429Y-86887857D02*
X166695715Y-86959286D01*
X166767143Y-87030714D01*
X166838572Y-87173571D01*
X166838572Y-87387857D01*
X166767143Y-87530714D01*
X166695715Y-87602143D01*
X166552857Y-87673571D01*
X165981429Y-87673571D01*
X165981429Y-86173571D01*
X166481429Y-86173571D01*
X166624286Y-86245000D01*
X166695715Y-86316429D01*
X166767143Y-86459286D01*
X166767143Y-86602143D01*
X166695715Y-86745000D01*
X166624286Y-86816429D01*
X166481429Y-86887857D01*
X165981429Y-86887857D01*
X168124286Y-87673571D02*
X168124286Y-86887857D01*
X168052857Y-86745000D01*
X167910000Y-86673571D01*
X167624286Y-86673571D01*
X167481429Y-86745000D01*
X168124286Y-87602143D02*
X167981429Y-87673571D01*
X167624286Y-87673571D01*
X167481429Y-87602143D01*
X167410000Y-87459286D01*
X167410000Y-87316429D01*
X167481429Y-87173571D01*
X167624286Y-87102143D01*
X167981429Y-87102143D01*
X168124286Y-87030714D01*
X168624286Y-86673571D02*
X169195715Y-86673571D01*
X168838572Y-86173571D02*
X168838572Y-87459286D01*
X168910000Y-87602143D01*
X169052858Y-87673571D01*
X169195715Y-87673571D01*
X170838572Y-87673571D02*
X170838572Y-86173571D01*
X171338572Y-87245000D01*
X171838572Y-86173571D01*
X171838572Y-87673571D01*
X166410000Y-104667857D02*
X166910000Y-104667857D01*
X167124286Y-105453571D02*
X166410000Y-105453571D01*
X166410000Y-103953571D01*
X167124286Y-103953571D01*
X167624286Y-105453571D02*
X168410000Y-104453571D01*
X167624286Y-104453571D02*
X168410000Y-105453571D01*
X168767143Y-104453571D02*
X169338572Y-104453571D01*
X168981429Y-103953571D02*
X168981429Y-105239286D01*
X169052857Y-105382143D01*
X169195715Y-105453571D01*
X169338572Y-105453571D01*
X169838572Y-105453571D02*
X169838572Y-104453571D01*
X169838572Y-104739286D02*
X169910000Y-104596429D01*
X169981429Y-104525000D01*
X170124286Y-104453571D01*
X170267143Y-104453571D01*
X171410000Y-105453571D02*
X171410000Y-104667857D01*
X171338571Y-104525000D01*
X171195714Y-104453571D01*
X170910000Y-104453571D01*
X170767143Y-104525000D01*
X171410000Y-105382143D02*
X171267143Y-105453571D01*
X170910000Y-105453571D01*
X170767143Y-105382143D01*
X170695714Y-105239286D01*
X170695714Y-105096429D01*
X170767143Y-104953571D01*
X170910000Y-104882143D01*
X171267143Y-104882143D01*
X171410000Y-104810714D01*
X148677857Y-96563571D02*
X148677857Y-95063571D01*
X149249285Y-95063571D01*
X149392143Y-95135000D01*
X149463571Y-95206429D01*
X149535000Y-95349286D01*
X149535000Y-95563571D01*
X149463571Y-95706429D01*
X149392143Y-95777857D01*
X149249285Y-95849286D01*
X148677857Y-95849286D01*
X150177857Y-96563571D02*
X150177857Y-95563571D01*
X150177857Y-95849286D02*
X150249285Y-95706429D01*
X150320714Y-95635000D01*
X150463571Y-95563571D01*
X150606428Y-95563571D01*
X151320714Y-96563571D02*
X151177856Y-96492143D01*
X151106428Y-96420714D01*
X151034999Y-96277857D01*
X151034999Y-95849286D01*
X151106428Y-95706429D01*
X151177856Y-95635000D01*
X151320714Y-95563571D01*
X151534999Y-95563571D01*
X151677856Y-95635000D01*
X151749285Y-95706429D01*
X151820714Y-95849286D01*
X151820714Y-96277857D01*
X151749285Y-96420714D01*
X151677856Y-96492143D01*
X151534999Y-96563571D01*
X151320714Y-96563571D01*
X153606428Y-96563571D02*
X153606428Y-95063571D01*
X154106428Y-96135000D01*
X154606428Y-95063571D01*
X154606428Y-96563571D01*
X155320714Y-96563571D02*
X155320714Y-95563571D01*
X155320714Y-95063571D02*
X155249285Y-95135000D01*
X155320714Y-95206429D01*
X155392142Y-95135000D01*
X155320714Y-95063571D01*
X155320714Y-95206429D01*
X156035000Y-95563571D02*
X156035000Y-96563571D01*
X156035000Y-95706429D02*
X156106428Y-95635000D01*
X156249286Y-95563571D01*
X156463571Y-95563571D01*
X156606428Y-95635000D01*
X156677857Y-95777857D01*
X156677857Y-96563571D01*
X157392143Y-96563571D02*
X157392143Y-95563571D01*
X157392143Y-95063571D02*
X157320714Y-95135000D01*
X157392143Y-95206429D01*
X157463571Y-95135000D01*
X157392143Y-95063571D01*
X157392143Y-95206429D01*
X151185715Y-75608571D02*
X150685715Y-74894286D01*
X150328572Y-75608571D02*
X150328572Y-74108571D01*
X150900000Y-74108571D01*
X151042858Y-74180000D01*
X151114286Y-74251429D01*
X151185715Y-74394286D01*
X151185715Y-74608571D01*
X151114286Y-74751429D01*
X151042858Y-74822857D01*
X150900000Y-74894286D01*
X150328572Y-74894286D01*
X152400000Y-75537143D02*
X152257143Y-75608571D01*
X151971429Y-75608571D01*
X151828572Y-75537143D01*
X151757143Y-75394286D01*
X151757143Y-74822857D01*
X151828572Y-74680000D01*
X151971429Y-74608571D01*
X152257143Y-74608571D01*
X152400000Y-74680000D01*
X152471429Y-74822857D01*
X152471429Y-74965714D01*
X151757143Y-75108571D01*
X153757143Y-74608571D02*
X153757143Y-75822857D01*
X153685714Y-75965714D01*
X153614286Y-76037143D01*
X153471429Y-76108571D01*
X153257143Y-76108571D01*
X153114286Y-76037143D01*
X153757143Y-75537143D02*
X153614286Y-75608571D01*
X153328572Y-75608571D01*
X153185714Y-75537143D01*
X153114286Y-75465714D01*
X153042857Y-75322857D01*
X153042857Y-74894286D01*
X153114286Y-74751429D01*
X153185714Y-74680000D01*
X153328572Y-74608571D01*
X153614286Y-74608571D01*
X153757143Y-74680000D01*
X154471429Y-75465714D02*
X154542857Y-75537143D01*
X154471429Y-75608571D01*
X154400000Y-75537143D01*
X154471429Y-75465714D01*
X154471429Y-75608571D01*
X149435715Y-67353571D02*
X149435715Y-65853571D01*
X150007143Y-65853571D01*
X150150001Y-65925000D01*
X150221429Y-65996429D01*
X150292858Y-66139286D01*
X150292858Y-66353571D01*
X150221429Y-66496429D01*
X150150001Y-66567857D01*
X150007143Y-66639286D01*
X149435715Y-66639286D01*
X151150001Y-67353571D02*
X151007143Y-67282143D01*
X150935715Y-67210714D01*
X150864286Y-67067857D01*
X150864286Y-66639286D01*
X150935715Y-66496429D01*
X151007143Y-66425000D01*
X151150001Y-66353571D01*
X151364286Y-66353571D01*
X151507143Y-66425000D01*
X151578572Y-66496429D01*
X151650001Y-66639286D01*
X151650001Y-67067857D01*
X151578572Y-67210714D01*
X151507143Y-67282143D01*
X151364286Y-67353571D01*
X151150001Y-67353571D01*
X152150001Y-66353571D02*
X152435715Y-67353571D01*
X152721429Y-66639286D01*
X153007144Y-67353571D01*
X153292858Y-66353571D01*
X154435715Y-67282143D02*
X154292858Y-67353571D01*
X154007144Y-67353571D01*
X153864287Y-67282143D01*
X153792858Y-67139286D01*
X153792858Y-66567857D01*
X153864287Y-66425000D01*
X154007144Y-66353571D01*
X154292858Y-66353571D01*
X154435715Y-66425000D01*
X154507144Y-66567857D01*
X154507144Y-66710714D01*
X153792858Y-66853571D01*
X155150001Y-67353571D02*
X155150001Y-66353571D01*
X155150001Y-66639286D02*
X155221429Y-66496429D01*
X155292858Y-66425000D01*
X155435715Y-66353571D01*
X155578572Y-66353571D01*
X130786429Y-73703571D02*
X130286429Y-72989286D01*
X129929286Y-73703571D02*
X129929286Y-72203571D01*
X130500714Y-72203571D01*
X130643572Y-72275000D01*
X130715000Y-72346429D01*
X130786429Y-72489286D01*
X130786429Y-72703571D01*
X130715000Y-72846429D01*
X130643572Y-72917857D01*
X130500714Y-72989286D01*
X129929286Y-72989286D01*
X132072143Y-73703571D02*
X132072143Y-72917857D01*
X132000714Y-72775000D01*
X131857857Y-72703571D01*
X131572143Y-72703571D01*
X131429286Y-72775000D01*
X132072143Y-73632143D02*
X131929286Y-73703571D01*
X131572143Y-73703571D01*
X131429286Y-73632143D01*
X131357857Y-73489286D01*
X131357857Y-73346429D01*
X131429286Y-73203571D01*
X131572143Y-73132143D01*
X131929286Y-73132143D01*
X132072143Y-73060714D01*
X133429286Y-73703571D02*
X133429286Y-72203571D01*
X133429286Y-73632143D02*
X133286429Y-73703571D01*
X133000715Y-73703571D01*
X132857857Y-73632143D01*
X132786429Y-73560714D01*
X132715000Y-73417857D01*
X132715000Y-72989286D01*
X132786429Y-72846429D01*
X132857857Y-72775000D01*
X133000715Y-72703571D01*
X133286429Y-72703571D01*
X133429286Y-72775000D01*
X134143572Y-73703571D02*
X134143572Y-72703571D01*
X134143572Y-72203571D02*
X134072143Y-72275000D01*
X134143572Y-72346429D01*
X134215000Y-72275000D01*
X134143572Y-72203571D01*
X134143572Y-72346429D01*
X135072144Y-73703571D02*
X134929286Y-73632143D01*
X134857858Y-73560714D01*
X134786429Y-73417857D01*
X134786429Y-72989286D01*
X134857858Y-72846429D01*
X134929286Y-72775000D01*
X135072144Y-72703571D01*
X135286429Y-72703571D01*
X135429286Y-72775000D01*
X135500715Y-72846429D01*
X135572144Y-72989286D01*
X135572144Y-73417857D01*
X135500715Y-73560714D01*
X135429286Y-73632143D01*
X135286429Y-73703571D01*
X135072144Y-73703571D01*
D12*
X136021667Y-106964523D02*
X136021667Y-106559761D01*
X136264524Y-107045476D02*
X135414524Y-106762142D01*
X136264524Y-106478809D01*
X136264524Y-105750238D02*
X136264524Y-106235952D01*
X136264524Y-105993095D02*
X135414524Y-105993095D01*
X135535952Y-106074047D01*
X135616905Y-106155000D01*
X135657381Y-106235952D01*
X136021667Y-104778809D02*
X136021667Y-104374047D01*
X136264524Y-104859762D02*
X135414524Y-104576428D01*
X136264524Y-104293095D01*
X135697857Y-103645476D02*
X136264524Y-103645476D01*
X135374048Y-103847857D02*
X135981190Y-104050238D01*
X135981190Y-103524048D01*
X136264524Y-102552619D02*
X135414524Y-102552619D01*
X135414524Y-102350238D01*
X135455000Y-102228810D01*
X135535952Y-102147857D01*
X135616905Y-102107381D01*
X135778810Y-102066905D01*
X135900238Y-102066905D01*
X136062143Y-102107381D01*
X136143095Y-102147857D01*
X136224048Y-102228810D01*
X136264524Y-102350238D01*
X136264524Y-102552619D01*
X135414524Y-101338333D02*
X135414524Y-101500238D01*
X135455000Y-101581190D01*
X135495476Y-101621667D01*
X135616905Y-101702619D01*
X135778810Y-101743095D01*
X136102619Y-101743095D01*
X136183571Y-101702619D01*
X136224048Y-101662143D01*
X136264524Y-101581190D01*
X136264524Y-101419286D01*
X136224048Y-101338333D01*
X136183571Y-101297857D01*
X136102619Y-101257381D01*
X135900238Y-101257381D01*
X135819286Y-101297857D01*
X135778810Y-101338333D01*
X135738333Y-101419286D01*
X135738333Y-101581190D01*
X135778810Y-101662143D01*
X135819286Y-101702619D01*
X135900238Y-101743095D01*
X136264524Y-100245476D02*
X135414524Y-100245476D01*
X135414524Y-100043095D01*
X135455000Y-99921667D01*
X135535952Y-99840714D01*
X135616905Y-99800238D01*
X135778810Y-99759762D01*
X135900238Y-99759762D01*
X136062143Y-99800238D01*
X136143095Y-99840714D01*
X136224048Y-99921667D01*
X136264524Y-100043095D01*
X136264524Y-100245476D01*
X135495476Y-99435952D02*
X135455000Y-99395476D01*
X135414524Y-99314524D01*
X135414524Y-99112143D01*
X135455000Y-99031190D01*
X135495476Y-98990714D01*
X135576429Y-98950238D01*
X135657381Y-98950238D01*
X135778810Y-98990714D01*
X136264524Y-99476428D01*
X136264524Y-98950238D01*
X135455000Y-97493095D02*
X135414524Y-97574047D01*
X135414524Y-97695476D01*
X135455000Y-97816904D01*
X135535952Y-97897857D01*
X135616905Y-97938333D01*
X135778810Y-97978809D01*
X135900238Y-97978809D01*
X136062143Y-97938333D01*
X136143095Y-97897857D01*
X136224048Y-97816904D01*
X136264524Y-97695476D01*
X136264524Y-97614524D01*
X136224048Y-97493095D01*
X136183571Y-97452619D01*
X135900238Y-97452619D01*
X135900238Y-97614524D01*
X136264524Y-97088333D02*
X135414524Y-97088333D01*
X136264524Y-96602619D01*
X135414524Y-96602619D01*
X136264524Y-96197857D02*
X135414524Y-96197857D01*
X135414524Y-95995476D01*
X135455000Y-95874048D01*
X135535952Y-95793095D01*
X135616905Y-95752619D01*
X135778810Y-95712143D01*
X135900238Y-95712143D01*
X136062143Y-95752619D01*
X136143095Y-95793095D01*
X136224048Y-95874048D01*
X136264524Y-95995476D01*
X136264524Y-96197857D01*
X136264524Y-94214524D02*
X135859762Y-94497857D01*
X136264524Y-94700238D02*
X135414524Y-94700238D01*
X135414524Y-94376429D01*
X135455000Y-94295476D01*
X135495476Y-94255000D01*
X135576429Y-94214524D01*
X135697857Y-94214524D01*
X135778810Y-94255000D01*
X135819286Y-94295476D01*
X135859762Y-94376429D01*
X135859762Y-94700238D01*
X135414524Y-93931190D02*
X136264524Y-93364524D01*
X135414524Y-93364524D02*
X136264524Y-93931190D01*
X135455000Y-91947857D02*
X135414524Y-92028809D01*
X135414524Y-92150238D01*
X135455000Y-92271666D01*
X135535952Y-92352619D01*
X135616905Y-92393095D01*
X135778810Y-92433571D01*
X135900238Y-92433571D01*
X136062143Y-92393095D01*
X136143095Y-92352619D01*
X136224048Y-92271666D01*
X136264524Y-92150238D01*
X136264524Y-92069286D01*
X136224048Y-91947857D01*
X136183571Y-91907381D01*
X135900238Y-91907381D01*
X135900238Y-92069286D01*
X136264524Y-91543095D02*
X135414524Y-91543095D01*
X136264524Y-91057381D01*
X135414524Y-91057381D01*
X136264524Y-90652619D02*
X135414524Y-90652619D01*
X135414524Y-90450238D01*
X135455000Y-90328810D01*
X135535952Y-90247857D01*
X135616905Y-90207381D01*
X135778810Y-90166905D01*
X135900238Y-90166905D01*
X136062143Y-90207381D01*
X136143095Y-90247857D01*
X136224048Y-90328810D01*
X136264524Y-90450238D01*
X136264524Y-90652619D01*
X135414524Y-89235952D02*
X135414524Y-88709762D01*
X135738333Y-88993095D01*
X135738333Y-88871667D01*
X135778810Y-88790714D01*
X135819286Y-88750238D01*
X135900238Y-88709762D01*
X136102619Y-88709762D01*
X136183571Y-88750238D01*
X136224048Y-88790714D01*
X136264524Y-88871667D01*
X136264524Y-89114524D01*
X136224048Y-89195476D01*
X136183571Y-89235952D01*
X136224048Y-88305000D02*
X136264524Y-88305000D01*
X136345476Y-88345476D01*
X136385952Y-88385952D01*
X135414524Y-88021666D02*
X135414524Y-87495476D01*
X135738333Y-87778809D01*
X135738333Y-87657381D01*
X135778810Y-87576428D01*
X135819286Y-87535952D01*
X135900238Y-87495476D01*
X136102619Y-87495476D01*
X136183571Y-87535952D01*
X136224048Y-87576428D01*
X136264524Y-87657381D01*
X136264524Y-87900238D01*
X136224048Y-87981190D01*
X136183571Y-88021666D01*
D13*
X134681667Y-107053571D02*
X134681667Y-106648809D01*
X134924524Y-107134524D02*
X134074524Y-106851190D01*
X134924524Y-106567857D01*
X134074524Y-106122619D02*
X134074524Y-106041667D01*
X134115000Y-105960715D01*
X134155476Y-105920238D01*
X134236429Y-105879762D01*
X134398333Y-105839286D01*
X134600714Y-105839286D01*
X134762619Y-105879762D01*
X134843571Y-105920238D01*
X134884048Y-105960715D01*
X134924524Y-106041667D01*
X134924524Y-106122619D01*
X134884048Y-106203572D01*
X134843571Y-106244048D01*
X134762619Y-106284524D01*
X134600714Y-106325000D01*
X134398333Y-106325000D01*
X134236429Y-106284524D01*
X134155476Y-106244048D01*
X134115000Y-106203572D01*
X134074524Y-106122619D01*
X134681667Y-104867857D02*
X134681667Y-104463095D01*
X134924524Y-104948810D02*
X134074524Y-104665476D01*
X134924524Y-104382143D01*
X134074524Y-103694048D02*
X134074524Y-104098810D01*
X134479286Y-104139286D01*
X134438810Y-104098810D01*
X134398333Y-104017858D01*
X134398333Y-103815477D01*
X134438810Y-103734524D01*
X134479286Y-103694048D01*
X134560238Y-103653572D01*
X134762619Y-103653572D01*
X134843571Y-103694048D01*
X134884048Y-103734524D01*
X134924524Y-103815477D01*
X134924524Y-104017858D01*
X134884048Y-104098810D01*
X134843571Y-104139286D01*
X134924524Y-102641667D02*
X134074524Y-102641667D01*
X134074524Y-102439286D01*
X134115000Y-102317858D01*
X134195952Y-102236905D01*
X134276905Y-102196429D01*
X134438810Y-102155953D01*
X134560238Y-102155953D01*
X134722143Y-102196429D01*
X134803095Y-102236905D01*
X134884048Y-102317858D01*
X134924524Y-102439286D01*
X134924524Y-102641667D01*
X134074524Y-101386905D02*
X134074524Y-101791667D01*
X134479286Y-101832143D01*
X134438810Y-101791667D01*
X134398333Y-101710715D01*
X134398333Y-101508334D01*
X134438810Y-101427381D01*
X134479286Y-101386905D01*
X134560238Y-101346429D01*
X134762619Y-101346429D01*
X134843571Y-101386905D01*
X134884048Y-101427381D01*
X134924524Y-101508334D01*
X134924524Y-101710715D01*
X134884048Y-101791667D01*
X134843571Y-101832143D01*
X134924524Y-100334524D02*
X134074524Y-100334524D01*
X134074524Y-100132143D01*
X134115000Y-100010715D01*
X134195952Y-99929762D01*
X134276905Y-99889286D01*
X134438810Y-99848810D01*
X134560238Y-99848810D01*
X134722143Y-99889286D01*
X134803095Y-99929762D01*
X134884048Y-100010715D01*
X134924524Y-100132143D01*
X134924524Y-100334524D01*
X134074524Y-99565476D02*
X134074524Y-99039286D01*
X134398333Y-99322619D01*
X134398333Y-99201191D01*
X134438810Y-99120238D01*
X134479286Y-99079762D01*
X134560238Y-99039286D01*
X134762619Y-99039286D01*
X134843571Y-99079762D01*
X134884048Y-99120238D01*
X134924524Y-99201191D01*
X134924524Y-99444048D01*
X134884048Y-99525000D01*
X134843571Y-99565476D01*
X134924524Y-97541667D02*
X134519762Y-97825000D01*
X134924524Y-98027381D02*
X134074524Y-98027381D01*
X134074524Y-97703572D01*
X134115000Y-97622619D01*
X134155476Y-97582143D01*
X134236429Y-97541667D01*
X134357857Y-97541667D01*
X134438810Y-97582143D01*
X134479286Y-97622619D01*
X134519762Y-97703572D01*
X134519762Y-98027381D01*
X134884048Y-97217857D02*
X134924524Y-97096429D01*
X134924524Y-96894048D01*
X134884048Y-96813095D01*
X134843571Y-96772619D01*
X134762619Y-96732143D01*
X134681667Y-96732143D01*
X134600714Y-96772619D01*
X134560238Y-96813095D01*
X134519762Y-96894048D01*
X134479286Y-97055952D01*
X134438810Y-97136905D01*
X134398333Y-97177381D01*
X134317381Y-97217857D01*
X134236429Y-97217857D01*
X134155476Y-97177381D01*
X134115000Y-97136905D01*
X134074524Y-97055952D01*
X134074524Y-96853572D01*
X134115000Y-96732143D01*
X134074524Y-96489286D02*
X134074524Y-96003571D01*
X134924524Y-96246428D02*
X134074524Y-96246428D01*
X134074524Y-95194048D02*
X134074524Y-94708333D01*
X134924524Y-94951190D02*
X134074524Y-94951190D01*
X134074524Y-94505952D02*
X134924524Y-93939286D01*
X134074524Y-93939286D02*
X134924524Y-94505952D01*
X134074524Y-93089286D02*
X134924524Y-92805952D01*
X134074524Y-92522619D01*
X134843571Y-91753572D02*
X134884048Y-91794048D01*
X134924524Y-91915477D01*
X134924524Y-91996429D01*
X134884048Y-92117857D01*
X134803095Y-92198810D01*
X134722143Y-92239286D01*
X134560238Y-92279762D01*
X134438810Y-92279762D01*
X134276905Y-92239286D01*
X134195952Y-92198810D01*
X134115000Y-92117857D01*
X134074524Y-91996429D01*
X134074524Y-91915477D01*
X134115000Y-91794048D01*
X134155476Y-91753572D01*
X134843571Y-90903572D02*
X134884048Y-90944048D01*
X134924524Y-91065477D01*
X134924524Y-91146429D01*
X134884048Y-91267857D01*
X134803095Y-91348810D01*
X134722143Y-91389286D01*
X134560238Y-91429762D01*
X134438810Y-91429762D01*
X134276905Y-91389286D01*
X134195952Y-91348810D01*
X134115000Y-91267857D01*
X134074524Y-91146429D01*
X134074524Y-91065477D01*
X134115000Y-90944048D01*
X134155476Y-90903572D01*
X134924524Y-89405953D02*
X134519762Y-89689286D01*
X134924524Y-89891667D02*
X134074524Y-89891667D01*
X134074524Y-89567858D01*
X134115000Y-89486905D01*
X134155476Y-89446429D01*
X134236429Y-89405953D01*
X134357857Y-89405953D01*
X134438810Y-89446429D01*
X134479286Y-89486905D01*
X134519762Y-89567858D01*
X134519762Y-89891667D01*
X134924524Y-88677381D02*
X134479286Y-88677381D01*
X134398333Y-88717858D01*
X134357857Y-88798810D01*
X134357857Y-88960715D01*
X134398333Y-89041667D01*
X134884048Y-88677381D02*
X134924524Y-88758334D01*
X134924524Y-88960715D01*
X134884048Y-89041667D01*
X134803095Y-89082143D01*
X134722143Y-89082143D01*
X134641190Y-89041667D01*
X134600714Y-88960715D01*
X134600714Y-88758334D01*
X134560238Y-88677381D01*
X134357857Y-88353571D02*
X134924524Y-88191667D01*
X134519762Y-88029762D01*
X134924524Y-87867857D01*
X134357857Y-87705952D01*
D14*
X128240000Y-89570000D02*
X128240000Y-107350000D01*
X128240000Y-107350000D02*
X133320000Y-107350000D01*
X133320000Y-107350000D02*
X133320000Y-87030000D01*
X133320000Y-87030000D02*
X130780000Y-87030000D01*
X129510000Y-86750000D02*
X127960000Y-86750000D01*
X130780000Y-87030000D02*
X130780000Y-89570000D01*
X130780000Y-89570000D02*
X128240000Y-89570000D01*
X127960000Y-86750000D02*
X127960000Y-88300000D01*
X137992857Y-107052857D02*
X136792857Y-107052857D01*
X137650000Y-106652857D01*
X136792857Y-106252857D01*
X137992857Y-106252857D01*
X137421429Y-105452856D02*
X137992857Y-105452856D01*
X136792857Y-105852856D02*
X137421429Y-105452856D01*
X136792857Y-105052856D01*
X137935714Y-104710000D02*
X137992857Y-104538571D01*
X137992857Y-104252857D01*
X137935714Y-104138571D01*
X137878571Y-104081428D01*
X137764286Y-104024285D01*
X137650000Y-104024285D01*
X137535714Y-104081428D01*
X137478571Y-104138571D01*
X137421429Y-104252857D01*
X137364286Y-104481428D01*
X137307143Y-104595714D01*
X137250000Y-104652857D01*
X137135714Y-104710000D01*
X137021429Y-104710000D01*
X136907143Y-104652857D01*
X136850000Y-104595714D01*
X136792857Y-104481428D01*
X136792857Y-104195714D01*
X136850000Y-104024285D01*
X136792857Y-103624285D02*
X137992857Y-102824285D01*
X136792857Y-102824285D02*
X137992857Y-103624285D01*
X138107143Y-102652857D02*
X138107143Y-101738571D01*
X136907143Y-101510000D02*
X136850000Y-101452857D01*
X136792857Y-101338571D01*
X136792857Y-101052857D01*
X136850000Y-100938571D01*
X136907143Y-100881428D01*
X137021429Y-100824285D01*
X137135714Y-100824285D01*
X137307143Y-100881428D01*
X137992857Y-101567142D01*
X137992857Y-100824285D01*
X137878571Y-100310000D02*
X137935714Y-100252857D01*
X137992857Y-100310000D01*
X137935714Y-100367143D01*
X137878571Y-100310000D01*
X137992857Y-100310000D01*
X137192857Y-99224285D02*
X137992857Y-99224285D01*
X136735714Y-99509999D02*
X137592857Y-99795714D01*
X137592857Y-99052856D01*
M02*
