M48
INCH,TZ
T1C0.0157
T2C0.0315
T3C0.0315
T4C0.0394
T5C0.0400
T6C0.0669
%
G90
G05
T1
X49750Y-37876
X49800Y-40630
X50594Y-33460
X50832Y-34528
X50867Y-34210
X50901Y-33531
X51142Y-36255
X51545Y-36457
X52562Y-35061
X52923Y-35241
X53128Y-33907
X54286Y-31738
X54330Y-32538
X54668Y-42366
X54688Y-27060
X54694Y-28712
X54956Y-31144
X55344Y-41161
X56711Y-33047
X56720Y-32445
X56975Y-31750
X57055Y-33055
X62201Y-32619
X62885Y-33130
X63917Y-33768
X63930Y-33130
T2
X60140Y-36870
X61124Y-36870
X61007Y-39003
X61548Y-39672
X62079Y-38993
X64890Y-42697
X65874Y-42697
X64909Y-34693
X67909Y-34693
X62390Y-36870
X63374Y-36870
X57890Y-27412
X57890Y-34144
X58678Y-27412
X58678Y-34144
X59465Y-27412
X59465Y-34144
X60253Y-27412
X60253Y-34144
X61040Y-27412
X61040Y-34144
X61827Y-27412
X61827Y-34144
X62615Y-27412
X62615Y-34144
X63402Y-27412
X63402Y-34144
X52035Y-40195
X56035Y-40195
X65945Y-36449
X66929Y-36449
X64909Y-33429
X67909Y-33429
T3
X49980Y-25960
X49980Y-26960
X49980Y-27960
X49980Y-28960
X49980Y-29960
X49980Y-30960
X49980Y-31960
X49980Y-32960
X49980Y-33960
X49980Y-34960
X49980Y-35960
X49980Y-36960
X52980Y-36960
X53980Y-36960
X54980Y-29460
X54980Y-30460
X54980Y-33460
X54980Y-34460
X54980Y-36960
X55980Y-25960
X55980Y-26960
X55980Y-27960
X55980Y-28960
X55980Y-29960
X55980Y-30960
X55980Y-31960
X55980Y-32960
X55980Y-33960
X55980Y-34960
X55980Y-35960
X55980Y-36960
T4
X62300Y-25620
X64921Y-31118
X65921Y-31118
X66921Y-31118
X67921Y-31118
X65551Y-39677
X66551Y-39677
X67551Y-39677
X64917Y-26039
X65917Y-26039
X64917Y-30039
X65917Y-30039
X66917Y-30039
X67917Y-30039
X64921Y-28047
X65921Y-28047
X66921Y-28047
X67921Y-28047
X53710Y-38605
X54710Y-38605
X64917Y-29047
X65917Y-29047
X66917Y-29047
X67917Y-29047
X64925Y-27067
X65925Y-27067
X66925Y-27067
X67925Y-27067
X58800Y-38200
X58800Y-39200
X64925Y-25043
X65925Y-25043
X57385Y-38190
X57385Y-39190
T5
X50100Y-41880
X50100Y-42880
X51100Y-41880
X51100Y-42880
X52100Y-41880
X52100Y-42880
X53100Y-41880
X53100Y-42880
X54100Y-41880
X54100Y-42880
X55100Y-41880
X55100Y-42880
X56100Y-41880
X56100Y-42880
X57100Y-41880
X57100Y-42880
T6
X59200Y-41980
X61094Y-41980
X63062Y-41980
T0
M30
