G04 #@! TF.GenerationSoftware,KiCad,Pcbnew,5.0.2-bee76a0~70~ubuntu18.04.1*
G04 #@! TF.CreationDate,2019-05-01T22:15:31+02:00*
G04 #@! TF.ProjectId,EasyPCB_10_RFM69hw,45617379-5043-4425-9f31-305f52464d36,rev?*
G04 #@! TF.SameCoordinates,Original*
G04 #@! TF.FileFunction,Copper,L1,Top*
G04 #@! TF.FilePolarity,Positive*
%FSLAX46Y46*%
G04 Gerber Fmt 4.6, Leading zero omitted, Abs format (unit mm)*
G04 Created by KiCad (PCBNEW 5.0.2-bee76a0~70~ubuntu18.04.1) date Wed 01 May 2019 10:15:31 PM CEST*
%MOMM*%
%LPD*%
G01*
G04 APERTURE LIST*
G04 #@! TA.AperFunction,ComponentPad*
%ADD10C,1.700000*%
G04 #@! TD*
G04 #@! TA.AperFunction,ComponentPad*
%ADD11O,1.700000X1.700000*%
G04 #@! TD*
G04 #@! TA.AperFunction,ComponentPad*
%ADD12O,1.727200X1.727200*%
G04 #@! TD*
G04 #@! TA.AperFunction,ComponentPad*
%ADD13R,1.727200X1.727200*%
G04 #@! TD*
G04 #@! TA.AperFunction,SMDPad,CuDef*
%ADD14R,1.270000X4.191000*%
G04 #@! TD*
G04 #@! TA.AperFunction,SMDPad,CuDef*
%ADD15R,1.270000X3.683000*%
G04 #@! TD*
G04 #@! TA.AperFunction,ComponentPad*
%ADD16O,2.199640X1.501140*%
G04 #@! TD*
G04 #@! TA.AperFunction,ComponentPad*
%ADD17R,2.199640X1.501140*%
G04 #@! TD*
G04 #@! TA.AperFunction,ComponentPad*
%ADD18O,1.501140X2.199640*%
G04 #@! TD*
G04 #@! TA.AperFunction,ComponentPad*
%ADD19C,1.600000*%
G04 #@! TD*
G04 #@! TA.AperFunction,ComponentPad*
%ADD20O,1.600000X1.600000*%
G04 #@! TD*
G04 #@! TA.AperFunction,ComponentPad*
%ADD21R,1.700000X1.700000*%
G04 #@! TD*
G04 #@! TA.AperFunction,ComponentPad*
%ADD22R,1.600000X1.600000*%
G04 #@! TD*
G04 #@! TA.AperFunction,ComponentPad*
%ADD23C,3.000000*%
G04 #@! TD*
G04 #@! TA.AperFunction,SMDPad,CuDef*
%ADD24R,1.200000X3.000000*%
G04 #@! TD*
G04 #@! TA.AperFunction,ComponentPad*
%ADD25R,1.727200X2.000000*%
G04 #@! TD*
G04 #@! TA.AperFunction,ComponentPad*
%ADD26C,1.727200*%
G04 #@! TD*
G04 #@! TA.AperFunction,ComponentPad*
%ADD27C,1.100000*%
G04 #@! TD*
G04 #@! TA.AperFunction,ViaPad*
%ADD28C,0.600000*%
G04 #@! TD*
G04 #@! TA.AperFunction,Conductor*
%ADD29C,0.600000*%
G04 #@! TD*
G04 #@! TA.AperFunction,Conductor*
%ADD30C,0.300000*%
G04 #@! TD*
G04 #@! TA.AperFunction,Conductor*
%ADD31C,0.200000*%
G04 #@! TD*
G04 #@! TA.AperFunction,Conductor*
%ADD32C,0.400000*%
G04 #@! TD*
G04 #@! TA.AperFunction,Conductor*
%ADD33C,0.254000*%
G04 #@! TD*
G04 APERTURE END LIST*
D10*
G04 #@! TO.P,P7,1*
G04 #@! TO.N,Net-(P7-Pad1)*
X164900000Y-79040000D03*
D11*
G04 #@! TO.P,P7,2*
G04 #@! TO.N,Net-(P7-Pad2)*
X167440000Y-79040000D03*
G04 #@! TO.P,P7,3*
G04 #@! TO.N,Net-(P7-Pad3)*
X169980000Y-79040000D03*
G04 #@! TO.P,P7,4*
G04 #@! TO.N,Net-(P7-Pad4)*
X172520000Y-79040000D03*
G04 #@! TD*
D12*
G04 #@! TO.P,P2,16*
G04 #@! TO.N,A1*
X145034000Y-106375200D03*
G04 #@! TO.P,P2,15*
G04 #@! TO.N,A0*
X145034000Y-108915200D03*
G04 #@! TO.P,P2,14*
G04 #@! TO.N,A4*
X142494000Y-106375200D03*
G04 #@! TO.P,P2,13*
G04 #@! TO.N,A5*
X142494000Y-108915200D03*
G04 #@! TO.P,P2,12*
G04 #@! TO.N,D6*
X139954000Y-106375200D03*
G04 #@! TO.P,P2,11*
G04 #@! TO.N,D5*
X139954000Y-108915200D03*
G04 #@! TO.P,P2,10*
G04 #@! TO.N,D2*
X137414000Y-106375200D03*
G04 #@! TO.P,P2,9*
G04 #@! TO.N,D3*
X137414000Y-108915200D03*
D13*
G04 #@! TO.P,P2,1*
G04 #@! TO.N,RAW*
X127254000Y-108915200D03*
D12*
G04 #@! TO.P,P2,2*
G04 #@! TO.N,+3V3*
X127254000Y-106375200D03*
G04 #@! TO.P,P2,3*
X129794000Y-108915200D03*
G04 #@! TO.P,P2,4*
G04 #@! TO.N,GND*
X129794000Y-106375200D03*
G04 #@! TO.P,P2,5*
G04 #@! TO.N,TX*
X132334000Y-108915200D03*
G04 #@! TO.P,P2,6*
G04 #@! TO.N,RX*
X132334000Y-106375200D03*
G04 #@! TO.P,P2,7*
G04 #@! TO.N,Reset*
X134874000Y-108915200D03*
G04 #@! TO.P,P2,8*
G04 #@! TO.N,GND*
X134874000Y-106375200D03*
G04 #@! TD*
D14*
G04 #@! TO.P,ANT1,2*
G04 #@! TO.N,GND*
X160312100Y-63830200D03*
X156019500Y-63830200D03*
D15*
G04 #@! TO.P,ANT1,1*
G04 #@! TO.N,Net-(ANT1-Pad1)*
X158165800Y-63576200D03*
G04 #@! TD*
D16*
G04 #@! TO.P,IC1,28*
G04 #@! TO.N,Net-(IC1-Pad28)*
X139649200Y-84988400D03*
G04 #@! TO.P,IC1,27*
G04 #@! TO.N,Net-(IC1-Pad27)*
X139649200Y-87528400D03*
D17*
G04 #@! TO.P,IC1,1*
G04 #@! TO.N,TX*
X126949200Y-65938400D03*
D16*
G04 #@! TO.P,IC1,2*
G04 #@! TO.N,RX*
X126949200Y-68478400D03*
G04 #@! TO.P,IC1,3*
G04 #@! TO.N,Reset*
X126949200Y-71018400D03*
G04 #@! TO.P,IC1,4*
G04 #@! TO.N,GND*
X126949200Y-73558400D03*
G04 #@! TO.P,IC1,5*
G04 #@! TO.N,D2*
X126949200Y-76098400D03*
G04 #@! TO.P,IC1,6*
G04 #@! TO.N,D3*
X126949200Y-78638400D03*
G04 #@! TO.P,IC1,7*
G04 #@! TO.N,Net-(IC1-Pad7)*
X126949200Y-81178400D03*
G04 #@! TO.P,IC1,8*
G04 #@! TO.N,D5*
X126949200Y-83718400D03*
G04 #@! TO.P,IC1,9*
G04 #@! TO.N,D6*
X126949200Y-86258400D03*
G04 #@! TO.P,IC1,10*
G04 #@! TO.N,Net-(IC1-Pad10)*
X126949200Y-88798400D03*
G04 #@! TO.P,IC1,11*
G04 #@! TO.N,Flash_CS*
X126949200Y-91338400D03*
G04 #@! TO.P,IC1,12*
G04 #@! TO.N,Net-(IC1-Pad12)*
X126949200Y-93878400D03*
G04 #@! TO.P,IC1,13*
G04 #@! TO.N,ss*
X142189200Y-93878400D03*
G04 #@! TO.P,IC1,14*
G04 #@! TO.N,MOSI*
X142189200Y-91338400D03*
G04 #@! TO.P,IC1,15*
G04 #@! TO.N,MISO*
X142189200Y-88798400D03*
G04 #@! TO.P,IC1,16*
G04 #@! TO.N,SCK*
X142189200Y-86258400D03*
G04 #@! TO.P,IC1,17*
G04 #@! TO.N,A0*
X142189200Y-83718400D03*
G04 #@! TO.P,IC1,18*
G04 #@! TO.N,A1*
X142189200Y-81178400D03*
G04 #@! TO.P,IC1,19*
G04 #@! TO.N,Net-(IC1-Pad19)*
X142189200Y-78638400D03*
G04 #@! TO.P,IC1,20*
G04 #@! TO.N,A3*
X142189200Y-76098400D03*
G04 #@! TO.P,IC1,21*
G04 #@! TO.N,+3V3*
X142189200Y-73558400D03*
G04 #@! TO.P,IC1,22*
G04 #@! TO.N,Net-(IC1-Pad22)*
X142189200Y-71018400D03*
G04 #@! TO.P,IC1,23*
G04 #@! TO.N,GND*
X142189200Y-68478400D03*
G04 #@! TO.P,IC1,24*
G04 #@! TO.N,Net-(IC1-Pad24)*
X142189200Y-65938400D03*
G04 #@! TO.P,IC1,25*
G04 #@! TO.N,A4*
X139649200Y-77368400D03*
G04 #@! TO.P,IC1,26*
G04 #@! TO.N,A5*
X139649200Y-74828400D03*
D18*
G04 #@! TO.P,IC1,30*
G04 #@! TO.N,N/C*
X139649200Y-93878400D03*
G04 #@! TO.P,IC1,31*
X137109200Y-93878400D03*
G04 #@! TO.P,IC1,29*
G04 #@! TO.N,GND*
X134569200Y-93878400D03*
G04 #@! TD*
D19*
G04 #@! TO.P,R1,1*
G04 #@! TO.N,+3V3*
X132168900Y-102095300D03*
D20*
G04 #@! TO.P,R1,2*
G04 #@! TO.N,D5*
X142328900Y-102095300D03*
G04 #@! TD*
D19*
G04 #@! TO.P,R3,1*
G04 #@! TO.N,AdvBat*
X164870000Y-88120000D03*
D20*
G04 #@! TO.P,R3,2*
G04 #@! TO.N,A0*
X172490000Y-88120000D03*
G04 #@! TD*
D21*
G04 #@! TO.P,ANT2,1*
G04 #@! TO.N,Net-(ANT1-Pad1)*
X158242000Y-65074800D03*
G04 #@! TD*
D22*
G04 #@! TO.P,C3,1*
G04 #@! TO.N,Net-(C3-Pad1)*
X155255600Y-93649800D03*
D19*
G04 #@! TO.P,C3,2*
G04 #@! TO.N,GND*
X152755600Y-93649800D03*
G04 #@! TD*
D22*
G04 #@! TO.P,C2,1*
G04 #@! TO.N,+3V3*
X158470600Y-93649800D03*
D19*
G04 #@! TO.P,C2,2*
G04 #@! TO.N,GND*
X160970600Y-93649800D03*
G04 #@! TD*
D11*
G04 #@! TO.P,JP1,1*
G04 #@! TO.N,Net-(JP1-Pad1)*
X149352000Y-99568000D03*
G04 #@! TO.P,JP1,2*
G04 #@! TO.N,+3V3*
X149352000Y-97028000D03*
G04 #@! TD*
G04 #@! TO.P,JP2,1*
G04 #@! TO.N,Net-(JP1-Pad1)*
X145757900Y-99542600D03*
G04 #@! TO.P,JP2,2*
G04 #@! TO.N,AdvBat*
X145757900Y-97002600D03*
G04 #@! TD*
D21*
G04 #@! TO.P,JP3,1*
G04 #@! TO.N,Net-(C3-Pad1)*
X138963400Y-98056700D03*
D11*
G04 #@! TO.P,JP3,2*
G04 #@! TO.N,RAW*
X136423400Y-98056700D03*
G04 #@! TD*
D21*
G04 #@! TO.P,U1,1*
G04 #@! TO.N,+3V3*
X166500000Y-100780000D03*
D11*
G04 #@! TO.P,U1,2*
G04 #@! TO.N,GND*
X169040000Y-100780000D03*
G04 #@! TO.P,U1,3*
G04 #@! TO.N,AdvBat*
X171580000Y-100780000D03*
G04 #@! TD*
D22*
G04 #@! TO.P,C1,1*
G04 #@! TO.N,+3V3*
X164820000Y-108450000D03*
D20*
G04 #@! TO.P,C1,2*
G04 #@! TO.N,GND*
X167320000Y-108450000D03*
G04 #@! TD*
D10*
G04 #@! TO.P,P4,1*
G04 #@! TO.N,+3V3*
X164910000Y-68750000D03*
D11*
G04 #@! TO.P,P4,2*
X167450000Y-68750000D03*
G04 #@! TO.P,P4,3*
X169990000Y-68750000D03*
G04 #@! TO.P,P4,4*
X172530000Y-68750000D03*
G04 #@! TD*
D10*
G04 #@! TO.P,P5,1*
G04 #@! TO.N,GND*
X164900000Y-71240000D03*
D11*
G04 #@! TO.P,P5,2*
X167440000Y-71240000D03*
G04 #@! TO.P,P5,3*
X169980000Y-71240000D03*
G04 #@! TO.P,P5,4*
X172520000Y-71240000D03*
G04 #@! TD*
D10*
G04 #@! TO.P,P7,1*
G04 #@! TO.N,N/C*
X164890000Y-76300000D03*
D11*
G04 #@! TO.P,P7,2*
X167430000Y-76300000D03*
G04 #@! TO.P,P7,3*
X169970000Y-76300000D03*
G04 #@! TO.P,P7,4*
X172510000Y-76300000D03*
G04 #@! TD*
D10*
G04 #@! TO.P,P6,1*
G04 #@! TO.N,Net-(P6-Pad1)*
X164890000Y-73780000D03*
D11*
G04 #@! TO.P,P6,2*
G04 #@! TO.N,Net-(P6-Pad2)*
X167430000Y-73780000D03*
G04 #@! TO.P,P6,3*
G04 #@! TO.N,Net-(P6-Pad3)*
X169970000Y-73780000D03*
G04 #@! TO.P,P6,4*
G04 #@! TO.N,Net-(P6-Pad4)*
X172510000Y-73780000D03*
G04 #@! TD*
D10*
G04 #@! TO.P,P9,1*
G04 #@! TO.N,Net-(P9-Pad1)*
X164890000Y-66140000D03*
D11*
G04 #@! TO.P,P9,2*
G04 #@! TO.N,Net-(P9-Pad2)*
X167430000Y-66140000D03*
G04 #@! TD*
D23*
G04 #@! TO.P,P1,3*
G04 #@! TO.N,Net-(JP1-Pad1)*
X150368000Y-106629200D03*
G04 #@! TO.P,P1,1*
G04 #@! TO.N,Net-(C3-Pad1)*
X160178000Y-106629200D03*
G04 #@! TO.P,P1,2*
G04 #@! TO.N,GND*
X155178000Y-106629200D03*
G04 #@! TD*
D19*
G04 #@! TO.P,R2,1*
G04 #@! TO.N,GND*
X164870000Y-84910000D03*
D20*
G04 #@! TO.P,R2,2*
G04 #@! TO.N,A0*
X172490000Y-84910000D03*
G04 #@! TD*
D22*
G04 #@! TO.P,C4,1*
G04 #@! TO.N,A0*
X170000000Y-92580000D03*
D19*
G04 #@! TO.P,C4,2*
G04 #@! TO.N,GND*
X167500000Y-92580000D03*
G04 #@! TD*
D24*
G04 #@! TO.P,U3,1*
G04 #@! TO.N,Net-(U3-Pad1)*
X147041600Y-88026000D03*
G04 #@! TO.P,U3,2*
G04 #@! TO.N,D2*
X149041600Y-88026000D03*
G04 #@! TO.P,U3,3*
G04 #@! TO.N,Net-(U3-Pad3)*
X151041600Y-88026000D03*
G04 #@! TO.P,U3,4*
G04 #@! TO.N,Net-(U3-Pad4)*
X153041600Y-88026000D03*
G04 #@! TO.P,U3,5*
G04 #@! TO.N,Net-(U3-Pad5)*
X155041600Y-88026000D03*
G04 #@! TO.P,U3,6*
G04 #@! TO.N,Net-(U3-Pad6)*
X157041600Y-88026000D03*
G04 #@! TO.P,U3,7*
G04 #@! TO.N,Net-(U3-Pad7)*
X159041600Y-88026000D03*
G04 #@! TO.P,U3,8*
G04 #@! TO.N,+3V3*
X161041600Y-88026000D03*
G04 #@! TO.P,U3,9*
G04 #@! TO.N,GND*
X161041600Y-68326000D03*
G04 #@! TO.P,U3,10*
G04 #@! TO.N,Net-(ANT1-Pad1)*
X159041600Y-68326000D03*
G04 #@! TO.P,U3,11*
G04 #@! TO.N,GND*
X157041600Y-68326000D03*
G04 #@! TO.P,U3,12*
G04 #@! TO.N,SCK*
X155041600Y-68326000D03*
G04 #@! TO.P,U3,13*
G04 #@! TO.N,MISO*
X153041600Y-68326000D03*
G04 #@! TO.P,U3,14*
G04 #@! TO.N,MOSI*
X151041600Y-68326000D03*
G04 #@! TO.P,U3,15*
G04 #@! TO.N,ss*
X149041600Y-68326000D03*
G04 #@! TO.P,U3,16*
G04 #@! TO.N,Net-(U3-Pad16)*
X147041600Y-68326000D03*
D25*
G04 #@! TO.P,U3,1*
G04 #@! TO.N,Net-(U3-Pad1)*
X147041600Y-86726000D03*
D26*
G04 #@! TO.P,U3,2*
G04 #@! TO.N,D2*
X149041600Y-86726000D03*
G04 #@! TO.P,U3,3*
G04 #@! TO.N,Net-(U3-Pad3)*
X151041600Y-86726000D03*
G04 #@! TO.P,U3,4*
G04 #@! TO.N,Net-(U3-Pad4)*
X153041600Y-86726000D03*
G04 #@! TO.P,U3,5*
G04 #@! TO.N,Net-(U3-Pad5)*
X155041600Y-86726000D03*
G04 #@! TO.P,U3,6*
G04 #@! TO.N,Net-(U3-Pad6)*
X157041600Y-86726000D03*
G04 #@! TO.P,U3,7*
G04 #@! TO.N,Net-(U3-Pad7)*
X159041600Y-86726000D03*
G04 #@! TO.P,U3,8*
G04 #@! TO.N,+3V3*
X161041600Y-86726000D03*
G04 #@! TO.P,U3,9*
G04 #@! TO.N,GND*
X161041600Y-69626000D03*
G04 #@! TO.P,U3,10*
G04 #@! TO.N,Net-(ANT1-Pad1)*
X159041600Y-69626000D03*
G04 #@! TO.P,U3,11*
G04 #@! TO.N,GND*
X157041600Y-69626000D03*
G04 #@! TO.P,U3,12*
G04 #@! TO.N,SCK*
X155041600Y-69626000D03*
G04 #@! TO.P,U3,13*
G04 #@! TO.N,MISO*
X153041600Y-69626000D03*
G04 #@! TO.P,U3,14*
G04 #@! TO.N,MOSI*
X151041600Y-69626000D03*
G04 #@! TO.P,U3,15*
G04 #@! TO.N,ss*
X149041600Y-69626000D03*
G04 #@! TO.P,U3,16*
G04 #@! TO.N,Net-(U3-Pad16)*
X147041600Y-69626000D03*
G04 #@! TD*
D27*
G04 #@! TO.P,U2,2*
G04 #@! TO.N,GND*
X156331600Y-100767200D03*
G04 #@! TO.P,U2,3*
G04 #@! TO.N,Net-(C3-Pad1)*
X154956600Y-99067200D03*
G04 #@! TO.P,U2,1*
G04 #@! TO.N,+3V3*
X157681600Y-99042200D03*
G04 #@! TD*
D10*
G04 #@! TO.P,P8,1*
G04 #@! TO.N,Net-(P8-Pad1)*
X164910000Y-63610000D03*
D11*
G04 #@! TO.P,P8,2*
G04 #@! TO.N,Net-(P8-Pad2)*
X167450000Y-63610000D03*
G04 #@! TD*
D28*
G04 #@! TO.N,+3V3*
X130924306Y-92600786D03*
X133507480Y-89054940D03*
X126365000Y-96205040D03*
X126492000Y-103200200D03*
G04 #@! TO.N,RAW*
X138856720Y-107609640D03*
G04 #@! TO.N,D2*
X134945120Y-86123780D03*
X144716500Y-80645000D03*
G04 #@! TO.N,D3*
X129113925Y-87701765D03*
X128508760Y-84988400D03*
G04 #@! TO.N,MOSI*
X137886440Y-80614520D03*
G04 #@! TO.N,MISO*
X137998200Y-82646520D03*
G04 #@! TO.N,SCK*
X139587850Y-79106150D03*
G04 #@! TO.N,A0*
X162350000Y-85770000D03*
X157990540Y-82852260D03*
G04 #@! TO.N,A1*
X144919700Y-83959700D03*
G04 #@! TO.N,A5*
X144045940Y-83939380D03*
X144068800Y-82410300D03*
G04 #@! TO.N,Reset*
X129202180Y-86893400D03*
X129288177Y-85168712D03*
G04 #@! TO.N,Net-(C3-Pad1)*
X140573200Y-104548940D03*
G04 #@! TO.N,A3*
X138922760Y-72928480D03*
X138907520Y-68732400D03*
G04 #@! TO.N,AdvBat*
X162382200Y-84150200D03*
X159727900Y-84150200D03*
G04 #@! TO.N,Flash_CS*
X134424420Y-89512140D03*
X129900680Y-92087700D03*
G04 #@! TD*
D29*
G04 #@! TO.N,+3V3*
X166500000Y-100780000D02*
X165237200Y-99517200D01*
X165237200Y-99517200D02*
X159854900Y-99517200D01*
X166500000Y-100780000D02*
X165650001Y-101629999D01*
X165650001Y-101629999D02*
X165650001Y-101649999D01*
X165650001Y-101649999D02*
X164820000Y-102480000D01*
X164820000Y-102480000D02*
X164820000Y-102910000D01*
X164820000Y-102910000D02*
X164820000Y-108450000D01*
X169990000Y-68750000D02*
X172530000Y-68750000D01*
X167450000Y-68750000D02*
X169990000Y-68750000D01*
X164910000Y-68750000D02*
X167450000Y-68750000D01*
X161790000Y-80770000D02*
X161790000Y-71569998D01*
X161790000Y-71569998D02*
X164609998Y-68750000D01*
X164609998Y-68750000D02*
X164910000Y-68750000D01*
X161097120Y-81462880D02*
X161790000Y-80770000D01*
X160580499Y-81462880D02*
X161097120Y-81462880D01*
X127271780Y-101737160D02*
X127271780Y-102420420D01*
X127271780Y-102420420D02*
X126492000Y-103200200D01*
X126365000Y-100830380D02*
X127271780Y-101737160D01*
X126365000Y-96205040D02*
X126365000Y-100830380D01*
X161482199Y-82778600D02*
X161482199Y-82364580D01*
X145920460Y-80563720D02*
X146819620Y-81462880D01*
X161482199Y-82364580D02*
X160580499Y-81462880D01*
X160580499Y-81462880D02*
X146819620Y-81462880D01*
X161482199Y-85064087D02*
X161482199Y-82778600D01*
X142189200Y-73558400D02*
X142538450Y-73558400D01*
X142538450Y-73558400D02*
X145920460Y-76940410D01*
X145920460Y-76940410D02*
X145920460Y-80563720D01*
X130924306Y-92600786D02*
X133507480Y-90017612D01*
X133507480Y-90017612D02*
X133507480Y-90017600D01*
X133507480Y-90017600D02*
X133507480Y-89054940D01*
X126492000Y-103200200D02*
X131064000Y-103200200D01*
X131064000Y-103200200D02*
X132168900Y-102095300D01*
X142189200Y-73558400D02*
X141665960Y-73558400D01*
X161041600Y-86726000D02*
X161041600Y-85504686D01*
X161041600Y-85504686D02*
X161482199Y-85064087D01*
X126290310Y-110872510D02*
X130340100Y-110872510D01*
X130340100Y-110872510D02*
X160259790Y-110872510D01*
X129794000Y-108915200D02*
X129794000Y-110326410D01*
X129794000Y-110326410D02*
X130340100Y-110872510D01*
X127254000Y-106375200D02*
X126032686Y-106375200D01*
X126032686Y-106375200D02*
X125552200Y-106855686D01*
X125552200Y-106855686D02*
X125552200Y-110134400D01*
X125552200Y-110134400D02*
X126290310Y-110872510D01*
X159854900Y-99517200D02*
X157581600Y-99517200D01*
X160259790Y-110872510D02*
X162278001Y-108854299D01*
X162278001Y-101940301D02*
X159854900Y-99517200D01*
X162278001Y-108854299D02*
X162278001Y-101940301D01*
X161041600Y-88026000D02*
X161041600Y-91078800D01*
X161041600Y-91078800D02*
X158470600Y-93649800D01*
X157515100Y-96650000D02*
X157137100Y-97028000D01*
X157581600Y-99517200D02*
X157581600Y-98417200D01*
X157581600Y-98417200D02*
X157137100Y-97972700D01*
X157137100Y-97972700D02*
X157137100Y-97028000D01*
X157137100Y-97028000D02*
X158470600Y-95694500D01*
X158470600Y-95694500D02*
X158470600Y-93649800D01*
X149352000Y-97028000D02*
X157137100Y-97028000D01*
G04 #@! TO.N,GND*
X167440000Y-71240000D02*
X164900000Y-71240000D01*
X169980000Y-71240000D02*
X167440000Y-71240000D01*
X172520000Y-71240000D02*
X169980000Y-71240000D01*
X160312100Y-65882520D02*
X161041600Y-66612020D01*
X161041600Y-66612020D02*
X161041600Y-66713620D01*
X160312100Y-63830200D02*
X160312100Y-65882520D01*
X161041600Y-69626000D02*
X161041600Y-66713620D01*
X156241601Y-65964921D02*
X157041600Y-66764920D01*
X157041600Y-66764920D02*
X157041600Y-69626000D01*
X156019500Y-63830200D02*
X156241601Y-64052301D01*
X156241601Y-64052301D02*
X156241601Y-65964921D01*
G04 #@! TO.N,Net-(JP1-Pad1)*
X149352000Y-99568000D02*
X145783300Y-99568000D01*
X145783300Y-99568000D02*
X145757900Y-99542600D01*
X150368000Y-106629200D02*
X150368000Y-100584000D01*
X150368000Y-100584000D02*
X149352000Y-99568000D01*
D30*
G04 #@! TO.N,RAW*
X138677601Y-101756161D02*
X136423400Y-99501960D01*
X136423400Y-99501960D02*
X136423400Y-98056700D01*
X138856720Y-107609640D02*
X138856720Y-107185376D01*
X138856720Y-107185376D02*
X138677601Y-107006257D01*
X138677601Y-107006257D02*
X138677601Y-101756161D01*
D31*
G04 #@! TO.N,D2*
X149041600Y-88026000D02*
X149041600Y-86726000D01*
X146283680Y-94277180D02*
X146283680Y-91683920D01*
X146283680Y-91683920D02*
X149041600Y-88926000D01*
X149041600Y-88926000D02*
X149041600Y-88026000D01*
X147574000Y-97815400D02*
X147574000Y-95567500D01*
X147574000Y-95567500D02*
X146283680Y-94277180D01*
X134945120Y-86123780D02*
X133590042Y-84768702D01*
X133590042Y-84768702D02*
X130087382Y-84768702D01*
X130087382Y-84768702D02*
X129217420Y-83898740D01*
X129217420Y-83898740D02*
X129217420Y-78017370D01*
X129217420Y-78017370D02*
X127298450Y-76098400D01*
X127298450Y-76098400D02*
X126949200Y-76098400D01*
X144716500Y-81584800D02*
X144716500Y-80645000D01*
X159866963Y-85001100D02*
X160427910Y-84440153D01*
X149041600Y-86726000D02*
X149041600Y-85504686D01*
X149041600Y-85504686D02*
X149545186Y-85001100D01*
X149545186Y-85001100D02*
X159866963Y-85001100D01*
X160427910Y-84440153D02*
X160427910Y-82640410D01*
X160427910Y-82640410D02*
X159950390Y-82162890D01*
X159950390Y-82162890D02*
X145294590Y-82162890D01*
X145294590Y-82162890D02*
X144716500Y-81584800D01*
X139222480Y-110172500D02*
X138668760Y-109618780D01*
X147574000Y-97815400D02*
X148036601Y-98278001D01*
X138668760Y-109618780D02*
X138668760Y-108320840D01*
X148036601Y-98278001D02*
X151960901Y-98278001D01*
X151960901Y-98278001D02*
X152527000Y-98844100D01*
X152527000Y-98844100D02*
X152527000Y-108851700D01*
X152527000Y-108851700D02*
X151206200Y-110172500D01*
X138668760Y-108320840D02*
X138658600Y-108320840D01*
X151206200Y-110172500D02*
X139222480Y-110172500D01*
X138658600Y-108320840D02*
X137414000Y-107076240D01*
X137414000Y-107076240D02*
X137414000Y-106375200D01*
X137419080Y-106380280D02*
X137419080Y-107127040D01*
X137414000Y-106375200D02*
X137419080Y-106380280D01*
G04 #@! TO.N,TX*
X131076700Y-105787770D02*
X131076700Y-107657900D01*
X131076700Y-107657900D02*
X132334000Y-108915200D01*
X126949200Y-65938400D02*
X125649380Y-65938400D01*
X125649380Y-65938400D02*
X125049360Y-66538420D01*
X130400529Y-105111599D02*
X131076700Y-105787770D01*
X125049360Y-66538420D02*
X125049360Y-104482259D01*
X125049360Y-104482259D02*
X125678700Y-105111599D01*
X125678700Y-105111599D02*
X130400529Y-105111599D01*
G04 #@! TO.N,RX*
X132334000Y-106375200D02*
X132334000Y-105153886D01*
X132334000Y-105153886D02*
X131713814Y-104533700D01*
X131713814Y-104533700D02*
X125666500Y-104533700D01*
X125666500Y-104533700D02*
X125449370Y-104316570D01*
X125449370Y-104316570D02*
X125449370Y-68678410D01*
X125449370Y-68678410D02*
X125649380Y-68478400D01*
X125649380Y-68478400D02*
X126949200Y-68478400D01*
G04 #@! TO.N,D3*
X136137601Y-102342901D02*
X132727700Y-98933000D01*
X132727700Y-98933000D02*
X132651500Y-98856800D01*
X129113925Y-87701765D02*
X129113925Y-95319225D01*
X129113925Y-95319225D02*
X132727700Y-98933000D01*
X126949200Y-78638400D02*
X127298450Y-78638400D01*
X127298450Y-78638400D02*
X128508760Y-79848710D01*
X128508760Y-79848710D02*
X128508760Y-84988400D01*
X137414000Y-108915200D02*
X136137601Y-107638801D01*
X136137601Y-107638801D02*
X136137601Y-102342901D01*
G04 #@! TO.N,D5*
X141864080Y-103893620D02*
X142328900Y-103428800D01*
X142328900Y-103428800D02*
X142328900Y-102095300D01*
X141864080Y-104945180D02*
X141864080Y-103893620D01*
X141173200Y-105636060D02*
X141864080Y-104945180D01*
X141173200Y-107696000D02*
X141173200Y-105636060D01*
X126949200Y-83718400D02*
X126949200Y-84302600D01*
X126949200Y-84302600D02*
X127370840Y-84724240D01*
X127370840Y-84724240D02*
X127375920Y-84724240D01*
X127375920Y-84724240D02*
X128510070Y-85858390D01*
X133039908Y-85858390D02*
X138366500Y-91184983D01*
X128510070Y-85858390D02*
X133039908Y-85858390D01*
X138366500Y-91184983D02*
X138366500Y-94780100D01*
X138366500Y-94780100D02*
X138912600Y-95326200D01*
X138912600Y-95326200D02*
X141490700Y-95326200D01*
X141490700Y-95326200D02*
X142328900Y-96164400D01*
X142328900Y-96164400D02*
X142328900Y-102095300D01*
X141173200Y-107696000D02*
X139954000Y-108915200D01*
G04 #@! TO.N,D6*
X139954000Y-106375200D02*
X139954000Y-102011480D01*
X139954000Y-102011480D02*
X137622280Y-99679760D01*
X137622280Y-99679760D02*
X137622280Y-96740980D01*
X137622280Y-96740980D02*
X135915400Y-95034100D01*
X135915400Y-95034100D02*
X135915400Y-89299581D01*
X135915400Y-89299581D02*
X132874219Y-86258400D01*
X132874219Y-86258400D02*
X126949200Y-86258400D01*
D32*
G04 #@! TO.N,ss*
X142189200Y-93878400D02*
X141767037Y-93878400D01*
X141767037Y-93878400D02*
X136249343Y-88360706D01*
X136249343Y-64976533D02*
X138338085Y-62887792D01*
X136249343Y-88360706D02*
X136249343Y-64976533D01*
X144603395Y-62887793D02*
X149041600Y-67325998D01*
X138338085Y-62887792D02*
X144603395Y-62887793D01*
X149041600Y-67325998D02*
X149041600Y-69626000D01*
G04 #@! TO.N,MOSI*
X136849351Y-82759367D02*
X138176318Y-81432400D01*
X138176318Y-81432400D02*
X138612880Y-80995838D01*
X137886440Y-80614520D02*
X138186439Y-80914519D01*
X138186439Y-80914519D02*
X138186439Y-81422279D01*
X138186439Y-81422279D02*
X138176318Y-81432400D01*
X138612880Y-80289764D02*
X136849352Y-78526236D01*
X136849352Y-78526236D02*
X136849352Y-65225064D01*
X136849351Y-87694928D02*
X136849351Y-82759367D01*
X138612880Y-80995838D02*
X138612880Y-80289764D01*
X151041600Y-69626000D02*
X151041600Y-68326000D01*
X142189200Y-91338400D02*
X140492821Y-91338400D01*
X151066500Y-70751700D02*
X151066500Y-69650900D01*
X140492821Y-91338400D02*
X136849351Y-87694928D01*
X145897600Y-71412100D02*
X150406100Y-71412100D01*
X136849352Y-65225064D02*
X138586617Y-63487801D01*
X150406100Y-71412100D02*
X151066500Y-70751700D01*
X138586617Y-63487801D02*
X143553523Y-63487802D01*
X143553523Y-63487802D02*
X145141819Y-65076098D01*
X145141819Y-65076098D02*
X145141819Y-70656319D01*
X151066500Y-69650900D02*
X151041600Y-69626000D01*
X145141819Y-70656319D02*
X145897600Y-71412100D01*
G04 #@! TO.N,MISO*
X137449361Y-84231497D02*
X138343458Y-83337400D01*
X138343458Y-83337400D02*
X139323510Y-82357348D01*
X137998200Y-82646520D02*
X138343458Y-82991778D01*
X138343458Y-82991778D02*
X138343458Y-83337400D01*
X139323510Y-80151852D02*
X137449360Y-78277702D01*
X137449360Y-78277702D02*
X137449361Y-65473597D01*
X137449361Y-65473597D02*
X138835148Y-64087810D01*
X138835148Y-64087810D02*
X143304990Y-64087811D01*
X143304990Y-64087811D02*
X144541809Y-65324632D01*
X144541809Y-65324632D02*
X144541809Y-70904851D01*
X144541809Y-70904851D02*
X145649068Y-72012110D01*
X139323510Y-82357348D02*
X139323510Y-80151852D01*
X137449360Y-87446397D02*
X137449361Y-84231497D01*
X153041600Y-69626000D02*
X153041600Y-68326000D01*
X152117490Y-72012110D02*
X153041600Y-71088000D01*
X153041600Y-71088000D02*
X153041600Y-69626000D01*
X145649068Y-72012110D02*
X152117490Y-72012110D01*
X142189200Y-88798400D02*
X138801363Y-88798400D01*
X138801363Y-88798400D02*
X137449360Y-87446397D01*
G04 #@! TO.N,SCK*
X139923520Y-82605880D02*
X139923520Y-79903320D01*
X139923520Y-79903320D02*
X138049370Y-78029170D01*
X138049370Y-78029170D02*
X138049370Y-65722130D01*
X138049370Y-85506407D02*
X138049370Y-84480030D01*
X138049370Y-84480030D02*
X139923520Y-82605880D01*
X155041600Y-69626000D02*
X155041600Y-68326000D01*
X153562180Y-72612120D02*
X155041600Y-71132700D01*
X155041600Y-71132700D02*
X155041600Y-69626000D01*
X143941800Y-65573163D02*
X143941801Y-71153385D01*
X143941801Y-71153385D02*
X145400536Y-72612120D01*
X145400536Y-72612120D02*
X153562180Y-72612120D01*
X138049370Y-65722130D02*
X139083680Y-64687820D01*
X139083680Y-64687820D02*
X143056457Y-64687820D01*
X143056457Y-64687820D02*
X143941800Y-65573163D01*
X142189200Y-86258400D02*
X138801363Y-86258400D01*
X138801363Y-86258400D02*
X138049370Y-85506407D01*
X139923520Y-79441820D02*
X139923520Y-79903320D01*
X139587850Y-79106150D02*
X139923520Y-79441820D01*
D30*
G04 #@! TO.N,A0*
X162350000Y-89870000D02*
X162700000Y-90220000D01*
X162700000Y-90220000D02*
X163540000Y-90220000D01*
X162350000Y-85770000D02*
X162350000Y-89870000D01*
X163540000Y-90220000D02*
X166040000Y-90220000D01*
X172490000Y-88120000D02*
X172490000Y-84910000D01*
X168640000Y-90220000D02*
X170390000Y-90220000D01*
X170390000Y-90220000D02*
X172490000Y-88120000D01*
X166040000Y-90220000D02*
X168640000Y-90220000D01*
X168640000Y-90220000D02*
X170000000Y-91580000D01*
X170000000Y-91580000D02*
X170000000Y-92580000D01*
X146138900Y-83250200D02*
X145983960Y-83250200D01*
X145983960Y-83250200D02*
X145590260Y-83250200D01*
D31*
X145834100Y-83494040D02*
X145834100Y-83400060D01*
X145834100Y-83400060D02*
X145983960Y-83250200D01*
D30*
X145590260Y-83250200D02*
X142657400Y-83250200D01*
D31*
X144877989Y-89899052D02*
X144877989Y-84956046D01*
X145034000Y-108915200D02*
X146367500Y-107581700D01*
X146367500Y-107581700D02*
X146367500Y-102620706D01*
X146367500Y-102620706D02*
X143941720Y-100194926D01*
X143941720Y-100194926D02*
X143941720Y-96837580D01*
X143941720Y-96837580D02*
X144880090Y-95899210D01*
X145834100Y-83999936D02*
X145834100Y-83494040D01*
X144880090Y-95899210D02*
X144880090Y-89901153D01*
X144880090Y-89901153D02*
X144877989Y-89899052D01*
X144877989Y-84956046D02*
X145834100Y-83999936D01*
X145834100Y-83494040D02*
X145590260Y-83250200D01*
D30*
X157990540Y-82852260D02*
X157566276Y-82852260D01*
X157168336Y-83250200D02*
X146138900Y-83250200D01*
X157566276Y-82852260D02*
X157168336Y-83250200D01*
X142657400Y-83250200D02*
X142189200Y-83718400D01*
D31*
G04 #@! TO.N,A1*
X144919700Y-83959700D02*
X144477979Y-84401421D01*
X144477979Y-84401421D02*
X144477979Y-95412321D01*
X143553902Y-96329500D02*
X143541710Y-96341692D01*
X144477979Y-95412321D02*
X143560800Y-96329500D01*
X143560800Y-96329500D02*
X143553902Y-96329500D01*
X143541710Y-96341692D02*
X143541710Y-100360614D01*
X143541710Y-100360614D02*
X145034000Y-101852904D01*
X145034000Y-101852904D02*
X145034000Y-101873598D01*
X145034000Y-101873598D02*
X145034000Y-106375200D01*
G04 #@! TO.N,A4*
X140431520Y-79101290D02*
X140431520Y-83935726D01*
X140431520Y-83935726D02*
X141484194Y-84988400D01*
X139649200Y-77368400D02*
X139649200Y-78318970D01*
X139649200Y-78318970D02*
X140431520Y-79101290D01*
X142494000Y-106375200D02*
X142494000Y-104470200D01*
X143586200Y-103378000D02*
X143586200Y-101536500D01*
X142494000Y-104470200D02*
X143586200Y-103378000D01*
X143668790Y-85515490D02*
X143141700Y-84988400D01*
X143141700Y-84988400D02*
X141484194Y-84988400D01*
X143586200Y-101536500D02*
X142728910Y-100679210D01*
X142753294Y-95998711D02*
X143668790Y-95083215D01*
X142728910Y-100679210D02*
X142728910Y-95998711D01*
X142728910Y-95998711D02*
X142753294Y-95998711D01*
X143668790Y-95083215D02*
X143668790Y-85515490D01*
G04 #@! TO.N,A5*
X144045940Y-83939380D02*
X144045940Y-85303360D01*
X144045940Y-85303360D02*
X144068800Y-85326220D01*
X144068800Y-85326220D02*
X144068800Y-95248904D01*
X142494000Y-108915200D02*
X143764000Y-107645200D01*
X143764000Y-107645200D02*
X143764000Y-103765899D01*
X143764000Y-103765899D02*
X143986210Y-103543689D01*
X143986210Y-103543689D02*
X143986210Y-101370812D01*
X143141700Y-100526302D02*
X143141700Y-96176004D01*
X143141700Y-96176004D02*
X144068800Y-95248904D01*
X143986210Y-101370812D02*
X143141700Y-100526302D01*
X142818488Y-74828400D02*
X144068800Y-76078712D01*
X144068800Y-76078712D02*
X144068800Y-82410300D01*
X139649200Y-74828400D02*
X142818488Y-74828400D01*
G04 #@! TO.N,Reset*
X128503680Y-87463480D02*
X129073760Y-86893400D01*
X129073760Y-86893400D02*
X129202180Y-86893400D01*
X126949200Y-71018400D02*
X134513320Y-71018400D01*
X134513320Y-71018400D02*
X135749333Y-72254413D01*
X135749333Y-72254413D02*
X135749333Y-86978187D01*
X135749333Y-86978187D02*
X135458200Y-87269320D01*
X132915929Y-85168712D02*
X129288177Y-85168712D01*
X135458200Y-87269320D02*
X135026400Y-87269320D01*
X133426497Y-85679280D02*
X132915929Y-85168712D01*
X135026400Y-87269320D02*
X133436360Y-85679280D01*
X133436360Y-85679280D02*
X133426497Y-85679280D01*
X128503680Y-95274679D02*
X128503680Y-87463480D01*
X132251490Y-99022489D02*
X128503680Y-95274679D01*
X134874000Y-108915200D02*
X133583680Y-107624880D01*
X133583680Y-107624880D02*
X133583680Y-100354678D01*
X133583680Y-100354678D02*
X132251490Y-99022489D01*
D32*
G04 #@! TO.N,Net-(C3-Pad1)*
X140554000Y-100897300D02*
X140573200Y-100916500D01*
X140573200Y-100916500D02*
X140573200Y-104548940D01*
X138963400Y-98056700D02*
X138963400Y-99306700D01*
X138963400Y-99306700D02*
X140554000Y-100897300D01*
D29*
X155041600Y-99517200D02*
X155041600Y-101492800D01*
X155041600Y-101492800D02*
X160178000Y-106629200D01*
G04 #@! TO.N,Net-(ANT1-Pad1)*
X159041600Y-69626000D02*
X159041600Y-66532260D01*
X159041600Y-66532260D02*
X158242000Y-65732660D01*
X158242000Y-65074800D02*
X158242000Y-65732660D01*
X158165800Y-63576200D02*
X158165800Y-64998600D01*
X158165800Y-64998600D02*
X158242000Y-65074800D01*
D31*
G04 #@! TO.N,A3*
X138907520Y-68732400D02*
X138907520Y-72913240D01*
X142189200Y-76098400D02*
X142538450Y-76098400D01*
D29*
G04 #@! TO.N,AdvBat*
X174000001Y-98359999D02*
X171580000Y-100780000D01*
X164870000Y-88120000D02*
X166330000Y-88120000D01*
X166330000Y-88120000D02*
X171150000Y-83300000D01*
X171150000Y-83300000D02*
X173190001Y-83300000D01*
X173190001Y-83300000D02*
X174000001Y-84110000D01*
X174000001Y-84110000D02*
X174000001Y-98359999D01*
X164870000Y-88120000D02*
X163250001Y-86500001D01*
X163250001Y-86500001D02*
X163250001Y-85018001D01*
X163250001Y-85018001D02*
X162382200Y-84150200D01*
X145580100Y-95580200D02*
X145757900Y-95758000D01*
X145757900Y-95758000D02*
X145757900Y-97002600D01*
X145580100Y-89611200D02*
X145580100Y-95580200D01*
X145577999Y-89609099D02*
X145580100Y-89611200D01*
X146673798Y-84150200D02*
X159727900Y-84150200D01*
X145577999Y-89609099D02*
X145577999Y-85245999D01*
X145577999Y-85245999D02*
X146673798Y-84150200D01*
D32*
G04 #@! TO.N,Flash_CS*
X134424420Y-89512140D02*
X134424420Y-90232044D01*
X134424420Y-90232044D02*
X131085404Y-93571060D01*
X131085404Y-93571060D02*
X130180080Y-93571060D01*
X130180080Y-93571060D02*
X129900680Y-93291660D01*
X129900680Y-93291660D02*
X129900680Y-92087700D01*
G04 #@! TD*
D33*
G04 #@! TO.N,GND*
G36*
X173273002Y-98058865D02*
X171808444Y-99523423D01*
X171705769Y-99503000D01*
X171454231Y-99503000D01*
X171081740Y-99577093D01*
X170659335Y-99859335D01*
X170399410Y-100248340D01*
X170235183Y-99898642D01*
X169806924Y-99508355D01*
X169396890Y-99338524D01*
X169167000Y-99459845D01*
X169167000Y-100653000D01*
X169187000Y-100653000D01*
X169187000Y-100907000D01*
X169167000Y-100907000D01*
X169167000Y-102100155D01*
X169396890Y-102221476D01*
X169806924Y-102051645D01*
X170235183Y-101661358D01*
X170399410Y-101311660D01*
X170659335Y-101700665D01*
X171081740Y-101982907D01*
X171454231Y-102057000D01*
X171705769Y-102057000D01*
X172078260Y-101982907D01*
X172500665Y-101700665D01*
X172782907Y-101278260D01*
X172882017Y-100780000D01*
X172836577Y-100551556D01*
X174108001Y-99280132D01*
X174108001Y-111138000D01*
X161022432Y-111138000D01*
X162741441Y-109418991D01*
X162802137Y-109378436D01*
X162842693Y-109317740D01*
X162842695Y-109317738D01*
X162962818Y-109137961D01*
X162962819Y-109137960D01*
X163005001Y-108925898D01*
X163005001Y-108925894D01*
X163019242Y-108854300D01*
X163005001Y-108782706D01*
X163005001Y-102011894D01*
X163019242Y-101940300D01*
X163005001Y-101868706D01*
X163005001Y-101868702D01*
X162962819Y-101656640D01*
X162802138Y-101416164D01*
X162741440Y-101375607D01*
X161610033Y-100244200D01*
X164936068Y-100244200D01*
X165214635Y-100522767D01*
X165214635Y-101037233D01*
X165186563Y-101065305D01*
X165125864Y-101105863D01*
X165045037Y-101226830D01*
X164356561Y-101915306D01*
X164295863Y-101955864D01*
X164135182Y-102196340D01*
X164093000Y-102408402D01*
X164093000Y-102408405D01*
X164078759Y-102480000D01*
X164093000Y-102551595D01*
X164093000Y-102838402D01*
X164093001Y-107214635D01*
X164020000Y-107214635D01*
X163853393Y-107247775D01*
X163712150Y-107342150D01*
X163617775Y-107483393D01*
X163584635Y-107650000D01*
X163584635Y-109250000D01*
X163617775Y-109416607D01*
X163712150Y-109557850D01*
X163853393Y-109652225D01*
X164020000Y-109685365D01*
X165620000Y-109685365D01*
X165786607Y-109652225D01*
X165927850Y-109557850D01*
X166022225Y-109416607D01*
X166055365Y-109250000D01*
X166055365Y-109106314D01*
X166088959Y-109187423D01*
X166464866Y-109602389D01*
X166970959Y-109841914D01*
X167193000Y-109720629D01*
X167193000Y-108577000D01*
X167447000Y-108577000D01*
X167447000Y-109720629D01*
X167669041Y-109841914D01*
X168175134Y-109602389D01*
X168551041Y-109187423D01*
X168711904Y-108799039D01*
X168589915Y-108577000D01*
X167447000Y-108577000D01*
X167193000Y-108577000D01*
X167173000Y-108577000D01*
X167173000Y-108342864D01*
X170009220Y-108342864D01*
X170009220Y-109010016D01*
X170264528Y-109626384D01*
X170736276Y-110098132D01*
X171352644Y-110353440D01*
X172019796Y-110353440D01*
X172636164Y-110098132D01*
X173107912Y-109626384D01*
X173363220Y-109010016D01*
X173363220Y-108342864D01*
X173107912Y-107726496D01*
X172636164Y-107254748D01*
X172019796Y-106999440D01*
X171352644Y-106999440D01*
X170736276Y-107254748D01*
X170264528Y-107726496D01*
X170009220Y-108342864D01*
X167173000Y-108342864D01*
X167173000Y-108323000D01*
X167193000Y-108323000D01*
X167193000Y-107179371D01*
X167447000Y-107179371D01*
X167447000Y-108323000D01*
X168589915Y-108323000D01*
X168711904Y-108100961D01*
X168551041Y-107712577D01*
X168175134Y-107297611D01*
X167669041Y-107058086D01*
X167447000Y-107179371D01*
X167193000Y-107179371D01*
X166970959Y-107058086D01*
X166464866Y-107297611D01*
X166088959Y-107712577D01*
X166055365Y-107793686D01*
X166055365Y-107650000D01*
X166022225Y-107483393D01*
X165927850Y-107342150D01*
X165786607Y-107247775D01*
X165620000Y-107214635D01*
X165547000Y-107214635D01*
X165547000Y-102781133D01*
X166113442Y-102214692D01*
X166174138Y-102174136D01*
X166214693Y-102113441D01*
X166214696Y-102113438D01*
X166246817Y-102065365D01*
X167350000Y-102065365D01*
X167516607Y-102032225D01*
X167657850Y-101937850D01*
X167752225Y-101796607D01*
X167785365Y-101630000D01*
X167785365Y-101534764D01*
X167844817Y-101661358D01*
X168273076Y-102051645D01*
X168683110Y-102221476D01*
X168913000Y-102100155D01*
X168913000Y-100907000D01*
X168893000Y-100907000D01*
X168893000Y-100653000D01*
X168913000Y-100653000D01*
X168913000Y-99459845D01*
X168683110Y-99338524D01*
X168273076Y-99508355D01*
X167844817Y-99898642D01*
X167785365Y-100025236D01*
X167785365Y-99930000D01*
X167752225Y-99763393D01*
X167657850Y-99622150D01*
X167516607Y-99527775D01*
X167350000Y-99494635D01*
X166242767Y-99494635D01*
X165801896Y-99053764D01*
X165761337Y-98993063D01*
X165520861Y-98832382D01*
X165308799Y-98790200D01*
X165308795Y-98790200D01*
X165237200Y-98775959D01*
X165165605Y-98790200D01*
X159926495Y-98790200D01*
X159854900Y-98775959D01*
X159783305Y-98790200D01*
X158634715Y-98790200D01*
X158509861Y-98488774D01*
X158294176Y-98273089D01*
X158266418Y-98133539D01*
X158105737Y-97893063D01*
X158045036Y-97852504D01*
X157864100Y-97671568D01*
X157864100Y-97329132D01*
X158934040Y-96259193D01*
X158994736Y-96218637D01*
X159035292Y-96157941D01*
X159035294Y-96157939D01*
X159155418Y-95978161D01*
X159161528Y-95947445D01*
X159197600Y-95766099D01*
X159197600Y-95766095D01*
X159211841Y-95694500D01*
X159197600Y-95622905D01*
X159197600Y-94885165D01*
X159270600Y-94885165D01*
X159437207Y-94852025D01*
X159578450Y-94757650D01*
X159645337Y-94657545D01*
X160142461Y-94657545D01*
X160216595Y-94903664D01*
X160753823Y-95096765D01*
X161324054Y-95069578D01*
X161724605Y-94903664D01*
X161798739Y-94657545D01*
X160970600Y-93829405D01*
X160142461Y-94657545D01*
X159645337Y-94657545D01*
X159672825Y-94616407D01*
X159705965Y-94449800D01*
X159705965Y-94377802D01*
X159716736Y-94403805D01*
X159962855Y-94477939D01*
X160790995Y-93649800D01*
X161150205Y-93649800D01*
X161978345Y-94477939D01*
X162224464Y-94403805D01*
X162417565Y-93866577D01*
X162404272Y-93587745D01*
X166671861Y-93587745D01*
X166745995Y-93833864D01*
X167283223Y-94026965D01*
X167853454Y-93999778D01*
X168254005Y-93833864D01*
X168328139Y-93587745D01*
X167500000Y-92759605D01*
X166671861Y-93587745D01*
X162404272Y-93587745D01*
X162390378Y-93296346D01*
X162224464Y-92895795D01*
X161978345Y-92821661D01*
X161150205Y-93649800D01*
X160790995Y-93649800D01*
X160776852Y-93635658D01*
X160956458Y-93456052D01*
X160970600Y-93470195D01*
X161798739Y-92642055D01*
X161724605Y-92395936D01*
X161633594Y-92363223D01*
X166053035Y-92363223D01*
X166080222Y-92933454D01*
X166246136Y-93334005D01*
X166492255Y-93408139D01*
X167320395Y-92580000D01*
X166492255Y-91751861D01*
X166246136Y-91825995D01*
X166053035Y-92363223D01*
X161633594Y-92363223D01*
X161187377Y-92202835D01*
X160933598Y-92214934D01*
X161505039Y-91643494D01*
X161565737Y-91602937D01*
X161586238Y-91572255D01*
X166671861Y-91572255D01*
X167500000Y-92400395D01*
X168328139Y-91572255D01*
X168254005Y-91326136D01*
X167716777Y-91133035D01*
X167146546Y-91160222D01*
X166745995Y-91326136D01*
X166671861Y-91572255D01*
X161586238Y-91572255D01*
X161726418Y-91362461D01*
X161768600Y-91150399D01*
X161768600Y-91150396D01*
X161782841Y-91078801D01*
X161768600Y-91007206D01*
X161768600Y-89936103D01*
X161774607Y-89934908D01*
X161786534Y-89994865D01*
X161806479Y-90095134D01*
X161934007Y-90285994D01*
X161982186Y-90318186D01*
X162251812Y-90587812D01*
X162284006Y-90635994D01*
X162396860Y-90711400D01*
X162474865Y-90763522D01*
X162700000Y-90808304D01*
X162756829Y-90797000D01*
X168401000Y-90797000D01*
X169002450Y-91398450D01*
X168892150Y-91472150D01*
X168797775Y-91613393D01*
X168764635Y-91780000D01*
X168764635Y-91851998D01*
X168753864Y-91825995D01*
X168507745Y-91751861D01*
X167679605Y-92580000D01*
X168507745Y-93408139D01*
X168753864Y-93334005D01*
X168764635Y-93304039D01*
X168764635Y-93380000D01*
X168797775Y-93546607D01*
X168892150Y-93687850D01*
X169033393Y-93782225D01*
X169200000Y-93815365D01*
X170800000Y-93815365D01*
X170966607Y-93782225D01*
X171107850Y-93687850D01*
X171202225Y-93546607D01*
X171235365Y-93380000D01*
X171235365Y-91780000D01*
X171202225Y-91613393D01*
X171107850Y-91472150D01*
X170966607Y-91377775D01*
X170800000Y-91344635D01*
X170536686Y-91344635D01*
X170415994Y-91164006D01*
X170367815Y-91131814D01*
X170033001Y-90797000D01*
X170333172Y-90797000D01*
X170390000Y-90808304D01*
X170446828Y-90797000D01*
X170446829Y-90797000D01*
X170615134Y-90763522D01*
X170805994Y-90635994D01*
X170838188Y-90587812D01*
X172127140Y-89298860D01*
X172369153Y-89347000D01*
X172610847Y-89347000D01*
X172968752Y-89275808D01*
X173273001Y-89072515D01*
X173273002Y-98058865D01*
X173273002Y-98058865D01*
G37*
X173273002Y-98058865D02*
X171808444Y-99523423D01*
X171705769Y-99503000D01*
X171454231Y-99503000D01*
X171081740Y-99577093D01*
X170659335Y-99859335D01*
X170399410Y-100248340D01*
X170235183Y-99898642D01*
X169806924Y-99508355D01*
X169396890Y-99338524D01*
X169167000Y-99459845D01*
X169167000Y-100653000D01*
X169187000Y-100653000D01*
X169187000Y-100907000D01*
X169167000Y-100907000D01*
X169167000Y-102100155D01*
X169396890Y-102221476D01*
X169806924Y-102051645D01*
X170235183Y-101661358D01*
X170399410Y-101311660D01*
X170659335Y-101700665D01*
X171081740Y-101982907D01*
X171454231Y-102057000D01*
X171705769Y-102057000D01*
X172078260Y-101982907D01*
X172500665Y-101700665D01*
X172782907Y-101278260D01*
X172882017Y-100780000D01*
X172836577Y-100551556D01*
X174108001Y-99280132D01*
X174108001Y-111138000D01*
X161022432Y-111138000D01*
X162741441Y-109418991D01*
X162802137Y-109378436D01*
X162842693Y-109317740D01*
X162842695Y-109317738D01*
X162962818Y-109137961D01*
X162962819Y-109137960D01*
X163005001Y-108925898D01*
X163005001Y-108925894D01*
X163019242Y-108854300D01*
X163005001Y-108782706D01*
X163005001Y-102011894D01*
X163019242Y-101940300D01*
X163005001Y-101868706D01*
X163005001Y-101868702D01*
X162962819Y-101656640D01*
X162802138Y-101416164D01*
X162741440Y-101375607D01*
X161610033Y-100244200D01*
X164936068Y-100244200D01*
X165214635Y-100522767D01*
X165214635Y-101037233D01*
X165186563Y-101065305D01*
X165125864Y-101105863D01*
X165045037Y-101226830D01*
X164356561Y-101915306D01*
X164295863Y-101955864D01*
X164135182Y-102196340D01*
X164093000Y-102408402D01*
X164093000Y-102408405D01*
X164078759Y-102480000D01*
X164093000Y-102551595D01*
X164093000Y-102838402D01*
X164093001Y-107214635D01*
X164020000Y-107214635D01*
X163853393Y-107247775D01*
X163712150Y-107342150D01*
X163617775Y-107483393D01*
X163584635Y-107650000D01*
X163584635Y-109250000D01*
X163617775Y-109416607D01*
X163712150Y-109557850D01*
X163853393Y-109652225D01*
X164020000Y-109685365D01*
X165620000Y-109685365D01*
X165786607Y-109652225D01*
X165927850Y-109557850D01*
X166022225Y-109416607D01*
X166055365Y-109250000D01*
X166055365Y-109106314D01*
X166088959Y-109187423D01*
X166464866Y-109602389D01*
X166970959Y-109841914D01*
X167193000Y-109720629D01*
X167193000Y-108577000D01*
X167447000Y-108577000D01*
X167447000Y-109720629D01*
X167669041Y-109841914D01*
X168175134Y-109602389D01*
X168551041Y-109187423D01*
X168711904Y-108799039D01*
X168589915Y-108577000D01*
X167447000Y-108577000D01*
X167193000Y-108577000D01*
X167173000Y-108577000D01*
X167173000Y-108342864D01*
X170009220Y-108342864D01*
X170009220Y-109010016D01*
X170264528Y-109626384D01*
X170736276Y-110098132D01*
X171352644Y-110353440D01*
X172019796Y-110353440D01*
X172636164Y-110098132D01*
X173107912Y-109626384D01*
X173363220Y-109010016D01*
X173363220Y-108342864D01*
X173107912Y-107726496D01*
X172636164Y-107254748D01*
X172019796Y-106999440D01*
X171352644Y-106999440D01*
X170736276Y-107254748D01*
X170264528Y-107726496D01*
X170009220Y-108342864D01*
X167173000Y-108342864D01*
X167173000Y-108323000D01*
X167193000Y-108323000D01*
X167193000Y-107179371D01*
X167447000Y-107179371D01*
X167447000Y-108323000D01*
X168589915Y-108323000D01*
X168711904Y-108100961D01*
X168551041Y-107712577D01*
X168175134Y-107297611D01*
X167669041Y-107058086D01*
X167447000Y-107179371D01*
X167193000Y-107179371D01*
X166970959Y-107058086D01*
X166464866Y-107297611D01*
X166088959Y-107712577D01*
X166055365Y-107793686D01*
X166055365Y-107650000D01*
X166022225Y-107483393D01*
X165927850Y-107342150D01*
X165786607Y-107247775D01*
X165620000Y-107214635D01*
X165547000Y-107214635D01*
X165547000Y-102781133D01*
X166113442Y-102214692D01*
X166174138Y-102174136D01*
X166214693Y-102113441D01*
X166214696Y-102113438D01*
X166246817Y-102065365D01*
X167350000Y-102065365D01*
X167516607Y-102032225D01*
X167657850Y-101937850D01*
X167752225Y-101796607D01*
X167785365Y-101630000D01*
X167785365Y-101534764D01*
X167844817Y-101661358D01*
X168273076Y-102051645D01*
X168683110Y-102221476D01*
X168913000Y-102100155D01*
X168913000Y-100907000D01*
X168893000Y-100907000D01*
X168893000Y-100653000D01*
X168913000Y-100653000D01*
X168913000Y-99459845D01*
X168683110Y-99338524D01*
X168273076Y-99508355D01*
X167844817Y-99898642D01*
X167785365Y-100025236D01*
X167785365Y-99930000D01*
X167752225Y-99763393D01*
X167657850Y-99622150D01*
X167516607Y-99527775D01*
X167350000Y-99494635D01*
X166242767Y-99494635D01*
X165801896Y-99053764D01*
X165761337Y-98993063D01*
X165520861Y-98832382D01*
X165308799Y-98790200D01*
X165308795Y-98790200D01*
X165237200Y-98775959D01*
X165165605Y-98790200D01*
X159926495Y-98790200D01*
X159854900Y-98775959D01*
X159783305Y-98790200D01*
X158634715Y-98790200D01*
X158509861Y-98488774D01*
X158294176Y-98273089D01*
X158266418Y-98133539D01*
X158105737Y-97893063D01*
X158045036Y-97852504D01*
X157864100Y-97671568D01*
X157864100Y-97329132D01*
X158934040Y-96259193D01*
X158994736Y-96218637D01*
X159035292Y-96157941D01*
X159035294Y-96157939D01*
X159155418Y-95978161D01*
X159161528Y-95947445D01*
X159197600Y-95766099D01*
X159197600Y-95766095D01*
X159211841Y-95694500D01*
X159197600Y-95622905D01*
X159197600Y-94885165D01*
X159270600Y-94885165D01*
X159437207Y-94852025D01*
X159578450Y-94757650D01*
X159645337Y-94657545D01*
X160142461Y-94657545D01*
X160216595Y-94903664D01*
X160753823Y-95096765D01*
X161324054Y-95069578D01*
X161724605Y-94903664D01*
X161798739Y-94657545D01*
X160970600Y-93829405D01*
X160142461Y-94657545D01*
X159645337Y-94657545D01*
X159672825Y-94616407D01*
X159705965Y-94449800D01*
X159705965Y-94377802D01*
X159716736Y-94403805D01*
X159962855Y-94477939D01*
X160790995Y-93649800D01*
X161150205Y-93649800D01*
X161978345Y-94477939D01*
X162224464Y-94403805D01*
X162417565Y-93866577D01*
X162404272Y-93587745D01*
X166671861Y-93587745D01*
X166745995Y-93833864D01*
X167283223Y-94026965D01*
X167853454Y-93999778D01*
X168254005Y-93833864D01*
X168328139Y-93587745D01*
X167500000Y-92759605D01*
X166671861Y-93587745D01*
X162404272Y-93587745D01*
X162390378Y-93296346D01*
X162224464Y-92895795D01*
X161978345Y-92821661D01*
X161150205Y-93649800D01*
X160790995Y-93649800D01*
X160776852Y-93635658D01*
X160956458Y-93456052D01*
X160970600Y-93470195D01*
X161798739Y-92642055D01*
X161724605Y-92395936D01*
X161633594Y-92363223D01*
X166053035Y-92363223D01*
X166080222Y-92933454D01*
X166246136Y-93334005D01*
X166492255Y-93408139D01*
X167320395Y-92580000D01*
X166492255Y-91751861D01*
X166246136Y-91825995D01*
X166053035Y-92363223D01*
X161633594Y-92363223D01*
X161187377Y-92202835D01*
X160933598Y-92214934D01*
X161505039Y-91643494D01*
X161565737Y-91602937D01*
X161586238Y-91572255D01*
X166671861Y-91572255D01*
X167500000Y-92400395D01*
X168328139Y-91572255D01*
X168254005Y-91326136D01*
X167716777Y-91133035D01*
X167146546Y-91160222D01*
X166745995Y-91326136D01*
X166671861Y-91572255D01*
X161586238Y-91572255D01*
X161726418Y-91362461D01*
X161768600Y-91150399D01*
X161768600Y-91150396D01*
X161782841Y-91078801D01*
X161768600Y-91007206D01*
X161768600Y-89936103D01*
X161774607Y-89934908D01*
X161786534Y-89994865D01*
X161806479Y-90095134D01*
X161934007Y-90285994D01*
X161982186Y-90318186D01*
X162251812Y-90587812D01*
X162284006Y-90635994D01*
X162396860Y-90711400D01*
X162474865Y-90763522D01*
X162700000Y-90808304D01*
X162756829Y-90797000D01*
X168401000Y-90797000D01*
X169002450Y-91398450D01*
X168892150Y-91472150D01*
X168797775Y-91613393D01*
X168764635Y-91780000D01*
X168764635Y-91851998D01*
X168753864Y-91825995D01*
X168507745Y-91751861D01*
X167679605Y-92580000D01*
X168507745Y-93408139D01*
X168753864Y-93334005D01*
X168764635Y-93304039D01*
X168764635Y-93380000D01*
X168797775Y-93546607D01*
X168892150Y-93687850D01*
X169033393Y-93782225D01*
X169200000Y-93815365D01*
X170800000Y-93815365D01*
X170966607Y-93782225D01*
X171107850Y-93687850D01*
X171202225Y-93546607D01*
X171235365Y-93380000D01*
X171235365Y-91780000D01*
X171202225Y-91613393D01*
X171107850Y-91472150D01*
X170966607Y-91377775D01*
X170800000Y-91344635D01*
X170536686Y-91344635D01*
X170415994Y-91164006D01*
X170367815Y-91131814D01*
X170033001Y-90797000D01*
X170333172Y-90797000D01*
X170390000Y-90808304D01*
X170446828Y-90797000D01*
X170446829Y-90797000D01*
X170615134Y-90763522D01*
X170805994Y-90635994D01*
X170838188Y-90587812D01*
X172127140Y-89298860D01*
X172369153Y-89347000D01*
X172610847Y-89347000D01*
X172968752Y-89275808D01*
X173273001Y-89072515D01*
X173273002Y-98058865D01*
G36*
X156410100Y-97901104D02*
X156395859Y-97972700D01*
X156410100Y-98044295D01*
X156410100Y-98044298D01*
X156452282Y-98256360D01*
X156612963Y-98496836D01*
X156673662Y-98537394D01*
X156786473Y-98650205D01*
X156704600Y-98847863D01*
X156704600Y-99236537D01*
X156853339Y-99595626D01*
X156856608Y-99598895D01*
X156876873Y-99700775D01*
X156488599Y-99569228D01*
X156018204Y-99600337D01*
X155768600Y-99703727D01*
X155768600Y-99636887D01*
X155784861Y-99620626D01*
X155933600Y-99261537D01*
X155933600Y-98872863D01*
X155784861Y-98513774D01*
X155510026Y-98238939D01*
X155150937Y-98090200D01*
X154762263Y-98090200D01*
X154403174Y-98238939D01*
X154128339Y-98513774D01*
X153979600Y-98872863D01*
X153979600Y-99261537D01*
X154128339Y-99620626D01*
X154314600Y-99806887D01*
X154314601Y-101421200D01*
X154300359Y-101492800D01*
X154356782Y-101776460D01*
X154476656Y-101955864D01*
X154517464Y-102016937D01*
X154578162Y-102057494D01*
X158402005Y-105881338D01*
X158251000Y-106245896D01*
X158251000Y-107012504D01*
X158544368Y-107720758D01*
X159086442Y-108262832D01*
X159794696Y-108556200D01*
X160561304Y-108556200D01*
X161269558Y-108262832D01*
X161551001Y-107981389D01*
X161551001Y-108553166D01*
X159958658Y-110145510D01*
X151978480Y-110145510D01*
X152862947Y-109261044D01*
X152906945Y-109231645D01*
X152936343Y-109187648D01*
X152936346Y-109187645D01*
X153023422Y-109057326D01*
X153023423Y-109057325D01*
X153054000Y-108903603D01*
X153054000Y-108903599D01*
X153064323Y-108851701D01*
X153054000Y-108799803D01*
X153054000Y-108143170D01*
X153843635Y-108143170D01*
X154003418Y-108461939D01*
X154794187Y-108771923D01*
X155643387Y-108755697D01*
X156352582Y-108461939D01*
X156512365Y-108143170D01*
X155178000Y-106808805D01*
X153843635Y-108143170D01*
X153054000Y-108143170D01*
X153054000Y-107100615D01*
X153345261Y-107803782D01*
X153664030Y-107963565D01*
X154998395Y-106629200D01*
X155357605Y-106629200D01*
X156691970Y-107963565D01*
X157010739Y-107803782D01*
X157320723Y-107013013D01*
X157304497Y-106163813D01*
X157010739Y-105454618D01*
X156691970Y-105294835D01*
X155357605Y-106629200D01*
X154998395Y-106629200D01*
X153664030Y-105294835D01*
X153345261Y-105454618D01*
X153054000Y-106197625D01*
X153054000Y-105115230D01*
X153843635Y-105115230D01*
X155178000Y-106449595D01*
X156512365Y-105115230D01*
X156352582Y-104796461D01*
X155561813Y-104486477D01*
X154712613Y-104502703D01*
X154003418Y-104796461D01*
X153843635Y-105115230D01*
X153054000Y-105115230D01*
X153054000Y-98895998D01*
X153064323Y-98844100D01*
X153054000Y-98792202D01*
X153054000Y-98792197D01*
X153023423Y-98638475D01*
X152948314Y-98526067D01*
X152936346Y-98508155D01*
X152936343Y-98508152D01*
X152906945Y-98464155D01*
X152862948Y-98434757D01*
X152370246Y-97942056D01*
X152340846Y-97898056D01*
X152294822Y-97867303D01*
X152247767Y-97835862D01*
X152166526Y-97781578D01*
X152032908Y-97755000D01*
X156410100Y-97755000D01*
X156410100Y-97901104D01*
X156410100Y-97901104D01*
G37*
X156410100Y-97901104D02*
X156395859Y-97972700D01*
X156410100Y-98044295D01*
X156410100Y-98044298D01*
X156452282Y-98256360D01*
X156612963Y-98496836D01*
X156673662Y-98537394D01*
X156786473Y-98650205D01*
X156704600Y-98847863D01*
X156704600Y-99236537D01*
X156853339Y-99595626D01*
X156856608Y-99598895D01*
X156876873Y-99700775D01*
X156488599Y-99569228D01*
X156018204Y-99600337D01*
X155768600Y-99703727D01*
X155768600Y-99636887D01*
X155784861Y-99620626D01*
X155933600Y-99261537D01*
X155933600Y-98872863D01*
X155784861Y-98513774D01*
X155510026Y-98238939D01*
X155150937Y-98090200D01*
X154762263Y-98090200D01*
X154403174Y-98238939D01*
X154128339Y-98513774D01*
X153979600Y-98872863D01*
X153979600Y-99261537D01*
X154128339Y-99620626D01*
X154314600Y-99806887D01*
X154314601Y-101421200D01*
X154300359Y-101492800D01*
X154356782Y-101776460D01*
X154476656Y-101955864D01*
X154517464Y-102016937D01*
X154578162Y-102057494D01*
X158402005Y-105881338D01*
X158251000Y-106245896D01*
X158251000Y-107012504D01*
X158544368Y-107720758D01*
X159086442Y-108262832D01*
X159794696Y-108556200D01*
X160561304Y-108556200D01*
X161269558Y-108262832D01*
X161551001Y-107981389D01*
X161551001Y-108553166D01*
X159958658Y-110145510D01*
X151978480Y-110145510D01*
X152862947Y-109261044D01*
X152906945Y-109231645D01*
X152936343Y-109187648D01*
X152936346Y-109187645D01*
X153023422Y-109057326D01*
X153023423Y-109057325D01*
X153054000Y-108903603D01*
X153054000Y-108903599D01*
X153064323Y-108851701D01*
X153054000Y-108799803D01*
X153054000Y-108143170D01*
X153843635Y-108143170D01*
X154003418Y-108461939D01*
X154794187Y-108771923D01*
X155643387Y-108755697D01*
X156352582Y-108461939D01*
X156512365Y-108143170D01*
X155178000Y-106808805D01*
X153843635Y-108143170D01*
X153054000Y-108143170D01*
X153054000Y-107100615D01*
X153345261Y-107803782D01*
X153664030Y-107963565D01*
X154998395Y-106629200D01*
X155357605Y-106629200D01*
X156691970Y-107963565D01*
X157010739Y-107803782D01*
X157320723Y-107013013D01*
X157304497Y-106163813D01*
X157010739Y-105454618D01*
X156691970Y-105294835D01*
X155357605Y-106629200D01*
X154998395Y-106629200D01*
X153664030Y-105294835D01*
X153345261Y-105454618D01*
X153054000Y-106197625D01*
X153054000Y-105115230D01*
X153843635Y-105115230D01*
X155178000Y-106449595D01*
X156512365Y-105115230D01*
X156352582Y-104796461D01*
X155561813Y-104486477D01*
X154712613Y-104502703D01*
X154003418Y-104796461D01*
X153843635Y-105115230D01*
X153054000Y-105115230D01*
X153054000Y-98895998D01*
X153064323Y-98844100D01*
X153054000Y-98792202D01*
X153054000Y-98792197D01*
X153023423Y-98638475D01*
X152948314Y-98526067D01*
X152936346Y-98508155D01*
X152936343Y-98508152D01*
X152906945Y-98464155D01*
X152862948Y-98434757D01*
X152370246Y-97942056D01*
X152340846Y-97898056D01*
X152294822Y-97867303D01*
X152247767Y-97835862D01*
X152166526Y-97781578D01*
X152032908Y-97755000D01*
X156410100Y-97755000D01*
X156410100Y-97901104D01*
G36*
X129921000Y-106248200D02*
X129941000Y-106248200D01*
X129941000Y-106502200D01*
X129921000Y-106502200D01*
X129921000Y-106522200D01*
X129667000Y-106522200D01*
X129667000Y-106502200D01*
X129647000Y-106502200D01*
X129647000Y-106248200D01*
X129667000Y-106248200D01*
X129667000Y-106228200D01*
X129921000Y-106228200D01*
X129921000Y-106248200D01*
X129921000Y-106248200D01*
G37*
X129921000Y-106248200D02*
X129941000Y-106248200D01*
X129941000Y-106502200D01*
X129921000Y-106502200D01*
X129921000Y-106522200D01*
X129667000Y-106522200D01*
X129667000Y-106502200D01*
X129647000Y-106502200D01*
X129647000Y-106248200D01*
X129667000Y-106248200D01*
X129667000Y-106228200D01*
X129921000Y-106228200D01*
X129921000Y-106248200D01*
G36*
X135610602Y-102561193D02*
X135610601Y-105076630D01*
X135233026Y-104920242D01*
X135001000Y-105041383D01*
X135001000Y-106248200D01*
X135021000Y-106248200D01*
X135021000Y-106502200D01*
X135001000Y-106502200D01*
X135001000Y-106522200D01*
X134747000Y-106522200D01*
X134747000Y-106502200D01*
X134727000Y-106502200D01*
X134727000Y-106248200D01*
X134747000Y-106248200D01*
X134747000Y-105041383D01*
X134514974Y-104920242D01*
X134110680Y-105087696D01*
X134110680Y-101061271D01*
X135610602Y-102561193D01*
X135610602Y-102561193D01*
G37*
X135610602Y-102561193D02*
X135610601Y-105076630D01*
X135233026Y-104920242D01*
X135001000Y-105041383D01*
X135001000Y-106248200D01*
X135021000Y-106248200D01*
X135021000Y-106502200D01*
X135001000Y-106502200D01*
X135001000Y-106522200D01*
X134747000Y-106522200D01*
X134747000Y-106502200D01*
X134727000Y-106502200D01*
X134727000Y-106248200D01*
X134747000Y-106248200D01*
X134747000Y-105041383D01*
X134514974Y-104920242D01*
X134110680Y-105087696D01*
X134110680Y-101061271D01*
X135610602Y-102561193D01*
G36*
X135388401Y-89517872D02*
X135388400Y-92421171D01*
X134982103Y-92200450D01*
X134910475Y-92186267D01*
X134696200Y-92308921D01*
X134696200Y-93751400D01*
X134716200Y-93751400D01*
X134716200Y-94005400D01*
X134696200Y-94005400D01*
X134696200Y-95447879D01*
X134910475Y-95570533D01*
X134982103Y-95556350D01*
X135457850Y-95297901D01*
X135535455Y-95414045D01*
X135579455Y-95443445D01*
X137095281Y-96959272D01*
X137095281Y-96969803D01*
X136921660Y-96853793D01*
X136549169Y-96779700D01*
X136297631Y-96779700D01*
X135925140Y-96853793D01*
X135502735Y-97136035D01*
X135220493Y-97558440D01*
X135121383Y-98056700D01*
X135220493Y-98554960D01*
X135502735Y-98977365D01*
X135846400Y-99206995D01*
X135846400Y-99445132D01*
X135835096Y-99501960D01*
X135846400Y-99558788D01*
X135879878Y-99727093D01*
X136007406Y-99917954D01*
X136055588Y-99950148D01*
X138100602Y-101995164D01*
X138100601Y-105281782D01*
X137917567Y-105159482D01*
X137541111Y-105084600D01*
X137286889Y-105084600D01*
X136910433Y-105159482D01*
X136664601Y-105323742D01*
X136664601Y-102394798D01*
X136674924Y-102342900D01*
X136664601Y-102291002D01*
X136664601Y-102290998D01*
X136634024Y-102137276D01*
X136585974Y-102065365D01*
X136546947Y-102006956D01*
X136546944Y-102006953D01*
X136517546Y-101962956D01*
X136473549Y-101933558D01*
X133137048Y-98597058D01*
X133137046Y-98597055D01*
X129640925Y-95100935D01*
X129640925Y-93918616D01*
X129693059Y-93970750D01*
X129728039Y-94023101D01*
X129935437Y-94161680D01*
X130118330Y-94198060D01*
X130118334Y-94198060D01*
X130180079Y-94210342D01*
X130241824Y-94198060D01*
X131023658Y-94198060D01*
X131085404Y-94210342D01*
X131147150Y-94198060D01*
X131147154Y-94198060D01*
X131330047Y-94161680D01*
X131537445Y-94023101D01*
X131549272Y-94005400D01*
X133183630Y-94005400D01*
X133183630Y-94354650D01*
X133337701Y-94875217D01*
X133679256Y-95297198D01*
X134156297Y-95556350D01*
X134227925Y-95570533D01*
X134442200Y-95447879D01*
X134442200Y-94005400D01*
X133183630Y-94005400D01*
X131549272Y-94005400D01*
X131572425Y-93970750D01*
X132141025Y-93402150D01*
X133183630Y-93402150D01*
X133183630Y-93751400D01*
X134442200Y-93751400D01*
X134442200Y-92308921D01*
X134227925Y-92186267D01*
X134156297Y-92200450D01*
X133679256Y-92459602D01*
X133337701Y-92881583D01*
X133183630Y-93402150D01*
X132141025Y-93402150D01*
X134824110Y-90719065D01*
X134876461Y-90684085D01*
X135015040Y-90476687D01*
X135051420Y-90293794D01*
X135051420Y-90293790D01*
X135063702Y-90232044D01*
X135051420Y-90170298D01*
X135051420Y-89898171D01*
X135151420Y-89656749D01*
X135151420Y-89367531D01*
X135090157Y-89219628D01*
X135388401Y-89517872D01*
X135388401Y-89517872D01*
G37*
X135388401Y-89517872D02*
X135388400Y-92421171D01*
X134982103Y-92200450D01*
X134910475Y-92186267D01*
X134696200Y-92308921D01*
X134696200Y-93751400D01*
X134716200Y-93751400D01*
X134716200Y-94005400D01*
X134696200Y-94005400D01*
X134696200Y-95447879D01*
X134910475Y-95570533D01*
X134982103Y-95556350D01*
X135457850Y-95297901D01*
X135535455Y-95414045D01*
X135579455Y-95443445D01*
X137095281Y-96959272D01*
X137095281Y-96969803D01*
X136921660Y-96853793D01*
X136549169Y-96779700D01*
X136297631Y-96779700D01*
X135925140Y-96853793D01*
X135502735Y-97136035D01*
X135220493Y-97558440D01*
X135121383Y-98056700D01*
X135220493Y-98554960D01*
X135502735Y-98977365D01*
X135846400Y-99206995D01*
X135846400Y-99445132D01*
X135835096Y-99501960D01*
X135846400Y-99558788D01*
X135879878Y-99727093D01*
X136007406Y-99917954D01*
X136055588Y-99950148D01*
X138100602Y-101995164D01*
X138100601Y-105281782D01*
X137917567Y-105159482D01*
X137541111Y-105084600D01*
X137286889Y-105084600D01*
X136910433Y-105159482D01*
X136664601Y-105323742D01*
X136664601Y-102394798D01*
X136674924Y-102342900D01*
X136664601Y-102291002D01*
X136664601Y-102290998D01*
X136634024Y-102137276D01*
X136585974Y-102065365D01*
X136546947Y-102006956D01*
X136546944Y-102006953D01*
X136517546Y-101962956D01*
X136473549Y-101933558D01*
X133137048Y-98597058D01*
X133137046Y-98597055D01*
X129640925Y-95100935D01*
X129640925Y-93918616D01*
X129693059Y-93970750D01*
X129728039Y-94023101D01*
X129935437Y-94161680D01*
X130118330Y-94198060D01*
X130118334Y-94198060D01*
X130180079Y-94210342D01*
X130241824Y-94198060D01*
X131023658Y-94198060D01*
X131085404Y-94210342D01*
X131147150Y-94198060D01*
X131147154Y-94198060D01*
X131330047Y-94161680D01*
X131537445Y-94023101D01*
X131549272Y-94005400D01*
X133183630Y-94005400D01*
X133183630Y-94354650D01*
X133337701Y-94875217D01*
X133679256Y-95297198D01*
X134156297Y-95556350D01*
X134227925Y-95570533D01*
X134442200Y-95447879D01*
X134442200Y-94005400D01*
X133183630Y-94005400D01*
X131549272Y-94005400D01*
X131572425Y-93970750D01*
X132141025Y-93402150D01*
X133183630Y-93402150D01*
X133183630Y-93751400D01*
X134442200Y-93751400D01*
X134442200Y-92308921D01*
X134227925Y-92186267D01*
X134156297Y-92200450D01*
X133679256Y-92459602D01*
X133337701Y-92881583D01*
X133183630Y-93402150D01*
X132141025Y-93402150D01*
X134824110Y-90719065D01*
X134876461Y-90684085D01*
X135015040Y-90476687D01*
X135051420Y-90293794D01*
X135051420Y-90293790D01*
X135063702Y-90232044D01*
X135051420Y-90170298D01*
X135051420Y-89898171D01*
X135151420Y-89656749D01*
X135151420Y-89367531D01*
X135090157Y-89219628D01*
X135388401Y-89517872D01*
G36*
X157581600Y-100258442D02*
X157653199Y-100244200D01*
X159553768Y-100244200D01*
X161551002Y-102241435D01*
X161551002Y-105277012D01*
X161269558Y-104995568D01*
X160561304Y-104702200D01*
X159794696Y-104702200D01*
X159430138Y-104853205D01*
X156519308Y-101942375D01*
X156644996Y-101934063D01*
X156935092Y-101813901D01*
X156978428Y-101593633D01*
X156331600Y-100946805D01*
X156317458Y-100960948D01*
X156137853Y-100781343D01*
X156151995Y-100767200D01*
X156137853Y-100753058D01*
X156317458Y-100573453D01*
X156331600Y-100587595D01*
X156345743Y-100573453D01*
X156525348Y-100753058D01*
X156511205Y-100767200D01*
X157158033Y-101414028D01*
X157378301Y-101370692D01*
X157529572Y-100924199D01*
X157498463Y-100453804D01*
X157402810Y-100222878D01*
X157581600Y-100258442D01*
X157581600Y-100258442D01*
G37*
X157581600Y-100258442D02*
X157653199Y-100244200D01*
X159553768Y-100244200D01*
X161551002Y-102241435D01*
X161551002Y-105277012D01*
X161269558Y-104995568D01*
X160561304Y-104702200D01*
X159794696Y-104702200D01*
X159430138Y-104853205D01*
X156519308Y-101942375D01*
X156644996Y-101934063D01*
X156935092Y-101813901D01*
X156978428Y-101593633D01*
X156331600Y-100946805D01*
X156317458Y-100960948D01*
X156137853Y-100781343D01*
X156151995Y-100767200D01*
X156137853Y-100753058D01*
X156317458Y-100573453D01*
X156331600Y-100587595D01*
X156345743Y-100573453D01*
X156525348Y-100753058D01*
X156511205Y-100767200D01*
X157158033Y-101414028D01*
X157378301Y-101370692D01*
X157529572Y-100924199D01*
X157498463Y-100453804D01*
X157402810Y-100222878D01*
X157581600Y-100258442D01*
G36*
X160133750Y-89833850D02*
X160274993Y-89928225D01*
X160314601Y-89936103D01*
X160314601Y-90777666D01*
X158677833Y-92414435D01*
X157670600Y-92414435D01*
X157503993Y-92447575D01*
X157362750Y-92541950D01*
X157268375Y-92683193D01*
X157235235Y-92849800D01*
X157235235Y-94449800D01*
X157268375Y-94616407D01*
X157362750Y-94757650D01*
X157503993Y-94852025D01*
X157670600Y-94885165D01*
X157743600Y-94885165D01*
X157743600Y-95393367D01*
X157051662Y-96085306D01*
X156835968Y-96301000D01*
X150402068Y-96301000D01*
X150272665Y-96107335D01*
X149850260Y-95825093D01*
X149477769Y-95751000D01*
X149226231Y-95751000D01*
X148853740Y-95825093D01*
X148431335Y-96107335D01*
X148149093Y-96529740D01*
X148101000Y-96771520D01*
X148101000Y-95619397D01*
X148111323Y-95567499D01*
X148101000Y-95515601D01*
X148101000Y-95515597D01*
X148070423Y-95361875D01*
X148040722Y-95317424D01*
X147983346Y-95231555D01*
X147983343Y-95231552D01*
X147953945Y-95187555D01*
X147909947Y-95158156D01*
X147409336Y-94657545D01*
X151927461Y-94657545D01*
X152001595Y-94903664D01*
X152538823Y-95096765D01*
X153109054Y-95069578D01*
X153509605Y-94903664D01*
X153583739Y-94657545D01*
X152755600Y-93829405D01*
X151927461Y-94657545D01*
X147409336Y-94657545D01*
X146810680Y-94058890D01*
X146810680Y-92333244D01*
X146879980Y-92333244D01*
X146879980Y-93000396D01*
X147135288Y-93616764D01*
X147607036Y-94088512D01*
X148223404Y-94343820D01*
X148890556Y-94343820D01*
X149506924Y-94088512D01*
X149978672Y-93616764D01*
X150054780Y-93433023D01*
X151308635Y-93433023D01*
X151335822Y-94003254D01*
X151501736Y-94403805D01*
X151747855Y-94477939D01*
X152575995Y-93649800D01*
X152935205Y-93649800D01*
X153763345Y-94477939D01*
X154009464Y-94403805D01*
X154020235Y-94373839D01*
X154020235Y-94449800D01*
X154053375Y-94616407D01*
X154147750Y-94757650D01*
X154288993Y-94852025D01*
X154455600Y-94885165D01*
X156055600Y-94885165D01*
X156222207Y-94852025D01*
X156363450Y-94757650D01*
X156457825Y-94616407D01*
X156490965Y-94449800D01*
X156490965Y-92849800D01*
X156457825Y-92683193D01*
X156363450Y-92541950D01*
X156222207Y-92447575D01*
X156055600Y-92414435D01*
X154455600Y-92414435D01*
X154288993Y-92447575D01*
X154147750Y-92541950D01*
X154053375Y-92683193D01*
X154020235Y-92849800D01*
X154020235Y-92921798D01*
X154009464Y-92895795D01*
X153763345Y-92821661D01*
X152935205Y-93649800D01*
X152575995Y-93649800D01*
X151747855Y-92821661D01*
X151501736Y-92895795D01*
X151308635Y-93433023D01*
X150054780Y-93433023D01*
X150233980Y-93000396D01*
X150233980Y-92642055D01*
X151927461Y-92642055D01*
X152755600Y-93470195D01*
X153583739Y-92642055D01*
X153509605Y-92395936D01*
X152972377Y-92202835D01*
X152402146Y-92230022D01*
X152001595Y-92395936D01*
X151927461Y-92642055D01*
X150233980Y-92642055D01*
X150233980Y-92333244D01*
X149978672Y-91716876D01*
X149506924Y-91245128D01*
X148890556Y-90989820D01*
X148223404Y-90989820D01*
X147607036Y-91245128D01*
X147135288Y-91716876D01*
X146879980Y-92333244D01*
X146810680Y-92333244D01*
X146810680Y-91902210D01*
X148751526Y-89961365D01*
X149641600Y-89961365D01*
X149808207Y-89928225D01*
X149949450Y-89833850D01*
X150041600Y-89695937D01*
X150133750Y-89833850D01*
X150274993Y-89928225D01*
X150441600Y-89961365D01*
X151641600Y-89961365D01*
X151808207Y-89928225D01*
X151949450Y-89833850D01*
X152041600Y-89695937D01*
X152133750Y-89833850D01*
X152274993Y-89928225D01*
X152441600Y-89961365D01*
X153641600Y-89961365D01*
X153808207Y-89928225D01*
X153949450Y-89833850D01*
X154041600Y-89695937D01*
X154133750Y-89833850D01*
X154274993Y-89928225D01*
X154441600Y-89961365D01*
X155641600Y-89961365D01*
X155808207Y-89928225D01*
X155949450Y-89833850D01*
X156041600Y-89695937D01*
X156133750Y-89833850D01*
X156274993Y-89928225D01*
X156441600Y-89961365D01*
X157641600Y-89961365D01*
X157808207Y-89928225D01*
X157949450Y-89833850D01*
X158041600Y-89695937D01*
X158133750Y-89833850D01*
X158274993Y-89928225D01*
X158441600Y-89961365D01*
X159641600Y-89961365D01*
X159808207Y-89928225D01*
X159949450Y-89833850D01*
X160041600Y-89695937D01*
X160133750Y-89833850D01*
X160133750Y-89833850D01*
G37*
X160133750Y-89833850D02*
X160274993Y-89928225D01*
X160314601Y-89936103D01*
X160314601Y-90777666D01*
X158677833Y-92414435D01*
X157670600Y-92414435D01*
X157503993Y-92447575D01*
X157362750Y-92541950D01*
X157268375Y-92683193D01*
X157235235Y-92849800D01*
X157235235Y-94449800D01*
X157268375Y-94616407D01*
X157362750Y-94757650D01*
X157503993Y-94852025D01*
X157670600Y-94885165D01*
X157743600Y-94885165D01*
X157743600Y-95393367D01*
X157051662Y-96085306D01*
X156835968Y-96301000D01*
X150402068Y-96301000D01*
X150272665Y-96107335D01*
X149850260Y-95825093D01*
X149477769Y-95751000D01*
X149226231Y-95751000D01*
X148853740Y-95825093D01*
X148431335Y-96107335D01*
X148149093Y-96529740D01*
X148101000Y-96771520D01*
X148101000Y-95619397D01*
X148111323Y-95567499D01*
X148101000Y-95515601D01*
X148101000Y-95515597D01*
X148070423Y-95361875D01*
X148040722Y-95317424D01*
X147983346Y-95231555D01*
X147983343Y-95231552D01*
X147953945Y-95187555D01*
X147909947Y-95158156D01*
X147409336Y-94657545D01*
X151927461Y-94657545D01*
X152001595Y-94903664D01*
X152538823Y-95096765D01*
X153109054Y-95069578D01*
X153509605Y-94903664D01*
X153583739Y-94657545D01*
X152755600Y-93829405D01*
X151927461Y-94657545D01*
X147409336Y-94657545D01*
X146810680Y-94058890D01*
X146810680Y-92333244D01*
X146879980Y-92333244D01*
X146879980Y-93000396D01*
X147135288Y-93616764D01*
X147607036Y-94088512D01*
X148223404Y-94343820D01*
X148890556Y-94343820D01*
X149506924Y-94088512D01*
X149978672Y-93616764D01*
X150054780Y-93433023D01*
X151308635Y-93433023D01*
X151335822Y-94003254D01*
X151501736Y-94403805D01*
X151747855Y-94477939D01*
X152575995Y-93649800D01*
X152935205Y-93649800D01*
X153763345Y-94477939D01*
X154009464Y-94403805D01*
X154020235Y-94373839D01*
X154020235Y-94449800D01*
X154053375Y-94616407D01*
X154147750Y-94757650D01*
X154288993Y-94852025D01*
X154455600Y-94885165D01*
X156055600Y-94885165D01*
X156222207Y-94852025D01*
X156363450Y-94757650D01*
X156457825Y-94616407D01*
X156490965Y-94449800D01*
X156490965Y-92849800D01*
X156457825Y-92683193D01*
X156363450Y-92541950D01*
X156222207Y-92447575D01*
X156055600Y-92414435D01*
X154455600Y-92414435D01*
X154288993Y-92447575D01*
X154147750Y-92541950D01*
X154053375Y-92683193D01*
X154020235Y-92849800D01*
X154020235Y-92921798D01*
X154009464Y-92895795D01*
X153763345Y-92821661D01*
X152935205Y-93649800D01*
X152575995Y-93649800D01*
X151747855Y-92821661D01*
X151501736Y-92895795D01*
X151308635Y-93433023D01*
X150054780Y-93433023D01*
X150233980Y-93000396D01*
X150233980Y-92642055D01*
X151927461Y-92642055D01*
X152755600Y-93470195D01*
X153583739Y-92642055D01*
X153509605Y-92395936D01*
X152972377Y-92202835D01*
X152402146Y-92230022D01*
X152001595Y-92395936D01*
X151927461Y-92642055D01*
X150233980Y-92642055D01*
X150233980Y-92333244D01*
X149978672Y-91716876D01*
X149506924Y-91245128D01*
X148890556Y-90989820D01*
X148223404Y-90989820D01*
X147607036Y-91245128D01*
X147135288Y-91716876D01*
X146879980Y-92333244D01*
X146810680Y-92333244D01*
X146810680Y-91902210D01*
X148751526Y-89961365D01*
X149641600Y-89961365D01*
X149808207Y-89928225D01*
X149949450Y-89833850D01*
X150041600Y-89695937D01*
X150133750Y-89833850D01*
X150274993Y-89928225D01*
X150441600Y-89961365D01*
X151641600Y-89961365D01*
X151808207Y-89928225D01*
X151949450Y-89833850D01*
X152041600Y-89695937D01*
X152133750Y-89833850D01*
X152274993Y-89928225D01*
X152441600Y-89961365D01*
X153641600Y-89961365D01*
X153808207Y-89928225D01*
X153949450Y-89833850D01*
X154041600Y-89695937D01*
X154133750Y-89833850D01*
X154274993Y-89928225D01*
X154441600Y-89961365D01*
X155641600Y-89961365D01*
X155808207Y-89928225D01*
X155949450Y-89833850D01*
X156041600Y-89695937D01*
X156133750Y-89833850D01*
X156274993Y-89928225D01*
X156441600Y-89961365D01*
X157641600Y-89961365D01*
X157808207Y-89928225D01*
X157949450Y-89833850D01*
X158041600Y-89695937D01*
X158133750Y-89833850D01*
X158274993Y-89928225D01*
X158441600Y-89961365D01*
X159641600Y-89961365D01*
X159808207Y-89928225D01*
X159949450Y-89833850D01*
X160041600Y-89695937D01*
X160133750Y-89833850D01*
G36*
X160439100Y-63703200D02*
X161423350Y-63703200D01*
X161582100Y-63544450D01*
X161582100Y-62012000D01*
X174108000Y-62012000D01*
X174108000Y-83189867D01*
X173754697Y-82836564D01*
X173714138Y-82775863D01*
X173473662Y-82615182D01*
X173261600Y-82573000D01*
X173261596Y-82573000D01*
X173190001Y-82558759D01*
X173118406Y-82573000D01*
X171221593Y-82573000D01*
X171149999Y-82558759D01*
X171078405Y-82573000D01*
X171078401Y-82573000D01*
X170866339Y-82615182D01*
X170625863Y-82775863D01*
X170585306Y-82836561D01*
X166028868Y-87393000D01*
X165878239Y-87393000D01*
X165565039Y-87079800D01*
X165114065Y-86893000D01*
X164671133Y-86893000D01*
X163977001Y-86198869D01*
X163977001Y-85982607D01*
X164041861Y-85917747D01*
X164115995Y-86163864D01*
X164653223Y-86356965D01*
X165223454Y-86329778D01*
X165624005Y-86163864D01*
X165698139Y-85917745D01*
X164870000Y-85089605D01*
X164855858Y-85103748D01*
X164676252Y-84924142D01*
X164690395Y-84910000D01*
X165049605Y-84910000D01*
X165877745Y-85738139D01*
X166123864Y-85664005D01*
X166316965Y-85126777D01*
X166289778Y-84556546D01*
X166123864Y-84155995D01*
X165877745Y-84081861D01*
X165049605Y-84910000D01*
X164690395Y-84910000D01*
X163862255Y-84081861D01*
X163616136Y-84155995D01*
X163563253Y-84303121D01*
X163162387Y-83902255D01*
X164041861Y-83902255D01*
X164870000Y-84730395D01*
X165698139Y-83902255D01*
X165624005Y-83656136D01*
X165086777Y-83463035D01*
X164516546Y-83490222D01*
X164115995Y-83656136D01*
X164041861Y-83902255D01*
X163162387Y-83902255D01*
X162998522Y-83738390D01*
X162998521Y-83738387D01*
X162794013Y-83533879D01*
X162726555Y-83505937D01*
X162665860Y-83465382D01*
X162594265Y-83451141D01*
X162526809Y-83423200D01*
X162453795Y-83423200D01*
X162382200Y-83408959D01*
X162310605Y-83423200D01*
X162237591Y-83423200D01*
X162209199Y-83434960D01*
X162209199Y-82436173D01*
X162223440Y-82364579D01*
X162209199Y-82292985D01*
X162209199Y-82292982D01*
X162167017Y-82080919D01*
X162006336Y-81840443D01*
X161945637Y-81799885D01*
X161866942Y-81721190D01*
X162253440Y-81334693D01*
X162314136Y-81294137D01*
X162354692Y-81233441D01*
X162354694Y-81233439D01*
X162472194Y-81057588D01*
X162474818Y-81053661D01*
X162517000Y-80841599D01*
X162517000Y-80841595D01*
X162531241Y-80770001D01*
X162517000Y-80698407D01*
X162517000Y-78785989D01*
X163623000Y-78785989D01*
X163623000Y-79294011D01*
X163817412Y-79763362D01*
X164176638Y-80122588D01*
X164645989Y-80317000D01*
X165154011Y-80317000D01*
X165623362Y-80122588D01*
X165982588Y-79763362D01*
X166177000Y-79294011D01*
X166177000Y-79236152D01*
X166237093Y-79538260D01*
X166519335Y-79960665D01*
X166941740Y-80242907D01*
X167314231Y-80317000D01*
X167565769Y-80317000D01*
X167938260Y-80242907D01*
X168360665Y-79960665D01*
X168642907Y-79538260D01*
X168710000Y-79200960D01*
X168777093Y-79538260D01*
X169059335Y-79960665D01*
X169481740Y-80242907D01*
X169854231Y-80317000D01*
X170105769Y-80317000D01*
X170478260Y-80242907D01*
X170900665Y-79960665D01*
X171182907Y-79538260D01*
X171250000Y-79200960D01*
X171317093Y-79538260D01*
X171599335Y-79960665D01*
X172021740Y-80242907D01*
X172394231Y-80317000D01*
X172645769Y-80317000D01*
X173018260Y-80242907D01*
X173440665Y-79960665D01*
X173722907Y-79538260D01*
X173822017Y-79040000D01*
X173722907Y-78541740D01*
X173440665Y-78119335D01*
X173018260Y-77837093D01*
X172645769Y-77763000D01*
X172394231Y-77763000D01*
X172021740Y-77837093D01*
X171599335Y-78119335D01*
X171317093Y-78541740D01*
X171250000Y-78879040D01*
X171182907Y-78541740D01*
X170900665Y-78119335D01*
X170478260Y-77837093D01*
X170105769Y-77763000D01*
X169854231Y-77763000D01*
X169481740Y-77837093D01*
X169059335Y-78119335D01*
X168777093Y-78541740D01*
X168710000Y-78879040D01*
X168642907Y-78541740D01*
X168360665Y-78119335D01*
X167938260Y-77837093D01*
X167565769Y-77763000D01*
X167314231Y-77763000D01*
X166941740Y-77837093D01*
X166519335Y-78119335D01*
X166237093Y-78541740D01*
X166177000Y-78843848D01*
X166177000Y-78785989D01*
X165982588Y-78316638D01*
X165623362Y-77957412D01*
X165154011Y-77763000D01*
X164645989Y-77763000D01*
X164176638Y-77957412D01*
X163817412Y-78316638D01*
X163623000Y-78785989D01*
X162517000Y-78785989D01*
X162517000Y-71871130D01*
X163418328Y-70969803D01*
X163403282Y-71011279D01*
X163429685Y-71601458D01*
X163604741Y-72024080D01*
X163856042Y-72104353D01*
X164720395Y-71240000D01*
X164706253Y-71225858D01*
X164885858Y-71046253D01*
X164900000Y-71060395D01*
X165764353Y-70196042D01*
X165684080Y-69944741D01*
X165512695Y-69882570D01*
X165633362Y-69832588D01*
X165988950Y-69477000D01*
X166399932Y-69477000D01*
X166529335Y-69670665D01*
X166859376Y-69891192D01*
X166673076Y-69968355D01*
X166244817Y-70358642D01*
X166197074Y-70460303D01*
X166195259Y-70455920D01*
X165943958Y-70375647D01*
X165079605Y-71240000D01*
X165943958Y-72104353D01*
X166195259Y-72024080D01*
X166196947Y-72019426D01*
X166244817Y-72121358D01*
X166673076Y-72511645D01*
X166893225Y-72602828D01*
X166509335Y-72859335D01*
X166227093Y-73281740D01*
X166167000Y-73583848D01*
X166167000Y-73525989D01*
X165972588Y-73056638D01*
X165613362Y-72697412D01*
X165452985Y-72630982D01*
X165684080Y-72535259D01*
X165764353Y-72283958D01*
X164900000Y-71419605D01*
X164035647Y-72283958D01*
X164115920Y-72535259D01*
X164351658Y-72620774D01*
X164166638Y-72697412D01*
X163807412Y-73056638D01*
X163613000Y-73525989D01*
X163613000Y-74034011D01*
X163807412Y-74503362D01*
X164166638Y-74862588D01*
X164594947Y-75040000D01*
X164166638Y-75217412D01*
X163807412Y-75576638D01*
X163613000Y-76045989D01*
X163613000Y-76554011D01*
X163807412Y-77023362D01*
X164166638Y-77382588D01*
X164635989Y-77577000D01*
X165144011Y-77577000D01*
X165613362Y-77382588D01*
X165972588Y-77023362D01*
X166167000Y-76554011D01*
X166167000Y-76496152D01*
X166227093Y-76798260D01*
X166509335Y-77220665D01*
X166931740Y-77502907D01*
X167304231Y-77577000D01*
X167555769Y-77577000D01*
X167928260Y-77502907D01*
X168350665Y-77220665D01*
X168632907Y-76798260D01*
X168700000Y-76460960D01*
X168767093Y-76798260D01*
X169049335Y-77220665D01*
X169471740Y-77502907D01*
X169844231Y-77577000D01*
X170095769Y-77577000D01*
X170468260Y-77502907D01*
X170890665Y-77220665D01*
X171172907Y-76798260D01*
X171240000Y-76460960D01*
X171307093Y-76798260D01*
X171589335Y-77220665D01*
X172011740Y-77502907D01*
X172384231Y-77577000D01*
X172635769Y-77577000D01*
X173008260Y-77502907D01*
X173430665Y-77220665D01*
X173712907Y-76798260D01*
X173812017Y-76300000D01*
X173712907Y-75801740D01*
X173430665Y-75379335D01*
X173008260Y-75097093D01*
X172721234Y-75040000D01*
X173008260Y-74982907D01*
X173430665Y-74700665D01*
X173712907Y-74278260D01*
X173812017Y-73780000D01*
X173712907Y-73281740D01*
X173430665Y-72859335D01*
X173054428Y-72607942D01*
X173286924Y-72511645D01*
X173715183Y-72121358D01*
X173961486Y-71596892D01*
X173840819Y-71367000D01*
X172647000Y-71367000D01*
X172647000Y-71387000D01*
X172393000Y-71387000D01*
X172393000Y-71367000D01*
X170107000Y-71367000D01*
X170107000Y-71387000D01*
X169853000Y-71387000D01*
X169853000Y-71367000D01*
X167567000Y-71367000D01*
X167567000Y-71387000D01*
X167313000Y-71387000D01*
X167313000Y-71367000D01*
X167293000Y-71367000D01*
X167293000Y-71113000D01*
X167313000Y-71113000D01*
X167313000Y-71093000D01*
X167567000Y-71093000D01*
X167567000Y-71113000D01*
X169853000Y-71113000D01*
X169853000Y-71093000D01*
X170107000Y-71093000D01*
X170107000Y-71113000D01*
X172393000Y-71113000D01*
X172393000Y-71093000D01*
X172647000Y-71093000D01*
X172647000Y-71113000D01*
X173840819Y-71113000D01*
X173961486Y-70883108D01*
X173715183Y-70358642D01*
X173286924Y-69968355D01*
X173112970Y-69896305D01*
X173450665Y-69670665D01*
X173732907Y-69248260D01*
X173832017Y-68750000D01*
X173732907Y-68251740D01*
X173450665Y-67829335D01*
X173028260Y-67547093D01*
X172655769Y-67473000D01*
X172404231Y-67473000D01*
X172031740Y-67547093D01*
X171609335Y-67829335D01*
X171479932Y-68023000D01*
X171040068Y-68023000D01*
X170910665Y-67829335D01*
X170488260Y-67547093D01*
X170115769Y-67473000D01*
X169864231Y-67473000D01*
X169491740Y-67547093D01*
X169069335Y-67829335D01*
X168939932Y-68023000D01*
X168500068Y-68023000D01*
X168370665Y-67829335D01*
X167948260Y-67547093D01*
X167575769Y-67473000D01*
X167324231Y-67473000D01*
X166951740Y-67547093D01*
X166529335Y-67829335D01*
X166399932Y-68023000D01*
X165988950Y-68023000D01*
X165633362Y-67667412D01*
X165164011Y-67473000D01*
X164655989Y-67473000D01*
X164186638Y-67667412D01*
X163827412Y-68026638D01*
X163633000Y-68495989D01*
X163633000Y-68698865D01*
X162548565Y-69783301D01*
X162525658Y-69262365D01*
X162348116Y-68833741D01*
X162276600Y-68810552D01*
X162276600Y-68611750D01*
X162117850Y-68453000D01*
X161877151Y-68453000D01*
X161833859Y-68319484D01*
X161502513Y-68199000D01*
X162117850Y-68199000D01*
X162276600Y-68040250D01*
X162276600Y-66699691D01*
X162179927Y-66466302D01*
X162001299Y-66287673D01*
X161767910Y-66191000D01*
X161524528Y-66191000D01*
X161582100Y-66052010D01*
X161582100Y-65885989D01*
X163613000Y-65885989D01*
X163613000Y-66394011D01*
X163807412Y-66863362D01*
X164166638Y-67222588D01*
X164635989Y-67417000D01*
X165144011Y-67417000D01*
X165613362Y-67222588D01*
X165972588Y-66863362D01*
X166167000Y-66394011D01*
X166167000Y-66336152D01*
X166227093Y-66638260D01*
X166509335Y-67060665D01*
X166931740Y-67342907D01*
X167304231Y-67417000D01*
X167555769Y-67417000D01*
X167928260Y-67342907D01*
X168350665Y-67060665D01*
X168632907Y-66638260D01*
X168732017Y-66140000D01*
X168632907Y-65641740D01*
X168350665Y-65219335D01*
X167928260Y-64937093D01*
X167626097Y-64876989D01*
X167948260Y-64812907D01*
X168370665Y-64530665D01*
X168652907Y-64108260D01*
X168720902Y-63766424D01*
X170353000Y-63766424D01*
X170353000Y-64433576D01*
X170608308Y-65049944D01*
X171080056Y-65521692D01*
X171696424Y-65777000D01*
X172363576Y-65777000D01*
X172979944Y-65521692D01*
X173451692Y-65049944D01*
X173707000Y-64433576D01*
X173707000Y-63766424D01*
X173451692Y-63150056D01*
X172979944Y-62678308D01*
X172363576Y-62423000D01*
X171696424Y-62423000D01*
X171080056Y-62678308D01*
X170608308Y-63150056D01*
X170353000Y-63766424D01*
X168720902Y-63766424D01*
X168752017Y-63610000D01*
X168652907Y-63111740D01*
X168370665Y-62689335D01*
X167948260Y-62407093D01*
X167575769Y-62333000D01*
X167324231Y-62333000D01*
X166951740Y-62407093D01*
X166529335Y-62689335D01*
X166247093Y-63111740D01*
X166187000Y-63413848D01*
X166187000Y-63355989D01*
X165992588Y-62886638D01*
X165633362Y-62527412D01*
X165164011Y-62333000D01*
X164655989Y-62333000D01*
X164186638Y-62527412D01*
X163827412Y-62886638D01*
X163633000Y-63355989D01*
X163633000Y-63864011D01*
X163827412Y-64333362D01*
X164186638Y-64692588D01*
X164617019Y-64870858D01*
X164166638Y-65057412D01*
X163807412Y-65416638D01*
X163613000Y-65885989D01*
X161582100Y-65885989D01*
X161582100Y-64115950D01*
X161423350Y-63957200D01*
X160439100Y-63957200D01*
X160439100Y-63977200D01*
X160185100Y-63977200D01*
X160185100Y-63957200D01*
X160165100Y-63957200D01*
X160165100Y-63703200D01*
X160185100Y-63703200D01*
X160185100Y-62012000D01*
X160439100Y-62012000D01*
X160439100Y-63703200D01*
X160439100Y-63703200D01*
G37*
X160439100Y-63703200D02*
X161423350Y-63703200D01*
X161582100Y-63544450D01*
X161582100Y-62012000D01*
X174108000Y-62012000D01*
X174108000Y-83189867D01*
X173754697Y-82836564D01*
X173714138Y-82775863D01*
X173473662Y-82615182D01*
X173261600Y-82573000D01*
X173261596Y-82573000D01*
X173190001Y-82558759D01*
X173118406Y-82573000D01*
X171221593Y-82573000D01*
X171149999Y-82558759D01*
X171078405Y-82573000D01*
X171078401Y-82573000D01*
X170866339Y-82615182D01*
X170625863Y-82775863D01*
X170585306Y-82836561D01*
X166028868Y-87393000D01*
X165878239Y-87393000D01*
X165565039Y-87079800D01*
X165114065Y-86893000D01*
X164671133Y-86893000D01*
X163977001Y-86198869D01*
X163977001Y-85982607D01*
X164041861Y-85917747D01*
X164115995Y-86163864D01*
X164653223Y-86356965D01*
X165223454Y-86329778D01*
X165624005Y-86163864D01*
X165698139Y-85917745D01*
X164870000Y-85089605D01*
X164855858Y-85103748D01*
X164676252Y-84924142D01*
X164690395Y-84910000D01*
X165049605Y-84910000D01*
X165877745Y-85738139D01*
X166123864Y-85664005D01*
X166316965Y-85126777D01*
X166289778Y-84556546D01*
X166123864Y-84155995D01*
X165877745Y-84081861D01*
X165049605Y-84910000D01*
X164690395Y-84910000D01*
X163862255Y-84081861D01*
X163616136Y-84155995D01*
X163563253Y-84303121D01*
X163162387Y-83902255D01*
X164041861Y-83902255D01*
X164870000Y-84730395D01*
X165698139Y-83902255D01*
X165624005Y-83656136D01*
X165086777Y-83463035D01*
X164516546Y-83490222D01*
X164115995Y-83656136D01*
X164041861Y-83902255D01*
X163162387Y-83902255D01*
X162998522Y-83738390D01*
X162998521Y-83738387D01*
X162794013Y-83533879D01*
X162726555Y-83505937D01*
X162665860Y-83465382D01*
X162594265Y-83451141D01*
X162526809Y-83423200D01*
X162453795Y-83423200D01*
X162382200Y-83408959D01*
X162310605Y-83423200D01*
X162237591Y-83423200D01*
X162209199Y-83434960D01*
X162209199Y-82436173D01*
X162223440Y-82364579D01*
X162209199Y-82292985D01*
X162209199Y-82292982D01*
X162167017Y-82080919D01*
X162006336Y-81840443D01*
X161945637Y-81799885D01*
X161866942Y-81721190D01*
X162253440Y-81334693D01*
X162314136Y-81294137D01*
X162354692Y-81233441D01*
X162354694Y-81233439D01*
X162472194Y-81057588D01*
X162474818Y-81053661D01*
X162517000Y-80841599D01*
X162517000Y-80841595D01*
X162531241Y-80770001D01*
X162517000Y-80698407D01*
X162517000Y-78785989D01*
X163623000Y-78785989D01*
X163623000Y-79294011D01*
X163817412Y-79763362D01*
X164176638Y-80122588D01*
X164645989Y-80317000D01*
X165154011Y-80317000D01*
X165623362Y-80122588D01*
X165982588Y-79763362D01*
X166177000Y-79294011D01*
X166177000Y-79236152D01*
X166237093Y-79538260D01*
X166519335Y-79960665D01*
X166941740Y-80242907D01*
X167314231Y-80317000D01*
X167565769Y-80317000D01*
X167938260Y-80242907D01*
X168360665Y-79960665D01*
X168642907Y-79538260D01*
X168710000Y-79200960D01*
X168777093Y-79538260D01*
X169059335Y-79960665D01*
X169481740Y-80242907D01*
X169854231Y-80317000D01*
X170105769Y-80317000D01*
X170478260Y-80242907D01*
X170900665Y-79960665D01*
X171182907Y-79538260D01*
X171250000Y-79200960D01*
X171317093Y-79538260D01*
X171599335Y-79960665D01*
X172021740Y-80242907D01*
X172394231Y-80317000D01*
X172645769Y-80317000D01*
X173018260Y-80242907D01*
X173440665Y-79960665D01*
X173722907Y-79538260D01*
X173822017Y-79040000D01*
X173722907Y-78541740D01*
X173440665Y-78119335D01*
X173018260Y-77837093D01*
X172645769Y-77763000D01*
X172394231Y-77763000D01*
X172021740Y-77837093D01*
X171599335Y-78119335D01*
X171317093Y-78541740D01*
X171250000Y-78879040D01*
X171182907Y-78541740D01*
X170900665Y-78119335D01*
X170478260Y-77837093D01*
X170105769Y-77763000D01*
X169854231Y-77763000D01*
X169481740Y-77837093D01*
X169059335Y-78119335D01*
X168777093Y-78541740D01*
X168710000Y-78879040D01*
X168642907Y-78541740D01*
X168360665Y-78119335D01*
X167938260Y-77837093D01*
X167565769Y-77763000D01*
X167314231Y-77763000D01*
X166941740Y-77837093D01*
X166519335Y-78119335D01*
X166237093Y-78541740D01*
X166177000Y-78843848D01*
X166177000Y-78785989D01*
X165982588Y-78316638D01*
X165623362Y-77957412D01*
X165154011Y-77763000D01*
X164645989Y-77763000D01*
X164176638Y-77957412D01*
X163817412Y-78316638D01*
X163623000Y-78785989D01*
X162517000Y-78785989D01*
X162517000Y-71871130D01*
X163418328Y-70969803D01*
X163403282Y-71011279D01*
X163429685Y-71601458D01*
X163604741Y-72024080D01*
X163856042Y-72104353D01*
X164720395Y-71240000D01*
X164706253Y-71225858D01*
X164885858Y-71046253D01*
X164900000Y-71060395D01*
X165764353Y-70196042D01*
X165684080Y-69944741D01*
X165512695Y-69882570D01*
X165633362Y-69832588D01*
X165988950Y-69477000D01*
X166399932Y-69477000D01*
X166529335Y-69670665D01*
X166859376Y-69891192D01*
X166673076Y-69968355D01*
X166244817Y-70358642D01*
X166197074Y-70460303D01*
X166195259Y-70455920D01*
X165943958Y-70375647D01*
X165079605Y-71240000D01*
X165943958Y-72104353D01*
X166195259Y-72024080D01*
X166196947Y-72019426D01*
X166244817Y-72121358D01*
X166673076Y-72511645D01*
X166893225Y-72602828D01*
X166509335Y-72859335D01*
X166227093Y-73281740D01*
X166167000Y-73583848D01*
X166167000Y-73525989D01*
X165972588Y-73056638D01*
X165613362Y-72697412D01*
X165452985Y-72630982D01*
X165684080Y-72535259D01*
X165764353Y-72283958D01*
X164900000Y-71419605D01*
X164035647Y-72283958D01*
X164115920Y-72535259D01*
X164351658Y-72620774D01*
X164166638Y-72697412D01*
X163807412Y-73056638D01*
X163613000Y-73525989D01*
X163613000Y-74034011D01*
X163807412Y-74503362D01*
X164166638Y-74862588D01*
X164594947Y-75040000D01*
X164166638Y-75217412D01*
X163807412Y-75576638D01*
X163613000Y-76045989D01*
X163613000Y-76554011D01*
X163807412Y-77023362D01*
X164166638Y-77382588D01*
X164635989Y-77577000D01*
X165144011Y-77577000D01*
X165613362Y-77382588D01*
X165972588Y-77023362D01*
X166167000Y-76554011D01*
X166167000Y-76496152D01*
X166227093Y-76798260D01*
X166509335Y-77220665D01*
X166931740Y-77502907D01*
X167304231Y-77577000D01*
X167555769Y-77577000D01*
X167928260Y-77502907D01*
X168350665Y-77220665D01*
X168632907Y-76798260D01*
X168700000Y-76460960D01*
X168767093Y-76798260D01*
X169049335Y-77220665D01*
X169471740Y-77502907D01*
X169844231Y-77577000D01*
X170095769Y-77577000D01*
X170468260Y-77502907D01*
X170890665Y-77220665D01*
X171172907Y-76798260D01*
X171240000Y-76460960D01*
X171307093Y-76798260D01*
X171589335Y-77220665D01*
X172011740Y-77502907D01*
X172384231Y-77577000D01*
X172635769Y-77577000D01*
X173008260Y-77502907D01*
X173430665Y-77220665D01*
X173712907Y-76798260D01*
X173812017Y-76300000D01*
X173712907Y-75801740D01*
X173430665Y-75379335D01*
X173008260Y-75097093D01*
X172721234Y-75040000D01*
X173008260Y-74982907D01*
X173430665Y-74700665D01*
X173712907Y-74278260D01*
X173812017Y-73780000D01*
X173712907Y-73281740D01*
X173430665Y-72859335D01*
X173054428Y-72607942D01*
X173286924Y-72511645D01*
X173715183Y-72121358D01*
X173961486Y-71596892D01*
X173840819Y-71367000D01*
X172647000Y-71367000D01*
X172647000Y-71387000D01*
X172393000Y-71387000D01*
X172393000Y-71367000D01*
X170107000Y-71367000D01*
X170107000Y-71387000D01*
X169853000Y-71387000D01*
X169853000Y-71367000D01*
X167567000Y-71367000D01*
X167567000Y-71387000D01*
X167313000Y-71387000D01*
X167313000Y-71367000D01*
X167293000Y-71367000D01*
X167293000Y-71113000D01*
X167313000Y-71113000D01*
X167313000Y-71093000D01*
X167567000Y-71093000D01*
X167567000Y-71113000D01*
X169853000Y-71113000D01*
X169853000Y-71093000D01*
X170107000Y-71093000D01*
X170107000Y-71113000D01*
X172393000Y-71113000D01*
X172393000Y-71093000D01*
X172647000Y-71093000D01*
X172647000Y-71113000D01*
X173840819Y-71113000D01*
X173961486Y-70883108D01*
X173715183Y-70358642D01*
X173286924Y-69968355D01*
X173112970Y-69896305D01*
X173450665Y-69670665D01*
X173732907Y-69248260D01*
X173832017Y-68750000D01*
X173732907Y-68251740D01*
X173450665Y-67829335D01*
X173028260Y-67547093D01*
X172655769Y-67473000D01*
X172404231Y-67473000D01*
X172031740Y-67547093D01*
X171609335Y-67829335D01*
X171479932Y-68023000D01*
X171040068Y-68023000D01*
X170910665Y-67829335D01*
X170488260Y-67547093D01*
X170115769Y-67473000D01*
X169864231Y-67473000D01*
X169491740Y-67547093D01*
X169069335Y-67829335D01*
X168939932Y-68023000D01*
X168500068Y-68023000D01*
X168370665Y-67829335D01*
X167948260Y-67547093D01*
X167575769Y-67473000D01*
X167324231Y-67473000D01*
X166951740Y-67547093D01*
X166529335Y-67829335D01*
X166399932Y-68023000D01*
X165988950Y-68023000D01*
X165633362Y-67667412D01*
X165164011Y-67473000D01*
X164655989Y-67473000D01*
X164186638Y-67667412D01*
X163827412Y-68026638D01*
X163633000Y-68495989D01*
X163633000Y-68698865D01*
X162548565Y-69783301D01*
X162525658Y-69262365D01*
X162348116Y-68833741D01*
X162276600Y-68810552D01*
X162276600Y-68611750D01*
X162117850Y-68453000D01*
X161877151Y-68453000D01*
X161833859Y-68319484D01*
X161502513Y-68199000D01*
X162117850Y-68199000D01*
X162276600Y-68040250D01*
X162276600Y-66699691D01*
X162179927Y-66466302D01*
X162001299Y-66287673D01*
X161767910Y-66191000D01*
X161524528Y-66191000D01*
X161582100Y-66052010D01*
X161582100Y-65885989D01*
X163613000Y-65885989D01*
X163613000Y-66394011D01*
X163807412Y-66863362D01*
X164166638Y-67222588D01*
X164635989Y-67417000D01*
X165144011Y-67417000D01*
X165613362Y-67222588D01*
X165972588Y-66863362D01*
X166167000Y-66394011D01*
X166167000Y-66336152D01*
X166227093Y-66638260D01*
X166509335Y-67060665D01*
X166931740Y-67342907D01*
X167304231Y-67417000D01*
X167555769Y-67417000D01*
X167928260Y-67342907D01*
X168350665Y-67060665D01*
X168632907Y-66638260D01*
X168732017Y-66140000D01*
X168632907Y-65641740D01*
X168350665Y-65219335D01*
X167928260Y-64937093D01*
X167626097Y-64876989D01*
X167948260Y-64812907D01*
X168370665Y-64530665D01*
X168652907Y-64108260D01*
X168720902Y-63766424D01*
X170353000Y-63766424D01*
X170353000Y-64433576D01*
X170608308Y-65049944D01*
X171080056Y-65521692D01*
X171696424Y-65777000D01*
X172363576Y-65777000D01*
X172979944Y-65521692D01*
X173451692Y-65049944D01*
X173707000Y-64433576D01*
X173707000Y-63766424D01*
X173451692Y-63150056D01*
X172979944Y-62678308D01*
X172363576Y-62423000D01*
X171696424Y-62423000D01*
X171080056Y-62678308D01*
X170608308Y-63150056D01*
X170353000Y-63766424D01*
X168720902Y-63766424D01*
X168752017Y-63610000D01*
X168652907Y-63111740D01*
X168370665Y-62689335D01*
X167948260Y-62407093D01*
X167575769Y-62333000D01*
X167324231Y-62333000D01*
X166951740Y-62407093D01*
X166529335Y-62689335D01*
X166247093Y-63111740D01*
X166187000Y-63413848D01*
X166187000Y-63355989D01*
X165992588Y-62886638D01*
X165633362Y-62527412D01*
X165164011Y-62333000D01*
X164655989Y-62333000D01*
X164186638Y-62527412D01*
X163827412Y-62886638D01*
X163633000Y-63355989D01*
X163633000Y-63864011D01*
X163827412Y-64333362D01*
X164186638Y-64692588D01*
X164617019Y-64870858D01*
X164166638Y-65057412D01*
X163807412Y-65416638D01*
X163613000Y-65885989D01*
X161582100Y-65885989D01*
X161582100Y-64115950D01*
X161423350Y-63957200D01*
X160439100Y-63957200D01*
X160439100Y-63977200D01*
X160185100Y-63977200D01*
X160185100Y-63957200D01*
X160165100Y-63957200D01*
X160165100Y-63703200D01*
X160185100Y-63703200D01*
X160185100Y-62012000D01*
X160439100Y-62012000D01*
X160439100Y-63703200D01*
G36*
X135222333Y-72472703D02*
X135222334Y-85451706D01*
X135089729Y-85396780D01*
X134963411Y-85396780D01*
X133999387Y-84432757D01*
X133969987Y-84388757D01*
X133795667Y-84272279D01*
X133641945Y-84241702D01*
X133641940Y-84241702D01*
X133590042Y-84231379D01*
X133538144Y-84241702D01*
X130305673Y-84241702D01*
X129744420Y-83680450D01*
X129744420Y-78069267D01*
X129754743Y-78017369D01*
X129744420Y-77965471D01*
X129744420Y-77965467D01*
X129713843Y-77811745D01*
X129597365Y-77637425D01*
X129553365Y-77608025D01*
X128423542Y-76478202D01*
X128499089Y-76098400D01*
X128407696Y-75638935D01*
X128147430Y-75249420D01*
X127757915Y-74989154D01*
X127467778Y-74931442D01*
X127946017Y-74789899D01*
X128367998Y-74448344D01*
X128627150Y-73971303D01*
X128641333Y-73899675D01*
X128518679Y-73685400D01*
X127076200Y-73685400D01*
X127076200Y-73705400D01*
X126822200Y-73705400D01*
X126822200Y-73685400D01*
X126802200Y-73685400D01*
X126802200Y-73431400D01*
X126822200Y-73431400D01*
X126822200Y-73411400D01*
X127076200Y-73411400D01*
X127076200Y-73431400D01*
X128518679Y-73431400D01*
X128641333Y-73217125D01*
X128627150Y-73145497D01*
X128367998Y-72668456D01*
X127946017Y-72326901D01*
X127467778Y-72185358D01*
X127757915Y-72127646D01*
X128147430Y-71867380D01*
X128362570Y-71545400D01*
X134295030Y-71545400D01*
X135222333Y-72472703D01*
X135222333Y-72472703D01*
G37*
X135222333Y-72472703D02*
X135222334Y-85451706D01*
X135089729Y-85396780D01*
X134963411Y-85396780D01*
X133999387Y-84432757D01*
X133969987Y-84388757D01*
X133795667Y-84272279D01*
X133641945Y-84241702D01*
X133641940Y-84241702D01*
X133590042Y-84231379D01*
X133538144Y-84241702D01*
X130305673Y-84241702D01*
X129744420Y-83680450D01*
X129744420Y-78069267D01*
X129754743Y-78017369D01*
X129744420Y-77965471D01*
X129744420Y-77965467D01*
X129713843Y-77811745D01*
X129597365Y-77637425D01*
X129553365Y-77608025D01*
X128423542Y-76478202D01*
X128499089Y-76098400D01*
X128407696Y-75638935D01*
X128147430Y-75249420D01*
X127757915Y-74989154D01*
X127467778Y-74931442D01*
X127946017Y-74789899D01*
X128367998Y-74448344D01*
X128627150Y-73971303D01*
X128641333Y-73899675D01*
X128518679Y-73685400D01*
X127076200Y-73685400D01*
X127076200Y-73705400D01*
X126822200Y-73705400D01*
X126822200Y-73685400D01*
X126802200Y-73685400D01*
X126802200Y-73431400D01*
X126822200Y-73431400D01*
X126822200Y-73411400D01*
X127076200Y-73411400D01*
X127076200Y-73431400D01*
X128518679Y-73431400D01*
X128641333Y-73217125D01*
X128627150Y-73145497D01*
X128367998Y-72668456D01*
X127946017Y-72326901D01*
X127467778Y-72185358D01*
X127757915Y-72127646D01*
X128147430Y-71867380D01*
X128362570Y-71545400D01*
X134295030Y-71545400D01*
X135222333Y-72472703D01*
G36*
X140730704Y-65478935D02*
X140639311Y-65938400D01*
X140730704Y-66397865D01*
X140990970Y-66787380D01*
X141380485Y-67047646D01*
X141670622Y-67105358D01*
X141192383Y-67246901D01*
X140770402Y-67588456D01*
X140511250Y-68065497D01*
X140497067Y-68137125D01*
X140619721Y-68351400D01*
X142062200Y-68351400D01*
X142062200Y-68331400D01*
X142316200Y-68331400D01*
X142316200Y-68351400D01*
X142336200Y-68351400D01*
X142336200Y-68605400D01*
X142316200Y-68605400D01*
X142316200Y-68625400D01*
X142062200Y-68625400D01*
X142062200Y-68605400D01*
X140619721Y-68605400D01*
X140497067Y-68819675D01*
X140511250Y-68891303D01*
X140770402Y-69368344D01*
X141192383Y-69709899D01*
X141670622Y-69851442D01*
X141380485Y-69909154D01*
X140990970Y-70169420D01*
X140730704Y-70558935D01*
X140639311Y-71018400D01*
X140730704Y-71477865D01*
X140990970Y-71867380D01*
X141380485Y-72127646D01*
X141723974Y-72195970D01*
X142654426Y-72195970D01*
X142997915Y-72127646D01*
X143387430Y-71867380D01*
X143540022Y-71639010D01*
X143542109Y-71640404D01*
X144913515Y-73011810D01*
X144948495Y-73064161D01*
X145155893Y-73202740D01*
X145338786Y-73239120D01*
X145338790Y-73239120D01*
X145400536Y-73251402D01*
X145462282Y-73239120D01*
X153500434Y-73239120D01*
X153562180Y-73251402D01*
X153623926Y-73239120D01*
X153623930Y-73239120D01*
X153806823Y-73202740D01*
X154014221Y-73064161D01*
X154049201Y-73011810D01*
X155441291Y-71619720D01*
X155493641Y-71584741D01*
X155632220Y-71377343D01*
X155668600Y-71194450D01*
X155668600Y-71194446D01*
X155680882Y-71132700D01*
X155668600Y-71070954D01*
X155668600Y-70763224D01*
X155772666Y-70720118D01*
X156114821Y-70377963D01*
X156315290Y-70461000D01*
X156386205Y-70461000D01*
X156167400Y-70679805D01*
X156249341Y-70932516D01*
X156809630Y-71136248D01*
X157405235Y-71110058D01*
X157833859Y-70932516D01*
X157915800Y-70679805D01*
X157696995Y-70461000D01*
X157767910Y-70461000D01*
X157968379Y-70377963D01*
X158310534Y-70720118D01*
X158784884Y-70916600D01*
X159298316Y-70916600D01*
X159772666Y-70720118D01*
X160114821Y-70377963D01*
X160315290Y-70461000D01*
X160386205Y-70461000D01*
X160167400Y-70679805D01*
X160249341Y-70932516D01*
X160809630Y-71136248D01*
X161217451Y-71118315D01*
X161105182Y-71286338D01*
X161048759Y-71569998D01*
X161063001Y-71641598D01*
X161063000Y-80468867D01*
X160795988Y-80735880D01*
X160652094Y-80735880D01*
X160580499Y-80721639D01*
X160508904Y-80735880D01*
X147120753Y-80735880D01*
X146647460Y-80262588D01*
X146647460Y-77012003D01*
X146661701Y-76940409D01*
X146647460Y-76868815D01*
X146647460Y-76868811D01*
X146605278Y-76656749D01*
X146550744Y-76575134D01*
X146485154Y-76476971D01*
X146485152Y-76476969D01*
X146444596Y-76416273D01*
X146383901Y-76375718D01*
X143710468Y-73702286D01*
X143739089Y-73558400D01*
X143647696Y-73098935D01*
X143387430Y-72709420D01*
X142997915Y-72449154D01*
X142654426Y-72380830D01*
X141723974Y-72380830D01*
X141380485Y-72449154D01*
X140990970Y-72709420D01*
X140730704Y-73098935D01*
X140639311Y-73558400D01*
X140703993Y-73883578D01*
X140457915Y-73719154D01*
X140114426Y-73650830D01*
X139183974Y-73650830D01*
X138840485Y-73719154D01*
X138676370Y-73828812D01*
X138676370Y-73613321D01*
X138778151Y-73655480D01*
X139067369Y-73655480D01*
X139334573Y-73544801D01*
X139539081Y-73340293D01*
X139649760Y-73073089D01*
X139649760Y-72783871D01*
X139539081Y-72516667D01*
X139434520Y-72412106D01*
X139434520Y-69233534D01*
X139523841Y-69144213D01*
X139634520Y-68877009D01*
X139634520Y-68587791D01*
X139523841Y-68320587D01*
X139319333Y-68116079D01*
X139052129Y-68005400D01*
X138762911Y-68005400D01*
X138676370Y-68041246D01*
X138676370Y-65981841D01*
X139343392Y-65314820D01*
X140840362Y-65314820D01*
X140730704Y-65478935D01*
X140730704Y-65478935D01*
G37*
X140730704Y-65478935D02*
X140639311Y-65938400D01*
X140730704Y-66397865D01*
X140990970Y-66787380D01*
X141380485Y-67047646D01*
X141670622Y-67105358D01*
X141192383Y-67246901D01*
X140770402Y-67588456D01*
X140511250Y-68065497D01*
X140497067Y-68137125D01*
X140619721Y-68351400D01*
X142062200Y-68351400D01*
X142062200Y-68331400D01*
X142316200Y-68331400D01*
X142316200Y-68351400D01*
X142336200Y-68351400D01*
X142336200Y-68605400D01*
X142316200Y-68605400D01*
X142316200Y-68625400D01*
X142062200Y-68625400D01*
X142062200Y-68605400D01*
X140619721Y-68605400D01*
X140497067Y-68819675D01*
X140511250Y-68891303D01*
X140770402Y-69368344D01*
X141192383Y-69709899D01*
X141670622Y-69851442D01*
X141380485Y-69909154D01*
X140990970Y-70169420D01*
X140730704Y-70558935D01*
X140639311Y-71018400D01*
X140730704Y-71477865D01*
X140990970Y-71867380D01*
X141380485Y-72127646D01*
X141723974Y-72195970D01*
X142654426Y-72195970D01*
X142997915Y-72127646D01*
X143387430Y-71867380D01*
X143540022Y-71639010D01*
X143542109Y-71640404D01*
X144913515Y-73011810D01*
X144948495Y-73064161D01*
X145155893Y-73202740D01*
X145338786Y-73239120D01*
X145338790Y-73239120D01*
X145400536Y-73251402D01*
X145462282Y-73239120D01*
X153500434Y-73239120D01*
X153562180Y-73251402D01*
X153623926Y-73239120D01*
X153623930Y-73239120D01*
X153806823Y-73202740D01*
X154014221Y-73064161D01*
X154049201Y-73011810D01*
X155441291Y-71619720D01*
X155493641Y-71584741D01*
X155632220Y-71377343D01*
X155668600Y-71194450D01*
X155668600Y-71194446D01*
X155680882Y-71132700D01*
X155668600Y-71070954D01*
X155668600Y-70763224D01*
X155772666Y-70720118D01*
X156114821Y-70377963D01*
X156315290Y-70461000D01*
X156386205Y-70461000D01*
X156167400Y-70679805D01*
X156249341Y-70932516D01*
X156809630Y-71136248D01*
X157405235Y-71110058D01*
X157833859Y-70932516D01*
X157915800Y-70679805D01*
X157696995Y-70461000D01*
X157767910Y-70461000D01*
X157968379Y-70377963D01*
X158310534Y-70720118D01*
X158784884Y-70916600D01*
X159298316Y-70916600D01*
X159772666Y-70720118D01*
X160114821Y-70377963D01*
X160315290Y-70461000D01*
X160386205Y-70461000D01*
X160167400Y-70679805D01*
X160249341Y-70932516D01*
X160809630Y-71136248D01*
X161217451Y-71118315D01*
X161105182Y-71286338D01*
X161048759Y-71569998D01*
X161063001Y-71641598D01*
X161063000Y-80468867D01*
X160795988Y-80735880D01*
X160652094Y-80735880D01*
X160580499Y-80721639D01*
X160508904Y-80735880D01*
X147120753Y-80735880D01*
X146647460Y-80262588D01*
X146647460Y-77012003D01*
X146661701Y-76940409D01*
X146647460Y-76868815D01*
X146647460Y-76868811D01*
X146605278Y-76656749D01*
X146550744Y-76575134D01*
X146485154Y-76476971D01*
X146485152Y-76476969D01*
X146444596Y-76416273D01*
X146383901Y-76375718D01*
X143710468Y-73702286D01*
X143739089Y-73558400D01*
X143647696Y-73098935D01*
X143387430Y-72709420D01*
X142997915Y-72449154D01*
X142654426Y-72380830D01*
X141723974Y-72380830D01*
X141380485Y-72449154D01*
X140990970Y-72709420D01*
X140730704Y-73098935D01*
X140639311Y-73558400D01*
X140703993Y-73883578D01*
X140457915Y-73719154D01*
X140114426Y-73650830D01*
X139183974Y-73650830D01*
X138840485Y-73719154D01*
X138676370Y-73828812D01*
X138676370Y-73613321D01*
X138778151Y-73655480D01*
X139067369Y-73655480D01*
X139334573Y-73544801D01*
X139539081Y-73340293D01*
X139649760Y-73073089D01*
X139649760Y-72783871D01*
X139539081Y-72516667D01*
X139434520Y-72412106D01*
X139434520Y-69233534D01*
X139523841Y-69144213D01*
X139634520Y-68877009D01*
X139634520Y-68587791D01*
X139523841Y-68320587D01*
X139319333Y-68116079D01*
X139052129Y-68005400D01*
X138762911Y-68005400D01*
X138676370Y-68041246D01*
X138676370Y-65981841D01*
X139343392Y-65314820D01*
X140840362Y-65314820D01*
X140730704Y-65478935D01*
G36*
X154749500Y-63544450D02*
X154908250Y-63703200D01*
X155892500Y-63703200D01*
X155892500Y-62012000D01*
X156146500Y-62012000D01*
X156146500Y-63703200D01*
X156166500Y-63703200D01*
X156166500Y-63957200D01*
X156146500Y-63957200D01*
X156146500Y-63977200D01*
X155892500Y-63977200D01*
X155892500Y-63957200D01*
X154908250Y-63957200D01*
X154749500Y-64115950D01*
X154749500Y-66052010D01*
X154846173Y-66285399D01*
X154951410Y-66390635D01*
X154441600Y-66390635D01*
X154274993Y-66423775D01*
X154133750Y-66518150D01*
X154041600Y-66656063D01*
X153949450Y-66518150D01*
X153808207Y-66423775D01*
X153641600Y-66390635D01*
X152441600Y-66390635D01*
X152274993Y-66423775D01*
X152133750Y-66518150D01*
X152041600Y-66656063D01*
X151949450Y-66518150D01*
X151808207Y-66423775D01*
X151641600Y-66390635D01*
X150441600Y-66390635D01*
X150274993Y-66423775D01*
X150133750Y-66518150D01*
X150041600Y-66656063D01*
X149949450Y-66518150D01*
X149808207Y-66423775D01*
X149641600Y-66390635D01*
X148992949Y-66390635D01*
X146307218Y-63704904D01*
X149097400Y-63704904D01*
X149097400Y-64372056D01*
X149352708Y-64988424D01*
X149824456Y-65460172D01*
X150440824Y-65715480D01*
X151107976Y-65715480D01*
X151724344Y-65460172D01*
X152196092Y-64988424D01*
X152451400Y-64372056D01*
X152451400Y-63704904D01*
X152196092Y-63088536D01*
X151724344Y-62616788D01*
X151107976Y-62361480D01*
X150440824Y-62361480D01*
X149824456Y-62616788D01*
X149352708Y-63088536D01*
X149097400Y-63704904D01*
X146307218Y-63704904D01*
X145090413Y-62488100D01*
X145055436Y-62435753D01*
X145003088Y-62400775D01*
X145003087Y-62400774D01*
X144848037Y-62297173D01*
X144603395Y-62248511D01*
X144541644Y-62260794D01*
X138399832Y-62260792D01*
X138338085Y-62248510D01*
X138276339Y-62260792D01*
X138276336Y-62260792D01*
X138144836Y-62286949D01*
X138093442Y-62297172D01*
X137938393Y-62400772D01*
X137938389Y-62400776D01*
X137886045Y-62435751D01*
X137851070Y-62488095D01*
X135849651Y-64489514D01*
X135797303Y-64524492D01*
X135762325Y-64576840D01*
X135762324Y-64576841D01*
X135658723Y-64731891D01*
X135610061Y-64976533D01*
X135622344Y-65038284D01*
X135622344Y-71382134D01*
X134922665Y-70682455D01*
X134893265Y-70638455D01*
X134718945Y-70521977D01*
X134565223Y-70491400D01*
X134565218Y-70491400D01*
X134513320Y-70481077D01*
X134461422Y-70491400D01*
X128362570Y-70491400D01*
X128147430Y-70169420D01*
X127757915Y-69909154D01*
X127414426Y-69840830D01*
X126483974Y-69840830D01*
X126140485Y-69909154D01*
X125976370Y-70018812D01*
X125976370Y-69477988D01*
X126140485Y-69587646D01*
X126483974Y-69655970D01*
X127414426Y-69655970D01*
X127757915Y-69587646D01*
X128147430Y-69327380D01*
X128407696Y-68937865D01*
X128499089Y-68478400D01*
X128407696Y-68018935D01*
X128147430Y-67629420D01*
X127757915Y-67369154D01*
X127414426Y-67300830D01*
X126483974Y-67300830D01*
X126140485Y-67369154D01*
X125750970Y-67629420D01*
X125576360Y-67890742D01*
X125576360Y-67020093D01*
X125682773Y-67091195D01*
X125849380Y-67124335D01*
X128049020Y-67124335D01*
X128215627Y-67091195D01*
X128356870Y-66996820D01*
X128451245Y-66855577D01*
X128484385Y-66688970D01*
X128484385Y-65187830D01*
X128451245Y-65021223D01*
X128356870Y-64879980D01*
X128215627Y-64785605D01*
X128049020Y-64752465D01*
X125849380Y-64752465D01*
X125682773Y-64785605D01*
X125541530Y-64879980D01*
X125447155Y-65021223D01*
X125414015Y-65187830D01*
X125414015Y-65461849D01*
X125269435Y-65558455D01*
X125240035Y-65602455D01*
X125042000Y-65800490D01*
X125042000Y-62012000D01*
X154749500Y-62012000D01*
X154749500Y-63544450D01*
X154749500Y-63544450D01*
G37*
X154749500Y-63544450D02*
X154908250Y-63703200D01*
X155892500Y-63703200D01*
X155892500Y-62012000D01*
X156146500Y-62012000D01*
X156146500Y-63703200D01*
X156166500Y-63703200D01*
X156166500Y-63957200D01*
X156146500Y-63957200D01*
X156146500Y-63977200D01*
X155892500Y-63977200D01*
X155892500Y-63957200D01*
X154908250Y-63957200D01*
X154749500Y-64115950D01*
X154749500Y-66052010D01*
X154846173Y-66285399D01*
X154951410Y-66390635D01*
X154441600Y-66390635D01*
X154274993Y-66423775D01*
X154133750Y-66518150D01*
X154041600Y-66656063D01*
X153949450Y-66518150D01*
X153808207Y-66423775D01*
X153641600Y-66390635D01*
X152441600Y-66390635D01*
X152274993Y-66423775D01*
X152133750Y-66518150D01*
X152041600Y-66656063D01*
X151949450Y-66518150D01*
X151808207Y-66423775D01*
X151641600Y-66390635D01*
X150441600Y-66390635D01*
X150274993Y-66423775D01*
X150133750Y-66518150D01*
X150041600Y-66656063D01*
X149949450Y-66518150D01*
X149808207Y-66423775D01*
X149641600Y-66390635D01*
X148992949Y-66390635D01*
X146307218Y-63704904D01*
X149097400Y-63704904D01*
X149097400Y-64372056D01*
X149352708Y-64988424D01*
X149824456Y-65460172D01*
X150440824Y-65715480D01*
X151107976Y-65715480D01*
X151724344Y-65460172D01*
X152196092Y-64988424D01*
X152451400Y-64372056D01*
X152451400Y-63704904D01*
X152196092Y-63088536D01*
X151724344Y-62616788D01*
X151107976Y-62361480D01*
X150440824Y-62361480D01*
X149824456Y-62616788D01*
X149352708Y-63088536D01*
X149097400Y-63704904D01*
X146307218Y-63704904D01*
X145090413Y-62488100D01*
X145055436Y-62435753D01*
X145003088Y-62400775D01*
X145003087Y-62400774D01*
X144848037Y-62297173D01*
X144603395Y-62248511D01*
X144541644Y-62260794D01*
X138399832Y-62260792D01*
X138338085Y-62248510D01*
X138276339Y-62260792D01*
X138276336Y-62260792D01*
X138144836Y-62286949D01*
X138093442Y-62297172D01*
X137938393Y-62400772D01*
X137938389Y-62400776D01*
X137886045Y-62435751D01*
X137851070Y-62488095D01*
X135849651Y-64489514D01*
X135797303Y-64524492D01*
X135762325Y-64576840D01*
X135762324Y-64576841D01*
X135658723Y-64731891D01*
X135610061Y-64976533D01*
X135622344Y-65038284D01*
X135622344Y-71382134D01*
X134922665Y-70682455D01*
X134893265Y-70638455D01*
X134718945Y-70521977D01*
X134565223Y-70491400D01*
X134565218Y-70491400D01*
X134513320Y-70481077D01*
X134461422Y-70491400D01*
X128362570Y-70491400D01*
X128147430Y-70169420D01*
X127757915Y-69909154D01*
X127414426Y-69840830D01*
X126483974Y-69840830D01*
X126140485Y-69909154D01*
X125976370Y-70018812D01*
X125976370Y-69477988D01*
X126140485Y-69587646D01*
X126483974Y-69655970D01*
X127414426Y-69655970D01*
X127757915Y-69587646D01*
X128147430Y-69327380D01*
X128407696Y-68937865D01*
X128499089Y-68478400D01*
X128407696Y-68018935D01*
X128147430Y-67629420D01*
X127757915Y-67369154D01*
X127414426Y-67300830D01*
X126483974Y-67300830D01*
X126140485Y-67369154D01*
X125750970Y-67629420D01*
X125576360Y-67890742D01*
X125576360Y-67020093D01*
X125682773Y-67091195D01*
X125849380Y-67124335D01*
X128049020Y-67124335D01*
X128215627Y-67091195D01*
X128356870Y-66996820D01*
X128451245Y-66855577D01*
X128484385Y-66688970D01*
X128484385Y-65187830D01*
X128451245Y-65021223D01*
X128356870Y-64879980D01*
X128215627Y-64785605D01*
X128049020Y-64752465D01*
X125849380Y-64752465D01*
X125682773Y-64785605D01*
X125541530Y-64879980D01*
X125447155Y-65021223D01*
X125414015Y-65187830D01*
X125414015Y-65461849D01*
X125269435Y-65558455D01*
X125240035Y-65602455D01*
X125042000Y-65800490D01*
X125042000Y-62012000D01*
X154749500Y-62012000D01*
X154749500Y-63544450D01*
G04 #@! TD*
M02*
