G04 #@! TF.FileFunction,Legend,Top*
%FSLAX46Y46*%
G04 Gerber Fmt 4.6, Leading zero omitted, Abs format (unit mm)*
G04 Created by KiCad (PCBNEW 4.0.4-stable) date 03/17/18 20:15:35*
%MOMM*%
%LPD*%
G01*
G04 APERTURE LIST*
%ADD10C,0.100000*%
%ADD11C,0.200000*%
%ADD12C,0.150000*%
%ADD13C,0.120000*%
%ADD14C,0.010000*%
%ADD15C,0.254000*%
%ADD16C,0.304800*%
G04 APERTURE END LIST*
D10*
D11*
X132549524Y-124992381D02*
X132216190Y-124516190D01*
X131978095Y-124992381D02*
X131978095Y-123992381D01*
X132359048Y-123992381D01*
X132454286Y-124040000D01*
X132501905Y-124087619D01*
X132549524Y-124182857D01*
X132549524Y-124325714D01*
X132501905Y-124420952D01*
X132454286Y-124468571D01*
X132359048Y-124516190D01*
X131978095Y-124516190D01*
X133359048Y-124944762D02*
X133263810Y-124992381D01*
X133073333Y-124992381D01*
X132978095Y-124944762D01*
X132930476Y-124849524D01*
X132930476Y-124468571D01*
X132978095Y-124373333D01*
X133073333Y-124325714D01*
X133263810Y-124325714D01*
X133359048Y-124373333D01*
X133406667Y-124468571D01*
X133406667Y-124563810D01*
X132930476Y-124659048D01*
X133740000Y-124325714D02*
X133978095Y-124992381D01*
X134216191Y-124325714D01*
X135120953Y-124992381D02*
X134549524Y-124992381D01*
X134835238Y-124992381D02*
X134835238Y-123992381D01*
X134740000Y-124135238D01*
X134644762Y-124230476D01*
X134549524Y-124278095D01*
X135549524Y-124897143D02*
X135597143Y-124944762D01*
X135549524Y-124992381D01*
X135501905Y-124944762D01*
X135549524Y-124897143D01*
X135549524Y-124992381D01*
X136549524Y-124992381D02*
X135978095Y-124992381D01*
X136263809Y-124992381D02*
X136263809Y-123992381D01*
X136168571Y-124135238D01*
X136073333Y-124230476D01*
X135978095Y-124278095D01*
D12*
X126836667Y-119586664D02*
X126836667Y-119919997D01*
X126136667Y-119919997D01*
X126836667Y-119353330D02*
X126370000Y-119353330D01*
X126136667Y-119353330D02*
X126170000Y-119386664D01*
X126203333Y-119353330D01*
X126170000Y-119319997D01*
X126136667Y-119353330D01*
X126203333Y-119353330D01*
X126803333Y-118719997D02*
X126836667Y-118786664D01*
X126836667Y-118919997D01*
X126803333Y-118986664D01*
X126770000Y-119019997D01*
X126703333Y-119053331D01*
X126503333Y-119053331D01*
X126436667Y-119019997D01*
X126403333Y-118986664D01*
X126370000Y-118919997D01*
X126370000Y-118786664D01*
X126403333Y-118719997D01*
X126803333Y-118153331D02*
X126836667Y-118219997D01*
X126836667Y-118353331D01*
X126803333Y-118419997D01*
X126736667Y-118453331D01*
X126470000Y-118453331D01*
X126403333Y-118419997D01*
X126370000Y-118353331D01*
X126370000Y-118219997D01*
X126403333Y-118153331D01*
X126470000Y-118119997D01*
X126536667Y-118119997D01*
X126603333Y-118453331D01*
X126370000Y-117819997D02*
X126836667Y-117819997D01*
X126436667Y-117819997D02*
X126403333Y-117786664D01*
X126370000Y-117719997D01*
X126370000Y-117619997D01*
X126403333Y-117553331D01*
X126470000Y-117519997D01*
X126836667Y-117519997D01*
X126803333Y-117219998D02*
X126836667Y-117153331D01*
X126836667Y-117019998D01*
X126803333Y-116953331D01*
X126736667Y-116919998D01*
X126703333Y-116919998D01*
X126636667Y-116953331D01*
X126603333Y-117019998D01*
X126603333Y-117119998D01*
X126570000Y-117186664D01*
X126503333Y-117219998D01*
X126470000Y-117219998D01*
X126403333Y-117186664D01*
X126370000Y-117119998D01*
X126370000Y-117019998D01*
X126403333Y-116953331D01*
X126803333Y-116353331D02*
X126836667Y-116419997D01*
X126836667Y-116553331D01*
X126803333Y-116619997D01*
X126736667Y-116653331D01*
X126470000Y-116653331D01*
X126403333Y-116619997D01*
X126370000Y-116553331D01*
X126370000Y-116419997D01*
X126403333Y-116353331D01*
X126470000Y-116319997D01*
X126536667Y-116319997D01*
X126603333Y-116653331D01*
X126836667Y-115719997D02*
X126136667Y-115719997D01*
X126803333Y-115719997D02*
X126836667Y-115786664D01*
X126836667Y-115919997D01*
X126803333Y-115986664D01*
X126770000Y-116019997D01*
X126703333Y-116053331D01*
X126503333Y-116053331D01*
X126436667Y-116019997D01*
X126403333Y-115986664D01*
X126370000Y-115919997D01*
X126370000Y-115786664D01*
X126403333Y-115719997D01*
X126370000Y-114553331D02*
X126836667Y-114553331D01*
X126370000Y-114853331D02*
X126736667Y-114853331D01*
X126803333Y-114819998D01*
X126836667Y-114753331D01*
X126836667Y-114653331D01*
X126803333Y-114586665D01*
X126770000Y-114553331D01*
X126370000Y-114219998D02*
X126836667Y-114219998D01*
X126436667Y-114219998D02*
X126403333Y-114186665D01*
X126370000Y-114119998D01*
X126370000Y-114019998D01*
X126403333Y-113953332D01*
X126470000Y-113919998D01*
X126836667Y-113919998D01*
X126836667Y-113286665D02*
X126136667Y-113286665D01*
X126803333Y-113286665D02*
X126836667Y-113353332D01*
X126836667Y-113486665D01*
X126803333Y-113553332D01*
X126770000Y-113586665D01*
X126703333Y-113619999D01*
X126503333Y-113619999D01*
X126436667Y-113586665D01*
X126403333Y-113553332D01*
X126370000Y-113486665D01*
X126370000Y-113353332D01*
X126403333Y-113286665D01*
X126803333Y-112686666D02*
X126836667Y-112753332D01*
X126836667Y-112886666D01*
X126803333Y-112953332D01*
X126736667Y-112986666D01*
X126470000Y-112986666D01*
X126403333Y-112953332D01*
X126370000Y-112886666D01*
X126370000Y-112753332D01*
X126403333Y-112686666D01*
X126470000Y-112653332D01*
X126536667Y-112653332D01*
X126603333Y-112986666D01*
X126836667Y-112353332D02*
X126370000Y-112353332D01*
X126503333Y-112353332D02*
X126436667Y-112319999D01*
X126403333Y-112286666D01*
X126370000Y-112219999D01*
X126370000Y-112153332D01*
X126770000Y-110986666D02*
X126803333Y-111020000D01*
X126836667Y-111120000D01*
X126836667Y-111186666D01*
X126803333Y-111286666D01*
X126736667Y-111353333D01*
X126670000Y-111386666D01*
X126536667Y-111420000D01*
X126436667Y-111420000D01*
X126303333Y-111386666D01*
X126236667Y-111353333D01*
X126170000Y-111286666D01*
X126136667Y-111186666D01*
X126136667Y-111120000D01*
X126170000Y-111020000D01*
X126203333Y-110986666D01*
X126470000Y-110686666D02*
X126470000Y-110453333D01*
X126836667Y-110353333D02*
X126836667Y-110686666D01*
X126136667Y-110686666D01*
X126136667Y-110353333D01*
X126836667Y-109653333D02*
X126503333Y-109886667D01*
X126836667Y-110053333D02*
X126136667Y-110053333D01*
X126136667Y-109786667D01*
X126170000Y-109720000D01*
X126203333Y-109686667D01*
X126270000Y-109653333D01*
X126370000Y-109653333D01*
X126436667Y-109686667D01*
X126470000Y-109720000D01*
X126503333Y-109786667D01*
X126503333Y-110053333D01*
X126836667Y-109353333D02*
X126136667Y-109353333D01*
X126836667Y-108953333D01*
X126136667Y-108953333D01*
X126136667Y-107953334D02*
X126136667Y-107820001D01*
X126170000Y-107753334D01*
X126236667Y-107686667D01*
X126370000Y-107653334D01*
X126603333Y-107653334D01*
X126736667Y-107686667D01*
X126803333Y-107753334D01*
X126836667Y-107820001D01*
X126836667Y-107953334D01*
X126803333Y-108020001D01*
X126736667Y-108086667D01*
X126603333Y-108120001D01*
X126370000Y-108120001D01*
X126236667Y-108086667D01*
X126170000Y-108020001D01*
X126136667Y-107953334D01*
X126836667Y-107353334D02*
X126136667Y-107353334D01*
X126470000Y-107353334D02*
X126470000Y-106953334D01*
X126836667Y-106953334D02*
X126136667Y-106953334D01*
X126836667Y-106286668D02*
X126836667Y-106620001D01*
X126136667Y-106620001D01*
X126370000Y-105586668D02*
X126836667Y-105420001D01*
X126370000Y-105253335D01*
X126770000Y-104986668D02*
X126803333Y-104953335D01*
X126836667Y-104986668D01*
X126803333Y-105020002D01*
X126770000Y-104986668D01*
X126836667Y-104986668D01*
X126836667Y-104286669D02*
X126836667Y-104686669D01*
X126836667Y-104486669D02*
X126136667Y-104486669D01*
X126236667Y-104553335D01*
X126303333Y-104620002D01*
X126336667Y-104686669D01*
X126770000Y-103986668D02*
X126803333Y-103953335D01*
X126836667Y-103986668D01*
X126803333Y-104020002D01*
X126770000Y-103986668D01*
X126836667Y-103986668D01*
X126203333Y-103686669D02*
X126170000Y-103653335D01*
X126136667Y-103586669D01*
X126136667Y-103420002D01*
X126170000Y-103353335D01*
X126203333Y-103320002D01*
X126270000Y-103286669D01*
X126336667Y-103286669D01*
X126436667Y-103320002D01*
X126836667Y-103720002D01*
X126836667Y-103286669D01*
X135768571Y-87490000D02*
X136368571Y-87490000D01*
X136140000Y-87490000D02*
X136168571Y-87547143D01*
X136168571Y-87661429D01*
X136140000Y-87718572D01*
X136111429Y-87747143D01*
X136054286Y-87775714D01*
X135882857Y-87775714D01*
X135825714Y-87747143D01*
X135797143Y-87718572D01*
X135768571Y-87661429D01*
X135768571Y-87547143D01*
X135797143Y-87490000D01*
X136168571Y-87975714D02*
X135768571Y-88118571D01*
X136168571Y-88261429D02*
X135768571Y-88118571D01*
X135625714Y-88061429D01*
X135597143Y-88032857D01*
X135568571Y-87975714D01*
X135797143Y-88918572D02*
X135768571Y-88975715D01*
X135768571Y-89090000D01*
X135797143Y-89147143D01*
X135854286Y-89175715D01*
X135882857Y-89175715D01*
X135940000Y-89147143D01*
X135968571Y-89090000D01*
X135968571Y-89004286D01*
X135997143Y-88947143D01*
X136054286Y-88918572D01*
X136082857Y-88918572D01*
X136140000Y-88947143D01*
X136168571Y-89004286D01*
X136168571Y-89090000D01*
X136140000Y-89147143D01*
X136168571Y-89690000D02*
X135768571Y-89690000D01*
X136168571Y-89432857D02*
X135854286Y-89432857D01*
X135797143Y-89461429D01*
X135768571Y-89518571D01*
X135768571Y-89604286D01*
X135797143Y-89661429D01*
X135825714Y-89690000D01*
X136168571Y-89975714D02*
X135768571Y-89975714D01*
X136111429Y-89975714D02*
X136140000Y-90004286D01*
X136168571Y-90061428D01*
X136168571Y-90147143D01*
X136140000Y-90204286D01*
X136082857Y-90232857D01*
X135768571Y-90232857D01*
X135768571Y-90775714D02*
X136368571Y-90775714D01*
X135797143Y-90775714D02*
X135768571Y-90718571D01*
X135768571Y-90604285D01*
X135797143Y-90547143D01*
X135825714Y-90518571D01*
X135882857Y-90490000D01*
X136054286Y-90490000D01*
X136111429Y-90518571D01*
X136140000Y-90547143D01*
X136168571Y-90604285D01*
X136168571Y-90718571D01*
X136140000Y-90775714D01*
X135768571Y-91061428D02*
X136368571Y-91061428D01*
X136140000Y-91061428D02*
X136168571Y-91118571D01*
X136168571Y-91232857D01*
X136140000Y-91290000D01*
X136111429Y-91318571D01*
X136054286Y-91347142D01*
X135882857Y-91347142D01*
X135825714Y-91318571D01*
X135797143Y-91290000D01*
X135768571Y-91232857D01*
X135768571Y-91118571D01*
X135797143Y-91061428D01*
X135797143Y-91832857D02*
X135768571Y-91775714D01*
X135768571Y-91661428D01*
X135797143Y-91604285D01*
X135854286Y-91575714D01*
X136082857Y-91575714D01*
X136140000Y-91604285D01*
X136168571Y-91661428D01*
X136168571Y-91775714D01*
X136140000Y-91832857D01*
X136082857Y-91861428D01*
X136025714Y-91861428D01*
X135968571Y-91575714D01*
X135768571Y-92118571D02*
X136168571Y-92118571D01*
X136054286Y-92118571D02*
X136111429Y-92147143D01*
X136140000Y-92175714D01*
X136168571Y-92232857D01*
X136168571Y-92290000D01*
X136168571Y-92747143D02*
X135682857Y-92747143D01*
X135625714Y-92718572D01*
X135597143Y-92690000D01*
X135568571Y-92632857D01*
X135568571Y-92547143D01*
X135597143Y-92490000D01*
X135797143Y-92747143D02*
X135768571Y-92690000D01*
X135768571Y-92575714D01*
X135797143Y-92518572D01*
X135825714Y-92490000D01*
X135882857Y-92461429D01*
X136054286Y-92461429D01*
X136111429Y-92490000D01*
X136140000Y-92518572D01*
X136168571Y-92575714D01*
X136168571Y-92690000D01*
X136140000Y-92747143D01*
X136111429Y-93118571D02*
X136140000Y-93061429D01*
X136168571Y-93032857D01*
X136225714Y-93004286D01*
X136254286Y-93004286D01*
X136311429Y-93032857D01*
X136340000Y-93061429D01*
X136368571Y-93118571D01*
X136368571Y-93232857D01*
X136340000Y-93290000D01*
X136311429Y-93318571D01*
X136254286Y-93347143D01*
X136225714Y-93347143D01*
X136168571Y-93318571D01*
X136140000Y-93290000D01*
X136111429Y-93232857D01*
X136111429Y-93118571D01*
X136082857Y-93061429D01*
X136054286Y-93032857D01*
X135997143Y-93004286D01*
X135882857Y-93004286D01*
X135825714Y-93032857D01*
X135797143Y-93061429D01*
X135768571Y-93118571D01*
X135768571Y-93232857D01*
X135797143Y-93290000D01*
X135825714Y-93318571D01*
X135882857Y-93347143D01*
X135997143Y-93347143D01*
X136054286Y-93318571D01*
X136082857Y-93290000D01*
X136111429Y-93232857D01*
X136168571Y-93861429D02*
X135768571Y-93861429D01*
X136397143Y-93718572D02*
X135968571Y-93575715D01*
X135968571Y-93947143D01*
X127931429Y-94178571D02*
X127902857Y-94235713D01*
X127874286Y-94264285D01*
X127817143Y-94292856D01*
X127645714Y-94292856D01*
X127588571Y-94264285D01*
X127560000Y-94235713D01*
X127531429Y-94178571D01*
X127531429Y-94092856D01*
X127560000Y-94035713D01*
X127588571Y-94007142D01*
X127645714Y-93978571D01*
X127817143Y-93978571D01*
X127874286Y-94007142D01*
X127902857Y-94035713D01*
X127931429Y-94092856D01*
X127931429Y-94178571D01*
X127531429Y-93721428D02*
X128131429Y-93721428D01*
X127560000Y-93721428D02*
X127531429Y-93664285D01*
X127531429Y-93549999D01*
X127560000Y-93492856D01*
X127588571Y-93464285D01*
X127645714Y-93435714D01*
X127817143Y-93435714D01*
X127874286Y-93464285D01*
X127902857Y-93492856D01*
X127931429Y-93549999D01*
X127931429Y-93664285D01*
X127902857Y-93721428D01*
X127902857Y-92949999D02*
X127931429Y-93007142D01*
X127931429Y-93121428D01*
X127902857Y-93178571D01*
X127845714Y-93207142D01*
X127617143Y-93207142D01*
X127560000Y-93178571D01*
X127531429Y-93121428D01*
X127531429Y-93007142D01*
X127560000Y-92949999D01*
X127617143Y-92921428D01*
X127674286Y-92921428D01*
X127731429Y-93207142D01*
X127531429Y-92664285D02*
X127931429Y-92664285D01*
X127588571Y-92664285D02*
X127560000Y-92635713D01*
X127531429Y-92578571D01*
X127531429Y-92492856D01*
X127560000Y-92435713D01*
X127617143Y-92407142D01*
X127931429Y-92407142D01*
X127931429Y-92121428D02*
X127331429Y-92121428D01*
X127931429Y-91864285D02*
X127617143Y-91864285D01*
X127560000Y-91892856D01*
X127531429Y-91949999D01*
X127531429Y-92035714D01*
X127560000Y-92092856D01*
X127588571Y-92121428D01*
X127931429Y-91321428D02*
X127617143Y-91321428D01*
X127560000Y-91349999D01*
X127531429Y-91407142D01*
X127531429Y-91521428D01*
X127560000Y-91578571D01*
X127902857Y-91321428D02*
X127931429Y-91378571D01*
X127931429Y-91521428D01*
X127902857Y-91578571D01*
X127845714Y-91607142D01*
X127788571Y-91607142D01*
X127731429Y-91578571D01*
X127702857Y-91521428D01*
X127702857Y-91378571D01*
X127674286Y-91321428D01*
X127931429Y-91035714D02*
X127531429Y-91035714D01*
X127645714Y-91035714D02*
X127588571Y-91007142D01*
X127560000Y-90978571D01*
X127531429Y-90921428D01*
X127531429Y-90864285D01*
X127931429Y-90407142D02*
X127331429Y-90407142D01*
X127902857Y-90407142D02*
X127931429Y-90464285D01*
X127931429Y-90578571D01*
X127902857Y-90635713D01*
X127874286Y-90664285D01*
X127817143Y-90692856D01*
X127645714Y-90692856D01*
X127588571Y-90664285D01*
X127560000Y-90635713D01*
X127531429Y-90578571D01*
X127531429Y-90464285D01*
X127560000Y-90407142D01*
X127531429Y-90178571D02*
X127931429Y-90064285D01*
X127645714Y-89949999D01*
X127931429Y-89835714D01*
X127531429Y-89721428D01*
X127931429Y-89235714D02*
X127617143Y-89235714D01*
X127560000Y-89264285D01*
X127531429Y-89321428D01*
X127531429Y-89435714D01*
X127560000Y-89492857D01*
X127902857Y-89235714D02*
X127931429Y-89292857D01*
X127931429Y-89435714D01*
X127902857Y-89492857D01*
X127845714Y-89521428D01*
X127788571Y-89521428D01*
X127731429Y-89492857D01*
X127702857Y-89435714D01*
X127702857Y-89292857D01*
X127674286Y-89235714D01*
X127931429Y-88950000D02*
X127531429Y-88950000D01*
X127645714Y-88950000D02*
X127588571Y-88921428D01*
X127560000Y-88892857D01*
X127531429Y-88835714D01*
X127531429Y-88778571D01*
X127902857Y-88349999D02*
X127931429Y-88407142D01*
X127931429Y-88521428D01*
X127902857Y-88578571D01*
X127845714Y-88607142D01*
X127617143Y-88607142D01*
X127560000Y-88578571D01*
X127531429Y-88521428D01*
X127531429Y-88407142D01*
X127560000Y-88349999D01*
X127617143Y-88321428D01*
X127674286Y-88321428D01*
X127731429Y-88607142D01*
X127874286Y-88064285D02*
X127902857Y-88035713D01*
X127931429Y-88064285D01*
X127902857Y-88092856D01*
X127874286Y-88064285D01*
X127931429Y-88064285D01*
X127931429Y-87778571D02*
X127531429Y-87778571D01*
X127331429Y-87778571D02*
X127360000Y-87807142D01*
X127388571Y-87778571D01*
X127360000Y-87749999D01*
X127331429Y-87778571D01*
X127388571Y-87778571D01*
X127931429Y-87407143D02*
X127902857Y-87464285D01*
X127874286Y-87492857D01*
X127817143Y-87521428D01*
X127645714Y-87521428D01*
X127588571Y-87492857D01*
X127560000Y-87464285D01*
X127531429Y-87407143D01*
X127531429Y-87321428D01*
X127560000Y-87264285D01*
X127588571Y-87235714D01*
X127645714Y-87207143D01*
X127817143Y-87207143D01*
X127874286Y-87235714D01*
X127902857Y-87264285D01*
X127931429Y-87321428D01*
X127931429Y-87407143D01*
D11*
X136878095Y-87910476D02*
X137678095Y-87910476D01*
X137106667Y-88177143D01*
X137678095Y-88443810D01*
X136878095Y-88443810D01*
X137411429Y-88748572D02*
X136878095Y-88939048D01*
X137411429Y-89129524D02*
X136878095Y-88939048D01*
X136687619Y-88862857D01*
X136649524Y-88824762D01*
X136611429Y-88748572D01*
X136916190Y-89396191D02*
X136878095Y-89472381D01*
X136878095Y-89624762D01*
X136916190Y-89700953D01*
X136992381Y-89739048D01*
X137030476Y-89739048D01*
X137106667Y-89700953D01*
X137144762Y-89624762D01*
X137144762Y-89510477D01*
X137182857Y-89434286D01*
X137259048Y-89396191D01*
X137297143Y-89396191D01*
X137373333Y-89434286D01*
X137411429Y-89510477D01*
X137411429Y-89624762D01*
X137373333Y-89700953D01*
X137678095Y-90005715D02*
X136878095Y-90539048D01*
X137678095Y-90539048D02*
X136878095Y-90005715D01*
X136878095Y-91834287D02*
X136878095Y-91453334D01*
X137678095Y-91453334D01*
X136916190Y-92405715D02*
X136878095Y-92329525D01*
X136878095Y-92177144D01*
X136916190Y-92100953D01*
X136992381Y-92062858D01*
X137297143Y-92062858D01*
X137373333Y-92100953D01*
X137411429Y-92177144D01*
X137411429Y-92329525D01*
X137373333Y-92405715D01*
X137297143Y-92443810D01*
X137220952Y-92443810D01*
X137144762Y-92062858D01*
X136878095Y-93129524D02*
X137678095Y-93129524D01*
X136916190Y-93129524D02*
X136878095Y-93053334D01*
X136878095Y-92900953D01*
X136916190Y-92824762D01*
X136954286Y-92786667D01*
X137030476Y-92748572D01*
X137259048Y-92748572D01*
X137335238Y-92786667D01*
X137373333Y-92824762D01*
X137411429Y-92900953D01*
X137411429Y-93053334D01*
X137373333Y-93129524D01*
X153457143Y-94321429D02*
X154219048Y-94321429D01*
X156980953Y-94321429D02*
X157742858Y-94321429D01*
X157361906Y-94702381D02*
X157361906Y-93940476D01*
X142307619Y-93800000D02*
X142212381Y-93752381D01*
X142069524Y-93752381D01*
X141926666Y-93800000D01*
X141831428Y-93895238D01*
X141783809Y-93990476D01*
X141736190Y-94180952D01*
X141736190Y-94323810D01*
X141783809Y-94514286D01*
X141831428Y-94609524D01*
X141926666Y-94704762D01*
X142069524Y-94752381D01*
X142164762Y-94752381D01*
X142307619Y-94704762D01*
X142355238Y-94657143D01*
X142355238Y-94323810D01*
X142164762Y-94323810D01*
X142783809Y-94085714D02*
X142783809Y-94752381D01*
X142783809Y-94180952D02*
X142831428Y-94133333D01*
X142926666Y-94085714D01*
X143069524Y-94085714D01*
X143164762Y-94133333D01*
X143212381Y-94228571D01*
X143212381Y-94752381D01*
X144117143Y-94752381D02*
X144117143Y-93752381D01*
X144117143Y-94704762D02*
X144021905Y-94752381D01*
X143831428Y-94752381D01*
X143736190Y-94704762D01*
X143688571Y-94657143D01*
X143640952Y-94561905D01*
X143640952Y-94276190D01*
X143688571Y-94180952D01*
X143736190Y-94133333D01*
X143831428Y-94085714D01*
X144021905Y-94085714D01*
X144117143Y-94133333D01*
X145212381Y-93752381D02*
X145545714Y-94752381D01*
X145879048Y-93752381D01*
X146783810Y-94657143D02*
X146736191Y-94704762D01*
X146593334Y-94752381D01*
X146498096Y-94752381D01*
X146355238Y-94704762D01*
X146260000Y-94609524D01*
X146212381Y-94514286D01*
X146164762Y-94323810D01*
X146164762Y-94180952D01*
X146212381Y-93990476D01*
X146260000Y-93895238D01*
X146355238Y-93800000D01*
X146498096Y-93752381D01*
X146593334Y-93752381D01*
X146736191Y-93800000D01*
X146783810Y-93847619D01*
X147783810Y-94657143D02*
X147736191Y-94704762D01*
X147593334Y-94752381D01*
X147498096Y-94752381D01*
X147355238Y-94704762D01*
X147260000Y-94609524D01*
X147212381Y-94514286D01*
X147164762Y-94323810D01*
X147164762Y-94180952D01*
X147212381Y-93990476D01*
X147260000Y-93895238D01*
X147355238Y-93800000D01*
X147498096Y-93752381D01*
X147593334Y-93752381D01*
X147736191Y-93800000D01*
X147783810Y-93847619D01*
D13*
X140940000Y-109600000D02*
X140940000Y-112220000D01*
X140940000Y-112220000D02*
X147360000Y-112220000D01*
X147360000Y-112220000D02*
X147360000Y-109600000D01*
X147360000Y-109600000D02*
X140940000Y-109600000D01*
X140050000Y-110910000D02*
X140940000Y-110910000D01*
X148250000Y-110910000D02*
X147360000Y-110910000D01*
D14*
G36*
X137943222Y-91044227D02*
X137942896Y-91424376D01*
X137942366Y-91787829D01*
X137941643Y-92132554D01*
X137940737Y-92456517D01*
X137939659Y-92757685D01*
X137938421Y-93034024D01*
X137937033Y-93283501D01*
X137935505Y-93504083D01*
X137933850Y-93693736D01*
X137932077Y-93850428D01*
X137930198Y-93972124D01*
X137928223Y-94056792D01*
X137926163Y-94102397D01*
X137924872Y-94110167D01*
X137910344Y-94128863D01*
X137896432Y-94175594D01*
X137892872Y-94194833D01*
X137879786Y-94247766D01*
X137863514Y-94277289D01*
X137858417Y-94279500D01*
X137838561Y-94295965D01*
X137837500Y-94303495D01*
X137821592Y-94336407D01*
X137780480Y-94384147D01*
X137724083Y-94437907D01*
X137662318Y-94488882D01*
X137605103Y-94528263D01*
X137563153Y-94547094D01*
X137518328Y-94561329D01*
X137498859Y-94577954D01*
X137498833Y-94578479D01*
X137477940Y-94580248D01*
X137416353Y-94581962D01*
X137315711Y-94583615D01*
X137177653Y-94585200D01*
X137003819Y-94586712D01*
X136795849Y-94588146D01*
X136555381Y-94589494D01*
X136284055Y-94590750D01*
X135983510Y-94591910D01*
X135655386Y-94592967D01*
X135301321Y-94593914D01*
X134922955Y-94594746D01*
X134521928Y-94595458D01*
X134099878Y-94596042D01*
X133658446Y-94596493D01*
X133199269Y-94596805D01*
X132723988Y-94596972D01*
X132429417Y-94597000D01*
X131945192Y-94596924D01*
X131476079Y-94596698D01*
X131023720Y-94596331D01*
X130589751Y-94595826D01*
X130175814Y-94595191D01*
X129783547Y-94594432D01*
X129414589Y-94593553D01*
X129070580Y-94592562D01*
X128753159Y-94591464D01*
X128463966Y-94590265D01*
X128204639Y-94588971D01*
X127976819Y-94587589D01*
X127782143Y-94586124D01*
X127622253Y-94584582D01*
X127498786Y-94582969D01*
X127413383Y-94581292D01*
X127367682Y-94579555D01*
X127360000Y-94578479D01*
X127341661Y-94562065D01*
X127297160Y-94547417D01*
X127293586Y-94546675D01*
X127231164Y-94521117D01*
X127178180Y-94480529D01*
X127138832Y-94444521D01*
X127108791Y-94427812D01*
X127107011Y-94427667D01*
X127086948Y-94410709D01*
X127084833Y-94398181D01*
X127067760Y-94365505D01*
X127053083Y-94356512D01*
X127025018Y-94333281D01*
X127021333Y-94320986D01*
X127007689Y-94288194D01*
X126989583Y-94265893D01*
X126966080Y-94221967D01*
X126957833Y-94172155D01*
X126951565Y-94128227D01*
X126936667Y-94110167D01*
X126933521Y-94089020D01*
X126930626Y-94025660D01*
X126927981Y-93920207D01*
X126925589Y-93772778D01*
X126923449Y-93583494D01*
X126921562Y-93352474D01*
X126919928Y-93079838D01*
X126918550Y-92765703D01*
X126917427Y-92410191D01*
X126916560Y-92013419D01*
X126915950Y-91575508D01*
X126915597Y-91096577D01*
X126915500Y-90649417D01*
X126915612Y-90251992D01*
X126915939Y-89869748D01*
X126916471Y-89504687D01*
X126917198Y-89158811D01*
X126918109Y-88834119D01*
X126919193Y-88532613D01*
X126920438Y-88256295D01*
X126921836Y-88007166D01*
X126923374Y-87787227D01*
X126925043Y-87598479D01*
X126926831Y-87442924D01*
X126928728Y-87322562D01*
X126930722Y-87239395D01*
X126932804Y-87195424D01*
X126934021Y-87188667D01*
X126950435Y-87170327D01*
X126965083Y-87125826D01*
X126965825Y-87122252D01*
X126991659Y-87058734D01*
X127029495Y-87009140D01*
X127069894Y-86962308D01*
X127093700Y-86918909D01*
X127123531Y-86880457D01*
X127159675Y-86862284D01*
X127198951Y-86845618D01*
X127211833Y-86829389D01*
X127230334Y-86812860D01*
X127275862Y-86797756D01*
X127285917Y-86795687D01*
X127334756Y-86781828D01*
X127359313Y-86765665D01*
X127360000Y-86762978D01*
X127380916Y-86761122D01*
X127442662Y-86759333D01*
X127543733Y-86757614D01*
X127682626Y-86755973D01*
X127857837Y-86754414D01*
X128067863Y-86752944D01*
X128185500Y-86752279D01*
X128185500Y-86909737D01*
X127756664Y-86916910D01*
X127327829Y-86924083D01*
X127238081Y-87016594D01*
X127190294Y-87070366D01*
X127157740Y-87115632D01*
X127148333Y-87138302D01*
X127136927Y-87164804D01*
X127128719Y-87167500D01*
X127107499Y-87184930D01*
X127099329Y-87204542D01*
X127098274Y-87229453D01*
X127097286Y-87294450D01*
X127096369Y-87397282D01*
X127095528Y-87535703D01*
X127094767Y-87707462D01*
X127094091Y-87910312D01*
X127093504Y-88142004D01*
X127093011Y-88400290D01*
X127092615Y-88682920D01*
X127092321Y-88987647D01*
X127092134Y-89312222D01*
X127092058Y-89654397D01*
X127092098Y-90011922D01*
X127092257Y-90382549D01*
X127092485Y-90700570D01*
X127092938Y-91165181D01*
X127093482Y-91589085D01*
X127094131Y-91973907D01*
X127094900Y-92321274D01*
X127095801Y-92632812D01*
X127096848Y-92910146D01*
X127098056Y-93154902D01*
X127099439Y-93368707D01*
X127101009Y-93553186D01*
X127102781Y-93709965D01*
X127104768Y-93840671D01*
X127106984Y-93946928D01*
X127109444Y-94030364D01*
X127112160Y-94092604D01*
X127115147Y-94135274D01*
X127118419Y-94159999D01*
X127121875Y-94168376D01*
X127146523Y-94194077D01*
X127148333Y-94204628D01*
X127162179Y-94233493D01*
X127198105Y-94280476D01*
X127238081Y-94324573D01*
X127327829Y-94417083D01*
X127756664Y-94424256D01*
X128185500Y-94431429D01*
X128185500Y-86909737D01*
X128185500Y-86752279D01*
X128311199Y-86751567D01*
X128586342Y-86750289D01*
X128891788Y-86749116D01*
X129226034Y-86748054D01*
X129587574Y-86747107D01*
X129974906Y-86746282D01*
X130386527Y-86745585D01*
X130820931Y-86745020D01*
X131276615Y-86744593D01*
X131752076Y-86744310D01*
X132245810Y-86744177D01*
X132429417Y-86744167D01*
X132913642Y-86744243D01*
X133382754Y-86744468D01*
X133835114Y-86744836D01*
X134269082Y-86745340D01*
X134683020Y-86745975D01*
X135075287Y-86746735D01*
X135444245Y-86747613D01*
X135788254Y-86748605D01*
X136105674Y-86749703D01*
X136394868Y-86750901D01*
X136567500Y-86751762D01*
X136567500Y-86913500D01*
X128333667Y-86913500D01*
X128333667Y-94427667D01*
X136567500Y-94427667D01*
X136567500Y-86913500D01*
X136567500Y-86751762D01*
X136654194Y-86752195D01*
X136736833Y-86752696D01*
X136736833Y-86910828D01*
X136736833Y-94430339D01*
X137121390Y-94423711D01*
X137269009Y-94420320D01*
X137378213Y-94415722D01*
X137452912Y-94409588D01*
X137497013Y-94401591D01*
X137514426Y-94391400D01*
X137514738Y-94390625D01*
X137540703Y-94366075D01*
X137551886Y-94364167D01*
X137585929Y-94348949D01*
X137631350Y-94311860D01*
X137675300Y-94265748D01*
X137704934Y-94223459D01*
X137710500Y-94205552D01*
X137727120Y-94173699D01*
X137736958Y-94168375D01*
X137740556Y-94146420D01*
X137743916Y-94084828D01*
X137747040Y-93986296D01*
X137749927Y-93853520D01*
X137752578Y-93689197D01*
X137754992Y-93496023D01*
X137757169Y-93276693D01*
X137759110Y-93033905D01*
X137760814Y-92770355D01*
X137762281Y-92488738D01*
X137763512Y-92191752D01*
X137764506Y-91882092D01*
X137765263Y-91562456D01*
X137765784Y-91235538D01*
X137766068Y-90904035D01*
X137766115Y-90570644D01*
X137765926Y-90238061D01*
X137765500Y-89908983D01*
X137764837Y-89586105D01*
X137763938Y-89272123D01*
X137762802Y-88969735D01*
X137761430Y-88681636D01*
X137759821Y-88410523D01*
X137757975Y-88159092D01*
X137755893Y-87930039D01*
X137753573Y-87726061D01*
X137751018Y-87549853D01*
X137748225Y-87404113D01*
X137745196Y-87291536D01*
X137741931Y-87214819D01*
X137738428Y-87176658D01*
X137736958Y-87172792D01*
X137712408Y-87146795D01*
X137710500Y-87135614D01*
X137695282Y-87101571D01*
X137658194Y-87056150D01*
X137612082Y-87012200D01*
X137569793Y-86982566D01*
X137551886Y-86977000D01*
X137520053Y-86960383D01*
X137514738Y-86950542D01*
X137498986Y-86940191D01*
X137456810Y-86932056D01*
X137384302Y-86925807D01*
X137277551Y-86921116D01*
X137132650Y-86917653D01*
X137121390Y-86917455D01*
X136736833Y-86910828D01*
X136736833Y-86752696D01*
X136882015Y-86753577D01*
X137076690Y-86755042D01*
X137236581Y-86756584D01*
X137360047Y-86758197D01*
X137445451Y-86759875D01*
X137491152Y-86761611D01*
X137498833Y-86762687D01*
X137517173Y-86779101D01*
X137561674Y-86793750D01*
X137565248Y-86794491D01*
X137627670Y-86820049D01*
X137680654Y-86860637D01*
X137720002Y-86896645D01*
X137750042Y-86913355D01*
X137751823Y-86913500D01*
X137773180Y-86929712D01*
X137774000Y-86935677D01*
X137788247Y-86963987D01*
X137822940Y-87003150D01*
X137826863Y-87006846D01*
X137868743Y-87062084D01*
X137893009Y-87122252D01*
X137907264Y-87167958D01*
X137923797Y-87188571D01*
X137924813Y-87188667D01*
X137926940Y-87209500D01*
X137928985Y-87270665D01*
X137930939Y-87370161D01*
X137932790Y-87505986D01*
X137934528Y-87676140D01*
X137936141Y-87878621D01*
X137937620Y-88111428D01*
X137938953Y-88372560D01*
X137940130Y-88660015D01*
X137941140Y-88971792D01*
X137941973Y-89305890D01*
X137942617Y-89660308D01*
X137943062Y-90033044D01*
X137943297Y-90422098D01*
X137943333Y-90649417D01*
X137943222Y-91044227D01*
X137943222Y-91044227D01*
G37*
X137943222Y-91044227D02*
X137942896Y-91424376D01*
X137942366Y-91787829D01*
X137941643Y-92132554D01*
X137940737Y-92456517D01*
X137939659Y-92757685D01*
X137938421Y-93034024D01*
X137937033Y-93283501D01*
X137935505Y-93504083D01*
X137933850Y-93693736D01*
X137932077Y-93850428D01*
X137930198Y-93972124D01*
X137928223Y-94056792D01*
X137926163Y-94102397D01*
X137924872Y-94110167D01*
X137910344Y-94128863D01*
X137896432Y-94175594D01*
X137892872Y-94194833D01*
X137879786Y-94247766D01*
X137863514Y-94277289D01*
X137858417Y-94279500D01*
X137838561Y-94295965D01*
X137837500Y-94303495D01*
X137821592Y-94336407D01*
X137780480Y-94384147D01*
X137724083Y-94437907D01*
X137662318Y-94488882D01*
X137605103Y-94528263D01*
X137563153Y-94547094D01*
X137518328Y-94561329D01*
X137498859Y-94577954D01*
X137498833Y-94578479D01*
X137477940Y-94580248D01*
X137416353Y-94581962D01*
X137315711Y-94583615D01*
X137177653Y-94585200D01*
X137003819Y-94586712D01*
X136795849Y-94588146D01*
X136555381Y-94589494D01*
X136284055Y-94590750D01*
X135983510Y-94591910D01*
X135655386Y-94592967D01*
X135301321Y-94593914D01*
X134922955Y-94594746D01*
X134521928Y-94595458D01*
X134099878Y-94596042D01*
X133658446Y-94596493D01*
X133199269Y-94596805D01*
X132723988Y-94596972D01*
X132429417Y-94597000D01*
X131945192Y-94596924D01*
X131476079Y-94596698D01*
X131023720Y-94596331D01*
X130589751Y-94595826D01*
X130175814Y-94595191D01*
X129783547Y-94594432D01*
X129414589Y-94593553D01*
X129070580Y-94592562D01*
X128753159Y-94591464D01*
X128463966Y-94590265D01*
X128204639Y-94588971D01*
X127976819Y-94587589D01*
X127782143Y-94586124D01*
X127622253Y-94584582D01*
X127498786Y-94582969D01*
X127413383Y-94581292D01*
X127367682Y-94579555D01*
X127360000Y-94578479D01*
X127341661Y-94562065D01*
X127297160Y-94547417D01*
X127293586Y-94546675D01*
X127231164Y-94521117D01*
X127178180Y-94480529D01*
X127138832Y-94444521D01*
X127108791Y-94427812D01*
X127107011Y-94427667D01*
X127086948Y-94410709D01*
X127084833Y-94398181D01*
X127067760Y-94365505D01*
X127053083Y-94356512D01*
X127025018Y-94333281D01*
X127021333Y-94320986D01*
X127007689Y-94288194D01*
X126989583Y-94265893D01*
X126966080Y-94221967D01*
X126957833Y-94172155D01*
X126951565Y-94128227D01*
X126936667Y-94110167D01*
X126933521Y-94089020D01*
X126930626Y-94025660D01*
X126927981Y-93920207D01*
X126925589Y-93772778D01*
X126923449Y-93583494D01*
X126921562Y-93352474D01*
X126919928Y-93079838D01*
X126918550Y-92765703D01*
X126917427Y-92410191D01*
X126916560Y-92013419D01*
X126915950Y-91575508D01*
X126915597Y-91096577D01*
X126915500Y-90649417D01*
X126915612Y-90251992D01*
X126915939Y-89869748D01*
X126916471Y-89504687D01*
X126917198Y-89158811D01*
X126918109Y-88834119D01*
X126919193Y-88532613D01*
X126920438Y-88256295D01*
X126921836Y-88007166D01*
X126923374Y-87787227D01*
X126925043Y-87598479D01*
X126926831Y-87442924D01*
X126928728Y-87322562D01*
X126930722Y-87239395D01*
X126932804Y-87195424D01*
X126934021Y-87188667D01*
X126950435Y-87170327D01*
X126965083Y-87125826D01*
X126965825Y-87122252D01*
X126991659Y-87058734D01*
X127029495Y-87009140D01*
X127069894Y-86962308D01*
X127093700Y-86918909D01*
X127123531Y-86880457D01*
X127159675Y-86862284D01*
X127198951Y-86845618D01*
X127211833Y-86829389D01*
X127230334Y-86812860D01*
X127275862Y-86797756D01*
X127285917Y-86795687D01*
X127334756Y-86781828D01*
X127359313Y-86765665D01*
X127360000Y-86762978D01*
X127380916Y-86761122D01*
X127442662Y-86759333D01*
X127543733Y-86757614D01*
X127682626Y-86755973D01*
X127857837Y-86754414D01*
X128067863Y-86752944D01*
X128185500Y-86752279D01*
X128185500Y-86909737D01*
X127756664Y-86916910D01*
X127327829Y-86924083D01*
X127238081Y-87016594D01*
X127190294Y-87070366D01*
X127157740Y-87115632D01*
X127148333Y-87138302D01*
X127136927Y-87164804D01*
X127128719Y-87167500D01*
X127107499Y-87184930D01*
X127099329Y-87204542D01*
X127098274Y-87229453D01*
X127097286Y-87294450D01*
X127096369Y-87397282D01*
X127095528Y-87535703D01*
X127094767Y-87707462D01*
X127094091Y-87910312D01*
X127093504Y-88142004D01*
X127093011Y-88400290D01*
X127092615Y-88682920D01*
X127092321Y-88987647D01*
X127092134Y-89312222D01*
X127092058Y-89654397D01*
X127092098Y-90011922D01*
X127092257Y-90382549D01*
X127092485Y-90700570D01*
X127092938Y-91165181D01*
X127093482Y-91589085D01*
X127094131Y-91973907D01*
X127094900Y-92321274D01*
X127095801Y-92632812D01*
X127096848Y-92910146D01*
X127098056Y-93154902D01*
X127099439Y-93368707D01*
X127101009Y-93553186D01*
X127102781Y-93709965D01*
X127104768Y-93840671D01*
X127106984Y-93946928D01*
X127109444Y-94030364D01*
X127112160Y-94092604D01*
X127115147Y-94135274D01*
X127118419Y-94159999D01*
X127121875Y-94168376D01*
X127146523Y-94194077D01*
X127148333Y-94204628D01*
X127162179Y-94233493D01*
X127198105Y-94280476D01*
X127238081Y-94324573D01*
X127327829Y-94417083D01*
X127756664Y-94424256D01*
X128185500Y-94431429D01*
X128185500Y-86909737D01*
X128185500Y-86752279D01*
X128311199Y-86751567D01*
X128586342Y-86750289D01*
X128891788Y-86749116D01*
X129226034Y-86748054D01*
X129587574Y-86747107D01*
X129974906Y-86746282D01*
X130386527Y-86745585D01*
X130820931Y-86745020D01*
X131276615Y-86744593D01*
X131752076Y-86744310D01*
X132245810Y-86744177D01*
X132429417Y-86744167D01*
X132913642Y-86744243D01*
X133382754Y-86744468D01*
X133835114Y-86744836D01*
X134269082Y-86745340D01*
X134683020Y-86745975D01*
X135075287Y-86746735D01*
X135444245Y-86747613D01*
X135788254Y-86748605D01*
X136105674Y-86749703D01*
X136394868Y-86750901D01*
X136567500Y-86751762D01*
X136567500Y-86913500D01*
X128333667Y-86913500D01*
X128333667Y-94427667D01*
X136567500Y-94427667D01*
X136567500Y-86913500D01*
X136567500Y-86751762D01*
X136654194Y-86752195D01*
X136736833Y-86752696D01*
X136736833Y-86910828D01*
X136736833Y-94430339D01*
X137121390Y-94423711D01*
X137269009Y-94420320D01*
X137378213Y-94415722D01*
X137452912Y-94409588D01*
X137497013Y-94401591D01*
X137514426Y-94391400D01*
X137514738Y-94390625D01*
X137540703Y-94366075D01*
X137551886Y-94364167D01*
X137585929Y-94348949D01*
X137631350Y-94311860D01*
X137675300Y-94265748D01*
X137704934Y-94223459D01*
X137710500Y-94205552D01*
X137727120Y-94173699D01*
X137736958Y-94168375D01*
X137740556Y-94146420D01*
X137743916Y-94084828D01*
X137747040Y-93986296D01*
X137749927Y-93853520D01*
X137752578Y-93689197D01*
X137754992Y-93496023D01*
X137757169Y-93276693D01*
X137759110Y-93033905D01*
X137760814Y-92770355D01*
X137762281Y-92488738D01*
X137763512Y-92191752D01*
X137764506Y-91882092D01*
X137765263Y-91562456D01*
X137765784Y-91235538D01*
X137766068Y-90904035D01*
X137766115Y-90570644D01*
X137765926Y-90238061D01*
X137765500Y-89908983D01*
X137764837Y-89586105D01*
X137763938Y-89272123D01*
X137762802Y-88969735D01*
X137761430Y-88681636D01*
X137759821Y-88410523D01*
X137757975Y-88159092D01*
X137755893Y-87930039D01*
X137753573Y-87726061D01*
X137751018Y-87549853D01*
X137748225Y-87404113D01*
X137745196Y-87291536D01*
X137741931Y-87214819D01*
X137738428Y-87176658D01*
X137736958Y-87172792D01*
X137712408Y-87146795D01*
X137710500Y-87135614D01*
X137695282Y-87101571D01*
X137658194Y-87056150D01*
X137612082Y-87012200D01*
X137569793Y-86982566D01*
X137551886Y-86977000D01*
X137520053Y-86960383D01*
X137514738Y-86950542D01*
X137498986Y-86940191D01*
X137456810Y-86932056D01*
X137384302Y-86925807D01*
X137277551Y-86921116D01*
X137132650Y-86917653D01*
X137121390Y-86917455D01*
X136736833Y-86910828D01*
X136736833Y-86752696D01*
X136882015Y-86753577D01*
X137076690Y-86755042D01*
X137236581Y-86756584D01*
X137360047Y-86758197D01*
X137445451Y-86759875D01*
X137491152Y-86761611D01*
X137498833Y-86762687D01*
X137517173Y-86779101D01*
X137561674Y-86793750D01*
X137565248Y-86794491D01*
X137627670Y-86820049D01*
X137680654Y-86860637D01*
X137720002Y-86896645D01*
X137750042Y-86913355D01*
X137751823Y-86913500D01*
X137773180Y-86929712D01*
X137774000Y-86935677D01*
X137788247Y-86963987D01*
X137822940Y-87003150D01*
X137826863Y-87006846D01*
X137868743Y-87062084D01*
X137893009Y-87122252D01*
X137907264Y-87167958D01*
X137923797Y-87188571D01*
X137924813Y-87188667D01*
X137926940Y-87209500D01*
X137928985Y-87270665D01*
X137930939Y-87370161D01*
X137932790Y-87505986D01*
X137934528Y-87676140D01*
X137936141Y-87878621D01*
X137937620Y-88111428D01*
X137938953Y-88372560D01*
X137940130Y-88660015D01*
X137941140Y-88971792D01*
X137941973Y-89305890D01*
X137942617Y-89660308D01*
X137943062Y-90033044D01*
X137943297Y-90422098D01*
X137943333Y-90649417D01*
X137943222Y-91044227D01*
G36*
X130294445Y-88294931D02*
X130268252Y-88310715D01*
X130265125Y-88310824D01*
X130240654Y-88314293D01*
X130256048Y-88328799D01*
X130259833Y-88331219D01*
X130278644Y-88362394D01*
X130289621Y-88417347D01*
X130292445Y-88481122D01*
X130286799Y-88538764D01*
X130272366Y-88575314D01*
X130265125Y-88580375D01*
X130240920Y-88606356D01*
X130238667Y-88619180D01*
X130221831Y-88646110D01*
X130208681Y-88649167D01*
X130175955Y-88664975D01*
X130169840Y-88675625D01*
X130150074Y-88689007D01*
X130098743Y-88697298D01*
X130011640Y-88700989D01*
X129951118Y-88701256D01*
X129849821Y-88699577D01*
X129781244Y-88694461D01*
X129735816Y-88684355D01*
X129703966Y-88667707D01*
X129693625Y-88659510D01*
X129659207Y-88621539D01*
X129646000Y-88591546D01*
X129632877Y-88566540D01*
X129624833Y-88564500D01*
X129611579Y-88545722D01*
X129604207Y-88498812D01*
X129603667Y-88479833D01*
X129607815Y-88426807D01*
X129618178Y-88397321D01*
X129622365Y-88395167D01*
X129642127Y-88377551D01*
X129652133Y-88352833D01*
X129654715Y-88334215D01*
X129646116Y-88322043D01*
X129619317Y-88314952D01*
X129567295Y-88311578D01*
X129483029Y-88310556D01*
X129434333Y-88310500D01*
X129333786Y-88310923D01*
X129268549Y-88313102D01*
X129231600Y-88318402D01*
X129215918Y-88328188D01*
X129214482Y-88343823D01*
X129216534Y-88352833D01*
X129233288Y-88387147D01*
X129246302Y-88395167D01*
X129259434Y-88413570D01*
X129264999Y-88457908D01*
X129265000Y-88458667D01*
X129259354Y-88503259D01*
X129245751Y-88522162D01*
X129245515Y-88522167D01*
X129227872Y-88540414D01*
X129212358Y-88584432D01*
X129212083Y-88585667D01*
X129194143Y-88630175D01*
X129170290Y-88649158D01*
X129169832Y-88649167D01*
X129138028Y-88665811D01*
X129132737Y-88675625D01*
X129115582Y-88687439D01*
X129070348Y-88695501D01*
X128992599Y-88700228D01*
X128877897Y-88702035D01*
X128850515Y-88702083D01*
X128577083Y-88702083D01*
X128570451Y-88633292D01*
X128563818Y-88564500D01*
X128787167Y-88564500D01*
X128910588Y-88561345D01*
X128997579Y-88550322D01*
X129053679Y-88529092D01*
X129084429Y-88495318D01*
X129095368Y-88446662D01*
X129095667Y-88434308D01*
X129090380Y-88384760D01*
X129070433Y-88350200D01*
X129029698Y-88328082D01*
X128962050Y-88315857D01*
X128861359Y-88310980D01*
X128797822Y-88310500D01*
X128566500Y-88310500D01*
X128566500Y-88183500D01*
X129905853Y-88183500D01*
X129905853Y-88312807D01*
X129848424Y-88319435D01*
X129801809Y-88330835D01*
X129779903Y-88350672D01*
X129773393Y-88392334D01*
X129773000Y-88427876D01*
X129777238Y-88490308D01*
X129791619Y-88518532D01*
X129804750Y-88522167D01*
X129832918Y-88533596D01*
X129836500Y-88543333D01*
X129855780Y-88554608D01*
X129906146Y-88562252D01*
X129963500Y-88564500D01*
X130031148Y-88561287D01*
X130077010Y-88552892D01*
X130090500Y-88543333D01*
X130107644Y-88524555D01*
X130122250Y-88522167D01*
X130145274Y-88504825D01*
X130153974Y-88463067D01*
X130148405Y-88412292D01*
X130128623Y-88367902D01*
X130121670Y-88359813D01*
X130070958Y-88332147D01*
X129993986Y-88315735D01*
X129905853Y-88312807D01*
X129905853Y-88183500D01*
X130302167Y-88183500D01*
X130302167Y-88247000D01*
X130294445Y-88294931D01*
X130294445Y-88294931D01*
G37*
X130294445Y-88294931D02*
X130268252Y-88310715D01*
X130265125Y-88310824D01*
X130240654Y-88314293D01*
X130256048Y-88328799D01*
X130259833Y-88331219D01*
X130278644Y-88362394D01*
X130289621Y-88417347D01*
X130292445Y-88481122D01*
X130286799Y-88538764D01*
X130272366Y-88575314D01*
X130265125Y-88580375D01*
X130240920Y-88606356D01*
X130238667Y-88619180D01*
X130221831Y-88646110D01*
X130208681Y-88649167D01*
X130175955Y-88664975D01*
X130169840Y-88675625D01*
X130150074Y-88689007D01*
X130098743Y-88697298D01*
X130011640Y-88700989D01*
X129951118Y-88701256D01*
X129849821Y-88699577D01*
X129781244Y-88694461D01*
X129735816Y-88684355D01*
X129703966Y-88667707D01*
X129693625Y-88659510D01*
X129659207Y-88621539D01*
X129646000Y-88591546D01*
X129632877Y-88566540D01*
X129624833Y-88564500D01*
X129611579Y-88545722D01*
X129604207Y-88498812D01*
X129603667Y-88479833D01*
X129607815Y-88426807D01*
X129618178Y-88397321D01*
X129622365Y-88395167D01*
X129642127Y-88377551D01*
X129652133Y-88352833D01*
X129654715Y-88334215D01*
X129646116Y-88322043D01*
X129619317Y-88314952D01*
X129567295Y-88311578D01*
X129483029Y-88310556D01*
X129434333Y-88310500D01*
X129333786Y-88310923D01*
X129268549Y-88313102D01*
X129231600Y-88318402D01*
X129215918Y-88328188D01*
X129214482Y-88343823D01*
X129216534Y-88352833D01*
X129233288Y-88387147D01*
X129246302Y-88395167D01*
X129259434Y-88413570D01*
X129264999Y-88457908D01*
X129265000Y-88458667D01*
X129259354Y-88503259D01*
X129245751Y-88522162D01*
X129245515Y-88522167D01*
X129227872Y-88540414D01*
X129212358Y-88584432D01*
X129212083Y-88585667D01*
X129194143Y-88630175D01*
X129170290Y-88649158D01*
X129169832Y-88649167D01*
X129138028Y-88665811D01*
X129132737Y-88675625D01*
X129115582Y-88687439D01*
X129070348Y-88695501D01*
X128992599Y-88700228D01*
X128877897Y-88702035D01*
X128850515Y-88702083D01*
X128577083Y-88702083D01*
X128570451Y-88633292D01*
X128563818Y-88564500D01*
X128787167Y-88564500D01*
X128910588Y-88561345D01*
X128997579Y-88550322D01*
X129053679Y-88529092D01*
X129084429Y-88495318D01*
X129095368Y-88446662D01*
X129095667Y-88434308D01*
X129090380Y-88384760D01*
X129070433Y-88350200D01*
X129029698Y-88328082D01*
X128962050Y-88315857D01*
X128861359Y-88310980D01*
X128797822Y-88310500D01*
X128566500Y-88310500D01*
X128566500Y-88183500D01*
X129905853Y-88183500D01*
X129905853Y-88312807D01*
X129848424Y-88319435D01*
X129801809Y-88330835D01*
X129779903Y-88350672D01*
X129773393Y-88392334D01*
X129773000Y-88427876D01*
X129777238Y-88490308D01*
X129791619Y-88518532D01*
X129804750Y-88522167D01*
X129832918Y-88533596D01*
X129836500Y-88543333D01*
X129855780Y-88554608D01*
X129906146Y-88562252D01*
X129963500Y-88564500D01*
X130031148Y-88561287D01*
X130077010Y-88552892D01*
X130090500Y-88543333D01*
X130107644Y-88524555D01*
X130122250Y-88522167D01*
X130145274Y-88504825D01*
X130153974Y-88463067D01*
X130148405Y-88412292D01*
X130128623Y-88367902D01*
X130121670Y-88359813D01*
X130070958Y-88332147D01*
X129993986Y-88315735D01*
X129905853Y-88312807D01*
X129905853Y-88183500D01*
X130302167Y-88183500D01*
X130302167Y-88247000D01*
X130294445Y-88294931D01*
G36*
X129261129Y-89118726D02*
X129251336Y-89152799D01*
X129245515Y-89157167D01*
X129227872Y-89175414D01*
X129212358Y-89219432D01*
X129212083Y-89220667D01*
X129193626Y-89265187D01*
X129168536Y-89284159D01*
X129168068Y-89284167D01*
X129140997Y-89296148D01*
X129138000Y-89305333D01*
X129117548Y-89314273D01*
X129058962Y-89320985D01*
X128966398Y-89325161D01*
X128852250Y-89326500D01*
X128566500Y-89326500D01*
X128566500Y-89263000D01*
X128575966Y-89212587D01*
X128598250Y-89199500D01*
X128626435Y-89189273D01*
X128630000Y-89180598D01*
X128613155Y-89157459D01*
X128598250Y-89149512D01*
X128577600Y-89125948D01*
X128568038Y-89071316D01*
X128566891Y-89025539D01*
X128570448Y-88955001D01*
X128585645Y-88907655D01*
X128620203Y-88864540D01*
X128640402Y-88844958D01*
X128713106Y-88791835D01*
X128779719Y-88779160D01*
X128779719Y-88945500D01*
X128725829Y-88957742D01*
X128708091Y-88982542D01*
X128696995Y-89075125D01*
X128717969Y-89142777D01*
X128736075Y-89163046D01*
X128785456Y-89197116D01*
X128817700Y-89197004D01*
X128835512Y-89160390D01*
X128841596Y-89084955D01*
X128841667Y-89072500D01*
X128840798Y-89002200D01*
X128834945Y-88964255D01*
X128819243Y-88948689D01*
X128788824Y-88945523D01*
X128779719Y-88945500D01*
X128779719Y-88779160D01*
X128779889Y-88779127D01*
X128847540Y-88806891D01*
X128895633Y-88847096D01*
X128935099Y-88888496D01*
X128957001Y-88925576D01*
X128966474Y-88973216D01*
X128968652Y-89046299D01*
X128968667Y-89058763D01*
X128969589Y-89133789D01*
X128974659Y-89175936D01*
X128987335Y-89194654D01*
X129011074Y-89199392D01*
X129020157Y-89199500D01*
X129057307Y-89191738D01*
X129080309Y-89164033D01*
X129091419Y-89109755D01*
X129092895Y-89022272D01*
X129091814Y-88989009D01*
X129092356Y-88904635D01*
X129102821Y-88855880D01*
X129115699Y-88840368D01*
X129161739Y-88830666D01*
X129198098Y-88858892D01*
X129215793Y-88905839D01*
X129230009Y-88949161D01*
X129246479Y-88966667D01*
X129257526Y-88985590D01*
X129264151Y-89033468D01*
X129265000Y-89061917D01*
X129261129Y-89118726D01*
X129261129Y-89118726D01*
G37*
X129261129Y-89118726D02*
X129251336Y-89152799D01*
X129245515Y-89157167D01*
X129227872Y-89175414D01*
X129212358Y-89219432D01*
X129212083Y-89220667D01*
X129193626Y-89265187D01*
X129168536Y-89284159D01*
X129168068Y-89284167D01*
X129140997Y-89296148D01*
X129138000Y-89305333D01*
X129117548Y-89314273D01*
X129058962Y-89320985D01*
X128966398Y-89325161D01*
X128852250Y-89326500D01*
X128566500Y-89326500D01*
X128566500Y-89263000D01*
X128575966Y-89212587D01*
X128598250Y-89199500D01*
X128626435Y-89189273D01*
X128630000Y-89180598D01*
X128613155Y-89157459D01*
X128598250Y-89149512D01*
X128577600Y-89125948D01*
X128568038Y-89071316D01*
X128566891Y-89025539D01*
X128570448Y-88955001D01*
X128585645Y-88907655D01*
X128620203Y-88864540D01*
X128640402Y-88844958D01*
X128713106Y-88791835D01*
X128779719Y-88779160D01*
X128779719Y-88945500D01*
X128725829Y-88957742D01*
X128708091Y-88982542D01*
X128696995Y-89075125D01*
X128717969Y-89142777D01*
X128736075Y-89163046D01*
X128785456Y-89197116D01*
X128817700Y-89197004D01*
X128835512Y-89160390D01*
X128841596Y-89084955D01*
X128841667Y-89072500D01*
X128840798Y-89002200D01*
X128834945Y-88964255D01*
X128819243Y-88948689D01*
X128788824Y-88945523D01*
X128779719Y-88945500D01*
X128779719Y-88779160D01*
X128779889Y-88779127D01*
X128847540Y-88806891D01*
X128895633Y-88847096D01*
X128935099Y-88888496D01*
X128957001Y-88925576D01*
X128966474Y-88973216D01*
X128968652Y-89046299D01*
X128968667Y-89058763D01*
X128969589Y-89133789D01*
X128974659Y-89175936D01*
X128987335Y-89194654D01*
X129011074Y-89199392D01*
X129020157Y-89199500D01*
X129057307Y-89191738D01*
X129080309Y-89164033D01*
X129091419Y-89109755D01*
X129092895Y-89022272D01*
X129091814Y-88989009D01*
X129092356Y-88904635D01*
X129102821Y-88855880D01*
X129115699Y-88840368D01*
X129161739Y-88830666D01*
X129198098Y-88858892D01*
X129215793Y-88905839D01*
X129230009Y-88949161D01*
X129246479Y-88966667D01*
X129257526Y-88985590D01*
X129264151Y-89033468D01*
X129265000Y-89061917D01*
X129261129Y-89118726D01*
G36*
X129256173Y-89587652D02*
X129231824Y-89601667D01*
X129209227Y-89612260D01*
X129213455Y-89649292D01*
X129232056Y-89689306D01*
X129246631Y-89703972D01*
X129260293Y-89726963D01*
X129264626Y-89769016D01*
X129260039Y-89811027D01*
X129246942Y-89833891D01*
X129243833Y-89834500D01*
X129224849Y-89851553D01*
X129222667Y-89865001D01*
X129210205Y-89902174D01*
X129177505Y-89906286D01*
X129131595Y-89876658D01*
X129128847Y-89874056D01*
X129093255Y-89826896D01*
X129087744Y-89772061D01*
X129090059Y-89755021D01*
X129090636Y-89694192D01*
X129063808Y-89649493D01*
X129057148Y-89643011D01*
X129031316Y-89624070D01*
X128996673Y-89611876D01*
X128944133Y-89605025D01*
X128864614Y-89602113D01*
X128789635Y-89601667D01*
X128566500Y-89601667D01*
X128566500Y-89474667D01*
X129265000Y-89474667D01*
X129265000Y-89538167D01*
X129256173Y-89587652D01*
X129256173Y-89587652D01*
G37*
X129256173Y-89587652D02*
X129231824Y-89601667D01*
X129209227Y-89612260D01*
X129213455Y-89649292D01*
X129232056Y-89689306D01*
X129246631Y-89703972D01*
X129260293Y-89726963D01*
X129264626Y-89769016D01*
X129260039Y-89811027D01*
X129246942Y-89833891D01*
X129243833Y-89834500D01*
X129224849Y-89851553D01*
X129222667Y-89865001D01*
X129210205Y-89902174D01*
X129177505Y-89906286D01*
X129131595Y-89876658D01*
X129128847Y-89874056D01*
X129093255Y-89826896D01*
X129087744Y-89772061D01*
X129090059Y-89755021D01*
X129090636Y-89694192D01*
X129063808Y-89649493D01*
X129057148Y-89643011D01*
X129031316Y-89624070D01*
X128996673Y-89611876D01*
X128944133Y-89605025D01*
X128864614Y-89602113D01*
X128789635Y-89601667D01*
X128566500Y-89601667D01*
X128566500Y-89474667D01*
X129265000Y-89474667D01*
X129265000Y-89538167D01*
X129256173Y-89587652D01*
G36*
X128566500Y-90469500D02*
X128566500Y-90384833D01*
X128571346Y-90326875D01*
X128587971Y-90302389D01*
X128599762Y-90300167D01*
X128621807Y-90296846D01*
X128612387Y-90279895D01*
X128599762Y-90266905D01*
X128577677Y-90224991D01*
X128566959Y-90165026D01*
X128567708Y-90102464D01*
X128580023Y-90052762D01*
X128598250Y-90032654D01*
X128626381Y-90006004D01*
X128630000Y-89990985D01*
X128646992Y-89964901D01*
X128661750Y-89961500D01*
X128689918Y-89950070D01*
X128693500Y-89940333D01*
X128713630Y-89930514D01*
X128769978Y-89923411D01*
X128856481Y-89919627D01*
X128906178Y-89919167D01*
X128915750Y-89919229D01*
X128915750Y-90046167D01*
X128858945Y-90050371D01*
X128824871Y-90061007D01*
X128820500Y-90067333D01*
X128802386Y-90083245D01*
X128767583Y-90088500D01*
X128734640Y-90092576D01*
X128719225Y-90112446D01*
X128714818Y-90159567D01*
X128714667Y-90181485D01*
X128720994Y-90249903D01*
X128741246Y-90283758D01*
X128748148Y-90287319D01*
X128794009Y-90295609D01*
X128865012Y-90299281D01*
X128944221Y-90298363D01*
X129014702Y-90292883D01*
X129048042Y-90286825D01*
X129079763Y-90270497D01*
X129093383Y-90235631D01*
X129095667Y-90189883D01*
X129090746Y-90131567D01*
X129072393Y-90102696D01*
X129053333Y-90094633D01*
X129019020Y-90077879D01*
X129011000Y-90064864D01*
X128992077Y-90053712D01*
X128944200Y-90047024D01*
X128915750Y-90046167D01*
X128915750Y-89919229D01*
X129003713Y-89919799D01*
X129068657Y-89923071D01*
X129110743Y-89931043D01*
X129139710Y-89945776D01*
X129165294Y-89969332D01*
X129170761Y-89975174D01*
X129205525Y-90020108D01*
X129222371Y-90056462D01*
X129222667Y-90059841D01*
X129235155Y-90085965D01*
X129243833Y-90088500D01*
X129258695Y-90106893D01*
X129264999Y-90151210D01*
X129265000Y-90152000D01*
X129259581Y-90196596D01*
X129246526Y-90215495D01*
X129246302Y-90215500D01*
X129226540Y-90233115D01*
X129216534Y-90257833D01*
X129213958Y-90279482D01*
X129225789Y-90292149D01*
X129260235Y-90298216D01*
X129325503Y-90300071D01*
X129362232Y-90300167D01*
X129519000Y-90300167D01*
X129519000Y-90469500D01*
X128566500Y-90469500D01*
X128566500Y-90469500D01*
G37*
X128566500Y-90469500D02*
X128566500Y-90384833D01*
X128571346Y-90326875D01*
X128587971Y-90302389D01*
X128599762Y-90300167D01*
X128621807Y-90296846D01*
X128612387Y-90279895D01*
X128599762Y-90266905D01*
X128577677Y-90224991D01*
X128566959Y-90165026D01*
X128567708Y-90102464D01*
X128580023Y-90052762D01*
X128598250Y-90032654D01*
X128626381Y-90006004D01*
X128630000Y-89990985D01*
X128646992Y-89964901D01*
X128661750Y-89961500D01*
X128689918Y-89950070D01*
X128693500Y-89940333D01*
X128713630Y-89930514D01*
X128769978Y-89923411D01*
X128856481Y-89919627D01*
X128906178Y-89919167D01*
X128915750Y-89919229D01*
X128915750Y-90046167D01*
X128858945Y-90050371D01*
X128824871Y-90061007D01*
X128820500Y-90067333D01*
X128802386Y-90083245D01*
X128767583Y-90088500D01*
X128734640Y-90092576D01*
X128719225Y-90112446D01*
X128714818Y-90159567D01*
X128714667Y-90181485D01*
X128720994Y-90249903D01*
X128741246Y-90283758D01*
X128748148Y-90287319D01*
X128794009Y-90295609D01*
X128865012Y-90299281D01*
X128944221Y-90298363D01*
X129014702Y-90292883D01*
X129048042Y-90286825D01*
X129079763Y-90270497D01*
X129093383Y-90235631D01*
X129095667Y-90189883D01*
X129090746Y-90131567D01*
X129072393Y-90102696D01*
X129053333Y-90094633D01*
X129019020Y-90077879D01*
X129011000Y-90064864D01*
X128992077Y-90053712D01*
X128944200Y-90047024D01*
X128915750Y-90046167D01*
X128915750Y-89919229D01*
X129003713Y-89919799D01*
X129068657Y-89923071D01*
X129110743Y-89931043D01*
X129139710Y-89945776D01*
X129165294Y-89969332D01*
X129170761Y-89975174D01*
X129205525Y-90020108D01*
X129222371Y-90056462D01*
X129222667Y-90059841D01*
X129235155Y-90085965D01*
X129243833Y-90088500D01*
X129258695Y-90106893D01*
X129264999Y-90151210D01*
X129265000Y-90152000D01*
X129259581Y-90196596D01*
X129246526Y-90215495D01*
X129246302Y-90215500D01*
X129226540Y-90233115D01*
X129216534Y-90257833D01*
X129213958Y-90279482D01*
X129225789Y-90292149D01*
X129260235Y-90298216D01*
X129325503Y-90300071D01*
X129362232Y-90300167D01*
X129519000Y-90300167D01*
X129519000Y-90469500D01*
X128566500Y-90469500D01*
G36*
X129258778Y-90642874D02*
X129231602Y-90665887D01*
X129201500Y-90673758D01*
X129157041Y-90687381D01*
X129138011Y-90702596D01*
X129138000Y-90702901D01*
X129118831Y-90713785D01*
X129068992Y-90725527D01*
X129011000Y-90734083D01*
X128944110Y-90744494D01*
X128898099Y-90756717D01*
X128884000Y-90766359D01*
X128866593Y-90785760D01*
X128846958Y-90793576D01*
X128828116Y-90801223D01*
X128849709Y-90805253D01*
X128857542Y-90805711D01*
X128894769Y-90814725D01*
X128905167Y-90826930D01*
X128924007Y-90840925D01*
X128971698Y-90854793D01*
X129000417Y-90859977D01*
X129057108Y-90871872D01*
X129091209Y-90885577D01*
X129095667Y-90891425D01*
X129114357Y-90905140D01*
X129161073Y-90918597D01*
X129180333Y-90922128D01*
X129235418Y-90934759D01*
X129259775Y-90954972D01*
X129265000Y-90988862D01*
X129255573Y-91029734D01*
X129219402Y-91050567D01*
X129201500Y-91054758D01*
X129157036Y-91068543D01*
X129138011Y-91084145D01*
X129138000Y-91084456D01*
X129118925Y-91096134D01*
X129069702Y-91108458D01*
X129021583Y-91115999D01*
X128957916Y-91127023D01*
X128915631Y-91140227D01*
X128905167Y-91149272D01*
X128887159Y-91164839D01*
X128857542Y-91170455D01*
X128828894Y-91174051D01*
X128840955Y-91180952D01*
X128846958Y-91182591D01*
X128878342Y-91199676D01*
X128884000Y-91211156D01*
X128902977Y-91224431D01*
X128951514Y-91237710D01*
X128989833Y-91244081D01*
X129050118Y-91255384D01*
X129088446Y-91268925D01*
X129095667Y-91276560D01*
X129113743Y-91290594D01*
X129146852Y-91295000D01*
X129216919Y-91303207D01*
X129254048Y-91331249D01*
X129265000Y-91384255D01*
X129265000Y-91448620D01*
X129154273Y-91433932D01*
X129089748Y-91422342D01*
X129044369Y-91408557D01*
X129031930Y-91400450D01*
X129005473Y-91385741D01*
X128953092Y-91371418D01*
X128930991Y-91367373D01*
X128876409Y-91355344D01*
X128844813Y-91341991D01*
X128841667Y-91337355D01*
X128822701Y-91325878D01*
X128774190Y-91313745D01*
X128735833Y-91307581D01*
X128675539Y-91295917D01*
X128637212Y-91281457D01*
X128630000Y-91273104D01*
X128612755Y-91255179D01*
X128596909Y-91252667D01*
X128574081Y-91240697D01*
X128569277Y-91199194D01*
X128570451Y-91183875D01*
X128580713Y-91135384D01*
X128608309Y-91114497D01*
X128645875Y-91108450D01*
X128692726Y-91099240D01*
X128714476Y-91085712D01*
X128714667Y-91084395D01*
X128733501Y-91071201D01*
X128781178Y-91057814D01*
X128809917Y-91052690D01*
X128866615Y-91040535D01*
X128900714Y-91026178D01*
X128905167Y-91019942D01*
X128923430Y-91003776D01*
X128963375Y-90992661D01*
X129021583Y-90983843D01*
X128963375Y-90980671D01*
X128921085Y-90971937D01*
X128905167Y-90957062D01*
X128886184Y-90942901D01*
X128837635Y-90929059D01*
X128799333Y-90922585D01*
X128739056Y-90911536D01*
X128700727Y-90898642D01*
X128693500Y-90891512D01*
X128675203Y-90877036D01*
X128635292Y-90867781D01*
X128593406Y-90855523D01*
X128574890Y-90822649D01*
X128570451Y-90792292D01*
X128570276Y-90744454D01*
X128586840Y-90725730D01*
X128607492Y-90723500D01*
X128642624Y-90715850D01*
X128651167Y-90704737D01*
X128670007Y-90690742D01*
X128717698Y-90676873D01*
X128746417Y-90671690D01*
X128803108Y-90659794D01*
X128837209Y-90646090D01*
X128841667Y-90640241D01*
X128860414Y-90626754D01*
X128907552Y-90613145D01*
X128930991Y-90608794D01*
X128988757Y-90595902D01*
X129026406Y-90580724D01*
X129031930Y-90575717D01*
X129057930Y-90562532D01*
X129111982Y-90549105D01*
X129154273Y-90542235D01*
X129265000Y-90527546D01*
X129265000Y-90594302D01*
X129258778Y-90642874D01*
X129258778Y-90642874D01*
G37*
X129258778Y-90642874D02*
X129231602Y-90665887D01*
X129201500Y-90673758D01*
X129157041Y-90687381D01*
X129138011Y-90702596D01*
X129138000Y-90702901D01*
X129118831Y-90713785D01*
X129068992Y-90725527D01*
X129011000Y-90734083D01*
X128944110Y-90744494D01*
X128898099Y-90756717D01*
X128884000Y-90766359D01*
X128866593Y-90785760D01*
X128846958Y-90793576D01*
X128828116Y-90801223D01*
X128849709Y-90805253D01*
X128857542Y-90805711D01*
X128894769Y-90814725D01*
X128905167Y-90826930D01*
X128924007Y-90840925D01*
X128971698Y-90854793D01*
X129000417Y-90859977D01*
X129057108Y-90871872D01*
X129091209Y-90885577D01*
X129095667Y-90891425D01*
X129114357Y-90905140D01*
X129161073Y-90918597D01*
X129180333Y-90922128D01*
X129235418Y-90934759D01*
X129259775Y-90954972D01*
X129265000Y-90988862D01*
X129255573Y-91029734D01*
X129219402Y-91050567D01*
X129201500Y-91054758D01*
X129157036Y-91068543D01*
X129138011Y-91084145D01*
X129138000Y-91084456D01*
X129118925Y-91096134D01*
X129069702Y-91108458D01*
X129021583Y-91115999D01*
X128957916Y-91127023D01*
X128915631Y-91140227D01*
X128905167Y-91149272D01*
X128887159Y-91164839D01*
X128857542Y-91170455D01*
X128828894Y-91174051D01*
X128840955Y-91180952D01*
X128846958Y-91182591D01*
X128878342Y-91199676D01*
X128884000Y-91211156D01*
X128902977Y-91224431D01*
X128951514Y-91237710D01*
X128989833Y-91244081D01*
X129050118Y-91255384D01*
X129088446Y-91268925D01*
X129095667Y-91276560D01*
X129113743Y-91290594D01*
X129146852Y-91295000D01*
X129216919Y-91303207D01*
X129254048Y-91331249D01*
X129265000Y-91384255D01*
X129265000Y-91448620D01*
X129154273Y-91433932D01*
X129089748Y-91422342D01*
X129044369Y-91408557D01*
X129031930Y-91400450D01*
X129005473Y-91385741D01*
X128953092Y-91371418D01*
X128930991Y-91367373D01*
X128876409Y-91355344D01*
X128844813Y-91341991D01*
X128841667Y-91337355D01*
X128822701Y-91325878D01*
X128774190Y-91313745D01*
X128735833Y-91307581D01*
X128675539Y-91295917D01*
X128637212Y-91281457D01*
X128630000Y-91273104D01*
X128612755Y-91255179D01*
X128596909Y-91252667D01*
X128574081Y-91240697D01*
X128569277Y-91199194D01*
X128570451Y-91183875D01*
X128580713Y-91135384D01*
X128608309Y-91114497D01*
X128645875Y-91108450D01*
X128692726Y-91099240D01*
X128714476Y-91085712D01*
X128714667Y-91084395D01*
X128733501Y-91071201D01*
X128781178Y-91057814D01*
X128809917Y-91052690D01*
X128866615Y-91040535D01*
X128900714Y-91026178D01*
X128905167Y-91019942D01*
X128923430Y-91003776D01*
X128963375Y-90992661D01*
X129021583Y-90983843D01*
X128963375Y-90980671D01*
X128921085Y-90971937D01*
X128905167Y-90957062D01*
X128886184Y-90942901D01*
X128837635Y-90929059D01*
X128799333Y-90922585D01*
X128739056Y-90911536D01*
X128700727Y-90898642D01*
X128693500Y-90891512D01*
X128675203Y-90877036D01*
X128635292Y-90867781D01*
X128593406Y-90855523D01*
X128574890Y-90822649D01*
X128570451Y-90792292D01*
X128570276Y-90744454D01*
X128586840Y-90725730D01*
X128607492Y-90723500D01*
X128642624Y-90715850D01*
X128651167Y-90704737D01*
X128670007Y-90690742D01*
X128717698Y-90676873D01*
X128746417Y-90671690D01*
X128803108Y-90659794D01*
X128837209Y-90646090D01*
X128841667Y-90640241D01*
X128860414Y-90626754D01*
X128907552Y-90613145D01*
X128930991Y-90608794D01*
X128988757Y-90595902D01*
X129026406Y-90580724D01*
X129031930Y-90575717D01*
X129057930Y-90562532D01*
X129111982Y-90549105D01*
X129154273Y-90542235D01*
X129265000Y-90527546D01*
X129265000Y-90594302D01*
X129258778Y-90642874D01*
G36*
X129260796Y-91785721D02*
X129250159Y-91819796D01*
X129243833Y-91824167D01*
X129227383Y-91842126D01*
X129222667Y-91872379D01*
X129207347Y-91921153D01*
X129175042Y-91962337D01*
X129149941Y-91979898D01*
X129116230Y-91992296D01*
X129066005Y-92000723D01*
X128991361Y-92006370D01*
X128884395Y-92010427D01*
X128849436Y-92011392D01*
X128571455Y-92018701D01*
X128571386Y-91820892D01*
X128572475Y-91730922D01*
X128575452Y-91655364D01*
X128579781Y-91605418D01*
X128582248Y-91593648D01*
X128610126Y-91545432D01*
X128649300Y-91504491D01*
X128685362Y-91485614D01*
X128687621Y-91485500D01*
X128712626Y-91472377D01*
X128714667Y-91464333D01*
X128732781Y-91448422D01*
X128767583Y-91443167D01*
X128774665Y-91444456D01*
X128774665Y-91616558D01*
X128727201Y-91621462D01*
X128708328Y-91648308D01*
X128697510Y-91763028D01*
X128706841Y-91818875D01*
X128729279Y-91855314D01*
X128777207Y-91866461D01*
X128781692Y-91866500D01*
X128843779Y-91866500D01*
X128837431Y-91744792D01*
X128832370Y-91675908D01*
X128822895Y-91638629D01*
X128803758Y-91622235D01*
X128774665Y-91616558D01*
X128774665Y-91444456D01*
X128807362Y-91450412D01*
X128820500Y-91464333D01*
X128837268Y-91483903D01*
X128847546Y-91485500D01*
X128894727Y-91505469D01*
X128932016Y-91561849D01*
X128956801Y-91649347D01*
X128965160Y-91723625D01*
X128973444Y-91866500D01*
X129101355Y-91866500D01*
X129090908Y-91720486D01*
X129086907Y-91639770D01*
X129090422Y-91589528D01*
X129103314Y-91558278D01*
X129120056Y-91540569D01*
X129164856Y-91510895D01*
X129192853Y-91518479D01*
X129211049Y-91565573D01*
X129212083Y-91570167D01*
X129227443Y-91614604D01*
X129245134Y-91633655D01*
X129245515Y-91633667D01*
X129257137Y-91652588D01*
X129264107Y-91700462D01*
X129265000Y-91728917D01*
X129260796Y-91785721D01*
X129260796Y-91785721D01*
G37*
X129260796Y-91785721D02*
X129250159Y-91819796D01*
X129243833Y-91824167D01*
X129227383Y-91842126D01*
X129222667Y-91872379D01*
X129207347Y-91921153D01*
X129175042Y-91962337D01*
X129149941Y-91979898D01*
X129116230Y-91992296D01*
X129066005Y-92000723D01*
X128991361Y-92006370D01*
X128884395Y-92010427D01*
X128849436Y-92011392D01*
X128571455Y-92018701D01*
X128571386Y-91820892D01*
X128572475Y-91730922D01*
X128575452Y-91655364D01*
X128579781Y-91605418D01*
X128582248Y-91593648D01*
X128610126Y-91545432D01*
X128649300Y-91504491D01*
X128685362Y-91485614D01*
X128687621Y-91485500D01*
X128712626Y-91472377D01*
X128714667Y-91464333D01*
X128732781Y-91448422D01*
X128767583Y-91443167D01*
X128774665Y-91444456D01*
X128774665Y-91616558D01*
X128727201Y-91621462D01*
X128708328Y-91648308D01*
X128697510Y-91763028D01*
X128706841Y-91818875D01*
X128729279Y-91855314D01*
X128777207Y-91866461D01*
X128781692Y-91866500D01*
X128843779Y-91866500D01*
X128837431Y-91744792D01*
X128832370Y-91675908D01*
X128822895Y-91638629D01*
X128803758Y-91622235D01*
X128774665Y-91616558D01*
X128774665Y-91444456D01*
X128807362Y-91450412D01*
X128820500Y-91464333D01*
X128837268Y-91483903D01*
X128847546Y-91485500D01*
X128894727Y-91505469D01*
X128932016Y-91561849D01*
X128956801Y-91649347D01*
X128965160Y-91723625D01*
X128973444Y-91866500D01*
X129101355Y-91866500D01*
X129090908Y-91720486D01*
X129086907Y-91639770D01*
X129090422Y-91589528D01*
X129103314Y-91558278D01*
X129120056Y-91540569D01*
X129164856Y-91510895D01*
X129192853Y-91518479D01*
X129211049Y-91565573D01*
X129212083Y-91570167D01*
X129227443Y-91614604D01*
X129245134Y-91633655D01*
X129245515Y-91633667D01*
X129257137Y-91652588D01*
X129264107Y-91700462D01*
X129265000Y-91728917D01*
X129260796Y-91785721D01*
G36*
X129256502Y-92254178D02*
X129230956Y-92268667D01*
X129208209Y-92277912D01*
X129208094Y-92312459D01*
X129211354Y-92326875D01*
X129228130Y-92371601D01*
X129245399Y-92392139D01*
X129259668Y-92414902D01*
X129264577Y-92456812D01*
X129260351Y-92498845D01*
X129247220Y-92521977D01*
X129243833Y-92522667D01*
X129225055Y-92539811D01*
X129222667Y-92554417D01*
X129210625Y-92582623D01*
X129177748Y-92577939D01*
X129128907Y-92541108D01*
X129127650Y-92539903D01*
X129095380Y-92498006D01*
X129087253Y-92447778D01*
X129090574Y-92411693D01*
X129094501Y-92356989D01*
X129083404Y-92329895D01*
X129056283Y-92317904D01*
X129020427Y-92301216D01*
X129011000Y-92287364D01*
X128991294Y-92279689D01*
X128938006Y-92273540D01*
X128859877Y-92269654D01*
X128788750Y-92268667D01*
X128566500Y-92268667D01*
X128566500Y-92141667D01*
X129265000Y-92141667D01*
X129265000Y-92205167D01*
X129256502Y-92254178D01*
X129256502Y-92254178D01*
G37*
X129256502Y-92254178D02*
X129230956Y-92268667D01*
X129208209Y-92277912D01*
X129208094Y-92312459D01*
X129211354Y-92326875D01*
X129228130Y-92371601D01*
X129245399Y-92392139D01*
X129259668Y-92414902D01*
X129264577Y-92456812D01*
X129260351Y-92498845D01*
X129247220Y-92521977D01*
X129243833Y-92522667D01*
X129225055Y-92539811D01*
X129222667Y-92554417D01*
X129210625Y-92582623D01*
X129177748Y-92577939D01*
X129128907Y-92541108D01*
X129127650Y-92539903D01*
X129095380Y-92498006D01*
X129087253Y-92447778D01*
X129090574Y-92411693D01*
X129094501Y-92356989D01*
X129083404Y-92329895D01*
X129056283Y-92317904D01*
X129020427Y-92301216D01*
X129011000Y-92287364D01*
X128991294Y-92279689D01*
X128938006Y-92273540D01*
X128859877Y-92269654D01*
X128788750Y-92268667D01*
X128566500Y-92268667D01*
X128566500Y-92141667D01*
X129265000Y-92141667D01*
X129265000Y-92205167D01*
X129256502Y-92254178D01*
G36*
X129259354Y-92927092D02*
X129245751Y-92945995D01*
X129245515Y-92946000D01*
X129227795Y-92964229D01*
X129212389Y-93008109D01*
X129212294Y-93008540D01*
X129185074Y-93063771D01*
X129152404Y-93085477D01*
X129110405Y-93104846D01*
X129093683Y-93119374D01*
X129067248Y-93132046D01*
X129012171Y-93144343D01*
X128961392Y-93151232D01*
X128841667Y-93163589D01*
X128841667Y-92959544D01*
X128840855Y-92864647D01*
X128837498Y-92804460D01*
X128830213Y-92771380D01*
X128817617Y-92757799D01*
X128804625Y-92755824D01*
X128748021Y-92768237D01*
X128715901Y-92807929D01*
X128704301Y-92880425D01*
X128704083Y-92895839D01*
X128709570Y-92963166D01*
X128724572Y-93000310D01*
X128730542Y-93004208D01*
X128755104Y-93026054D01*
X128741537Y-93063422D01*
X128714667Y-93094167D01*
X128683662Y-93121917D01*
X128661099Y-93121703D01*
X128628406Y-93092572D01*
X128625420Y-93089586D01*
X128596028Y-93048912D01*
X128579830Y-92992487D01*
X128573060Y-92914961D01*
X128572196Y-92841429D01*
X128575573Y-92782657D01*
X128580680Y-92756964D01*
X128608971Y-92715945D01*
X128653418Y-92672421D01*
X128699345Y-92639163D01*
X128728341Y-92628500D01*
X128754465Y-92616012D01*
X128757000Y-92607333D01*
X128776440Y-92596272D01*
X128827935Y-92588699D01*
X128894583Y-92586167D01*
X128966479Y-92589157D01*
X128994790Y-92593713D01*
X128994790Y-92757483D01*
X128977394Y-92767459D01*
X128970189Y-92798715D01*
X128968681Y-92860652D01*
X128968667Y-92881094D01*
X128972031Y-92952646D01*
X128981072Y-92998082D01*
X128990719Y-93009500D01*
X129038250Y-92990479D01*
X129074569Y-92941723D01*
X129091884Y-92875691D01*
X129091796Y-92847853D01*
X129083361Y-92793510D01*
X129063634Y-92768274D01*
X129026875Y-92759386D01*
X128994790Y-92757483D01*
X128994790Y-92593713D01*
X129015703Y-92597080D01*
X129032167Y-92607333D01*
X129049992Y-92624227D01*
X129076808Y-92628500D01*
X129131132Y-92646126D01*
X129182716Y-92689219D01*
X129216614Y-92743102D01*
X129222301Y-92771375D01*
X129230564Y-92808556D01*
X129243833Y-92819000D01*
X129258695Y-92837393D01*
X129264999Y-92881710D01*
X129265000Y-92882500D01*
X129259354Y-92927092D01*
X129259354Y-92927092D01*
G37*
X129259354Y-92927092D02*
X129245751Y-92945995D01*
X129245515Y-92946000D01*
X129227795Y-92964229D01*
X129212389Y-93008109D01*
X129212294Y-93008540D01*
X129185074Y-93063771D01*
X129152404Y-93085477D01*
X129110405Y-93104846D01*
X129093683Y-93119374D01*
X129067248Y-93132046D01*
X129012171Y-93144343D01*
X128961392Y-93151232D01*
X128841667Y-93163589D01*
X128841667Y-92959544D01*
X128840855Y-92864647D01*
X128837498Y-92804460D01*
X128830213Y-92771380D01*
X128817617Y-92757799D01*
X128804625Y-92755824D01*
X128748021Y-92768237D01*
X128715901Y-92807929D01*
X128704301Y-92880425D01*
X128704083Y-92895839D01*
X128709570Y-92963166D01*
X128724572Y-93000310D01*
X128730542Y-93004208D01*
X128755104Y-93026054D01*
X128741537Y-93063422D01*
X128714667Y-93094167D01*
X128683662Y-93121917D01*
X128661099Y-93121703D01*
X128628406Y-93092572D01*
X128625420Y-93089586D01*
X128596028Y-93048912D01*
X128579830Y-92992487D01*
X128573060Y-92914961D01*
X128572196Y-92841429D01*
X128575573Y-92782657D01*
X128580680Y-92756964D01*
X128608971Y-92715945D01*
X128653418Y-92672421D01*
X128699345Y-92639163D01*
X128728341Y-92628500D01*
X128754465Y-92616012D01*
X128757000Y-92607333D01*
X128776440Y-92596272D01*
X128827935Y-92588699D01*
X128894583Y-92586167D01*
X128966479Y-92589157D01*
X128994790Y-92593713D01*
X128994790Y-92757483D01*
X128977394Y-92767459D01*
X128970189Y-92798715D01*
X128968681Y-92860652D01*
X128968667Y-92881094D01*
X128972031Y-92952646D01*
X128981072Y-92998082D01*
X128990719Y-93009500D01*
X129038250Y-92990479D01*
X129074569Y-92941723D01*
X129091884Y-92875691D01*
X129091796Y-92847853D01*
X129083361Y-92793510D01*
X129063634Y-92768274D01*
X129026875Y-92759386D01*
X128994790Y-92757483D01*
X128994790Y-92593713D01*
X129015703Y-92597080D01*
X129032167Y-92607333D01*
X129049992Y-92624227D01*
X129076808Y-92628500D01*
X129131132Y-92646126D01*
X129182716Y-92689219D01*
X129216614Y-92743102D01*
X129222301Y-92771375D01*
X129230564Y-92808556D01*
X129243833Y-92819000D01*
X129258695Y-92837393D01*
X129264999Y-92881710D01*
X129265000Y-92882500D01*
X129259354Y-92927092D01*
G36*
X130287044Y-87871800D02*
X130273757Y-87916952D01*
X130265125Y-87924208D01*
X130240920Y-87950189D01*
X130238667Y-87963014D01*
X130221634Y-87989385D01*
X130206253Y-87993000D01*
X130170935Y-88010124D01*
X130161655Y-88024750D01*
X130146218Y-88040685D01*
X130109822Y-88050497D01*
X130045017Y-88055366D01*
X129961236Y-88056500D01*
X129877894Y-88054537D01*
X129813457Y-88049283D01*
X129777423Y-88041691D01*
X129773000Y-88037628D01*
X129755069Y-88018964D01*
X129720406Y-88005555D01*
X129670925Y-87973304D01*
X129654611Y-87939761D01*
X129638270Y-87900288D01*
X129622539Y-87887167D01*
X129611773Y-87868126D01*
X129604940Y-87819444D01*
X129603667Y-87781333D01*
X129607402Y-87720960D01*
X129616951Y-87682641D01*
X129624430Y-87675500D01*
X129644687Y-87657584D01*
X129658014Y-87624417D01*
X129689450Y-87576762D01*
X129721918Y-87560514D01*
X129760690Y-87543501D01*
X129773000Y-87526930D01*
X129792674Y-87516900D01*
X129845794Y-87509656D01*
X129923508Y-87506282D01*
X129942333Y-87506167D01*
X129963500Y-87506791D01*
X129963500Y-87633167D01*
X129918915Y-87639298D01*
X129900005Y-87654070D01*
X129900000Y-87654333D01*
X129882000Y-87670644D01*
X129850611Y-87675500D01*
X129803889Y-87681414D01*
X129780631Y-87705977D01*
X129773253Y-87759415D01*
X129773000Y-87780157D01*
X129788303Y-87857104D01*
X129815575Y-87893046D01*
X129854447Y-87912132D01*
X129910778Y-87924932D01*
X129970811Y-87930407D01*
X130020790Y-87927517D01*
X130046957Y-87915222D01*
X130048167Y-87910628D01*
X130066105Y-87891994D01*
X130101083Y-87878475D01*
X130135783Y-87863490D01*
X130150920Y-87832874D01*
X130154000Y-87780401D01*
X130150743Y-87724945D01*
X130134855Y-87697599D01*
X130097166Y-87684281D01*
X130090500Y-87682908D01*
X130046024Y-87668679D01*
X130027010Y-87652015D01*
X130027000Y-87651687D01*
X130008596Y-87638680D01*
X129964257Y-87633168D01*
X129963500Y-87633167D01*
X129963500Y-87506791D01*
X130026192Y-87508642D01*
X130085120Y-87515400D01*
X130111102Y-87525440D01*
X130111667Y-87527333D01*
X130128575Y-87546628D01*
X130140326Y-87548500D01*
X130173320Y-87561959D01*
X130219045Y-87595309D01*
X130230284Y-87605310D01*
X130265398Y-87642873D01*
X130283841Y-87682152D01*
X130290785Y-87738624D01*
X130291583Y-87788754D01*
X130287044Y-87871800D01*
X130287044Y-87871800D01*
G37*
X130287044Y-87871800D02*
X130273757Y-87916952D01*
X130265125Y-87924208D01*
X130240920Y-87950189D01*
X130238667Y-87963014D01*
X130221634Y-87989385D01*
X130206253Y-87993000D01*
X130170935Y-88010124D01*
X130161655Y-88024750D01*
X130146218Y-88040685D01*
X130109822Y-88050497D01*
X130045017Y-88055366D01*
X129961236Y-88056500D01*
X129877894Y-88054537D01*
X129813457Y-88049283D01*
X129777423Y-88041691D01*
X129773000Y-88037628D01*
X129755069Y-88018964D01*
X129720406Y-88005555D01*
X129670925Y-87973304D01*
X129654611Y-87939761D01*
X129638270Y-87900288D01*
X129622539Y-87887167D01*
X129611773Y-87868126D01*
X129604940Y-87819444D01*
X129603667Y-87781333D01*
X129607402Y-87720960D01*
X129616951Y-87682641D01*
X129624430Y-87675500D01*
X129644687Y-87657584D01*
X129658014Y-87624417D01*
X129689450Y-87576762D01*
X129721918Y-87560514D01*
X129760690Y-87543501D01*
X129773000Y-87526930D01*
X129792674Y-87516900D01*
X129845794Y-87509656D01*
X129923508Y-87506282D01*
X129942333Y-87506167D01*
X129963500Y-87506791D01*
X129963500Y-87633167D01*
X129918915Y-87639298D01*
X129900005Y-87654070D01*
X129900000Y-87654333D01*
X129882000Y-87670644D01*
X129850611Y-87675500D01*
X129803889Y-87681414D01*
X129780631Y-87705977D01*
X129773253Y-87759415D01*
X129773000Y-87780157D01*
X129788303Y-87857104D01*
X129815575Y-87893046D01*
X129854447Y-87912132D01*
X129910778Y-87924932D01*
X129970811Y-87930407D01*
X130020790Y-87927517D01*
X130046957Y-87915222D01*
X130048167Y-87910628D01*
X130066105Y-87891994D01*
X130101083Y-87878475D01*
X130135783Y-87863490D01*
X130150920Y-87832874D01*
X130154000Y-87780401D01*
X130150743Y-87724945D01*
X130134855Y-87697599D01*
X130097166Y-87684281D01*
X130090500Y-87682908D01*
X130046024Y-87668679D01*
X130027010Y-87652015D01*
X130027000Y-87651687D01*
X130008596Y-87638680D01*
X129964257Y-87633168D01*
X129963500Y-87633167D01*
X129963500Y-87506791D01*
X130026192Y-87508642D01*
X130085120Y-87515400D01*
X130111102Y-87525440D01*
X130111667Y-87527333D01*
X130128575Y-87546628D01*
X130140326Y-87548500D01*
X130173320Y-87561959D01*
X130219045Y-87595309D01*
X130230284Y-87605310D01*
X130265398Y-87642873D01*
X130283841Y-87682152D01*
X130290785Y-87738624D01*
X130291583Y-87788754D01*
X130287044Y-87871800D01*
G36*
X130286957Y-89124519D02*
X130278483Y-89175977D01*
X130268873Y-89194914D01*
X130242313Y-89226693D01*
X130232496Y-89247125D01*
X130206597Y-89278449D01*
X130188178Y-89284167D01*
X130155568Y-89298410D01*
X130149406Y-89308533D01*
X130125546Y-89323372D01*
X130072329Y-89336390D01*
X130020642Y-89342904D01*
X129900000Y-89352909D01*
X129900000Y-88945500D01*
X129845102Y-88945500D01*
X129795961Y-88959656D01*
X129779133Y-88987833D01*
X129762379Y-89022147D01*
X129749365Y-89030167D01*
X129735305Y-89048295D01*
X129730667Y-89083083D01*
X129737132Y-89122874D01*
X129749539Y-89136000D01*
X129767941Y-89153996D01*
X129782327Y-89191447D01*
X129781852Y-89249425D01*
X129758766Y-89282475D01*
X129726574Y-89306103D01*
X129698900Y-89298057D01*
X129683644Y-89285824D01*
X129653825Y-89249704D01*
X129646000Y-89226546D01*
X129632877Y-89201540D01*
X129624833Y-89199500D01*
X129613242Y-89180362D01*
X129605554Y-89130994D01*
X129603667Y-89083083D01*
X129607146Y-89019329D01*
X129616122Y-88977044D01*
X129624833Y-88966667D01*
X129645012Y-88950267D01*
X129646000Y-88943192D01*
X129662966Y-88903964D01*
X129703743Y-88861461D01*
X129753152Y-88828893D01*
X129788875Y-88818866D01*
X129826057Y-88810602D01*
X129836500Y-88797333D01*
X129855780Y-88786059D01*
X129906146Y-88778415D01*
X129963500Y-88776167D01*
X130030481Y-88779024D01*
X130072147Y-88785748D01*
X130072147Y-88944699D01*
X130043847Y-88954046D01*
X130030506Y-88992632D01*
X130027009Y-89066698D01*
X130027000Y-89072500D01*
X130029439Y-89146243D01*
X130038082Y-89185835D01*
X130054925Y-89199249D01*
X130058750Y-89199500D01*
X130086918Y-89188070D01*
X130090500Y-89178333D01*
X130107644Y-89159555D01*
X130122250Y-89157167D01*
X130143755Y-89139218D01*
X130154600Y-89095447D01*
X130154915Y-89040967D01*
X130144834Y-88990890D01*
X130124487Y-88960329D01*
X130120519Y-88958348D01*
X130072147Y-88944699D01*
X130072147Y-88785748D01*
X130076499Y-88786451D01*
X130090500Y-88795039D01*
X130108451Y-88813622D01*
X130143955Y-88827327D01*
X130218330Y-88860994D01*
X130264951Y-88920348D01*
X130286839Y-89010124D01*
X130289337Y-89055084D01*
X130286957Y-89124519D01*
X130286957Y-89124519D01*
G37*
X130286957Y-89124519D02*
X130278483Y-89175977D01*
X130268873Y-89194914D01*
X130242313Y-89226693D01*
X130232496Y-89247125D01*
X130206597Y-89278449D01*
X130188178Y-89284167D01*
X130155568Y-89298410D01*
X130149406Y-89308533D01*
X130125546Y-89323372D01*
X130072329Y-89336390D01*
X130020642Y-89342904D01*
X129900000Y-89352909D01*
X129900000Y-88945500D01*
X129845102Y-88945500D01*
X129795961Y-88959656D01*
X129779133Y-88987833D01*
X129762379Y-89022147D01*
X129749365Y-89030167D01*
X129735305Y-89048295D01*
X129730667Y-89083083D01*
X129737132Y-89122874D01*
X129749539Y-89136000D01*
X129767941Y-89153996D01*
X129782327Y-89191447D01*
X129781852Y-89249425D01*
X129758766Y-89282475D01*
X129726574Y-89306103D01*
X129698900Y-89298057D01*
X129683644Y-89285824D01*
X129653825Y-89249704D01*
X129646000Y-89226546D01*
X129632877Y-89201540D01*
X129624833Y-89199500D01*
X129613242Y-89180362D01*
X129605554Y-89130994D01*
X129603667Y-89083083D01*
X129607146Y-89019329D01*
X129616122Y-88977044D01*
X129624833Y-88966667D01*
X129645012Y-88950267D01*
X129646000Y-88943192D01*
X129662966Y-88903964D01*
X129703743Y-88861461D01*
X129753152Y-88828893D01*
X129788875Y-88818866D01*
X129826057Y-88810602D01*
X129836500Y-88797333D01*
X129855780Y-88786059D01*
X129906146Y-88778415D01*
X129963500Y-88776167D01*
X130030481Y-88779024D01*
X130072147Y-88785748D01*
X130072147Y-88944699D01*
X130043847Y-88954046D01*
X130030506Y-88992632D01*
X130027009Y-89066698D01*
X130027000Y-89072500D01*
X130029439Y-89146243D01*
X130038082Y-89185835D01*
X130054925Y-89199249D01*
X130058750Y-89199500D01*
X130086918Y-89188070D01*
X130090500Y-89178333D01*
X130107644Y-89159555D01*
X130122250Y-89157167D01*
X130143755Y-89139218D01*
X130154600Y-89095447D01*
X130154915Y-89040967D01*
X130144834Y-88990890D01*
X130124487Y-88960329D01*
X130120519Y-88958348D01*
X130072147Y-88944699D01*
X130072147Y-88785748D01*
X130076499Y-88786451D01*
X130090500Y-88795039D01*
X130108451Y-88813622D01*
X130143955Y-88827327D01*
X130218330Y-88860994D01*
X130264951Y-88920348D01*
X130286839Y-89010124D01*
X130289337Y-89055084D01*
X130286957Y-89124519D01*
G36*
X130292701Y-89567413D02*
X130270417Y-89580500D01*
X130243985Y-89595106D01*
X130241036Y-89624845D01*
X130263195Y-89648595D01*
X130265125Y-89649292D01*
X130282479Y-89675937D01*
X130291011Y-89736630D01*
X130291583Y-89762180D01*
X130286122Y-89836222D01*
X130265633Y-89887152D01*
X130238730Y-89919167D01*
X130215403Y-89940392D01*
X130189830Y-89955270D01*
X130154145Y-89965169D01*
X130100485Y-89971456D01*
X130020984Y-89975499D01*
X129907779Y-89978665D01*
X129894772Y-89978975D01*
X129603667Y-89985866D01*
X129603667Y-89834500D01*
X129848595Y-89834500D01*
X129969041Y-89832777D01*
X130053415Y-89826040D01*
X130107893Y-89811933D01*
X130138654Y-89788102D01*
X130151874Y-89752192D01*
X130154000Y-89718083D01*
X130148341Y-89668646D01*
X130127393Y-89633352D01*
X130085205Y-89609633D01*
X130015823Y-89594916D01*
X129913294Y-89586634D01*
X129843364Y-89583970D01*
X129603667Y-89576857D01*
X129603667Y-89453500D01*
X130302167Y-89453500D01*
X130302167Y-89517000D01*
X130292701Y-89567413D01*
X130292701Y-89567413D01*
G37*
X130292701Y-89567413D02*
X130270417Y-89580500D01*
X130243985Y-89595106D01*
X130241036Y-89624845D01*
X130263195Y-89648595D01*
X130265125Y-89649292D01*
X130282479Y-89675937D01*
X130291011Y-89736630D01*
X130291583Y-89762180D01*
X130286122Y-89836222D01*
X130265633Y-89887152D01*
X130238730Y-89919167D01*
X130215403Y-89940392D01*
X130189830Y-89955270D01*
X130154145Y-89965169D01*
X130100485Y-89971456D01*
X130020984Y-89975499D01*
X129907779Y-89978665D01*
X129894772Y-89978975D01*
X129603667Y-89985866D01*
X129603667Y-89834500D01*
X129848595Y-89834500D01*
X129969041Y-89832777D01*
X130053415Y-89826040D01*
X130107893Y-89811933D01*
X130138654Y-89788102D01*
X130151874Y-89752192D01*
X130154000Y-89718083D01*
X130148341Y-89668646D01*
X130127393Y-89633352D01*
X130085205Y-89609633D01*
X130015823Y-89594916D01*
X129913294Y-89586634D01*
X129843364Y-89583970D01*
X129603667Y-89576857D01*
X129603667Y-89453500D01*
X130302167Y-89453500D01*
X130302167Y-89517000D01*
X130292701Y-89567413D01*
G36*
X130287703Y-90739774D02*
X130276193Y-90791133D01*
X130265125Y-90802875D01*
X130240920Y-90828856D01*
X130238667Y-90841680D01*
X130222182Y-90867402D01*
X130177576Y-90868566D01*
X130145148Y-90858819D01*
X130122833Y-90834685D01*
X130112258Y-90795518D01*
X130115381Y-90759476D01*
X130132833Y-90744667D01*
X130144840Y-90725615D01*
X130152511Y-90676843D01*
X130154000Y-90637427D01*
X130152713Y-90574426D01*
X130144937Y-90543611D01*
X130124799Y-90534840D01*
X130095792Y-90536886D01*
X130062804Y-90543629D01*
X130044588Y-90561317D01*
X130035742Y-90600698D01*
X130031236Y-90665292D01*
X130025042Y-90730691D01*
X130015534Y-90774870D01*
X130007246Y-90787000D01*
X129988348Y-90804601D01*
X129978534Y-90829333D01*
X129955372Y-90863758D01*
X129933732Y-90871667D01*
X129904315Y-90882507D01*
X129900000Y-90892833D01*
X129881375Y-90906748D01*
X129835500Y-90913788D01*
X129824906Y-90914000D01*
X129761405Y-90899397D01*
X129701564Y-90862639D01*
X129658835Y-90814303D01*
X129646000Y-90773326D01*
X129633512Y-90747201D01*
X129624833Y-90744667D01*
X129613559Y-90725387D01*
X129605915Y-90675021D01*
X129603667Y-90617667D01*
X129606617Y-90550687D01*
X129614285Y-90504668D01*
X129623152Y-90490667D01*
X129640872Y-90472437D01*
X129656278Y-90428557D01*
X129656373Y-90428126D01*
X129683501Y-90371731D01*
X129726702Y-90349538D01*
X129776432Y-90364705D01*
X129796011Y-90381936D01*
X129830948Y-90429700D01*
X129829284Y-90461402D01*
X129804750Y-90477154D01*
X129780587Y-90505345D01*
X129773000Y-90542919D01*
X129765836Y-90583014D01*
X129751833Y-90596500D01*
X129734636Y-90614228D01*
X129730667Y-90638833D01*
X129739531Y-90673228D01*
X129751833Y-90681167D01*
X129770612Y-90698311D01*
X129773000Y-90712917D01*
X129789283Y-90740059D01*
X129833933Y-90741627D01*
X129866519Y-90731819D01*
X129889621Y-90706558D01*
X129899544Y-90649522D01*
X129900289Y-90620694D01*
X129905205Y-90523201D01*
X129920965Y-90460316D01*
X129950120Y-90425133D01*
X129976613Y-90414057D01*
X130015032Y-90397719D01*
X130027000Y-90382539D01*
X130045403Y-90369285D01*
X130089739Y-90363668D01*
X130090500Y-90363667D01*
X130135086Y-90369798D01*
X130153995Y-90384570D01*
X130154000Y-90384833D01*
X130170768Y-90404403D01*
X130181046Y-90406000D01*
X130213378Y-90420699D01*
X130249681Y-90453625D01*
X130273593Y-90491468D01*
X130286569Y-90543868D01*
X130291246Y-90623081D01*
X130291427Y-90647653D01*
X130287703Y-90739774D01*
X130287703Y-90739774D01*
G37*
X130287703Y-90739774D02*
X130276193Y-90791133D01*
X130265125Y-90802875D01*
X130240920Y-90828856D01*
X130238667Y-90841680D01*
X130222182Y-90867402D01*
X130177576Y-90868566D01*
X130145148Y-90858819D01*
X130122833Y-90834685D01*
X130112258Y-90795518D01*
X130115381Y-90759476D01*
X130132833Y-90744667D01*
X130144840Y-90725615D01*
X130152511Y-90676843D01*
X130154000Y-90637427D01*
X130152713Y-90574426D01*
X130144937Y-90543611D01*
X130124799Y-90534840D01*
X130095792Y-90536886D01*
X130062804Y-90543629D01*
X130044588Y-90561317D01*
X130035742Y-90600698D01*
X130031236Y-90665292D01*
X130025042Y-90730691D01*
X130015534Y-90774870D01*
X130007246Y-90787000D01*
X129988348Y-90804601D01*
X129978534Y-90829333D01*
X129955372Y-90863758D01*
X129933732Y-90871667D01*
X129904315Y-90882507D01*
X129900000Y-90892833D01*
X129881375Y-90906748D01*
X129835500Y-90913788D01*
X129824906Y-90914000D01*
X129761405Y-90899397D01*
X129701564Y-90862639D01*
X129658835Y-90814303D01*
X129646000Y-90773326D01*
X129633512Y-90747201D01*
X129624833Y-90744667D01*
X129613559Y-90725387D01*
X129605915Y-90675021D01*
X129603667Y-90617667D01*
X129606617Y-90550687D01*
X129614285Y-90504668D01*
X129623152Y-90490667D01*
X129640872Y-90472437D01*
X129656278Y-90428557D01*
X129656373Y-90428126D01*
X129683501Y-90371731D01*
X129726702Y-90349538D01*
X129776432Y-90364705D01*
X129796011Y-90381936D01*
X129830948Y-90429700D01*
X129829284Y-90461402D01*
X129804750Y-90477154D01*
X129780587Y-90505345D01*
X129773000Y-90542919D01*
X129765836Y-90583014D01*
X129751833Y-90596500D01*
X129734636Y-90614228D01*
X129730667Y-90638833D01*
X129739531Y-90673228D01*
X129751833Y-90681167D01*
X129770612Y-90698311D01*
X129773000Y-90712917D01*
X129789283Y-90740059D01*
X129833933Y-90741627D01*
X129866519Y-90731819D01*
X129889621Y-90706558D01*
X129899544Y-90649522D01*
X129900289Y-90620694D01*
X129905205Y-90523201D01*
X129920965Y-90460316D01*
X129950120Y-90425133D01*
X129976613Y-90414057D01*
X130015032Y-90397719D01*
X130027000Y-90382539D01*
X130045403Y-90369285D01*
X130089739Y-90363668D01*
X130090500Y-90363667D01*
X130135086Y-90369798D01*
X130153995Y-90384570D01*
X130154000Y-90384833D01*
X130170768Y-90404403D01*
X130181046Y-90406000D01*
X130213378Y-90420699D01*
X130249681Y-90453625D01*
X130273593Y-90491468D01*
X130286569Y-90543868D01*
X130291246Y-90623081D01*
X130291427Y-90647653D01*
X130287703Y-90739774D01*
G36*
X130287496Y-91312788D02*
X130277005Y-91360693D01*
X130267978Y-91375147D01*
X130243309Y-91406024D01*
X130229517Y-91437852D01*
X130204531Y-91474302D01*
X130151434Y-91495066D01*
X130131415Y-91498765D01*
X130079019Y-91511286D01*
X130050134Y-91526238D01*
X130048167Y-91530538D01*
X130029243Y-91541550D01*
X129981365Y-91548154D01*
X129952917Y-91549000D01*
X129896112Y-91544796D01*
X129862037Y-91534159D01*
X129857667Y-91527833D01*
X129839485Y-91512169D01*
X129802442Y-91506667D01*
X129751014Y-91492774D01*
X129697982Y-91458895D01*
X129658347Y-91416728D01*
X129646366Y-91384958D01*
X129632629Y-91360357D01*
X129624833Y-91358500D01*
X129612210Y-91339581D01*
X129604638Y-91291715D01*
X129603667Y-91263250D01*
X129607871Y-91206445D01*
X129618508Y-91172370D01*
X129624833Y-91168000D01*
X129644128Y-91151091D01*
X129646000Y-91139341D01*
X129659460Y-91106347D01*
X129692809Y-91060622D01*
X129702810Y-91049382D01*
X129731917Y-91020385D01*
X129760796Y-91002356D01*
X129800066Y-90992697D01*
X129860343Y-90988805D01*
X129945609Y-90988136D01*
X129945609Y-91125667D01*
X129861887Y-91127396D01*
X129811686Y-91137404D01*
X129786211Y-91162915D01*
X129776663Y-91211156D01*
X129774671Y-91266073D01*
X129777387Y-91324154D01*
X129792515Y-91353623D01*
X129820625Y-91366325D01*
X129869997Y-91373977D01*
X129940292Y-91378692D01*
X129974671Y-91379377D01*
X130067307Y-91366873D01*
X130126499Y-91328592D01*
X130152581Y-91264275D01*
X130154000Y-91240329D01*
X130145086Y-91186018D01*
X130114208Y-91151093D01*
X130055166Y-91132142D01*
X129961757Y-91125753D01*
X129945609Y-91125667D01*
X129945609Y-90988136D01*
X129952247Y-90988083D01*
X129953147Y-90988083D01*
X130044851Y-90988648D01*
X130105376Y-90992369D01*
X130145877Y-91002283D01*
X130177508Y-91021430D01*
X130211424Y-91052849D01*
X130219128Y-91060538D01*
X130262710Y-91109341D01*
X130284235Y-91154358D01*
X130291198Y-91214819D01*
X130291583Y-91246519D01*
X130287496Y-91312788D01*
X130287496Y-91312788D01*
G37*
X130287496Y-91312788D02*
X130277005Y-91360693D01*
X130267978Y-91375147D01*
X130243309Y-91406024D01*
X130229517Y-91437852D01*
X130204531Y-91474302D01*
X130151434Y-91495066D01*
X130131415Y-91498765D01*
X130079019Y-91511286D01*
X130050134Y-91526238D01*
X130048167Y-91530538D01*
X130029243Y-91541550D01*
X129981365Y-91548154D01*
X129952917Y-91549000D01*
X129896112Y-91544796D01*
X129862037Y-91534159D01*
X129857667Y-91527833D01*
X129839485Y-91512169D01*
X129802442Y-91506667D01*
X129751014Y-91492774D01*
X129697982Y-91458895D01*
X129658347Y-91416728D01*
X129646366Y-91384958D01*
X129632629Y-91360357D01*
X129624833Y-91358500D01*
X129612210Y-91339581D01*
X129604638Y-91291715D01*
X129603667Y-91263250D01*
X129607871Y-91206445D01*
X129618508Y-91172370D01*
X129624833Y-91168000D01*
X129644128Y-91151091D01*
X129646000Y-91139341D01*
X129659460Y-91106347D01*
X129692809Y-91060622D01*
X129702810Y-91049382D01*
X129731917Y-91020385D01*
X129760796Y-91002356D01*
X129800066Y-90992697D01*
X129860343Y-90988805D01*
X129945609Y-90988136D01*
X129945609Y-91125667D01*
X129861887Y-91127396D01*
X129811686Y-91137404D01*
X129786211Y-91162915D01*
X129776663Y-91211156D01*
X129774671Y-91266073D01*
X129777387Y-91324154D01*
X129792515Y-91353623D01*
X129820625Y-91366325D01*
X129869997Y-91373977D01*
X129940292Y-91378692D01*
X129974671Y-91379377D01*
X130067307Y-91366873D01*
X130126499Y-91328592D01*
X130152581Y-91264275D01*
X130154000Y-91240329D01*
X130145086Y-91186018D01*
X130114208Y-91151093D01*
X130055166Y-91132142D01*
X129961757Y-91125753D01*
X129945609Y-91125667D01*
X129945609Y-90988136D01*
X129952247Y-90988083D01*
X129953147Y-90988083D01*
X130044851Y-90988648D01*
X130105376Y-90992369D01*
X130145877Y-91002283D01*
X130177508Y-91021430D01*
X130211424Y-91052849D01*
X130219128Y-91060538D01*
X130262710Y-91109341D01*
X130284235Y-91154358D01*
X130291198Y-91214819D01*
X130291583Y-91246519D01*
X130287496Y-91312788D01*
G36*
X130079917Y-91760667D02*
X129988684Y-91762324D01*
X129915600Y-91766808D01*
X129869408Y-91773381D01*
X129857667Y-91779364D01*
X129840010Y-91798981D01*
X129814036Y-91809472D01*
X129786678Y-91823293D01*
X129775862Y-91853728D01*
X129776995Y-91912482D01*
X129783583Y-92004083D01*
X130031075Y-92010036D01*
X130137540Y-92013194D01*
X130209135Y-92017498D01*
X130253325Y-92024309D01*
X130277572Y-92034993D01*
X130289340Y-92050912D01*
X130291793Y-92057661D01*
X130296646Y-92113305D01*
X130291583Y-92141667D01*
X130284208Y-92157554D01*
X130269539Y-92168882D01*
X130241221Y-92176417D01*
X130192899Y-92180927D01*
X130118218Y-92183179D01*
X130010824Y-92183939D01*
X129940907Y-92184000D01*
X129603667Y-92184000D01*
X129603667Y-92100885D01*
X129609475Y-92041350D01*
X129629165Y-92014219D01*
X129639197Y-92010927D01*
X129663049Y-92002950D01*
X129655725Y-91985753D01*
X129639197Y-91968553D01*
X129612580Y-91916420D01*
X129605740Y-91852137D01*
X129616091Y-91788471D01*
X129649579Y-91734265D01*
X129680422Y-91702458D01*
X129753031Y-91633667D01*
X130302167Y-91633667D01*
X130302167Y-91760667D01*
X130079917Y-91760667D01*
X130079917Y-91760667D01*
G37*
X130079917Y-91760667D02*
X129988684Y-91762324D01*
X129915600Y-91766808D01*
X129869408Y-91773381D01*
X129857667Y-91779364D01*
X129840010Y-91798981D01*
X129814036Y-91809472D01*
X129786678Y-91823293D01*
X129775862Y-91853728D01*
X129776995Y-91912482D01*
X129783583Y-92004083D01*
X130031075Y-92010036D01*
X130137540Y-92013194D01*
X130209135Y-92017498D01*
X130253325Y-92024309D01*
X130277572Y-92034993D01*
X130289340Y-92050912D01*
X130291793Y-92057661D01*
X130296646Y-92113305D01*
X130291583Y-92141667D01*
X130284208Y-92157554D01*
X130269539Y-92168882D01*
X130241221Y-92176417D01*
X130192899Y-92180927D01*
X130118218Y-92183179D01*
X130010824Y-92183939D01*
X129940907Y-92184000D01*
X129603667Y-92184000D01*
X129603667Y-92100885D01*
X129609475Y-92041350D01*
X129629165Y-92014219D01*
X129639197Y-92010927D01*
X129663049Y-92002950D01*
X129655725Y-91985753D01*
X129639197Y-91968553D01*
X129612580Y-91916420D01*
X129605740Y-91852137D01*
X129616091Y-91788471D01*
X129649579Y-91734265D01*
X129680422Y-91702458D01*
X129753031Y-91633667D01*
X130302167Y-91633667D01*
X130302167Y-91760667D01*
X130079917Y-91760667D01*
G36*
X130289383Y-92429906D02*
X130265125Y-92457727D01*
X130242226Y-92481052D01*
X130251689Y-92495821D01*
X130278701Y-92532823D01*
X130293619Y-92589519D01*
X130296613Y-92652890D01*
X130287853Y-92709915D01*
X130267509Y-92747574D01*
X130248291Y-92755500D01*
X130220741Y-92743981D01*
X130217500Y-92734736D01*
X130199540Y-92714674D01*
X130164583Y-92700692D01*
X130126785Y-92683836D01*
X130110594Y-92663611D01*
X130122587Y-92650589D01*
X130132833Y-92649667D01*
X130149078Y-92632157D01*
X130153585Y-92590387D01*
X130147267Y-92540494D01*
X130131038Y-92498616D01*
X130123762Y-92489405D01*
X130097551Y-92475247D01*
X130048350Y-92465951D01*
X129969852Y-92460823D01*
X129855751Y-92459170D01*
X129848595Y-92459167D01*
X129603667Y-92459167D01*
X129603667Y-92311000D01*
X130302167Y-92311000D01*
X130302167Y-92373448D01*
X130289383Y-92429906D01*
X130289383Y-92429906D01*
G37*
X130289383Y-92429906D02*
X130265125Y-92457727D01*
X130242226Y-92481052D01*
X130251689Y-92495821D01*
X130278701Y-92532823D01*
X130293619Y-92589519D01*
X130296613Y-92652890D01*
X130287853Y-92709915D01*
X130267509Y-92747574D01*
X130248291Y-92755500D01*
X130220741Y-92743981D01*
X130217500Y-92734736D01*
X130199540Y-92714674D01*
X130164583Y-92700692D01*
X130126785Y-92683836D01*
X130110594Y-92663611D01*
X130122587Y-92650589D01*
X130132833Y-92649667D01*
X130149078Y-92632157D01*
X130153585Y-92590387D01*
X130147267Y-92540494D01*
X130131038Y-92498616D01*
X130123762Y-92489405D01*
X130097551Y-92475247D01*
X130048350Y-92465951D01*
X129969852Y-92460823D01*
X129855751Y-92459170D01*
X129848595Y-92459167D01*
X129603667Y-92459167D01*
X129603667Y-92311000D01*
X130302167Y-92311000D01*
X130302167Y-92373448D01*
X130289383Y-92429906D01*
G36*
X130288868Y-93125326D02*
X130279690Y-93172654D01*
X130261324Y-93198105D01*
X130254542Y-93202506D01*
X130223708Y-93233528D01*
X130217500Y-93253968D01*
X130200534Y-93281113D01*
X130185750Y-93284667D01*
X130157608Y-93271677D01*
X130154000Y-93260542D01*
X130138886Y-93229381D01*
X130116958Y-93207625D01*
X130091459Y-93183182D01*
X130100647Y-93163358D01*
X130116958Y-93150041D01*
X130138378Y-93117016D01*
X130151391Y-93067186D01*
X130154685Y-93015699D01*
X130146944Y-92977702D01*
X130132833Y-92967167D01*
X130113841Y-92950116D01*
X130111667Y-92936713D01*
X130092958Y-92911291D01*
X130044860Y-92894742D01*
X129979415Y-92887250D01*
X129908666Y-92889000D01*
X129844654Y-92900175D01*
X129799423Y-92920957D01*
X129789411Y-92931803D01*
X129774700Y-92979045D01*
X129772493Y-93041958D01*
X129781331Y-93103478D01*
X129799756Y-93146540D01*
X129808424Y-93154221D01*
X129828012Y-93170552D01*
X129821448Y-93191577D01*
X129785579Y-93228047D01*
X129730712Y-93265816D01*
X129689965Y-93263773D01*
X129662601Y-93221750D01*
X129656195Y-93198232D01*
X129640853Y-93154553D01*
X129623152Y-93136500D01*
X129611530Y-93117578D01*
X129604560Y-93069705D01*
X129603667Y-93041250D01*
X129607871Y-92984445D01*
X129618508Y-92950370D01*
X129624833Y-92946000D01*
X129644128Y-92929091D01*
X129646000Y-92917341D01*
X129659460Y-92884347D01*
X129692809Y-92838622D01*
X129702810Y-92827382D01*
X129731917Y-92798385D01*
X129760796Y-92780356D01*
X129800066Y-92770697D01*
X129860343Y-92766805D01*
X129952247Y-92766083D01*
X129953147Y-92766083D01*
X130044870Y-92766653D01*
X130105405Y-92770381D01*
X130145897Y-92780291D01*
X130177492Y-92799409D01*
X130211335Y-92830760D01*
X130218773Y-92838183D01*
X130258510Y-92881472D01*
X130280197Y-92920608D01*
X130289287Y-92971234D01*
X130291228Y-93046012D01*
X130288868Y-93125326D01*
X130288868Y-93125326D01*
G37*
X130288868Y-93125326D02*
X130279690Y-93172654D01*
X130261324Y-93198105D01*
X130254542Y-93202506D01*
X130223708Y-93233528D01*
X130217500Y-93253968D01*
X130200534Y-93281113D01*
X130185750Y-93284667D01*
X130157608Y-93271677D01*
X130154000Y-93260542D01*
X130138886Y-93229381D01*
X130116958Y-93207625D01*
X130091459Y-93183182D01*
X130100647Y-93163358D01*
X130116958Y-93150041D01*
X130138378Y-93117016D01*
X130151391Y-93067186D01*
X130154685Y-93015699D01*
X130146944Y-92977702D01*
X130132833Y-92967167D01*
X130113841Y-92950116D01*
X130111667Y-92936713D01*
X130092958Y-92911291D01*
X130044860Y-92894742D01*
X129979415Y-92887250D01*
X129908666Y-92889000D01*
X129844654Y-92900175D01*
X129799423Y-92920957D01*
X129789411Y-92931803D01*
X129774700Y-92979045D01*
X129772493Y-93041958D01*
X129781331Y-93103478D01*
X129799756Y-93146540D01*
X129808424Y-93154221D01*
X129828012Y-93170552D01*
X129821448Y-93191577D01*
X129785579Y-93228047D01*
X129730712Y-93265816D01*
X129689965Y-93263773D01*
X129662601Y-93221750D01*
X129656195Y-93198232D01*
X129640853Y-93154553D01*
X129623152Y-93136500D01*
X129611530Y-93117578D01*
X129604560Y-93069705D01*
X129603667Y-93041250D01*
X129607871Y-92984445D01*
X129618508Y-92950370D01*
X129624833Y-92946000D01*
X129644128Y-92929091D01*
X129646000Y-92917341D01*
X129659460Y-92884347D01*
X129692809Y-92838622D01*
X129702810Y-92827382D01*
X129731917Y-92798385D01*
X129760796Y-92780356D01*
X129800066Y-92770697D01*
X129860343Y-92766805D01*
X129952247Y-92766083D01*
X129953147Y-92766083D01*
X130044870Y-92766653D01*
X130105405Y-92770381D01*
X130145897Y-92780291D01*
X130177492Y-92799409D01*
X130211335Y-92830760D01*
X130218773Y-92838183D01*
X130258510Y-92881472D01*
X130280197Y-92920608D01*
X130289287Y-92971234D01*
X130291228Y-93046012D01*
X130288868Y-93125326D01*
G36*
X130287742Y-93662560D02*
X130270918Y-93711613D01*
X130233165Y-93758849D01*
X130220299Y-93771958D01*
X130171614Y-93814595D01*
X130123003Y-93838012D01*
X130056538Y-93849560D01*
X130024507Y-93852249D01*
X129900000Y-93861255D01*
X129900000Y-93657627D01*
X129898764Y-93560150D01*
X129894391Y-93498228D01*
X129885881Y-93465138D01*
X129872237Y-93454156D01*
X129869762Y-93454000D01*
X129826388Y-93471099D01*
X129788102Y-93510275D01*
X129773000Y-93550762D01*
X129761077Y-93577945D01*
X129751833Y-93581000D01*
X129733761Y-93596520D01*
X129732897Y-93627006D01*
X129749259Y-93648028D01*
X129772568Y-93676384D01*
X129783574Y-93727065D01*
X129780807Y-93781473D01*
X129762911Y-93820899D01*
X129719845Y-93844315D01*
X129682766Y-93828192D01*
X129657500Y-93775322D01*
X129656195Y-93769732D01*
X129640853Y-93726053D01*
X129623152Y-93708000D01*
X129611530Y-93689078D01*
X129604560Y-93641205D01*
X129603667Y-93612750D01*
X129607538Y-93555941D01*
X129617331Y-93521867D01*
X129623152Y-93517500D01*
X129640795Y-93499253D01*
X129656309Y-93455235D01*
X129656583Y-93454000D01*
X129672384Y-93409549D01*
X129691130Y-93390511D01*
X129691527Y-93390500D01*
X129721901Y-93376932D01*
X129746250Y-93356774D01*
X129772323Y-93339900D01*
X129814454Y-93330755D01*
X129881847Y-93328217D01*
X129963356Y-93330316D01*
X130049449Y-93334562D01*
X130049449Y-93456984D01*
X130033371Y-93493316D01*
X130027188Y-93569240D01*
X130027000Y-93590919D01*
X130028222Y-93664403D01*
X130033534Y-93703774D01*
X130045404Y-93717221D01*
X130064042Y-93713812D01*
X130125029Y-93671824D01*
X130153148Y-93611208D01*
X130145663Y-93543069D01*
X130117546Y-93496575D01*
X130076986Y-93458614D01*
X130049449Y-93456984D01*
X130049449Y-93334562D01*
X130053026Y-93334739D01*
X130112209Y-93341839D01*
X130152741Y-93355304D01*
X130186456Y-93378822D01*
X130219160Y-93410038D01*
X130263673Y-93460318D01*
X130285064Y-93507063D01*
X130291404Y-93570509D01*
X130291583Y-93591583D01*
X130287742Y-93662560D01*
X130287742Y-93662560D01*
G37*
X130287742Y-93662560D02*
X130270918Y-93711613D01*
X130233165Y-93758849D01*
X130220299Y-93771958D01*
X130171614Y-93814595D01*
X130123003Y-93838012D01*
X130056538Y-93849560D01*
X130024507Y-93852249D01*
X129900000Y-93861255D01*
X129900000Y-93657627D01*
X129898764Y-93560150D01*
X129894391Y-93498228D01*
X129885881Y-93465138D01*
X129872237Y-93454156D01*
X129869762Y-93454000D01*
X129826388Y-93471099D01*
X129788102Y-93510275D01*
X129773000Y-93550762D01*
X129761077Y-93577945D01*
X129751833Y-93581000D01*
X129733761Y-93596520D01*
X129732897Y-93627006D01*
X129749259Y-93648028D01*
X129772568Y-93676384D01*
X129783574Y-93727065D01*
X129780807Y-93781473D01*
X129762911Y-93820899D01*
X129719845Y-93844315D01*
X129682766Y-93828192D01*
X129657500Y-93775322D01*
X129656195Y-93769732D01*
X129640853Y-93726053D01*
X129623152Y-93708000D01*
X129611530Y-93689078D01*
X129604560Y-93641205D01*
X129603667Y-93612750D01*
X129607538Y-93555941D01*
X129617331Y-93521867D01*
X129623152Y-93517500D01*
X129640795Y-93499253D01*
X129656309Y-93455235D01*
X129656583Y-93454000D01*
X129672384Y-93409549D01*
X129691130Y-93390511D01*
X129691527Y-93390500D01*
X129721901Y-93376932D01*
X129746250Y-93356774D01*
X129772323Y-93339900D01*
X129814454Y-93330755D01*
X129881847Y-93328217D01*
X129963356Y-93330316D01*
X130049449Y-93334562D01*
X130049449Y-93456984D01*
X130033371Y-93493316D01*
X130027188Y-93569240D01*
X130027000Y-93590919D01*
X130028222Y-93664403D01*
X130033534Y-93703774D01*
X130045404Y-93717221D01*
X130064042Y-93713812D01*
X130125029Y-93671824D01*
X130153148Y-93611208D01*
X130145663Y-93543069D01*
X130117546Y-93496575D01*
X130076986Y-93458614D01*
X130049449Y-93456984D01*
X130049449Y-93334562D01*
X130053026Y-93334739D01*
X130112209Y-93341839D01*
X130152741Y-93355304D01*
X130186456Y-93378822D01*
X130219160Y-93410038D01*
X130263673Y-93460318D01*
X130285064Y-93507063D01*
X130291404Y-93570509D01*
X130291583Y-93591583D01*
X130287742Y-93662560D01*
G36*
X135189021Y-91048937D02*
X135117529Y-91058638D01*
X135051438Y-91062167D01*
X135003523Y-91067021D01*
X134980386Y-91078904D01*
X134980000Y-91080846D01*
X134960600Y-91091585D01*
X134909276Y-91102998D01*
X134836339Y-91112904D01*
X134821250Y-91114402D01*
X134745434Y-91123873D01*
X134689319Y-91135391D01*
X134663216Y-91146733D01*
X134662500Y-91148639D01*
X134644405Y-91163293D01*
X134610543Y-91168000D01*
X134573234Y-91175894D01*
X134552947Y-91207404D01*
X134544687Y-91242083D01*
X134531071Y-91290915D01*
X134515499Y-91315476D01*
X134512937Y-91316167D01*
X134498078Y-91334739D01*
X134483504Y-91380831D01*
X134480489Y-91395542D01*
X134466441Y-91450118D01*
X134450256Y-91484200D01*
X134447030Y-91487213D01*
X134431724Y-91514400D01*
X134417593Y-91566226D01*
X134415049Y-91580345D01*
X134411336Y-91643291D01*
X134427606Y-91679260D01*
X134433886Y-91684547D01*
X134465997Y-91723154D01*
X134480930Y-91755456D01*
X134499945Y-91792327D01*
X134515760Y-91803000D01*
X134533179Y-91820210D01*
X134535500Y-91835414D01*
X134552312Y-91871007D01*
X134565340Y-91879279D01*
X134593129Y-91906983D01*
X134608077Y-91942115D01*
X134625087Y-91981032D01*
X134641737Y-91993500D01*
X134660054Y-92010696D01*
X134662500Y-92025914D01*
X134679599Y-92061376D01*
X134693674Y-92070291D01*
X134718433Y-92097598D01*
X134737121Y-92148180D01*
X134738318Y-92154049D01*
X134742141Y-92183734D01*
X134738355Y-92210869D01*
X134722651Y-92241590D01*
X134690721Y-92282037D01*
X134638258Y-92338346D01*
X134560952Y-92416656D01*
X134537565Y-92440065D01*
X134452884Y-92524161D01*
X134391717Y-92582353D01*
X134347928Y-92618948D01*
X134315377Y-92638254D01*
X134287928Y-92644580D01*
X134259443Y-92642233D01*
X134251549Y-92640817D01*
X134199623Y-92623344D01*
X134168999Y-92598750D01*
X134167791Y-92596174D01*
X134139346Y-92568380D01*
X134123414Y-92565000D01*
X134094820Y-92553985D01*
X134091000Y-92544236D01*
X134073077Y-92524012D01*
X134039615Y-92510576D01*
X133995710Y-92489661D01*
X133976779Y-92467840D01*
X133952489Y-92440973D01*
X133940633Y-92438000D01*
X133911144Y-92423651D01*
X133870124Y-92388281D01*
X133861992Y-92379792D01*
X133813689Y-92339587D01*
X133756666Y-92323343D01*
X133715918Y-92321583D01*
X133656146Y-92326631D01*
X133615601Y-92339308D01*
X133608686Y-92345382D01*
X133579002Y-92366021D01*
X133527769Y-92383441D01*
X133524792Y-92384106D01*
X133478151Y-92399163D01*
X133456238Y-92415961D01*
X133456000Y-92417556D01*
X133437465Y-92433057D01*
X133391634Y-92447906D01*
X133379017Y-92450524D01*
X133312681Y-92469402D01*
X133267544Y-92501802D01*
X133238566Y-92555615D01*
X133220705Y-92638734D01*
X133212797Y-92710750D01*
X133203918Y-92789931D01*
X133193643Y-92849811D01*
X133183801Y-92880476D01*
X133181096Y-92882500D01*
X133170643Y-92901755D01*
X133159306Y-92952145D01*
X133149865Y-93020083D01*
X133135131Y-93157667D01*
X132787565Y-93157667D01*
X132659036Y-93157430D01*
X132566825Y-93156234D01*
X132504919Y-93153345D01*
X132467302Y-93148030D01*
X132447961Y-93139557D01*
X132440882Y-93127194D01*
X132440000Y-93115333D01*
X132431924Y-93080926D01*
X132420734Y-93073000D01*
X132410408Y-93053486D01*
X132399413Y-93001408D01*
X132389595Y-92926460D01*
X132386480Y-92893083D01*
X132377688Y-92811838D01*
X132367108Y-92749677D01*
X132356553Y-92716293D01*
X132352830Y-92713167D01*
X132339190Y-92694885D01*
X132333878Y-92654958D01*
X132326283Y-92569019D01*
X132303228Y-92519237D01*
X132262741Y-92501642D01*
X132257615Y-92501500D01*
X132219028Y-92494273D01*
X132207167Y-92481292D01*
X132188663Y-92464496D01*
X132143130Y-92449258D01*
X132133083Y-92447187D01*
X132084252Y-92433571D01*
X132059690Y-92417999D01*
X132059000Y-92415437D01*
X132040427Y-92400578D01*
X131994336Y-92386004D01*
X131979625Y-92382989D01*
X131924668Y-92368447D01*
X131889907Y-92351098D01*
X131886782Y-92347634D01*
X131853139Y-92329406D01*
X131801222Y-92329711D01*
X131749969Y-92346895D01*
X131730539Y-92361271D01*
X131691731Y-92388812D01*
X131668170Y-92395667D01*
X131636857Y-92412712D01*
X131628012Y-92427417D01*
X131604031Y-92455497D01*
X131591133Y-92459167D01*
X131561016Y-92473483D01*
X131520941Y-92508326D01*
X131517396Y-92512083D01*
X131478499Y-92548068D01*
X131449437Y-92564842D01*
X131447689Y-92565000D01*
X131417310Y-92578534D01*
X131394990Y-92597033D01*
X131350562Y-92625041D01*
X131301869Y-92641284D01*
X131275687Y-92643538D01*
X131248583Y-92636446D01*
X131214888Y-92615790D01*
X131168934Y-92577357D01*
X131105052Y-92516931D01*
X131017574Y-92430295D01*
X131015849Y-92428569D01*
X130925063Y-92336537D01*
X130862116Y-92268082D01*
X130824116Y-92217667D01*
X130808173Y-92179751D01*
X130811397Y-92148794D01*
X130830898Y-92119258D01*
X130846024Y-92103113D01*
X130869963Y-92063725D01*
X130873667Y-92044905D01*
X130885957Y-92017726D01*
X130895498Y-92014667D01*
X130920217Y-91997498D01*
X130930962Y-91977625D01*
X130955800Y-91936769D01*
X130993798Y-91893969D01*
X131028130Y-91855545D01*
X131042984Y-91827231D01*
X131043000Y-91826689D01*
X131056587Y-91797056D01*
X131079561Y-91769463D01*
X131102537Y-91727008D01*
X131114595Y-91667075D01*
X131114686Y-91606562D01*
X131101760Y-91562366D01*
X131092997Y-91553222D01*
X131068736Y-91522625D01*
X131055010Y-91490792D01*
X131035601Y-91453847D01*
X131018895Y-91443167D01*
X131009094Y-91434656D01*
X131026501Y-91414511D01*
X131060859Y-91390809D01*
X131101913Y-91371630D01*
X131114527Y-91367834D01*
X131155326Y-91351786D01*
X131170000Y-91335998D01*
X131188489Y-91320722D01*
X131233989Y-91306247D01*
X131244083Y-91304187D01*
X131292921Y-91290392D01*
X131317479Y-91274382D01*
X131318167Y-91271728D01*
X131336864Y-91257137D01*
X131383596Y-91243191D01*
X131402833Y-91239628D01*
X131455740Y-91227464D01*
X131485274Y-91213484D01*
X131487500Y-91209310D01*
X131505723Y-91193572D01*
X131549691Y-91178874D01*
X131551000Y-91178583D01*
X131595416Y-91163911D01*
X131614487Y-91147860D01*
X131614500Y-91147507D01*
X131632983Y-91132750D01*
X131678472Y-91118537D01*
X131688583Y-91116480D01*
X131737412Y-91102952D01*
X131761975Y-91087596D01*
X131762667Y-91085079D01*
X131781359Y-91071153D01*
X131828079Y-91057577D01*
X131847333Y-91054038D01*
X131900252Y-91041477D01*
X131929781Y-91026511D01*
X131932000Y-91021939D01*
X131950469Y-91006134D01*
X131995800Y-90991544D01*
X132004543Y-90989769D01*
X132055425Y-90974234D01*
X132084059Y-90954214D01*
X132085241Y-90951694D01*
X132102227Y-90948414D01*
X132132726Y-90967586D01*
X132164194Y-90998300D01*
X132184086Y-91029644D01*
X132186000Y-91039329D01*
X132200898Y-91066834D01*
X132238693Y-91110688D01*
X132289035Y-91161031D01*
X132341578Y-91208003D01*
X132385970Y-91241746D01*
X132409921Y-91252667D01*
X132437013Y-91263711D01*
X132440000Y-91272151D01*
X132458247Y-91289795D01*
X132502265Y-91305308D01*
X132503500Y-91305583D01*
X132547937Y-91320942D01*
X132566988Y-91338633D01*
X132567000Y-91339015D01*
X132586630Y-91347387D01*
X132639393Y-91353958D01*
X132716097Y-91357835D01*
X132768083Y-91358500D01*
X132854486Y-91356698D01*
X132922292Y-91351853D01*
X132962310Y-91344811D01*
X132969167Y-91340038D01*
X132987834Y-91325382D01*
X133034342Y-91311562D01*
X133051523Y-91308408D01*
X133107241Y-91292481D01*
X133142466Y-91269440D01*
X133146109Y-91263369D01*
X133169389Y-91235228D01*
X133181797Y-91231500D01*
X133212363Y-91216651D01*
X133255031Y-91180809D01*
X133296747Y-91137027D01*
X133324456Y-91098360D01*
X133329000Y-91084297D01*
X133345957Y-91057075D01*
X133360869Y-91048608D01*
X133384410Y-91021442D01*
X133402950Y-90969342D01*
X133405908Y-90954023D01*
X133418418Y-90901958D01*
X133433397Y-90873481D01*
X133437539Y-90871667D01*
X133445668Y-90852079D01*
X133451972Y-90799610D01*
X133455533Y-90723703D01*
X133456000Y-90681167D01*
X133454066Y-90597278D01*
X133448885Y-90532237D01*
X133441390Y-90495486D01*
X133437189Y-90490667D01*
X133421319Y-90472172D01*
X133406545Y-90426659D01*
X133404480Y-90416583D01*
X133390629Y-90367744D01*
X133374484Y-90343187D01*
X133371801Y-90342500D01*
X133351456Y-90324952D01*
X133338535Y-90296862D01*
X133312506Y-90250141D01*
X133269699Y-90201705D01*
X133223529Y-90164692D01*
X133190591Y-90152000D01*
X133160702Y-90134986D01*
X133152012Y-90120250D01*
X133124711Y-90092108D01*
X133109178Y-90088500D01*
X133076141Y-90073006D01*
X133069718Y-90062042D01*
X133046116Y-90051052D01*
X132990035Y-90042773D01*
X132911245Y-90037256D01*
X132819518Y-90034549D01*
X132724623Y-90034702D01*
X132636330Y-90037766D01*
X132564412Y-90043789D01*
X132518637Y-90052821D01*
X132508079Y-90059189D01*
X132477509Y-90083307D01*
X132441396Y-90098893D01*
X132405694Y-90119055D01*
X132354210Y-90158298D01*
X132296725Y-90207775D01*
X132243017Y-90258635D01*
X132202866Y-90302030D01*
X132186053Y-90329112D01*
X132186000Y-90329973D01*
X132168128Y-90367522D01*
X132126512Y-90399861D01*
X132079154Y-90414748D01*
X132063475Y-90413303D01*
X132026869Y-90397544D01*
X132016667Y-90384720D01*
X131998189Y-90370484D01*
X131952712Y-90356533D01*
X131942583Y-90354480D01*
X131893755Y-90340952D01*
X131869192Y-90325596D01*
X131868500Y-90323079D01*
X131849808Y-90309153D01*
X131803088Y-90295577D01*
X131783833Y-90292038D01*
X131730915Y-90279477D01*
X131701386Y-90264511D01*
X131699167Y-90259939D01*
X131680674Y-90244234D01*
X131635164Y-90229543D01*
X131625083Y-90227480D01*
X131576236Y-90213332D01*
X131551684Y-90196460D01*
X131551000Y-90193624D01*
X131532296Y-90178158D01*
X131485549Y-90163723D01*
X131466333Y-90160128D01*
X131413422Y-90147803D01*
X131383890Y-90133423D01*
X131381667Y-90129087D01*
X131363181Y-90114083D01*
X131317687Y-90099745D01*
X131307583Y-90097687D01*
X131258757Y-90084253D01*
X131234193Y-90069127D01*
X131233500Y-90066659D01*
X131215274Y-90050675D01*
X131171299Y-90035872D01*
X131170000Y-90035583D01*
X131125584Y-90020894D01*
X131106513Y-90004800D01*
X131106500Y-90004446D01*
X131088581Y-89987082D01*
X131053583Y-89973975D01*
X131010123Y-89954424D01*
X131004300Y-89930834D01*
X131032417Y-89911512D01*
X131060559Y-89884211D01*
X131064167Y-89868678D01*
X131079662Y-89835634D01*
X131090625Y-89829208D01*
X131110102Y-89803030D01*
X131118339Y-89751671D01*
X131116045Y-89690566D01*
X131103931Y-89635144D01*
X131082705Y-89600838D01*
X131080042Y-89599126D01*
X131049364Y-89571818D01*
X131043000Y-89555417D01*
X131028749Y-89526242D01*
X130994283Y-89487302D01*
X130992559Y-89485690D01*
X130951818Y-89438036D01*
X130927632Y-89393304D01*
X130908636Y-89357387D01*
X130893407Y-89347667D01*
X130875725Y-89330576D01*
X130873667Y-89316968D01*
X130857384Y-89279881D01*
X130844690Y-89269343D01*
X130814918Y-89235988D01*
X130803504Y-89210083D01*
X130805106Y-89186629D01*
X130823689Y-89152791D01*
X130862838Y-89104133D01*
X130926139Y-89036219D01*
X131017176Y-88944613D01*
X131021633Y-88940208D01*
X131130563Y-88835730D01*
X131213650Y-88763238D01*
X131271925Y-88722006D01*
X131306416Y-88711310D01*
X131318155Y-88730424D01*
X131318167Y-88731539D01*
X131336105Y-88750172D01*
X131371083Y-88763692D01*
X131410727Y-88780689D01*
X131424000Y-88797736D01*
X131440776Y-88816936D01*
X131451046Y-88818500D01*
X131484182Y-88833273D01*
X131514339Y-88860833D01*
X131552286Y-88892977D01*
X131580278Y-88903167D01*
X131613142Y-88920244D01*
X131622155Y-88934917D01*
X131650442Y-88963074D01*
X131666753Y-88966667D01*
X131695355Y-88977148D01*
X131699167Y-88986407D01*
X131716800Y-89007215D01*
X131746792Y-89021010D01*
X131790881Y-89042209D01*
X131809968Y-89059478D01*
X131823522Y-89070331D01*
X131825843Y-89056875D01*
X131844793Y-89037477D01*
X131891748Y-89020854D01*
X131910833Y-89017128D01*
X131963745Y-89004803D01*
X131993277Y-88990423D01*
X131995500Y-88986087D01*
X132013986Y-88971083D01*
X132059480Y-88956745D01*
X132069583Y-88954687D01*
X132118421Y-88940892D01*
X132142979Y-88924882D01*
X132143667Y-88922228D01*
X132162340Y-88907535D01*
X132208896Y-88893661D01*
X132226495Y-88890422D01*
X132282836Y-88874691D01*
X132315608Y-88843646D01*
X132330659Y-88787894D01*
X132333878Y-88717958D01*
X132339037Y-88671121D01*
X132351215Y-88649360D01*
X132352600Y-88649167D01*
X132362851Y-88629707D01*
X132373807Y-88577987D01*
X132383509Y-88503996D01*
X132385805Y-88479833D01*
X132394925Y-88401254D01*
X132406110Y-88342056D01*
X132417326Y-88312229D01*
X132420288Y-88310500D01*
X132435109Y-88292377D01*
X132440000Y-88257583D01*
X132440000Y-88204667D01*
X133135937Y-88204667D01*
X133150537Y-88352833D01*
X133159894Y-88425785D01*
X133170817Y-88478687D01*
X133181056Y-88500871D01*
X133181763Y-88501000D01*
X133191455Y-88520411D01*
X133202132Y-88571837D01*
X133211789Y-88645064D01*
X133213545Y-88662739D01*
X133229888Y-88774674D01*
X133255725Y-88849188D01*
X133293396Y-88890583D01*
X133344288Y-88903167D01*
X133381766Y-88910429D01*
X133392500Y-88922651D01*
X133410747Y-88940295D01*
X133454765Y-88955808D01*
X133456000Y-88956083D01*
X133500416Y-88970755D01*
X133519487Y-88986806D01*
X133519500Y-88987159D01*
X133537983Y-89001916D01*
X133583472Y-89016130D01*
X133593583Y-89018187D01*
X133642433Y-89032398D01*
X133666983Y-89049424D01*
X133667667Y-89052292D01*
X133685787Y-89067485D01*
X133720583Y-89072500D01*
X133760362Y-89065254D01*
X133773500Y-89051333D01*
X133790268Y-89031763D01*
X133800546Y-89030167D01*
X133833682Y-89015394D01*
X133863839Y-88987833D01*
X133901786Y-88955689D01*
X133929778Y-88945500D01*
X133962642Y-88928422D01*
X133971655Y-88913750D01*
X133999942Y-88885592D01*
X134016253Y-88882000D01*
X134044847Y-88870985D01*
X134048667Y-88861236D01*
X134066590Y-88841012D01*
X134100052Y-88827576D01*
X134143957Y-88806661D01*
X134162888Y-88784840D01*
X134191444Y-88758013D01*
X134206753Y-88755000D01*
X134235344Y-88743775D01*
X134239167Y-88733833D01*
X134251939Y-88709466D01*
X134289690Y-88718089D01*
X134351574Y-88759149D01*
X134436746Y-88832091D01*
X134536330Y-88928272D01*
X134621097Y-89014340D01*
X134679670Y-89076889D01*
X134716339Y-89121776D01*
X134735392Y-89154856D01*
X134741117Y-89181988D01*
X134738725Y-89204667D01*
X134718815Y-89260939D01*
X134694534Y-89297490D01*
X134668205Y-89335908D01*
X134662500Y-89357497D01*
X134645455Y-89388810D01*
X134630750Y-89397654D01*
X134602593Y-89425942D01*
X134599000Y-89442252D01*
X134587985Y-89470847D01*
X134578237Y-89474667D01*
X134558013Y-89492590D01*
X134544577Y-89526052D01*
X134523661Y-89569957D01*
X134501840Y-89588887D01*
X134474988Y-89612384D01*
X134472000Y-89623681D01*
X134458335Y-89656017D01*
X134437972Y-89681052D01*
X134419415Y-89721929D01*
X134413732Y-89782047D01*
X134420202Y-89843347D01*
X134438099Y-89887767D01*
X134446569Y-89895759D01*
X134464570Y-89923668D01*
X134480826Y-89973883D01*
X134481606Y-89977375D01*
X134496191Y-90023999D01*
X134511849Y-90045924D01*
X134513310Y-90046167D01*
X134526835Y-90064841D01*
X134540120Y-90111454D01*
X134543462Y-90129792D01*
X134556834Y-90213417D01*
X134683750Y-90227776D01*
X134750619Y-90237838D01*
X134796602Y-90249534D01*
X134810667Y-90258667D01*
X134830177Y-90267757D01*
X134882245Y-90277806D01*
X134957181Y-90287117D01*
X134990583Y-90290187D01*
X135071829Y-90298978D01*
X135133990Y-90309558D01*
X135167374Y-90320113D01*
X135170500Y-90323837D01*
X135188250Y-90339007D01*
X135212833Y-90342500D01*
X135228507Y-90344442D01*
X135239745Y-90354282D01*
X135247285Y-90378044D01*
X135251860Y-90421750D01*
X135254208Y-90491421D01*
X135255063Y-90593082D01*
X135255167Y-90689104D01*
X135255167Y-91035708D01*
X135189021Y-91048937D01*
X135189021Y-91048937D01*
G37*
X135189021Y-91048937D02*
X135117529Y-91058638D01*
X135051438Y-91062167D01*
X135003523Y-91067021D01*
X134980386Y-91078904D01*
X134980000Y-91080846D01*
X134960600Y-91091585D01*
X134909276Y-91102998D01*
X134836339Y-91112904D01*
X134821250Y-91114402D01*
X134745434Y-91123873D01*
X134689319Y-91135391D01*
X134663216Y-91146733D01*
X134662500Y-91148639D01*
X134644405Y-91163293D01*
X134610543Y-91168000D01*
X134573234Y-91175894D01*
X134552947Y-91207404D01*
X134544687Y-91242083D01*
X134531071Y-91290915D01*
X134515499Y-91315476D01*
X134512937Y-91316167D01*
X134498078Y-91334739D01*
X134483504Y-91380831D01*
X134480489Y-91395542D01*
X134466441Y-91450118D01*
X134450256Y-91484200D01*
X134447030Y-91487213D01*
X134431724Y-91514400D01*
X134417593Y-91566226D01*
X134415049Y-91580345D01*
X134411336Y-91643291D01*
X134427606Y-91679260D01*
X134433886Y-91684547D01*
X134465997Y-91723154D01*
X134480930Y-91755456D01*
X134499945Y-91792327D01*
X134515760Y-91803000D01*
X134533179Y-91820210D01*
X134535500Y-91835414D01*
X134552312Y-91871007D01*
X134565340Y-91879279D01*
X134593129Y-91906983D01*
X134608077Y-91942115D01*
X134625087Y-91981032D01*
X134641737Y-91993500D01*
X134660054Y-92010696D01*
X134662500Y-92025914D01*
X134679599Y-92061376D01*
X134693674Y-92070291D01*
X134718433Y-92097598D01*
X134737121Y-92148180D01*
X134738318Y-92154049D01*
X134742141Y-92183734D01*
X134738355Y-92210869D01*
X134722651Y-92241590D01*
X134690721Y-92282037D01*
X134638258Y-92338346D01*
X134560952Y-92416656D01*
X134537565Y-92440065D01*
X134452884Y-92524161D01*
X134391717Y-92582353D01*
X134347928Y-92618948D01*
X134315377Y-92638254D01*
X134287928Y-92644580D01*
X134259443Y-92642233D01*
X134251549Y-92640817D01*
X134199623Y-92623344D01*
X134168999Y-92598750D01*
X134167791Y-92596174D01*
X134139346Y-92568380D01*
X134123414Y-92565000D01*
X134094820Y-92553985D01*
X134091000Y-92544236D01*
X134073077Y-92524012D01*
X134039615Y-92510576D01*
X133995710Y-92489661D01*
X133976779Y-92467840D01*
X133952489Y-92440973D01*
X133940633Y-92438000D01*
X133911144Y-92423651D01*
X133870124Y-92388281D01*
X133861992Y-92379792D01*
X133813689Y-92339587D01*
X133756666Y-92323343D01*
X133715918Y-92321583D01*
X133656146Y-92326631D01*
X133615601Y-92339308D01*
X133608686Y-92345382D01*
X133579002Y-92366021D01*
X133527769Y-92383441D01*
X133524792Y-92384106D01*
X133478151Y-92399163D01*
X133456238Y-92415961D01*
X133456000Y-92417556D01*
X133437465Y-92433057D01*
X133391634Y-92447906D01*
X133379017Y-92450524D01*
X133312681Y-92469402D01*
X133267544Y-92501802D01*
X133238566Y-92555615D01*
X133220705Y-92638734D01*
X133212797Y-92710750D01*
X133203918Y-92789931D01*
X133193643Y-92849811D01*
X133183801Y-92880476D01*
X133181096Y-92882500D01*
X133170643Y-92901755D01*
X133159306Y-92952145D01*
X133149865Y-93020083D01*
X133135131Y-93157667D01*
X132787565Y-93157667D01*
X132659036Y-93157430D01*
X132566825Y-93156234D01*
X132504919Y-93153345D01*
X132467302Y-93148030D01*
X132447961Y-93139557D01*
X132440882Y-93127194D01*
X132440000Y-93115333D01*
X132431924Y-93080926D01*
X132420734Y-93073000D01*
X132410408Y-93053486D01*
X132399413Y-93001408D01*
X132389595Y-92926460D01*
X132386480Y-92893083D01*
X132377688Y-92811838D01*
X132367108Y-92749677D01*
X132356553Y-92716293D01*
X132352830Y-92713167D01*
X132339190Y-92694885D01*
X132333878Y-92654958D01*
X132326283Y-92569019D01*
X132303228Y-92519237D01*
X132262741Y-92501642D01*
X132257615Y-92501500D01*
X132219028Y-92494273D01*
X132207167Y-92481292D01*
X132188663Y-92464496D01*
X132143130Y-92449258D01*
X132133083Y-92447187D01*
X132084252Y-92433571D01*
X132059690Y-92417999D01*
X132059000Y-92415437D01*
X132040427Y-92400578D01*
X131994336Y-92386004D01*
X131979625Y-92382989D01*
X131924668Y-92368447D01*
X131889907Y-92351098D01*
X131886782Y-92347634D01*
X131853139Y-92329406D01*
X131801222Y-92329711D01*
X131749969Y-92346895D01*
X131730539Y-92361271D01*
X131691731Y-92388812D01*
X131668170Y-92395667D01*
X131636857Y-92412712D01*
X131628012Y-92427417D01*
X131604031Y-92455497D01*
X131591133Y-92459167D01*
X131561016Y-92473483D01*
X131520941Y-92508326D01*
X131517396Y-92512083D01*
X131478499Y-92548068D01*
X131449437Y-92564842D01*
X131447689Y-92565000D01*
X131417310Y-92578534D01*
X131394990Y-92597033D01*
X131350562Y-92625041D01*
X131301869Y-92641284D01*
X131275687Y-92643538D01*
X131248583Y-92636446D01*
X131214888Y-92615790D01*
X131168934Y-92577357D01*
X131105052Y-92516931D01*
X131017574Y-92430295D01*
X131015849Y-92428569D01*
X130925063Y-92336537D01*
X130862116Y-92268082D01*
X130824116Y-92217667D01*
X130808173Y-92179751D01*
X130811397Y-92148794D01*
X130830898Y-92119258D01*
X130846024Y-92103113D01*
X130869963Y-92063725D01*
X130873667Y-92044905D01*
X130885957Y-92017726D01*
X130895498Y-92014667D01*
X130920217Y-91997498D01*
X130930962Y-91977625D01*
X130955800Y-91936769D01*
X130993798Y-91893969D01*
X131028130Y-91855545D01*
X131042984Y-91827231D01*
X131043000Y-91826689D01*
X131056587Y-91797056D01*
X131079561Y-91769463D01*
X131102537Y-91727008D01*
X131114595Y-91667075D01*
X131114686Y-91606562D01*
X131101760Y-91562366D01*
X131092997Y-91553222D01*
X131068736Y-91522625D01*
X131055010Y-91490792D01*
X131035601Y-91453847D01*
X131018895Y-91443167D01*
X131009094Y-91434656D01*
X131026501Y-91414511D01*
X131060859Y-91390809D01*
X131101913Y-91371630D01*
X131114527Y-91367834D01*
X131155326Y-91351786D01*
X131170000Y-91335998D01*
X131188489Y-91320722D01*
X131233989Y-91306247D01*
X131244083Y-91304187D01*
X131292921Y-91290392D01*
X131317479Y-91274382D01*
X131318167Y-91271728D01*
X131336864Y-91257137D01*
X131383596Y-91243191D01*
X131402833Y-91239628D01*
X131455740Y-91227464D01*
X131485274Y-91213484D01*
X131487500Y-91209310D01*
X131505723Y-91193572D01*
X131549691Y-91178874D01*
X131551000Y-91178583D01*
X131595416Y-91163911D01*
X131614487Y-91147860D01*
X131614500Y-91147507D01*
X131632983Y-91132750D01*
X131678472Y-91118537D01*
X131688583Y-91116480D01*
X131737412Y-91102952D01*
X131761975Y-91087596D01*
X131762667Y-91085079D01*
X131781359Y-91071153D01*
X131828079Y-91057577D01*
X131847333Y-91054038D01*
X131900252Y-91041477D01*
X131929781Y-91026511D01*
X131932000Y-91021939D01*
X131950469Y-91006134D01*
X131995800Y-90991544D01*
X132004543Y-90989769D01*
X132055425Y-90974234D01*
X132084059Y-90954214D01*
X132085241Y-90951694D01*
X132102227Y-90948414D01*
X132132726Y-90967586D01*
X132164194Y-90998300D01*
X132184086Y-91029644D01*
X132186000Y-91039329D01*
X132200898Y-91066834D01*
X132238693Y-91110688D01*
X132289035Y-91161031D01*
X132341578Y-91208003D01*
X132385970Y-91241746D01*
X132409921Y-91252667D01*
X132437013Y-91263711D01*
X132440000Y-91272151D01*
X132458247Y-91289795D01*
X132502265Y-91305308D01*
X132503500Y-91305583D01*
X132547937Y-91320942D01*
X132566988Y-91338633D01*
X132567000Y-91339015D01*
X132586630Y-91347387D01*
X132639393Y-91353958D01*
X132716097Y-91357835D01*
X132768083Y-91358500D01*
X132854486Y-91356698D01*
X132922292Y-91351853D01*
X132962310Y-91344811D01*
X132969167Y-91340038D01*
X132987834Y-91325382D01*
X133034342Y-91311562D01*
X133051523Y-91308408D01*
X133107241Y-91292481D01*
X133142466Y-91269440D01*
X133146109Y-91263369D01*
X133169389Y-91235228D01*
X133181797Y-91231500D01*
X133212363Y-91216651D01*
X133255031Y-91180809D01*
X133296747Y-91137027D01*
X133324456Y-91098360D01*
X133329000Y-91084297D01*
X133345957Y-91057075D01*
X133360869Y-91048608D01*
X133384410Y-91021442D01*
X133402950Y-90969342D01*
X133405908Y-90954023D01*
X133418418Y-90901958D01*
X133433397Y-90873481D01*
X133437539Y-90871667D01*
X133445668Y-90852079D01*
X133451972Y-90799610D01*
X133455533Y-90723703D01*
X133456000Y-90681167D01*
X133454066Y-90597278D01*
X133448885Y-90532237D01*
X133441390Y-90495486D01*
X133437189Y-90490667D01*
X133421319Y-90472172D01*
X133406545Y-90426659D01*
X133404480Y-90416583D01*
X133390629Y-90367744D01*
X133374484Y-90343187D01*
X133371801Y-90342500D01*
X133351456Y-90324952D01*
X133338535Y-90296862D01*
X133312506Y-90250141D01*
X133269699Y-90201705D01*
X133223529Y-90164692D01*
X133190591Y-90152000D01*
X133160702Y-90134986D01*
X133152012Y-90120250D01*
X133124711Y-90092108D01*
X133109178Y-90088500D01*
X133076141Y-90073006D01*
X133069718Y-90062042D01*
X133046116Y-90051052D01*
X132990035Y-90042773D01*
X132911245Y-90037256D01*
X132819518Y-90034549D01*
X132724623Y-90034702D01*
X132636330Y-90037766D01*
X132564412Y-90043789D01*
X132518637Y-90052821D01*
X132508079Y-90059189D01*
X132477509Y-90083307D01*
X132441396Y-90098893D01*
X132405694Y-90119055D01*
X132354210Y-90158298D01*
X132296725Y-90207775D01*
X132243017Y-90258635D01*
X132202866Y-90302030D01*
X132186053Y-90329112D01*
X132186000Y-90329973D01*
X132168128Y-90367522D01*
X132126512Y-90399861D01*
X132079154Y-90414748D01*
X132063475Y-90413303D01*
X132026869Y-90397544D01*
X132016667Y-90384720D01*
X131998189Y-90370484D01*
X131952712Y-90356533D01*
X131942583Y-90354480D01*
X131893755Y-90340952D01*
X131869192Y-90325596D01*
X131868500Y-90323079D01*
X131849808Y-90309153D01*
X131803088Y-90295577D01*
X131783833Y-90292038D01*
X131730915Y-90279477D01*
X131701386Y-90264511D01*
X131699167Y-90259939D01*
X131680674Y-90244234D01*
X131635164Y-90229543D01*
X131625083Y-90227480D01*
X131576236Y-90213332D01*
X131551684Y-90196460D01*
X131551000Y-90193624D01*
X131532296Y-90178158D01*
X131485549Y-90163723D01*
X131466333Y-90160128D01*
X131413422Y-90147803D01*
X131383890Y-90133423D01*
X131381667Y-90129087D01*
X131363181Y-90114083D01*
X131317687Y-90099745D01*
X131307583Y-90097687D01*
X131258757Y-90084253D01*
X131234193Y-90069127D01*
X131233500Y-90066659D01*
X131215274Y-90050675D01*
X131171299Y-90035872D01*
X131170000Y-90035583D01*
X131125584Y-90020894D01*
X131106513Y-90004800D01*
X131106500Y-90004446D01*
X131088581Y-89987082D01*
X131053583Y-89973975D01*
X131010123Y-89954424D01*
X131004300Y-89930834D01*
X131032417Y-89911512D01*
X131060559Y-89884211D01*
X131064167Y-89868678D01*
X131079662Y-89835634D01*
X131090625Y-89829208D01*
X131110102Y-89803030D01*
X131118339Y-89751671D01*
X131116045Y-89690566D01*
X131103931Y-89635144D01*
X131082705Y-89600838D01*
X131080042Y-89599126D01*
X131049364Y-89571818D01*
X131043000Y-89555417D01*
X131028749Y-89526242D01*
X130994283Y-89487302D01*
X130992559Y-89485690D01*
X130951818Y-89438036D01*
X130927632Y-89393304D01*
X130908636Y-89357387D01*
X130893407Y-89347667D01*
X130875725Y-89330576D01*
X130873667Y-89316968D01*
X130857384Y-89279881D01*
X130844690Y-89269343D01*
X130814918Y-89235988D01*
X130803504Y-89210083D01*
X130805106Y-89186629D01*
X130823689Y-89152791D01*
X130862838Y-89104133D01*
X130926139Y-89036219D01*
X131017176Y-88944613D01*
X131021633Y-88940208D01*
X131130563Y-88835730D01*
X131213650Y-88763238D01*
X131271925Y-88722006D01*
X131306416Y-88711310D01*
X131318155Y-88730424D01*
X131318167Y-88731539D01*
X131336105Y-88750172D01*
X131371083Y-88763692D01*
X131410727Y-88780689D01*
X131424000Y-88797736D01*
X131440776Y-88816936D01*
X131451046Y-88818500D01*
X131484182Y-88833273D01*
X131514339Y-88860833D01*
X131552286Y-88892977D01*
X131580278Y-88903167D01*
X131613142Y-88920244D01*
X131622155Y-88934917D01*
X131650442Y-88963074D01*
X131666753Y-88966667D01*
X131695355Y-88977148D01*
X131699167Y-88986407D01*
X131716800Y-89007215D01*
X131746792Y-89021010D01*
X131790881Y-89042209D01*
X131809968Y-89059478D01*
X131823522Y-89070331D01*
X131825843Y-89056875D01*
X131844793Y-89037477D01*
X131891748Y-89020854D01*
X131910833Y-89017128D01*
X131963745Y-89004803D01*
X131993277Y-88990423D01*
X131995500Y-88986087D01*
X132013986Y-88971083D01*
X132059480Y-88956745D01*
X132069583Y-88954687D01*
X132118421Y-88940892D01*
X132142979Y-88924882D01*
X132143667Y-88922228D01*
X132162340Y-88907535D01*
X132208896Y-88893661D01*
X132226495Y-88890422D01*
X132282836Y-88874691D01*
X132315608Y-88843646D01*
X132330659Y-88787894D01*
X132333878Y-88717958D01*
X132339037Y-88671121D01*
X132351215Y-88649360D01*
X132352600Y-88649167D01*
X132362851Y-88629707D01*
X132373807Y-88577987D01*
X132383509Y-88503996D01*
X132385805Y-88479833D01*
X132394925Y-88401254D01*
X132406110Y-88342056D01*
X132417326Y-88312229D01*
X132420288Y-88310500D01*
X132435109Y-88292377D01*
X132440000Y-88257583D01*
X132440000Y-88204667D01*
X133135937Y-88204667D01*
X133150537Y-88352833D01*
X133159894Y-88425785D01*
X133170817Y-88478687D01*
X133181056Y-88500871D01*
X133181763Y-88501000D01*
X133191455Y-88520411D01*
X133202132Y-88571837D01*
X133211789Y-88645064D01*
X133213545Y-88662739D01*
X133229888Y-88774674D01*
X133255725Y-88849188D01*
X133293396Y-88890583D01*
X133344288Y-88903167D01*
X133381766Y-88910429D01*
X133392500Y-88922651D01*
X133410747Y-88940295D01*
X133454765Y-88955808D01*
X133456000Y-88956083D01*
X133500416Y-88970755D01*
X133519487Y-88986806D01*
X133519500Y-88987159D01*
X133537983Y-89001916D01*
X133583472Y-89016130D01*
X133593583Y-89018187D01*
X133642433Y-89032398D01*
X133666983Y-89049424D01*
X133667667Y-89052292D01*
X133685787Y-89067485D01*
X133720583Y-89072500D01*
X133760362Y-89065254D01*
X133773500Y-89051333D01*
X133790268Y-89031763D01*
X133800546Y-89030167D01*
X133833682Y-89015394D01*
X133863839Y-88987833D01*
X133901786Y-88955689D01*
X133929778Y-88945500D01*
X133962642Y-88928422D01*
X133971655Y-88913750D01*
X133999942Y-88885592D01*
X134016253Y-88882000D01*
X134044847Y-88870985D01*
X134048667Y-88861236D01*
X134066590Y-88841012D01*
X134100052Y-88827576D01*
X134143957Y-88806661D01*
X134162888Y-88784840D01*
X134191444Y-88758013D01*
X134206753Y-88755000D01*
X134235344Y-88743775D01*
X134239167Y-88733833D01*
X134251939Y-88709466D01*
X134289690Y-88718089D01*
X134351574Y-88759149D01*
X134436746Y-88832091D01*
X134536330Y-88928272D01*
X134621097Y-89014340D01*
X134679670Y-89076889D01*
X134716339Y-89121776D01*
X134735392Y-89154856D01*
X134741117Y-89181988D01*
X134738725Y-89204667D01*
X134718815Y-89260939D01*
X134694534Y-89297490D01*
X134668205Y-89335908D01*
X134662500Y-89357497D01*
X134645455Y-89388810D01*
X134630750Y-89397654D01*
X134602593Y-89425942D01*
X134599000Y-89442252D01*
X134587985Y-89470847D01*
X134578237Y-89474667D01*
X134558013Y-89492590D01*
X134544577Y-89526052D01*
X134523661Y-89569957D01*
X134501840Y-89588887D01*
X134474988Y-89612384D01*
X134472000Y-89623681D01*
X134458335Y-89656017D01*
X134437972Y-89681052D01*
X134419415Y-89721929D01*
X134413732Y-89782047D01*
X134420202Y-89843347D01*
X134438099Y-89887767D01*
X134446569Y-89895759D01*
X134464570Y-89923668D01*
X134480826Y-89973883D01*
X134481606Y-89977375D01*
X134496191Y-90023999D01*
X134511849Y-90045924D01*
X134513310Y-90046167D01*
X134526835Y-90064841D01*
X134540120Y-90111454D01*
X134543462Y-90129792D01*
X134556834Y-90213417D01*
X134683750Y-90227776D01*
X134750619Y-90237838D01*
X134796602Y-90249534D01*
X134810667Y-90258667D01*
X134830177Y-90267757D01*
X134882245Y-90277806D01*
X134957181Y-90287117D01*
X134990583Y-90290187D01*
X135071829Y-90298978D01*
X135133990Y-90309558D01*
X135167374Y-90320113D01*
X135170500Y-90323837D01*
X135188250Y-90339007D01*
X135212833Y-90342500D01*
X135228507Y-90344442D01*
X135239745Y-90354282D01*
X135247285Y-90378044D01*
X135251860Y-90421750D01*
X135254208Y-90491421D01*
X135255063Y-90593082D01*
X135255167Y-90689104D01*
X135255167Y-91035708D01*
X135189021Y-91048937D01*
D15*
X149810000Y-87670000D02*
X149810000Y-86908000D01*
X149810000Y-86908000D02*
X139650000Y-86908000D01*
X139650000Y-86908000D02*
X139650000Y-87670000D01*
X149810000Y-96052000D02*
X139650000Y-96052000D01*
X139650000Y-96052000D02*
X139650000Y-95036000D01*
X139650000Y-95036000D02*
X149810000Y-95036000D01*
X149810000Y-95036000D02*
X149810000Y-96052000D01*
X149810000Y-95290000D02*
X149810000Y-87670000D01*
X139650000Y-87670000D02*
X139650000Y-95290000D01*
X160430000Y-87690000D02*
X160430000Y-86928000D01*
X160430000Y-86928000D02*
X150270000Y-86928000D01*
X150270000Y-86928000D02*
X150270000Y-87690000D01*
X160430000Y-96072000D02*
X150270000Y-96072000D01*
X150270000Y-96072000D02*
X150270000Y-95056000D01*
X150270000Y-95056000D02*
X160430000Y-95056000D01*
X160430000Y-95056000D02*
X160430000Y-96072000D01*
X160430000Y-95310000D02*
X160430000Y-87690000D01*
X150270000Y-87690000D02*
X150270000Y-95310000D01*
D12*
X129650000Y-103600000D02*
X129650000Y-121380000D01*
X129650000Y-121380000D02*
X134730000Y-121380000D01*
X134730000Y-121380000D02*
X134730000Y-101060000D01*
X134730000Y-101060000D02*
X132190000Y-101060000D01*
X130920000Y-100780000D02*
X129370000Y-100780000D01*
X132190000Y-101060000D02*
X132190000Y-103600000D01*
X132190000Y-103600000D02*
X129650000Y-103600000D01*
X129370000Y-100780000D02*
X129370000Y-102330000D01*
D13*
X130325722Y-96410277D02*
G75*
G03X125714420Y-96410000I-2305722J-1179723D01*
G01*
X130325722Y-98769723D02*
G75*
G02X125714420Y-98770000I-2305722J1179723D01*
G01*
X130325722Y-98769723D02*
G75*
G03X130325580Y-96410000I-2305722J1179723D01*
G01*
X128020000Y-95040000D02*
X128020000Y-100140000D01*
X128060000Y-95040000D02*
X128060000Y-100140000D01*
X128100000Y-95041000D02*
X128100000Y-100139000D01*
X128140000Y-95042000D02*
X128140000Y-100138000D01*
X128180000Y-95044000D02*
X128180000Y-100136000D01*
X128220000Y-95047000D02*
X128220000Y-100133000D01*
X128260000Y-95051000D02*
X128260000Y-100129000D01*
X128300000Y-95055000D02*
X128300000Y-96610000D01*
X128300000Y-98570000D02*
X128300000Y-100125000D01*
X128340000Y-95059000D02*
X128340000Y-96610000D01*
X128340000Y-98570000D02*
X128340000Y-100121000D01*
X128380000Y-95065000D02*
X128380000Y-96610000D01*
X128380000Y-98570000D02*
X128380000Y-100115000D01*
X128420000Y-95071000D02*
X128420000Y-96610000D01*
X128420000Y-98570000D02*
X128420000Y-100109000D01*
X128460000Y-95077000D02*
X128460000Y-96610000D01*
X128460000Y-98570000D02*
X128460000Y-100103000D01*
X128500000Y-95084000D02*
X128500000Y-96610000D01*
X128500000Y-98570000D02*
X128500000Y-100096000D01*
X128540000Y-95092000D02*
X128540000Y-96610000D01*
X128540000Y-98570000D02*
X128540000Y-100088000D01*
X128580000Y-95101000D02*
X128580000Y-96610000D01*
X128580000Y-98570000D02*
X128580000Y-100079000D01*
X128620000Y-95110000D02*
X128620000Y-96610000D01*
X128620000Y-98570000D02*
X128620000Y-100070000D01*
X128660000Y-95120000D02*
X128660000Y-96610000D01*
X128660000Y-98570000D02*
X128660000Y-100060000D01*
X128700000Y-95130000D02*
X128700000Y-96610000D01*
X128700000Y-98570000D02*
X128700000Y-100050000D01*
X128741000Y-95142000D02*
X128741000Y-96610000D01*
X128741000Y-98570000D02*
X128741000Y-100038000D01*
X128781000Y-95154000D02*
X128781000Y-96610000D01*
X128781000Y-98570000D02*
X128781000Y-100026000D01*
X128821000Y-95166000D02*
X128821000Y-96610000D01*
X128821000Y-98570000D02*
X128821000Y-100014000D01*
X128861000Y-95180000D02*
X128861000Y-96610000D01*
X128861000Y-98570000D02*
X128861000Y-100000000D01*
X128901000Y-95194000D02*
X128901000Y-96610000D01*
X128901000Y-98570000D02*
X128901000Y-99986000D01*
X128941000Y-95208000D02*
X128941000Y-96610000D01*
X128941000Y-98570000D02*
X128941000Y-99972000D01*
X128981000Y-95224000D02*
X128981000Y-96610000D01*
X128981000Y-98570000D02*
X128981000Y-99956000D01*
X129021000Y-95240000D02*
X129021000Y-96610000D01*
X129021000Y-98570000D02*
X129021000Y-99940000D01*
X129061000Y-95257000D02*
X129061000Y-96610000D01*
X129061000Y-98570000D02*
X129061000Y-99923000D01*
X129101000Y-95275000D02*
X129101000Y-96610000D01*
X129101000Y-98570000D02*
X129101000Y-99905000D01*
X129141000Y-95294000D02*
X129141000Y-96610000D01*
X129141000Y-98570000D02*
X129141000Y-99886000D01*
X129181000Y-95314000D02*
X129181000Y-96610000D01*
X129181000Y-98570000D02*
X129181000Y-99866000D01*
X129221000Y-95334000D02*
X129221000Y-96610000D01*
X129221000Y-98570000D02*
X129221000Y-99846000D01*
X129261000Y-95356000D02*
X129261000Y-96610000D01*
X129261000Y-98570000D02*
X129261000Y-99824000D01*
X129301000Y-95378000D02*
X129301000Y-96610000D01*
X129301000Y-98570000D02*
X129301000Y-99802000D01*
X129341000Y-95401000D02*
X129341000Y-96610000D01*
X129341000Y-98570000D02*
X129341000Y-99779000D01*
X129381000Y-95425000D02*
X129381000Y-96610000D01*
X129381000Y-98570000D02*
X129381000Y-99755000D01*
X129421000Y-95450000D02*
X129421000Y-96610000D01*
X129421000Y-98570000D02*
X129421000Y-99730000D01*
X129461000Y-95477000D02*
X129461000Y-96610000D01*
X129461000Y-98570000D02*
X129461000Y-99703000D01*
X129501000Y-95504000D02*
X129501000Y-96610000D01*
X129501000Y-98570000D02*
X129501000Y-99676000D01*
X129541000Y-95532000D02*
X129541000Y-96610000D01*
X129541000Y-98570000D02*
X129541000Y-99648000D01*
X129581000Y-95562000D02*
X129581000Y-96610000D01*
X129581000Y-98570000D02*
X129581000Y-99618000D01*
X129621000Y-95593000D02*
X129621000Y-96610000D01*
X129621000Y-98570000D02*
X129621000Y-99587000D01*
X129661000Y-95625000D02*
X129661000Y-96610000D01*
X129661000Y-98570000D02*
X129661000Y-99555000D01*
X129701000Y-95658000D02*
X129701000Y-96610000D01*
X129701000Y-98570000D02*
X129701000Y-99522000D01*
X129741000Y-95693000D02*
X129741000Y-96610000D01*
X129741000Y-98570000D02*
X129741000Y-99487000D01*
X129781000Y-95729000D02*
X129781000Y-96610000D01*
X129781000Y-98570000D02*
X129781000Y-99451000D01*
X129821000Y-95767000D02*
X129821000Y-96610000D01*
X129821000Y-98570000D02*
X129821000Y-99413000D01*
X129861000Y-95807000D02*
X129861000Y-96610000D01*
X129861000Y-98570000D02*
X129861000Y-99373000D01*
X129901000Y-95848000D02*
X129901000Y-96610000D01*
X129901000Y-98570000D02*
X129901000Y-99332000D01*
X129941000Y-95891000D02*
X129941000Y-96610000D01*
X129941000Y-98570000D02*
X129941000Y-99289000D01*
X129981000Y-95936000D02*
X129981000Y-96610000D01*
X129981000Y-98570000D02*
X129981000Y-99244000D01*
X130021000Y-95984000D02*
X130021000Y-96610000D01*
X130021000Y-98570000D02*
X130021000Y-99196000D01*
X130061000Y-96034000D02*
X130061000Y-96610000D01*
X130061000Y-98570000D02*
X130061000Y-99146000D01*
X130101000Y-96086000D02*
X130101000Y-96610000D01*
X130101000Y-98570000D02*
X130101000Y-99094000D01*
X130141000Y-96142000D02*
X130141000Y-96610000D01*
X130141000Y-98570000D02*
X130141000Y-99038000D01*
X130181000Y-96200000D02*
X130181000Y-96610000D01*
X130181000Y-98570000D02*
X130181000Y-98980000D01*
X130221000Y-96263000D02*
X130221000Y-96610000D01*
X130221000Y-98570000D02*
X130221000Y-98917000D01*
X130261000Y-96329000D02*
X130261000Y-98851000D01*
X130301000Y-96401000D02*
X130301000Y-98779000D01*
X130341000Y-96478000D02*
X130341000Y-98702000D01*
X130381000Y-96562000D02*
X130381000Y-98618000D01*
X130421000Y-96656000D02*
X130421000Y-98524000D01*
X130461000Y-96761000D02*
X130461000Y-98419000D01*
X130501000Y-96883000D02*
X130501000Y-98297000D01*
X130541000Y-97031000D02*
X130541000Y-98149000D01*
X130581000Y-97236000D02*
X130581000Y-97944000D01*
X124570000Y-97590000D02*
X125770000Y-97590000D01*
X125170000Y-96940000D02*
X125170000Y-98240000D01*
X131454278Y-98769723D02*
G75*
G03X136065580Y-98770000I2305722J1179723D01*
G01*
X131454278Y-96410277D02*
G75*
G02X136065580Y-96410000I2305722J-1179723D01*
G01*
X131454278Y-96410277D02*
G75*
G03X131454420Y-98770000I2305722J-1179723D01*
G01*
X133760000Y-100140000D02*
X133760000Y-95040000D01*
X133720000Y-100140000D02*
X133720000Y-95040000D01*
X133680000Y-100139000D02*
X133680000Y-95041000D01*
X133640000Y-100138000D02*
X133640000Y-95042000D01*
X133600000Y-100136000D02*
X133600000Y-95044000D01*
X133560000Y-100133000D02*
X133560000Y-95047000D01*
X133520000Y-100129000D02*
X133520000Y-95051000D01*
X133480000Y-100125000D02*
X133480000Y-98570000D01*
X133480000Y-96610000D02*
X133480000Y-95055000D01*
X133440000Y-100121000D02*
X133440000Y-98570000D01*
X133440000Y-96610000D02*
X133440000Y-95059000D01*
X133400000Y-100115000D02*
X133400000Y-98570000D01*
X133400000Y-96610000D02*
X133400000Y-95065000D01*
X133360000Y-100109000D02*
X133360000Y-98570000D01*
X133360000Y-96610000D02*
X133360000Y-95071000D01*
X133320000Y-100103000D02*
X133320000Y-98570000D01*
X133320000Y-96610000D02*
X133320000Y-95077000D01*
X133280000Y-100096000D02*
X133280000Y-98570000D01*
X133280000Y-96610000D02*
X133280000Y-95084000D01*
X133240000Y-100088000D02*
X133240000Y-98570000D01*
X133240000Y-96610000D02*
X133240000Y-95092000D01*
X133200000Y-100079000D02*
X133200000Y-98570000D01*
X133200000Y-96610000D02*
X133200000Y-95101000D01*
X133160000Y-100070000D02*
X133160000Y-98570000D01*
X133160000Y-96610000D02*
X133160000Y-95110000D01*
X133120000Y-100060000D02*
X133120000Y-98570000D01*
X133120000Y-96610000D02*
X133120000Y-95120000D01*
X133080000Y-100050000D02*
X133080000Y-98570000D01*
X133080000Y-96610000D02*
X133080000Y-95130000D01*
X133039000Y-100038000D02*
X133039000Y-98570000D01*
X133039000Y-96610000D02*
X133039000Y-95142000D01*
X132999000Y-100026000D02*
X132999000Y-98570000D01*
X132999000Y-96610000D02*
X132999000Y-95154000D01*
X132959000Y-100014000D02*
X132959000Y-98570000D01*
X132959000Y-96610000D02*
X132959000Y-95166000D01*
X132919000Y-100000000D02*
X132919000Y-98570000D01*
X132919000Y-96610000D02*
X132919000Y-95180000D01*
X132879000Y-99986000D02*
X132879000Y-98570000D01*
X132879000Y-96610000D02*
X132879000Y-95194000D01*
X132839000Y-99972000D02*
X132839000Y-98570000D01*
X132839000Y-96610000D02*
X132839000Y-95208000D01*
X132799000Y-99956000D02*
X132799000Y-98570000D01*
X132799000Y-96610000D02*
X132799000Y-95224000D01*
X132759000Y-99940000D02*
X132759000Y-98570000D01*
X132759000Y-96610000D02*
X132759000Y-95240000D01*
X132719000Y-99923000D02*
X132719000Y-98570000D01*
X132719000Y-96610000D02*
X132719000Y-95257000D01*
X132679000Y-99905000D02*
X132679000Y-98570000D01*
X132679000Y-96610000D02*
X132679000Y-95275000D01*
X132639000Y-99886000D02*
X132639000Y-98570000D01*
X132639000Y-96610000D02*
X132639000Y-95294000D01*
X132599000Y-99866000D02*
X132599000Y-98570000D01*
X132599000Y-96610000D02*
X132599000Y-95314000D01*
X132559000Y-99846000D02*
X132559000Y-98570000D01*
X132559000Y-96610000D02*
X132559000Y-95334000D01*
X132519000Y-99824000D02*
X132519000Y-98570000D01*
X132519000Y-96610000D02*
X132519000Y-95356000D01*
X132479000Y-99802000D02*
X132479000Y-98570000D01*
X132479000Y-96610000D02*
X132479000Y-95378000D01*
X132439000Y-99779000D02*
X132439000Y-98570000D01*
X132439000Y-96610000D02*
X132439000Y-95401000D01*
X132399000Y-99755000D02*
X132399000Y-98570000D01*
X132399000Y-96610000D02*
X132399000Y-95425000D01*
X132359000Y-99730000D02*
X132359000Y-98570000D01*
X132359000Y-96610000D02*
X132359000Y-95450000D01*
X132319000Y-99703000D02*
X132319000Y-98570000D01*
X132319000Y-96610000D02*
X132319000Y-95477000D01*
X132279000Y-99676000D02*
X132279000Y-98570000D01*
X132279000Y-96610000D02*
X132279000Y-95504000D01*
X132239000Y-99648000D02*
X132239000Y-98570000D01*
X132239000Y-96610000D02*
X132239000Y-95532000D01*
X132199000Y-99618000D02*
X132199000Y-98570000D01*
X132199000Y-96610000D02*
X132199000Y-95562000D01*
X132159000Y-99587000D02*
X132159000Y-98570000D01*
X132159000Y-96610000D02*
X132159000Y-95593000D01*
X132119000Y-99555000D02*
X132119000Y-98570000D01*
X132119000Y-96610000D02*
X132119000Y-95625000D01*
X132079000Y-99522000D02*
X132079000Y-98570000D01*
X132079000Y-96610000D02*
X132079000Y-95658000D01*
X132039000Y-99487000D02*
X132039000Y-98570000D01*
X132039000Y-96610000D02*
X132039000Y-95693000D01*
X131999000Y-99451000D02*
X131999000Y-98570000D01*
X131999000Y-96610000D02*
X131999000Y-95729000D01*
X131959000Y-99413000D02*
X131959000Y-98570000D01*
X131959000Y-96610000D02*
X131959000Y-95767000D01*
X131919000Y-99373000D02*
X131919000Y-98570000D01*
X131919000Y-96610000D02*
X131919000Y-95807000D01*
X131879000Y-99332000D02*
X131879000Y-98570000D01*
X131879000Y-96610000D02*
X131879000Y-95848000D01*
X131839000Y-99289000D02*
X131839000Y-98570000D01*
X131839000Y-96610000D02*
X131839000Y-95891000D01*
X131799000Y-99244000D02*
X131799000Y-98570000D01*
X131799000Y-96610000D02*
X131799000Y-95936000D01*
X131759000Y-99196000D02*
X131759000Y-98570000D01*
X131759000Y-96610000D02*
X131759000Y-95984000D01*
X131719000Y-99146000D02*
X131719000Y-98570000D01*
X131719000Y-96610000D02*
X131719000Y-96034000D01*
X131679000Y-99094000D02*
X131679000Y-98570000D01*
X131679000Y-96610000D02*
X131679000Y-96086000D01*
X131639000Y-99038000D02*
X131639000Y-98570000D01*
X131639000Y-96610000D02*
X131639000Y-96142000D01*
X131599000Y-98980000D02*
X131599000Y-98570000D01*
X131599000Y-96610000D02*
X131599000Y-96200000D01*
X131559000Y-98917000D02*
X131559000Y-98570000D01*
X131559000Y-96610000D02*
X131559000Y-96263000D01*
X131519000Y-98851000D02*
X131519000Y-96329000D01*
X131479000Y-98779000D02*
X131479000Y-96401000D01*
X131439000Y-98702000D02*
X131439000Y-96478000D01*
X131399000Y-98618000D02*
X131399000Y-96562000D01*
X131359000Y-98524000D02*
X131359000Y-96656000D01*
X131319000Y-98419000D02*
X131319000Y-96761000D01*
X131279000Y-98297000D02*
X131279000Y-96883000D01*
X131239000Y-98149000D02*
X131239000Y-97031000D01*
X131199000Y-97944000D02*
X131199000Y-97236000D01*
X137210000Y-97590000D02*
X136010000Y-97590000D01*
X136610000Y-98240000D02*
X136610000Y-96940000D01*
X142910000Y-98540000D02*
X142910000Y-108780000D01*
X158800000Y-98540000D02*
X158800000Y-108780000D01*
X158800000Y-98540000D02*
X142910000Y-98540000D01*
X158800000Y-108780000D02*
X142910000Y-108780000D01*
X142910000Y-101120000D02*
X140270000Y-101120000D01*
X142910000Y-103660000D02*
X140286000Y-103660000D01*
X142910000Y-106200000D02*
X140286000Y-106200000D01*
X142780000Y-113090000D02*
X142780000Y-123330000D01*
X158670000Y-113090000D02*
X158670000Y-123330000D01*
X158670000Y-113090000D02*
X142780000Y-113090000D01*
X158670000Y-123330000D02*
X142780000Y-123330000D01*
X142780000Y-115670000D02*
X140140000Y-115670000D01*
X142780000Y-118210000D02*
X140156000Y-118210000D01*
X142780000Y-120750000D02*
X140156000Y-120750000D01*
D12*
X141913334Y-111402381D02*
X141580000Y-110926190D01*
X141341905Y-111402381D02*
X141341905Y-110402381D01*
X141722858Y-110402381D01*
X141818096Y-110450000D01*
X141865715Y-110497619D01*
X141913334Y-110592857D01*
X141913334Y-110735714D01*
X141865715Y-110830952D01*
X141818096Y-110878571D01*
X141722858Y-110926190D01*
X141341905Y-110926190D01*
X142865715Y-111402381D02*
X142294286Y-111402381D01*
X142580000Y-111402381D02*
X142580000Y-110402381D01*
X142484762Y-110545238D01*
X142389524Y-110640476D01*
X142294286Y-110688095D01*
D16*
X142838000Y-87675429D02*
X143346000Y-89199429D01*
X143854000Y-87675429D01*
X145232857Y-89054286D02*
X145160286Y-89126857D01*
X144942572Y-89199429D01*
X144797429Y-89199429D01*
X144579714Y-89126857D01*
X144434572Y-88981714D01*
X144362000Y-88836571D01*
X144289429Y-88546286D01*
X144289429Y-88328571D01*
X144362000Y-88038286D01*
X144434572Y-87893143D01*
X144579714Y-87748000D01*
X144797429Y-87675429D01*
X144942572Y-87675429D01*
X145160286Y-87748000D01*
X145232857Y-87820571D01*
X146756857Y-89054286D02*
X146684286Y-89126857D01*
X146466572Y-89199429D01*
X146321429Y-89199429D01*
X146103714Y-89126857D01*
X145958572Y-88981714D01*
X145886000Y-88836571D01*
X145813429Y-88546286D01*
X145813429Y-88328571D01*
X145886000Y-88038286D01*
X145958572Y-87893143D01*
X146103714Y-87748000D01*
X146321429Y-87675429D01*
X146466572Y-87675429D01*
X146684286Y-87748000D01*
X146756857Y-87820571D01*
X154310286Y-89259429D02*
X153584572Y-89259429D01*
X153584572Y-87735429D01*
X154818286Y-88461143D02*
X155326286Y-88461143D01*
X155544000Y-89259429D02*
X154818286Y-89259429D01*
X154818286Y-87735429D01*
X155544000Y-87735429D01*
X156197143Y-89259429D02*
X156197143Y-87735429D01*
X156560000Y-87735429D01*
X156777715Y-87808000D01*
X156922857Y-87953143D01*
X156995429Y-88098286D01*
X157068000Y-88388571D01*
X157068000Y-88606286D01*
X156995429Y-88896571D01*
X156922857Y-89041714D01*
X156777715Y-89186857D01*
X156560000Y-89259429D01*
X156197143Y-89259429D01*
D12*
X129664762Y-122552381D02*
X129664762Y-121552381D01*
X129998096Y-122266667D01*
X130331429Y-121552381D01*
X130331429Y-122552381D01*
X130712381Y-121885714D02*
X130950476Y-122552381D01*
X131188572Y-121885714D02*
X130950476Y-122552381D01*
X130855238Y-122790476D01*
X130807619Y-122838095D01*
X130712381Y-122885714D01*
X131521905Y-122504762D02*
X131617143Y-122552381D01*
X131807619Y-122552381D01*
X131902858Y-122504762D01*
X131950477Y-122409524D01*
X131950477Y-122361905D01*
X131902858Y-122266667D01*
X131807619Y-122219048D01*
X131664762Y-122219048D01*
X131569524Y-122171429D01*
X131521905Y-122076190D01*
X131521905Y-122028571D01*
X131569524Y-121933333D01*
X131664762Y-121885714D01*
X131807619Y-121885714D01*
X131902858Y-121933333D01*
X132283810Y-121552381D02*
X132950477Y-122552381D01*
X132950477Y-121552381D02*
X132283810Y-122552381D01*
X126633334Y-96067143D02*
X126585715Y-96114762D01*
X126442858Y-96162381D01*
X126347620Y-96162381D01*
X126204762Y-96114762D01*
X126109524Y-96019524D01*
X126061905Y-95924286D01*
X126014286Y-95733810D01*
X126014286Y-95590952D01*
X126061905Y-95400476D01*
X126109524Y-95305238D01*
X126204762Y-95210000D01*
X126347620Y-95162381D01*
X126442858Y-95162381D01*
X126585715Y-95210000D01*
X126633334Y-95257619D01*
X127585715Y-96162381D02*
X127014286Y-96162381D01*
X127300000Y-96162381D02*
X127300000Y-95162381D01*
X127204762Y-95305238D01*
X127109524Y-95400476D01*
X127014286Y-95448095D01*
X135023334Y-96097143D02*
X134975715Y-96144762D01*
X134832858Y-96192381D01*
X134737620Y-96192381D01*
X134594762Y-96144762D01*
X134499524Y-96049524D01*
X134451905Y-95954286D01*
X134404286Y-95763810D01*
X134404286Y-95620952D01*
X134451905Y-95430476D01*
X134499524Y-95335238D01*
X134594762Y-95240000D01*
X134737620Y-95192381D01*
X134832858Y-95192381D01*
X134975715Y-95240000D01*
X135023334Y-95287619D01*
X135404286Y-95287619D02*
X135451905Y-95240000D01*
X135547143Y-95192381D01*
X135785239Y-95192381D01*
X135880477Y-95240000D01*
X135928096Y-95287619D01*
X135975715Y-95382857D01*
X135975715Y-95478095D01*
X135928096Y-95620952D01*
X135356667Y-96192381D01*
X135975715Y-96192381D01*
X139014762Y-108757619D02*
X138919524Y-108710000D01*
X138824286Y-108614762D01*
X138681429Y-108471905D01*
X138586190Y-108424286D01*
X138490952Y-108424286D01*
X138538571Y-108662381D02*
X138443333Y-108614762D01*
X138348095Y-108519524D01*
X138300476Y-108329048D01*
X138300476Y-107995714D01*
X138348095Y-107805238D01*
X138443333Y-107710000D01*
X138538571Y-107662381D01*
X138729048Y-107662381D01*
X138824286Y-107710000D01*
X138919524Y-107805238D01*
X138967143Y-107995714D01*
X138967143Y-108329048D01*
X138919524Y-108519524D01*
X138824286Y-108614762D01*
X138729048Y-108662381D01*
X138538571Y-108662381D01*
X139919524Y-108662381D02*
X139348095Y-108662381D01*
X139633809Y-108662381D02*
X139633809Y-107662381D01*
X139538571Y-107805238D01*
X139443333Y-107900476D01*
X139348095Y-107948095D01*
X138218095Y-122212381D02*
X138218095Y-123021905D01*
X138265714Y-123117143D01*
X138313333Y-123164762D01*
X138408571Y-123212381D01*
X138599048Y-123212381D01*
X138694286Y-123164762D01*
X138741905Y-123117143D01*
X138789524Y-123021905D01*
X138789524Y-122212381D01*
X139789524Y-123212381D02*
X139218095Y-123212381D01*
X139503809Y-123212381D02*
X139503809Y-122212381D01*
X139408571Y-122355238D01*
X139313333Y-122450476D01*
X139218095Y-122498095D01*
M02*
