M48
INCH,TZ
T1C0.012
T2C0.031
T3C0.039
T4C0.040
T5C0.049
T6C0.138
%
G90
G05
T1
X56626Y-39248
X56626Y-40035
X56626Y-40823
X56626Y-41610
X56626Y-42398
X56626Y-44980
X56626Y-45768
X56626Y-46555
X56626Y-47343
X56626Y-48130
X57413Y-39248
X57413Y-40035
X57413Y-40823
X57413Y-41610
X57413Y-42398
X57413Y-44980
X57413Y-45768
X57413Y-46555
X57413Y-47343
X57413Y-48130
X58201Y-39248
X58201Y-40035
X58201Y-40823
X58201Y-41610
X58201Y-42398
X58201Y-44980
X58201Y-45768
X58201Y-46555
X58201Y-47343
X58201Y-48130
X58988Y-39248
X58988Y-40035
X58988Y-40823
X58988Y-41610
X58988Y-42398
X58988Y-44980
X58988Y-45768
X58988Y-46555
X58988Y-47343
X58988Y-48130
X59776Y-39248
X59776Y-40035
X59776Y-40823
X59776Y-41610
X59776Y-42398
X59776Y-44980
X59776Y-45768
X59776Y-46555
X59776Y-47343
X59776Y-48130
X60563Y-39248
X60563Y-40035
X60563Y-41610
X60563Y-42398
X60563Y-44980
X60563Y-45768
X60563Y-47343
X60563Y-48130
X61350Y-39248
X61350Y-42398
X61350Y-44980
X61350Y-48130
X62138Y-39248
X62138Y-40035
X62138Y-41610
X62138Y-42398
X62138Y-44980
X62138Y-45768
X62138Y-47343
X62138Y-48130
T2
X49909Y-38421
X50894Y-38421
X52169Y-38421
X53154Y-38421
X54752Y-43665
X58752Y-43665
T3
X54760Y-45539
X54760Y-46539
X54760Y-47539
X54811Y-39811
X54811Y-40811
X54811Y-41811
T4
X51543Y-40287
X51543Y-41287
X51543Y-42287
X51543Y-43287
X51543Y-44287
X51543Y-45287
X51543Y-46287
X51543Y-47287
X52543Y-40287
X52543Y-41287
X52543Y-42287
X52543Y-43287
X52543Y-44287
X52543Y-45287
X52543Y-46287
X52543Y-47287
T5
X55980Y-36016
X57980Y-36016
X60161Y-36024
X62161Y-36024
T6
X61319Y-46539
X61370Y-40811
T0
M30
